<svg width="623" height="148" viewBox="0 0 623 148" fill="none" xmlns="http://www.w3.org/2000/svg">
<path d="M140.039 107.388C148.226 91.1971 150.178 72.5626 145.526 55.026C140.874 37.4894 129.942 22.273 114.807 12.2681C99.6713 2.26328 81.388 -1.83265 63.4309 0.758664C45.4738 3.34998 29.0944 12.4479 17.4052 26.3237C5.71607 40.1994 -0.468179 57.8859 0.0276377 76.0223C0.523455 94.1586 7.66479 111.481 20.0946 124.697C32.5244 137.914 49.3764 146.103 67.4482 147.709C85.5201 149.316 103.552 144.227 118.118 133.41L103.905 114.27C94.0317 121.602 81.8088 125.052 69.559 123.963C57.3092 122.874 45.8863 117.323 37.4609 108.364C29.0356 99.4059 24.1949 87.6643 23.8588 75.3708C23.5227 63.0773 27.7146 51.0887 35.638 41.6832C43.5613 32.2777 54.6639 26.1108 66.8358 24.3543C79.0078 22.5978 91.401 25.3742 101.66 32.1559C111.919 38.9375 119.33 49.2518 122.483 61.1387C125.636 73.0257 124.313 85.6568 118.764 96.6319L140.039 107.388Z" fill="#62DD28"/>
<path d="M110 74C110 78.7276 109.069 83.4089 107.26 87.7766C105.451 92.1443 102.799 96.113 99.4559 99.4559C96.113 102.799 92.1443 105.451 87.7766 107.26C83.4089 109.069 78.7276 110 74 110C69.2724 110 64.5911 109.069 60.2234 107.26C55.8557 105.451 51.8871 102.799 48.5442 99.4559C45.2012 96.113 42.5495 92.1443 40.7403 87.7766C38.9312 83.4089 38 78.7276 38 74L74 74H110Z" fill="#F54F4F"/>
<path d="M247.104 121.28C244.032 121.28 241.813 120.64 240.448 119.36C239.083 117.995 238.4 116.032 238.4 113.472V110.656C236.352 113.472 233.28 115.989 229.184 118.208C225.088 120.341 220.949 121.408 216.768 121.408C208.405 121.408 202.432 119.36 198.848 115.264C195.349 111.083 193.6 104.128 193.6 94.4V58.816L187.584 57.152V48.96L211.648 47.296H211.776L214.592 49.088V94.912C214.592 100.459 215.275 104.341 216.64 106.56C218.005 108.693 220.437 109.76 223.936 109.76C228.715 109.76 232.725 108.139 235.968 104.896V58.816L228.032 56.896V48.96L253.376 47.296H253.76L256.832 49.088V111.168H263.616V119.36C260.715 119.957 258.027 120.427 255.552 120.768C253.163 121.109 250.347 121.28 247.104 121.28ZM276.359 62.272L268.807 59.968V49.984L292.103 47.168H292.487L295.815 49.856V54.592L295.687 57.536C298.674 54.72 302.471 52.3307 307.079 50.368C311.687 48.4053 316.508 47.424 321.543 47.424C326.663 47.424 330.674 48.3627 333.575 50.24C336.562 52.032 338.695 54.9333 339.975 58.944C341.34 62.9547 342.023 68.416 342.023 75.328V110.4L349.191 111.424V120H314.375V111.552L320.647 110.4V75.456C320.647 71.36 320.348 68.2027 319.751 65.984C319.239 63.68 318.3 62.016 316.935 60.992C315.57 59.968 313.607 59.456 311.047 59.456C307.122 59.456 302.684 61.2907 297.735 64.96V110.4L304.775 111.552V120H269.319V111.552L276.359 110.4V62.272Z" fill="#62DD28"/>
<path d="M353.723 84.928C353.723 77.3333 355.259 70.6773 358.331 64.96C361.403 59.2427 365.712 54.848 371.259 51.776C376.806 48.6187 383.206 47.04 390.459 47.04C394.043 47.04 397.115 47.296 399.675 47.808C402.32 48.2347 405.008 48.8747 407.739 49.728C410.214 50.4107 411.75 50.7947 412.347 50.88L411.451 74.048H398.523L395.195 59.328C394.939 58.2187 394.214 57.4507 393.019 57.024C391.91 56.512 390.544 56.256 388.923 56.256C384.912 56.256 381.755 58.2187 379.451 62.144C377.232 66.0693 376.123 72.5973 376.123 81.728C376.123 90.432 377.531 97.1307 380.347 101.824C383.248 106.432 387.131 108.736 391.995 108.736C398.31 108.736 404.112 107.115 409.403 103.872L412.859 111.424C410.811 113.728 407.44 115.989 402.747 118.208C398.054 120.341 392.848 121.408 387.131 121.408C375.952 121.408 367.59 118.123 362.043 111.552C356.496 104.896 353.723 96.0213 353.723 84.928ZM425.331 27.584L416.243 25.92V18.112L441.971 15.04H442.355L446.067 17.728L446.195 45.504L445.171 56.896C447.816 54.4213 451.315 52.2453 455.667 50.368C460.019 48.4053 464.798 47.424 470.003 47.424C475.379 47.424 479.56 48.4053 482.547 50.368C485.534 52.3307 487.624 55.3173 488.819 59.328C490.014 63.3387 490.611 68.672 490.611 75.328V110.4L498.419 111.552V120H462.835V111.552L469.619 110.4V75.456C469.619 69.4827 468.979 65.344 467.699 63.04C466.419 60.6507 463.816 59.456 459.891 59.456C457.502 59.456 455.112 60.0107 452.723 61.12C450.334 62.144 448.328 63.424 446.707 64.96V110.4L453.747 111.552V120H418.675V111.552L425.331 110.4V27.584ZM536.66 121.408C524.969 121.408 516.308 118.123 510.676 111.552C505.044 104.896 502.228 95.8507 502.228 84.416C502.228 76.6507 503.679 69.952 506.58 64.32C509.481 58.688 513.535 54.4213 518.74 51.52C524.031 48.5333 530.217 47.04 537.3 47.04C546.26 47.04 553.087 49.3013 557.78 53.824C562.559 58.3467 565.033 64.7467 565.204 73.024C565.204 78.4853 564.82 82.88 564.052 86.208H523.988C524.415 93.4613 526.164 99.008 529.236 102.848C532.393 106.603 536.788 108.48 542.42 108.48C545.577 108.48 548.863 107.968 552.276 106.944C555.775 105.835 558.591 104.597 560.724 103.232L564.308 111.04C562.089 113.515 558.292 115.861 552.916 118.08C547.625 120.299 542.207 121.408 536.66 121.408ZM544.852 77.76L544.98 72.384C544.98 67.008 544.255 62.912 542.804 60.096C541.353 57.28 538.879 55.872 535.38 55.872C531.796 55.872 529.023 57.4507 527.06 60.608C525.097 63.68 524.031 69.3973 523.86 77.76H544.852ZM580.399 59.584H570.415V51.648L580.399 49.088V43.712C580.399 37.9947 581.935 32.7893 585.007 28.096C588.079 23.4027 592.175 19.6907 597.295 16.96C602.5 14.2293 608.09 12.864 614.063 12.864C617.22 12.864 620.079 13.2907 622.639 14.144V32.704C621.7 31.68 619.866 30.6987 617.135 29.76C614.404 28.736 611.716 28.224 609.071 28.224C606.255 28.224 604.25 28.9493 603.055 30.4C601.86 31.8507 601.263 34.24 601.263 37.568V48.96H616.623V59.584H601.263V110.4L614.191 111.552V120H570.543V111.552L580.399 110.4V59.584Z" fill="black"/>
</svg>
