<svg width="269" height="77" viewBox="0 0 269 77" fill="none" xmlns="http://www.w3.org/2000/svg">
<path d="M3.34375 23.3438L5.17607 24.1454L5.17809 24.1407L3.34375 23.3438ZM11.875 11.5781L13.2053 13.0716L13.206 13.0709L11.875 11.5781ZM25.5625 3.70312L24.8974 1.81694L24.894 1.81816L25.5625 3.70312ZM60.2969 2.67188L59.8204 4.6143L59.8276 4.61605L59.8347 4.61775L60.2969 2.67188ZM74.2188 8.15625L75.9274 9.19569L76.9915 7.44646L75.2178 6.42367L74.2188 8.15625ZM67.375 19.4062L66.275 21.0766L68.0063 22.2167L69.0837 20.4457L67.375 19.4062ZM62.9219 17.1562L62.1851 19.0157L62.197 19.0203L62.9219 17.1562ZM57.5781 15.5156L57.0931 17.4559L57.1119 17.4606L57.1307 17.4649L57.5781 15.5156ZM51.7188 14.4375L51.4707 16.4221L51.4744 16.4225L51.7188 14.4375ZM33.0625 15.8438L33.6563 17.7536L33.6636 17.7513L33.6709 17.749L33.0625 15.8438ZM23.6406 20.7656L24.9154 22.3067L24.9173 22.3051L23.6406 20.7656ZM17.8281 28.3125L16.0094 27.4805L16.0054 27.4893L17.8281 28.3125ZM23.875 55.7812L22.5749 57.3011L22.5847 57.3094L22.5946 57.3177L23.875 55.7812ZM33.4375 60.9375L32.805 62.8349L32.8145 62.838L32.824 62.8411L33.4375 60.9375ZM58.7969 61.0312L59.3179 62.9622L59.3282 62.9594L59.3384 62.9566L58.7969 61.0312ZM64.5625 59.0625L65.3161 60.9151L65.3295 60.9096L65.3428 60.904L64.5625 59.0625ZM69.7188 56.5312L71.4274 55.4918L70.4182 53.8328L68.7301 54.7927L69.7188 56.5312ZM76.5625 67.7812L77.6414 69.4653L79.2867 68.4112L78.2712 66.7418L76.5625 67.7812ZM62.6875 73.8281L63.2157 75.7572L63.2263 75.7542L62.6875 73.8281ZM26.125 73.0781L25.4708 74.9681L25.4801 74.9713L26.125 73.0781ZM11.875 65.0156L10.5357 66.501L10.5425 66.5071L11.875 65.0156ZM3.25 52.9219L1.3991 53.6796L1.40218 53.6871L1.40532 53.6946L3.25 52.9219ZM2.39062 37.9219C2.39062 32.9615 3.32472 28.377 5.17606 24.1454L1.51144 22.5421C-0.574724 27.3105 -1.60938 32.4447 -1.60938 37.9219H2.39062ZM5.17809 24.1407C7.03034 19.8776 9.70125 16.1928 13.2053 13.0716L10.5447 10.0847C6.61125 13.5885 3.59466 17.7474 1.50941 22.5468L5.17809 24.1407ZM13.206 13.0709C16.7383 9.92128 21.0674 7.41938 26.231 5.58809L24.894 1.81816C19.3076 3.79937 14.5117 6.54747 10.544 10.0854L13.206 13.0709ZM26.2276 5.58931C31.3842 3.77107 37.2631 2.84375 43.8906 2.84375V-1.15625C36.8932 -1.15625 30.5533 -0.177321 24.8974 1.81694L26.2276 5.58931ZM43.8906 2.84375C49.7248 2.84375 55.0309 3.43951 59.8204 4.6143L60.7733 0.729453C55.6253 -0.533263 49.994 -1.15625 43.8906 -1.15625V2.84375ZM59.8347 4.61775C64.6539 5.76231 69.1127 7.52059 73.2197 9.88883L75.2178 6.42367C70.7623 3.85441 65.9398 1.95644 60.759 0.726002L59.8347 4.61775ZM72.5101 7.11681L65.6663 18.3668L69.0837 20.4457L75.9274 9.19569L72.5101 7.11681ZM68.475 17.7359C67.057 16.8021 65.4429 15.9908 63.6468 15.2922L62.197 19.0203C63.7758 19.6342 65.1305 20.3229 66.275 21.0766L68.475 17.7359ZM63.6586 15.2969C61.8997 14.6 60.0209 14.0243 58.0255 13.5663L57.1307 17.4649C58.9479 17.882 60.6315 18.4 62.1851 19.0156L63.6586 15.2969ZM58.0632 13.5753C56.1044 13.0857 54.0707 12.7119 51.9631 12.4525L51.4744 16.4225C53.4293 16.6631 55.3018 17.0081 57.0931 17.4559L58.0632 13.5753ZM51.9668 12.4529C49.8865 12.1929 47.8192 12.0625 45.7656 12.0625V16.0625C47.6495 16.0625 49.551 16.1821 51.4707 16.4221L51.9668 12.4529ZM45.7656 12.0625C40.8523 12.0625 36.4068 12.6763 32.4541 13.9385L33.6709 17.749C37.1557 16.6362 41.179 16.0625 45.7656 16.0625V12.0625ZM32.4687 13.9339C28.5421 15.1548 25.1588 16.9084 22.364 19.2261L24.9173 22.3051C27.2474 20.3729 30.1454 18.8452 33.6563 17.7536L32.4687 13.9339ZM22.3659 19.2245C19.6062 21.5072 17.4808 24.2639 16.0094 27.4805L19.6469 29.1445C20.8629 26.4861 22.6125 24.2115 24.9154 22.3067L22.3659 19.2245ZM16.0054 27.4893C14.5651 30.6786 13.8594 34.166 13.8594 37.9219H17.8594C17.8594 34.6778 18.4662 31.7589 19.6509 29.1357L16.0054 27.4893ZM13.8594 37.9219C13.8594 41.8062 14.5976 45.4193 16.1005 48.7324L19.7433 47.0801C18.4961 44.3307 17.8594 41.2876 17.8594 37.9219H13.8594ZM16.1005 48.7324C17.5995 52.0372 19.7646 54.897 22.5749 57.3011L25.1751 54.2614C22.7979 52.228 20.9942 49.8378 19.7433 47.0801L16.1005 48.7324ZM22.5946 57.3177C25.4388 59.6878 28.8551 61.5182 32.805 62.8349L34.07 59.0401C30.5199 57.8568 27.5612 56.2497 25.1554 54.2448L22.5946 57.3177ZM32.824 62.8411C36.8378 64.1348 41.3156 64.7656 46.2344 64.7656V60.7656C41.6532 60.7656 37.5997 60.1777 34.051 59.0339L32.824 62.8411ZM46.2344 64.7656C48.4876 64.7656 50.7255 64.6023 52.9472 64.2756L52.3653 60.3182C50.337 60.6164 48.2936 60.7656 46.2344 60.7656V64.7656ZM52.9472 64.2756C55.1457 63.9523 57.2696 63.5149 59.3179 62.9622L58.2758 59.1003C56.3867 59.6101 54.4168 60.0165 52.3653 60.3182L52.9472 64.2756ZM59.3384 62.9566C61.4072 62.3747 63.4001 61.6945 65.3161 60.9151L63.8089 57.2099C62.0374 57.9305 60.1865 58.5628 58.2554 59.1059L59.3384 62.9566ZM65.3428 60.904C67.2515 60.0952 69.0404 59.2177 70.7074 58.2698L68.7301 54.7927C67.2096 55.6573 65.561 56.4673 63.7822 57.221L65.3428 60.904ZM68.0101 57.5707L74.8538 68.8207L78.2712 66.7418L71.4274 55.4918L68.0101 57.5707ZM75.4836 66.0972C71.6732 68.5383 67.2353 70.479 62.1487 71.9021L63.2263 75.7542C68.6397 74.2397 73.4518 72.1492 77.6414 69.4653L75.4836 66.0972ZM62.1593 71.8991C57.0954 73.2857 51.696 73.9844 45.9531 73.9844V77.9844C52.0228 77.9844 57.7796 77.2456 63.2157 75.7571L62.1593 71.8991ZM45.9531 73.9844C38.5881 73.9844 32.2048 73.0364 26.7699 71.185L25.4801 74.9713C31.4202 76.9949 38.2557 77.9844 45.9531 77.9844V73.9844ZM26.7792 71.1882C21.2983 69.2909 16.7908 66.7256 13.2075 63.5242L10.5425 66.5071C14.5842 70.1181 19.5767 72.9278 25.4708 74.9681L26.7792 71.1882ZM13.2143 63.5302C9.61534 60.2853 6.91553 56.4957 5.09468 52.1491L1.40532 53.6946C3.45947 58.5981 6.50966 62.8709 10.5357 66.501L13.2143 63.5302ZM5.1009 52.1641C3.29911 47.7631 2.39062 43.0221 2.39062 37.9219H-1.60938C-1.60938 43.5092 -0.611614 48.7682 1.3991 53.6796L5.1009 52.1641ZM96.3906 53.2031L97.3741 51.4616L95.7465 50.5425L94.7196 52.1043L96.3906 53.2031ZM104.453 57.2812L103.635 59.1063L103.648 59.1119L103.66 59.1174L104.453 57.2812ZM112.984 60.3281L112.432 62.2504L112.442 62.2531L112.451 62.2557L112.984 60.3281ZM122.219 62.2031L121.949 64.1849L121.952 64.1852L122.219 62.2031ZM143.828 62.0156L144.186 63.9834L144.195 63.9816L144.205 63.9798L143.828 62.0156ZM151.375 59.625L152.292 61.4023L152.303 61.3967L151.375 59.625ZM155.641 55.9688L153.959 54.8853L153.951 54.8987L153.943 54.9121L155.641 55.9688ZM153.672 45.0938L152.52 46.729L152.528 46.7344L152.536 46.7398L153.672 45.0938ZM136.984 43.1719L137.205 45.1596L137.219 45.1581L137.232 45.1564L136.984 43.1719ZM130.141 44.0156L129.873 42.0336L129.869 42.0341L130.141 44.0156ZM123.344 44.9062L123.568 46.8937L123.58 46.8923L123.592 46.8908L123.344 44.9062ZM107.594 44.0156L107.052 45.9409L107.057 45.9424L107.594 44.0156ZM99.5781 40.2188L98.3992 41.8344L98.4095 41.8418L99.5781 40.2188ZM92.7812 19.0781L90.8582 18.5287L90.8542 18.5429L90.8503 18.5571L92.7812 19.0781ZM95.4062 13.4531L93.7466 12.3371L93.7421 12.3437L95.4062 13.4531ZM100.094 8.4375L101.346 9.99674L101.354 9.99055L101.362 9.98428L100.094 8.4375ZM106.984 4.40625L106.22 2.5582L106.212 2.56137L106.984 4.40625ZM116.359 1.78125L116.708 3.75069L116.722 3.74816L116.359 1.78125ZM138.391 1.35938L138.166 3.34668L138.175 3.34773L138.184 3.34869L138.391 1.35938ZM148.047 2.85938L147.636 4.81669L147.64 4.8175L148.047 2.85938ZM157.141 5.25L156.527 7.15342L156.536 7.15642L156.545 7.15932L157.141 5.25ZM165.25 8.29688L167.008 9.25121L168.036 7.35737L166.071 6.47303L165.25 8.29688ZM158.734 20.2969L157.93 22.1279L159.614 22.868L160.492 21.2512L158.734 20.2969ZM152.078 17.8125L151.453 19.7124L151.464 19.7161L151.476 19.7197L152.078 17.8125ZM136.562 14.4844L136.314 16.4689L136.327 16.4705L136.339 16.4719L136.562 14.4844ZM118 14.8594L117.564 12.9075L117.559 12.9087L118 14.8594ZM111.719 17.1562L112.722 18.8863L112.735 18.8789L112.748 18.8712L111.719 17.1562ZM108.438 20.25L106.678 19.299L106.673 19.3077L106.669 19.3165L108.438 20.25ZM110.5 29.0156L109.338 30.6431L109.346 30.6492L109.355 30.6553L110.5 29.0156ZM125.078 30.75L125.286 32.7392L125.299 32.7378L125.312 32.7363L125.078 30.75ZM131.734 29.9531L131.496 27.9674L131.493 27.9678L131.734 29.9531ZM138.859 29.2031L139.04 31.1949L139.052 31.1939L139.063 31.1927L138.859 29.2031ZM157.375 30.2812L156.814 32.2008L156.818 32.2023L157.375 30.2812ZM165.766 34.4531L164.511 36.0106L164.518 36.016L164.524 36.0212L165.766 34.4531ZM170.875 40.9688L169.052 41.7913L169.056 41.7997L170.875 40.9688ZM169.656 60.7969L167.937 59.775L167.934 59.78L169.656 60.7969ZM161.312 69.1406L162.374 70.8358L162.378 70.8333L161.312 69.1406ZM148.281 74.2969L148.724 76.2473L148.735 76.2446L148.281 74.2969ZM119.172 75.2344L119.439 73.2523L119.432 73.2513L119.424 73.2503L119.172 75.2344ZM107.828 73.0781L107.308 75.0092L107.317 75.0119L107.327 75.0144L107.828 73.0781ZM97.5156 69.6562L96.7514 71.5045L96.7621 71.5089L96.7728 71.5132L97.5156 69.6562ZM88.4688 65.25L86.7977 64.1511L85.6293 65.928L87.4744 66.9853L88.4688 65.25ZM95.4072 54.9446C98.1159 56.4743 100.859 57.8617 103.635 59.1063L105.271 55.4562C102.61 54.2633 99.9778 52.932 97.3741 51.4616L95.4072 54.9446ZM103.66 59.1174C106.49 60.3394 109.414 61.3836 112.432 62.2504L113.537 58.4059C110.679 57.5852 107.916 56.5981 105.246 55.4451L103.66 59.1174ZM112.451 62.2557C115.481 63.0937 118.647 63.7361 121.949 64.1849L122.488 60.2213C119.353 59.7952 116.363 59.1875 113.518 58.4005L112.451 62.2557ZM121.952 64.1852C125.3 64.6359 128.843 64.8594 132.578 64.8594V60.8594C129.001 60.8594 125.638 60.6453 122.486 60.221L121.952 64.1852ZM132.578 64.8594C137.061 64.8594 140.938 64.5739 144.186 63.9834L143.47 60.0479C140.531 60.5823 136.908 60.8594 132.578 60.8594V64.8594ZM144.205 63.9798C147.411 63.3645 150.127 62.5196 152.292 61.4022L150.458 57.8478C148.748 58.7304 146.433 59.4793 143.451 60.0515L144.205 63.9798ZM152.303 61.3967C154.483 60.2546 156.222 58.8207 157.339 57.0254L153.943 54.9121C153.31 55.9293 152.204 56.9329 150.447 57.8533L152.303 61.3967ZM157.322 57.0522C158.434 55.3264 159 53.4196 159 51.375H155C155 52.6429 154.66 53.7986 153.959 54.8853L157.322 57.0522ZM159 51.375C159 48.0498 157.558 45.3456 154.808 43.4477L152.536 46.7398C154.223 47.9044 155 49.3877 155 51.375H159ZM154.823 43.4585C152.104 41.5434 148.184 40.75 143.406 40.75V44.75C147.879 44.75 150.802 45.5191 152.52 46.729L154.823 43.4585ZM143.406 40.75C141.283 40.75 139.059 40.8969 136.736 41.1873L137.232 45.1564C139.409 44.8843 141.467 44.75 143.406 44.75V40.75ZM136.764 41.1841C134.497 41.4359 132.2 41.7191 129.873 42.0336L130.408 45.9976C132.706 45.6872 134.971 45.4078 137.205 45.1596L136.764 41.1841ZM129.869 42.0341C127.596 42.3456 125.338 42.6414 123.096 42.9217L123.592 46.8908C125.85 46.6086 128.123 46.3107 130.412 45.9971L129.869 42.0341ZM123.12 42.9188C120.966 43.1615 118.947 43.2812 117.062 43.2812V47.2812C119.115 47.2812 121.284 47.151 123.568 46.8937L123.12 42.9188ZM117.062 43.2812C113.955 43.2812 110.979 42.882 108.13 42.0889L107.057 45.9424C110.271 46.8368 113.608 47.2812 117.062 47.2812V43.2812ZM108.135 42.0903C105.342 41.3049 102.886 40.1361 100.747 38.5957L98.4095 41.8418C100.958 43.6764 103.845 45.0389 107.052 45.9409L108.135 42.0903ZM100.757 38.6032C98.6855 37.0915 97.0388 35.2084 95.8043 32.936L92.2894 34.8453C93.805 37.6353 95.8457 39.971 98.3992 41.8343L100.757 38.6032ZM95.8043 32.936C94.6138 30.7444 93.9844 28.1302 93.9844 25.0312H89.9844C89.9844 28.6823 90.7299 31.9744 92.2894 34.8453L95.8043 32.936ZM93.9844 25.0312C93.9844 23.2107 94.2259 21.4014 94.7122 19.5992L90.8503 18.5571C90.2741 20.6924 89.9844 22.8518 89.9844 25.0312H93.9844ZM94.7043 19.6276C95.2074 17.8667 95.9923 16.1795 97.0704 14.5625L93.7421 12.3437C92.4452 14.2892 91.4801 16.3521 90.8582 18.5287L94.7043 19.6276ZM97.0659 14.5691C98.1595 12.9427 99.5788 11.4165 101.346 9.99674L98.8412 6.87826C96.7962 8.52097 95.0905 10.3385 93.7466 12.3371L97.0659 14.5691ZM101.362 9.98428C103.094 8.56459 105.216 7.31451 107.757 6.25113L106.212 2.56137C103.377 3.74799 100.906 5.18541 98.8259 6.89072L101.362 9.98428ZM107.749 6.25428C110.309 5.19517 113.29 4.35566 116.708 3.75064L116.011 -0.188141C112.367 0.456842 109.098 1.36733 106.22 2.55822L107.749 6.25428ZM116.722 3.74816C120.139 3.11859 124.062 2.79688 128.5 2.79688V-1.20312C123.876 -1.20312 119.704 -0.868586 115.997 -0.185656L116.722 3.74816ZM128.5 2.79688C131.705 2.79688 134.927 2.98 138.166 3.34668L138.616 -0.627931C135.23 -1.01125 131.858 -1.20312 128.5 -1.20312V2.79688ZM138.184 3.34869C141.431 3.68562 144.581 4.17522 147.636 4.81668L148.458 0.902068C145.262 0.23103 141.975 -0.279366 138.597 -0.629942L138.184 3.34869ZM147.64 4.8175C150.73 5.46002 153.692 6.239 156.527 7.15342L157.755 3.34658C154.777 2.386 151.676 1.57123 148.454 0.901253L147.64 4.8175ZM156.545 7.15932C159.383 8.04422 162.01 9.03209 164.429 10.1207L166.071 6.47303C163.49 5.31166 160.711 4.26828 157.736 3.34068L156.545 7.15932ZM163.492 7.34254L156.977 19.3425L160.492 21.2512L167.008 9.25121L163.492 7.34254ZM159.539 18.4658C157.404 17.5277 155.117 16.6748 152.68 15.9053L151.476 19.7197C153.789 20.4502 155.94 21.2535 157.93 22.1279L159.539 18.4658ZM152.703 15.9126C150.258 15.1084 147.706 14.4186 145.049 13.8423L144.201 17.7514C146.731 18.3001 149.148 18.9541 151.453 19.7124L152.703 15.9126ZM145.049 13.8423C142.385 13.2647 139.631 12.8165 136.786 12.4969L136.339 16.4719C139.057 16.7772 141.677 17.2041 144.201 17.7514L145.049 13.8423ZM136.811 12.4998C133.975 12.1454 131.08 11.9688 128.125 11.9688V15.9688C130.92 15.9688 133.65 16.1358 136.314 16.4689L136.811 12.4998ZM128.125 11.9688C123.95 11.9688 120.415 12.2701 117.564 12.9075L118.436 16.8112C120.897 16.2612 124.112 15.9688 128.125 15.9688V11.9688ZM117.559 12.9087C114.816 13.5291 112.499 14.3557 110.69 15.4413L112.748 18.8712C114.063 18.0818 115.934 17.3771 118.441 16.8101L117.559 12.9087ZM110.715 15.4262C108.949 16.4509 107.532 17.7186 106.678 19.299L110.197 21.201C110.593 20.4689 111.364 19.6741 112.722 18.8863L110.715 15.4262ZM106.669 19.3165C105.943 20.6912 105.547 22.1342 105.547 23.625H109.547C109.547 22.8658 109.744 22.0588 110.206 21.1835L106.669 19.3165ZM105.547 23.625C105.547 26.5341 106.908 28.9077 109.338 30.6431L111.662 27.3882C110.155 26.3111 109.547 25.0909 109.547 23.625H105.547ZM109.355 30.6553C111.818 32.376 115.309 33.0781 119.5 33.0781V29.0781C115.628 29.0781 113.119 28.4053 111.645 27.3759L109.355 30.6553ZM119.5 33.0781C121.211 33.0781 123.142 32.9632 125.286 32.7392L124.87 28.7608C122.827 28.9743 121.039 29.0781 119.5 29.0781V33.0781ZM125.312 32.7363C127.44 32.486 129.661 32.22 131.976 31.9385L131.493 27.9678C129.183 28.2487 126.967 28.514 124.844 28.7637L125.312 32.7363ZM131.973 31.9389C134.297 31.66 136.653 31.412 139.04 31.1949L138.678 27.2113C136.253 27.4318 133.859 27.6838 131.496 27.9674L131.973 31.9389ZM139.063 31.1927C141.438 30.9491 143.729 30.8281 145.938 30.8281V26.8281C143.583 26.8281 141.156 26.9571 138.655 27.2136L139.063 31.1927ZM145.938 30.8281C150.105 30.8281 153.722 31.2968 156.814 32.2008L157.936 28.3617C154.403 27.3282 150.395 26.8281 145.938 26.8281V30.8281ZM156.818 32.2023C159.959 33.112 162.505 34.3947 164.511 36.0106L167.02 32.8956C164.526 30.8866 161.479 29.388 157.932 28.3602L156.818 32.2023ZM164.524 36.0212C166.529 37.6083 168.03 39.5265 169.052 41.7913L172.698 40.1462C171.407 37.286 169.502 34.8604 167.007 32.885L164.524 36.0212ZM169.056 41.7997C170.078 44.0373 170.609 46.592 170.609 49.5H174.609C174.609 46.0955 173.985 42.9627 172.694 40.1378L169.056 41.7997ZM170.609 49.5C170.609 53.3943 169.705 56.8006 167.937 59.775L171.376 61.8187C173.545 58.1681 174.609 54.0432 174.609 49.5H170.609ZM167.934 59.78C166.178 62.7544 163.636 65.3151 160.247 67.4479L162.378 70.8333C166.239 68.4037 169.26 65.4019 171.378 61.8138L167.934 59.78ZM160.251 67.4455C156.882 69.5546 152.754 71.2005 147.827 72.3491L148.735 76.2446C153.996 75.0183 158.555 73.2266 162.374 70.8358L160.251 67.4455ZM147.839 72.3465C142.915 73.4641 137.395 74.0312 131.266 74.0312V78.0312C137.636 78.0312 143.46 77.4422 148.724 76.2473L147.839 72.3465ZM131.266 74.0312C127.227 74.0312 123.285 73.7712 119.439 73.2523L118.904 77.2164C122.934 77.7601 127.055 78.0312 131.266 78.0312V74.0312ZM119.424 73.2503C115.565 72.7603 111.867 72.0569 108.329 71.1418L107.327 75.0144C111.039 75.9743 114.904 76.7084 118.92 77.2184L119.424 73.2503ZM108.349 71.1471C104.826 70.1976 101.463 69.0813 98.2584 67.7993L96.7728 71.5132C100.13 72.8562 103.642 74.0212 107.308 75.0092L108.349 71.1471ZM98.2798 67.808C95.1014 66.4938 92.1634 65.0621 89.4631 63.5147L87.4744 66.9853C90.3366 68.6254 93.4299 70.1312 96.7514 71.5045L98.2798 67.808ZM90.1398 66.3489L98.0617 54.302L94.7196 52.1043L86.7977 64.1511L90.1398 66.3489ZM192.391 53.2031L193.374 51.4616L191.747 50.5425L190.72 52.1043L192.391 53.2031ZM200.453 57.2812L199.635 59.1063L199.648 59.1119L199.66 59.1174L200.453 57.2812ZM208.984 60.3281L208.432 62.2504L208.442 62.2531L208.451 62.2557L208.984 60.3281ZM218.219 62.2031L217.949 64.1849L217.952 64.1852L218.219 62.2031ZM239.828 62.0156L240.186 63.9834L240.195 63.9816L240.205 63.9798L239.828 62.0156ZM247.375 59.625L248.292 61.4023L248.303 61.3967L247.375 59.625ZM251.641 55.9688L249.959 54.8853L249.951 54.8987L249.943 54.9121L251.641 55.9688ZM249.672 45.0938L248.52 46.729L248.528 46.7344L248.536 46.7398L249.672 45.0938ZM232.984 43.1719L233.205 45.1596L233.219 45.1581L233.232 45.1564L232.984 43.1719ZM226.141 44.0156L225.873 42.0336L225.869 42.0341L226.141 44.0156ZM219.344 44.9062L219.568 46.8937L219.58 46.8923L219.592 46.8908L219.344 44.9062ZM203.594 44.0156L203.052 45.9409L203.057 45.9424L203.594 44.0156ZM195.578 40.2188L194.399 41.8344L194.41 41.8418L195.578 40.2188ZM188.781 19.0781L186.858 18.5287L186.854 18.5429L186.85 18.5571L188.781 19.0781ZM191.406 13.4531L189.747 12.3371L189.742 12.3437L191.406 13.4531ZM196.094 8.4375L197.346 9.99674L197.354 9.99055L197.362 9.98428L196.094 8.4375ZM202.984 4.40625L202.22 2.5582L202.212 2.56137L202.984 4.40625ZM212.359 1.78125L212.708 3.75069L212.722 3.74816L212.359 1.78125ZM234.391 1.35938L234.166 3.34668L234.175 3.34773L234.184 3.34869L234.391 1.35938ZM244.047 2.85938L243.636 4.81669L243.64 4.8175L244.047 2.85938ZM253.141 5.25L252.527 7.15342L252.536 7.15642L252.545 7.15932L253.141 5.25ZM261.25 8.29688L263.008 9.25121L264.036 7.35737L262.071 6.47303L261.25 8.29688ZM254.734 20.2969L253.93 22.1279L255.614 22.868L256.492 21.2512L254.734 20.2969ZM248.078 17.8125L247.453 19.7124L247.464 19.7161L247.476 19.7197L248.078 17.8125ZM232.562 14.4844L232.314 16.4689L232.327 16.4705L232.339 16.4719L232.562 14.4844ZM214 14.8594L213.564 12.9075L213.559 12.9087L214 14.8594ZM207.719 17.1562L208.722 18.8863L208.735 18.8789L208.748 18.8712L207.719 17.1562ZM204.438 20.25L202.678 19.299L202.673 19.3077L202.669 19.3165L204.438 20.25ZM206.5 29.0156L205.338 30.6431L205.346 30.6492L205.355 30.6553L206.5 29.0156ZM221.078 30.75L221.286 32.7392L221.299 32.7378L221.312 32.7363L221.078 30.75ZM227.734 29.9531L227.496 27.9674L227.493 27.9678L227.734 29.9531ZM234.859 29.2031L235.04 31.1949L235.052 31.1939L235.063 31.1927L234.859 29.2031ZM253.375 30.2812L252.814 32.2008L252.818 32.2023L253.375 30.2812ZM261.766 34.4531L260.511 36.0106L260.518 36.016L260.524 36.0212L261.766 34.4531ZM266.875 40.9688L265.052 41.7913L265.056 41.7997L266.875 40.9688ZM265.656 60.7969L263.937 59.775L263.934 59.78L265.656 60.7969ZM257.312 69.1406L258.374 70.8358L258.378 70.8333L257.312 69.1406ZM244.281 74.2969L244.724 76.2473L244.735 76.2446L244.281 74.2969ZM215.172 75.2344L215.439 73.2523L215.432 73.2513L215.424 73.2503L215.172 75.2344ZM203.828 73.0781L203.308 75.0092L203.317 75.0119L203.327 75.0144L203.828 73.0781ZM193.516 69.6562L192.751 71.5045L192.762 71.5089L192.773 71.5132L193.516 69.6562ZM184.469 65.25L182.798 64.1511L181.629 65.928L183.474 66.9853L184.469 65.25ZM191.407 54.9446C194.116 56.4743 196.859 57.8617 199.635 59.1063L201.271 55.4562C198.61 54.2633 195.978 52.932 193.374 51.4616L191.407 54.9446ZM199.66 59.1174C202.49 60.3394 205.414 61.3836 208.432 62.2504L209.537 58.4059C206.679 57.5852 203.916 56.5981 201.246 55.4451L199.66 59.1174ZM208.451 62.2557C211.481 63.0937 214.647 63.7361 217.949 64.1849L218.488 60.2213C215.353 59.7952 212.363 59.1875 209.518 58.4005L208.451 62.2557ZM217.952 64.1852C221.3 64.6359 224.843 64.8594 228.578 64.8594V60.8594C225.001 60.8594 221.638 60.6453 218.486 60.221L217.952 64.1852ZM228.578 64.8594C233.061 64.8594 236.938 64.5739 240.186 63.9834L239.47 60.0479C236.531 60.5823 232.908 60.8594 228.578 60.8594V64.8594ZM240.205 63.9798C243.411 63.3645 246.127 62.5196 248.292 61.4022L246.458 57.8478C244.748 58.7304 242.433 59.4793 239.451 60.0515L240.205 63.9798ZM248.303 61.3967C250.483 60.2546 252.222 58.8207 253.339 57.0254L249.943 54.9121C249.31 55.9293 248.204 56.9329 246.447 57.8533L248.303 61.3967ZM253.322 57.0522C254.434 55.3264 255 53.4196 255 51.375H251C251 52.6429 250.66 53.7986 249.959 54.8853L253.322 57.0522ZM255 51.375C255 48.0498 253.558 45.3456 250.808 43.4477L248.536 46.7398C250.223 47.9044 251 49.3877 251 51.375H255ZM250.823 43.4585C248.104 41.5434 244.184 40.75 239.406 40.75V44.75C243.879 44.75 246.802 45.5191 248.52 46.729L250.823 43.4585ZM239.406 40.75C237.283 40.75 235.059 40.8969 232.736 41.1873L233.232 45.1564C235.409 44.8843 237.467 44.75 239.406 44.75V40.75ZM232.764 41.1841C230.497 41.4359 228.2 41.7191 225.873 42.0336L226.408 45.9976C228.706 45.6872 230.971 45.4078 233.205 45.1596L232.764 41.1841ZM225.869 42.0341C223.596 42.3456 221.338 42.6414 219.096 42.9217L219.592 46.8908C221.85 46.6086 224.123 46.3107 226.412 45.9971L225.869 42.0341ZM219.12 42.9188C216.966 43.1615 214.947 43.2812 213.062 43.2812V47.2812C215.115 47.2812 217.284 47.151 219.568 46.8937L219.12 42.9188ZM213.062 43.2812C209.955 43.2812 206.979 42.882 204.13 42.0889L203.057 45.9424C206.271 46.8368 209.608 47.2812 213.062 47.2812V43.2812ZM204.135 42.0903C201.342 41.3049 198.886 40.1361 196.747 38.5957L194.41 41.8418C196.958 43.6764 199.845 45.0389 203.052 45.9409L204.135 42.0903ZM196.757 38.6032C194.686 37.0915 193.039 35.2084 191.804 32.936L188.289 34.8453C189.805 37.6353 191.846 39.971 194.399 41.8343L196.757 38.6032ZM191.804 32.936C190.614 30.7444 189.984 28.1302 189.984 25.0312H185.984C185.984 28.6823 186.73 31.9744 188.289 34.8453L191.804 32.936ZM189.984 25.0312C189.984 23.2107 190.226 21.4014 190.712 19.5992L186.85 18.5571C186.274 20.6924 185.984 22.8518 185.984 25.0312H189.984ZM190.704 19.6276C191.207 17.8667 191.992 16.1795 193.07 14.5625L189.742 12.3437C188.445 14.2892 187.48 16.3521 186.858 18.5287L190.704 19.6276ZM193.066 14.5691C194.16 12.9427 195.579 11.4165 197.346 9.99674L194.841 6.87826C192.796 8.52097 191.09 10.3385 189.747 12.3371L193.066 14.5691ZM197.362 9.98428C199.094 8.56459 201.216 7.31451 203.757 6.25113L202.212 2.56137C199.377 3.74799 196.906 5.18541 194.826 6.89072L197.362 9.98428ZM203.749 6.25428C206.309 5.19517 209.29 4.35566 212.708 3.75064L212.011 -0.188141C208.367 0.456842 205.098 1.36733 202.22 2.55822L203.749 6.25428ZM212.722 3.74816C216.139 3.11859 220.062 2.79688 224.5 2.79688V-1.20312C219.876 -1.20312 215.704 -0.868586 211.997 -0.185656L212.722 3.74816ZM224.5 2.79688C227.705 2.79688 230.927 2.98 234.166 3.34668L234.616 -0.627931C231.23 -1.01125 227.858 -1.20312 224.5 -1.20312V2.79688ZM234.184 3.34869C237.431 3.68562 240.581 4.17522 243.636 4.81668L244.458 0.902068C241.262 0.23103 237.975 -0.279366 234.597 -0.629942L234.184 3.34869ZM243.64 4.8175C246.73 5.46002 249.692 6.239 252.527 7.15342L253.755 3.34658C250.777 2.386 247.676 1.57123 244.454 0.901253L243.64 4.8175ZM252.545 7.15932C255.383 8.04422 258.01 9.03209 260.429 10.1207L262.071 6.47303C259.49 5.31166 256.711 4.26828 253.736 3.34068L252.545 7.15932ZM259.492 7.34254L252.977 19.3425L256.492 21.2512L263.008 9.25121L259.492 7.34254ZM255.539 18.4658C253.404 17.5277 251.117 16.6748 248.68 15.9053L247.476 19.7197C249.789 20.4502 251.94 21.2535 253.93 22.1279L255.539 18.4658ZM248.703 15.9126C246.258 15.1084 243.706 14.4186 241.049 13.8423L240.201 17.7514C242.731 18.3001 245.148 18.9541 247.453 19.7124L248.703 15.9126ZM241.049 13.8423C238.385 13.2647 235.631 12.8165 232.786 12.4969L232.339 16.4719C235.057 16.7772 237.677 17.2041 240.201 17.7514L241.049 13.8423ZM232.811 12.4998C229.975 12.1454 227.08 11.9688 224.125 11.9688V15.9688C226.92 15.9688 229.65 16.1358 232.314 16.4689L232.811 12.4998ZM224.125 11.9688C219.95 11.9688 216.415 12.2701 213.564 12.9075L214.436 16.8112C216.897 16.2612 220.112 15.9688 224.125 15.9688V11.9688ZM213.559 12.9087C210.816 13.5291 208.499 14.3557 206.69 15.4413L208.748 18.8712C210.063 18.0818 211.934 17.3771 214.441 16.8101L213.559 12.9087ZM206.715 15.4262C204.949 16.4509 203.532 17.7186 202.678 19.299L206.197 21.201C206.593 20.4689 207.364 19.6741 208.722 18.8863L206.715 15.4262ZM202.669 19.3165C201.943 20.6912 201.547 22.1342 201.547 23.625H205.547C205.547 22.8658 205.744 22.0588 206.206 21.1835L202.669 19.3165ZM201.547 23.625C201.547 26.5341 202.908 28.9077 205.338 30.6431L207.662 27.3882C206.155 26.3111 205.547 25.0909 205.547 23.625H201.547ZM205.355 30.6553C207.818 32.376 211.309 33.0781 215.5 33.0781V29.0781C211.628 29.0781 209.119 28.4053 207.645 27.3759L205.355 30.6553ZM215.5 33.0781C217.211 33.0781 219.142 32.9632 221.286 32.7392L220.87 28.7608C218.827 28.9743 217.039 29.0781 215.5 29.0781V33.0781ZM221.312 32.7363C223.44 32.486 225.661 32.22 227.976 31.9385L227.493 27.9678C225.183 28.2487 222.967 28.514 220.844 28.7637L221.312 32.7363ZM227.973 31.9389C230.297 31.66 232.653 31.412 235.04 31.1949L234.678 27.2113C232.253 27.4318 229.859 27.6838 227.496 27.9674L227.973 31.9389ZM235.063 31.1927C237.438 30.9491 239.729 30.8281 241.938 30.8281V26.8281C239.583 26.8281 237.156 26.9571 234.655 27.2136L235.063 31.1927ZM241.938 30.8281C246.105 30.8281 249.722 31.2968 252.814 32.2008L253.936 28.3617C250.403 27.3282 246.395 26.8281 241.938 26.8281V30.8281ZM252.818 32.2023C255.959 33.112 258.505 34.3947 260.511 36.0106L263.02 32.8956C260.526 30.8866 257.479 29.388 253.932 28.3602L252.818 32.2023ZM260.524 36.0212C262.529 37.6083 264.03 39.5265 265.052 41.7913L268.698 40.1462C267.407 37.286 265.502 34.8604 263.007 32.885L260.524 36.0212ZM265.056 41.7997C266.078 44.0373 266.609 46.592 266.609 49.5H270.609C270.609 46.0955 269.985 42.9627 268.694 40.1378L265.056 41.7997ZM266.609 49.5C266.609 53.3943 265.705 56.8006 263.937 59.775L267.376 61.8187C269.545 58.1681 270.609 54.0432 270.609 49.5H266.609ZM263.934 59.78C262.178 62.7544 259.636 65.3151 256.247 67.4479L258.378 70.8333C262.239 68.4037 265.26 65.4019 267.378 61.8138L263.934 59.78ZM256.251 67.4455C252.882 69.5546 248.754 71.2005 243.827 72.3491L244.735 76.2446C249.996 75.0183 254.555 73.2266 258.374 70.8358L256.251 67.4455ZM243.839 72.3465C238.915 73.4641 233.395 74.0312 227.266 74.0312V78.0312C233.636 78.0312 239.46 77.4422 244.724 76.2473L243.839 72.3465ZM227.266 74.0312C223.227 74.0312 219.285 73.7712 215.439 73.2523L214.904 77.2164C218.934 77.7601 223.055 78.0312 227.266 78.0312V74.0312ZM215.424 73.2503C211.565 72.7603 207.867 72.0569 204.329 71.1418L203.327 75.0144C207.039 75.9743 210.904 76.7084 214.92 77.2184L215.424 73.2503ZM204.349 71.1471C200.826 70.1976 197.463 69.0813 194.258 67.7993L192.773 71.5132C196.13 72.8562 199.642 74.0212 203.308 75.0092L204.349 71.1471ZM194.28 67.808C191.101 66.4938 188.163 65.0621 185.463 63.5147L183.474 66.9853C186.337 68.6254 189.43 70.1312 192.751 71.5045L194.28 67.808ZM186.14 66.3489L194.062 54.302L190.72 52.1043L182.798 64.1511L186.14 66.3489Z" fill="white"/>
</svg>
