<svg width="705" height="103" viewBox="0 0 705 103" fill="none" xmlns="http://www.w3.org/2000/svg">
<path d="M0.640625 4.73438V4.23438H0.140625V4.73438H0.640625ZM15.5 4.73438H16V4.23438H15.5V4.73438ZM16.8594 53.9531L16.3874 54.118L16.388 54.1198L16.8594 53.9531ZM20.8906 60.4688L20.5371 60.8223L20.5402 60.8254L20.8906 60.4688ZM27.5938 64.5469L27.4273 65.0184L27.4323 65.0201L27.5938 64.5469ZM46.1094 64.5469L46.2708 65.0201L46.2741 65.019L46.1094 64.5469ZM52.8125 60.4688L52.462 60.1121L52.4589 60.1152L52.8125 60.4688ZM56.8906 53.9531L57.362 54.1198L57.3626 54.118L56.8906 53.9531ZM58.25 4.73438V4.23438H57.75V4.73438H58.25ZM73.1094 4.73438H73.6094V4.23438H73.1094V4.73438ZM52.2031 76.6406L52.0421 76.1673L52.041 76.1676L52.2031 76.6406ZM21.5 76.6406L21.3379 77.1136L21.3389 77.114L21.5 76.6406ZM0.640625 5.23438H15.5V4.23438H0.640625V5.23438ZM15 4.73438V45.0938H16V4.73438H15ZM15 45.0938C15 48.4512 15.4592 51.4617 16.3874 54.118L17.3314 53.7882C16.447 51.2571 16 48.3613 16 45.0938H15ZM16.388 54.1198C17.3171 56.747 18.699 58.9843 20.5371 60.8223L21.2442 60.1152C19.5197 58.3907 18.2142 56.2843 17.3308 53.7864L16.388 54.1198ZM20.5402 60.8254C22.4103 62.6632 24.7096 64.0592 27.4273 65.0184L27.7602 64.0754C25.1654 63.1596 22.996 61.8368 21.2411 60.1121L20.5402 60.8254ZM27.4323 65.0201C30.152 65.948 33.3024 66.4062 36.875 66.4062V65.4062C33.3851 65.4062 30.348 64.9583 27.7552 64.0737L27.4323 65.0201ZM36.875 66.4062C40.4169 66.4062 43.5516 65.9478 46.2708 65.0201L45.9479 64.0737C43.3547 64.9584 40.3331 65.4062 36.875 65.4062V66.4062ZM46.2741 65.019C49.0234 64.0599 51.325 62.6633 53.1661 60.8223L52.4589 60.1152C50.7375 61.8367 48.5704 63.1588 45.9447 64.0748L46.2741 65.019ZM53.163 60.8254C55.0334 58.9872 56.4322 56.7489 57.362 54.1198L56.4192 53.7864C55.5365 56.2823 54.2166 58.3878 52.462 60.1121L53.163 60.8254ZM57.3626 54.118C58.2908 51.4617 58.75 48.4512 58.75 45.0938H57.75C57.75 48.3613 57.303 51.2571 56.4186 53.7882L57.3626 54.118ZM58.75 45.0938V4.73438H57.75V45.0938H58.75ZM58.25 5.23438H73.1094V4.23438H58.25V5.23438ZM72.6094 4.73438V46.875H73.6094V4.73438H72.6094ZM72.6094 46.875C72.6094 51.6305 71.8067 55.9396 70.2097 59.8093L71.1341 60.1907C72.7871 56.1854 73.6094 51.7445 73.6094 46.875H72.6094ZM70.2097 59.8093C68.6123 63.6798 66.2954 66.9932 63.2574 69.755L63.9301 70.495C67.0796 67.6318 69.4814 64.1952 71.1341 60.1907L70.2097 59.8093ZM63.2574 69.755C60.2209 72.5155 56.486 74.6551 52.0421 76.1673L52.3642 77.114C56.9202 75.5637 60.7791 73.3595 63.9301 70.495L63.2574 69.755ZM52.041 76.1676C47.6344 77.6776 42.5814 78.4375 36.875 78.4375V79.4375C42.6686 79.4375 47.8344 78.6662 52.3652 77.1136L52.041 76.1676ZM36.875 78.4375C31.1687 78.4375 26.0996 77.6776 21.6611 76.1673L21.3389 77.114C25.9004 78.6661 31.0813 79.4375 36.875 79.4375V78.4375ZM21.6621 76.1676C17.2495 74.6556 13.5297 72.5161 10.4926 69.755L9.81991 70.495C12.9703 73.3589 16.813 75.5631 21.3379 77.1136L21.6621 76.1676ZM10.4926 69.755C7.45457 66.9932 5.13767 63.6798 3.54031 59.8093L2.61594 60.1907C4.26858 64.1952 6.67043 67.6318 9.81991 70.495L10.4926 69.755ZM3.54031 59.8093C1.94331 55.9396 1.14062 51.6305 1.14062 46.875H0.140625C0.140625 51.7445 0.962936 56.1854 2.61594 60.1907L3.54031 59.8093ZM1.14062 46.875V4.73438H0.140625V46.875H1.14062ZM89.375 4.73438V4.23438H88.875V4.73438H89.375ZM104.328 4.73438H104.828V4.23438H104.328V4.73438ZM104.328 78V78.5H104.828V78H104.328ZM89.375 78H88.875V78.5H89.375V78ZM89.375 5.23438H104.328V4.23438H89.375V5.23438ZM103.828 4.73438V78H104.828V4.73438H103.828ZM104.328 77.5H89.375V78.5H104.328V77.5ZM89.875 78V4.73438H88.875V78H89.875ZM155.188 4.73438V4.23438H154.688V4.73438H155.188ZM216.828 14.5312L216.508 14.9151L216.511 14.9179L216.828 14.5312ZM225.312 25.9688L224.85 26.1583L224.851 26.1622L225.312 25.9688ZM225.359 55.8281L225.822 56.0177L225.823 56.0166L225.359 55.8281ZM216.922 67.5469L217.25 67.9245L217.251 67.923L216.922 67.5469ZM202.578 75.2812L202.73 75.7576L202.732 75.7569L202.578 75.2812ZM182.141 78.0469L182.14 78.5469H182.141V78.0469ZM155.188 78H154.688V78.4991L155.187 78.5L155.188 78ZM197.375 63.4688L197.534 63.9427L197.538 63.9413L197.375 63.4688ZM205.719 58.5938L205.378 58.2277L205.376 58.2301L205.719 58.5938ZM210.781 31.3594L210.315 31.5399L210.316 31.5416L210.781 31.3594ZM205.719 24L205.381 24.3688L205.387 24.3737L205.719 24ZM170.047 17.6719V17.1719H169.547V17.6719H170.047ZM170.047 65.1562H169.547V65.6562H170.047V65.1562ZM155.188 5.23438H182.047V4.23438H155.188V5.23438ZM182.047 5.23438C189.857 5.23438 196.62 6.07469 202.344 7.7456L202.624 6.78565C196.786 5.08156 189.925 4.23438 182.047 4.23438V5.23438ZM202.344 7.7456C208.074 9.418 212.79 11.8116 216.508 14.9151L217.149 14.1474C213.304 10.9384 208.457 8.48825 202.624 6.78565L202.344 7.7456ZM216.511 14.9179C220.26 17.9911 223.038 21.7362 224.85 26.1583L225.775 25.7792C223.9 21.2013 221.021 17.3214 217.145 14.1446L216.511 14.9179ZM224.851 26.1622C226.697 30.561 227.625 35.525 227.625 41.0625H228.625C228.625 35.4125 227.678 30.314 225.774 25.7753L224.851 26.1622ZM227.625 41.0625C227.625 46.316 226.714 51.1732 224.896 55.6397L225.823 56.0166C227.693 51.4205 228.625 46.434 228.625 41.0625H227.625ZM224.897 55.6386C223.083 60.0645 220.317 63.9075 216.592 67.1708L217.251 67.923C221.089 64.5612 223.948 60.5918 225.822 56.0177L224.897 55.6386ZM216.594 67.1692C212.873 70.3982 208.155 72.947 202.424 74.8056L202.732 75.7569C208.564 73.8655 213.408 71.2581 217.25 67.9245L216.594 67.1692ZM202.426 74.8049C196.706 76.6292 189.947 77.5469 182.141 77.5469V78.5469C190.022 78.5469 196.888 77.6208 202.73 75.7576L202.426 74.8049ZM182.141 77.5469L155.188 77.5L155.187 78.5L182.14 78.5469L182.141 77.5469ZM155.688 78V4.73438H154.688V78H155.688ZM185.703 65.6562C190.181 65.6562 194.128 65.0887 197.534 63.9426L197.216 62.9949C193.934 64.0988 190.1 64.6562 185.703 64.6562V65.6562ZM197.538 63.9413C200.938 62.7656 203.784 61.1069 206.062 58.9574L205.376 58.2301C203.216 60.2681 200.499 61.8594 197.212 62.9962L197.538 63.9413ZM206.059 58.9598C208.368 56.8119 210.097 54.2154 211.249 51.1772L210.314 50.8228C209.215 53.7221 207.57 56.1881 205.378 58.2277L206.059 58.9598ZM211.249 51.1772C212.398 48.1439 212.969 44.7702 212.969 41.0625H211.969C211.969 44.6673 211.414 47.9186 210.314 50.8228L211.249 51.1772ZM212.969 41.0625C212.969 37.4165 212.398 34.1189 211.247 31.1772L210.316 31.5416C211.415 34.3498 211.969 37.521 211.969 41.0625H212.969ZM211.248 31.1789C210.095 28.2012 208.362 25.681 206.051 23.6263L205.387 24.3737C207.575 26.319 209.218 28.7051 210.315 31.5399L211.248 31.1789ZM206.056 23.6312C203.777 21.5445 200.93 19.9494 197.53 18.8373L197.22 19.7877C200.507 20.8631 203.223 22.393 205.381 24.3688L206.056 23.6312ZM197.53 18.8373C194.125 17.7235 190.18 17.1719 185.703 17.1719V18.1719C190.101 18.1719 193.937 18.714 197.22 19.7877L197.53 18.8373ZM185.703 17.1719H170.047V18.1719H185.703V17.1719ZM169.547 17.6719V65.1562H170.547V17.6719H169.547ZM170.047 65.6562H185.703V64.6562H170.047V65.6562ZM240.969 39.4219L241.425 39.6269L241.425 39.6253L240.969 39.4219ZM258.125 24.0469L257.95 23.5784L257.949 23.5789L258.125 24.0469ZM286.625 24.0938L286.448 24.5615L286.452 24.563L286.625 24.0938ZM297.406 30.5625L297.065 30.9275L297.066 30.9293L297.406 30.5625ZM304.203 40.2656L303.742 40.4593L303.744 40.4626L304.203 40.2656ZM306.547 53.9531L306.047 53.9282L306.047 53.9406V53.9531H306.547ZM306.453 55.5938V56.0938H306.895L306.949 55.6558L306.453 55.5938ZM254.141 55.5938V55.0938H253.43L253.67 55.7625L254.141 55.5938ZM257 60.1406L256.638 60.4859L256.642 60.4901L257 60.1406ZM268.953 66.0469L268.848 66.5358L268.854 66.5369L268.953 66.0469ZM287.188 65.8594L287.289 66.3489L287.294 66.3479L287.188 65.8594ZM296.234 63.2812L296.692 63.0789L296.503 62.6536L296.066 62.8106L296.234 63.2812ZM300.922 73.875L301.133 74.3283L301.578 74.1213L301.379 73.6727L300.922 73.875ZM295.391 76.125L295.551 76.5986L295.556 76.5969L295.391 76.125ZM289.578 77.7188L289.678 78.2088L289.683 78.2075L289.578 77.7188ZM283.25 78.6562L283.201 78.1587L283.2 78.1587L283.25 78.6562ZM291.875 44.7656V45.2656H292.564L292.35 44.6104L291.875 44.7656ZM289.531 40.5L289.134 40.8045L289.143 40.8146L289.531 40.5ZM285.641 37.0312L285.371 37.4524L285.377 37.4562L285.641 37.0312ZM256.484 40.5938L256.1 40.2736L256.096 40.2792L256.484 40.5938ZM254.141 44.7656L253.667 44.6045L253.442 45.2656H254.141V44.7656ZM239.172 50.1562C239.172 46.4766 239.923 42.9684 241.425 39.6269L240.513 39.2169C238.952 42.6879 238.172 46.3359 238.172 50.1562H239.172ZM241.425 39.6253C242.928 36.2529 245.089 33.2776 247.915 30.6974L247.241 29.9589C244.317 32.6287 242.072 35.7158 240.512 39.2184L241.425 39.6253ZM247.915 30.6974C250.737 28.1208 254.196 26.0581 258.301 24.5149L257.949 23.5789C253.742 25.1606 250.169 27.2854 247.241 29.9589L247.915 30.6974ZM258.3 24.5153C262.422 22.9772 267.111 22.2031 272.375 22.2031V21.2031C267.014 21.2031 262.203 21.9915 257.95 23.5784L258.3 24.5153ZM272.375 22.2031C277.606 22.2031 282.295 22.9924 286.448 24.5615L286.802 23.626C282.518 22.0076 277.706 21.2031 272.375 21.2031V22.2031ZM286.452 24.563C290.648 26.1053 294.182 28.2286 297.065 30.9275L297.748 30.1975C294.756 27.3964 291.102 25.2072 286.798 23.6245L286.452 24.563ZM297.066 30.9293C299.983 33.6311 302.207 36.8065 303.742 40.4593L304.664 40.0719C303.074 36.2873 300.767 32.9939 297.746 30.1957L297.066 30.9293ZM303.744 40.4626C305.309 44.116 306.094 48.033 306.094 52.2188H307.094C307.094 47.9045 306.284 43.8528 304.663 40.0687L303.744 40.4626ZM306.094 52.2188C306.094 52.7404 306.078 53.3101 306.047 53.9282L307.046 53.9781C307.078 53.3462 307.094 52.7596 307.094 52.2188H306.094ZM306.047 53.9531C306.047 54.5297 306.017 55.0555 305.957 55.5317L306.949 55.6558C307.015 55.132 307.047 54.5641 307.047 53.9531H306.047ZM306.453 55.0938H254.141V56.0938H306.453V55.0938ZM253.67 55.7625C254.289 57.4897 255.281 59.0644 256.638 60.4859L257.362 59.7954C256.094 58.4668 255.18 57.0103 254.611 55.425L253.67 55.7625ZM256.642 60.4901C258.031 61.9108 259.75 63.1294 261.792 64.1503L262.239 63.2559C260.281 62.2768 258.657 61.1204 257.358 59.7912L256.642 60.4901ZM261.792 64.1503C263.836 65.1725 266.19 65.9661 268.848 66.5358L269.058 65.558C266.466 65.0026 264.195 64.2337 262.239 63.2559L261.792 64.1503ZM268.854 66.5369C271.517 67.0759 274.457 67.3438 277.672 67.3438V66.3438C274.512 66.3438 271.639 66.0803 269.052 65.5568L268.854 66.5369ZM277.672 67.3438C280.894 67.3438 284.1 67.012 287.289 66.3489L287.086 65.3698C283.963 66.0192 280.825 66.3438 277.672 66.3438V67.3438ZM287.294 66.3479C290.47 65.6561 293.507 64.7909 296.403 63.7519L296.066 62.8106C293.212 63.8341 290.217 64.6877 287.081 65.3708L287.294 66.3479ZM295.777 63.4836L300.465 74.0773L301.379 73.6727L296.692 63.0789L295.777 63.4836ZM300.711 73.4217C298.913 74.2585 297.085 75.0023 295.225 75.6531L295.556 76.5969C297.446 75.9352 299.306 75.179 301.133 74.3283L300.711 73.4217ZM295.23 75.6515C293.406 76.2699 291.487 76.7962 289.473 77.23L289.683 78.2075C291.732 77.7663 293.688 77.2301 295.551 76.5985L295.23 75.6515ZM289.479 77.2288C287.497 77.6313 285.404 77.9414 283.201 78.1587L283.299 79.1538C285.533 78.9336 287.66 78.6187 289.678 78.2087L289.479 77.2288ZM283.2 78.1587C281.031 78.3757 278.735 78.4844 276.312 78.4844V79.4844C278.765 79.4844 281.094 79.3743 283.3 79.1538L283.2 78.1587ZM276.312 78.4844C270.132 78.4844 264.733 77.7389 260.106 76.2582L259.801 77.2106C264.548 78.7299 270.055 79.4844 276.312 79.4844V78.4844ZM260.106 76.2582C255.466 74.7736 251.603 72.7538 248.505 70.2075L247.87 70.98C251.084 73.6212 255.065 75.6952 259.801 77.2106L260.106 76.2582ZM248.505 70.2075C245.404 67.659 243.078 64.6722 241.518 61.2459L240.607 61.6603C242.235 65.234 244.659 68.341 247.87 70.98L248.505 70.2075ZM241.518 61.2459C239.955 57.8141 239.172 54.1195 239.172 50.1562H238.172C238.172 54.2555 238.983 58.0921 240.607 61.6603L241.518 61.2459ZM292.35 44.6104C291.83 43.0184 291.019 41.543 289.92 40.1854L289.143 40.8146C290.169 42.082 290.92 43.4503 291.4 44.9208L292.35 44.6104ZM289.928 40.1956C288.857 38.8 287.514 37.6041 285.904 36.6063L285.377 37.4562C286.893 38.3959 288.143 39.5125 289.135 40.8044L289.928 40.1956ZM285.91 36.6101C284.299 35.579 282.439 34.7789 280.335 34.2051L280.072 35.1699C282.093 35.7211 283.857 36.4835 285.371 37.4524L285.91 36.6101ZM280.335 34.2051C278.223 33.6293 275.913 33.3438 273.406 33.3438V34.3438C275.837 34.3438 278.058 34.6207 280.072 35.1699L280.335 34.2051ZM273.406 33.3438C270.744 33.3438 268.308 33.6448 266.102 34.2523L266.367 35.2164C268.473 34.6364 270.819 34.3438 273.406 34.3438V33.3438ZM266.102 34.2523C263.907 34.8565 261.972 35.6706 260.3 36.6992L260.825 37.5508C262.403 36.5794 264.249 35.7997 266.367 35.2164L266.102 34.2523ZM260.3 36.6992C258.635 37.7243 257.233 38.915 256.1 40.2737L256.868 40.9138C257.924 39.6475 259.24 38.5257 260.825 37.5508L260.3 36.6992ZM256.096 40.2792C254.999 41.6334 254.188 43.0753 253.667 44.6045L254.614 44.9268C255.093 43.5185 255.844 42.1791 256.873 40.9083L256.096 40.2792ZM254.141 45.2656H291.875V44.2656H254.141V45.2656ZM323.75 61.0312L324.007 60.6025L323.569 60.3397L323.316 60.7832L323.75 61.0312ZM364.812 56.8594L364.492 57.2435L364.498 57.2478L364.812 56.8594ZM350.797 56.2031L350.848 56.7006L350.856 56.6996L350.797 56.2031ZM345.969 56.6719L345.923 56.174L345.922 56.1741L345.969 56.6719ZM331.297 55.6875L331.149 56.1651L331.151 56.1656L331.297 55.6875ZM321.266 47.3906L320.799 47.5711L320.8 47.5737L321.266 47.3906ZM327.734 27.2344L328.023 27.643L328.026 27.6405L327.734 27.2344ZM336.547 23.1562L336.412 22.6747L336.411 22.675L336.547 23.1562ZM355.062 22.125L355.004 22.6217L355.011 22.6224L355.062 22.125ZM368.984 24.7031L368.852 25.1852L368.858 25.1869L368.984 24.7031ZM374.703 26.5312L375.167 26.7187L375.355 26.2519L374.887 26.0664L374.703 26.5312ZM370.344 37.3125L370.17 37.7812L370.625 37.9505L370.807 37.4999L370.344 37.3125ZM359.75 34.2188L359.641 34.7068L359.646 34.7078L359.75 34.2188ZM342.312 33.6562L342.416 34.1456L342.422 34.1441L342.312 33.6562ZM337.953 35.2031L338.196 35.6403L338.205 35.635L337.953 35.2031ZM335.469 37.4062L335.046 37.1398L335.043 37.1442L335.469 37.4062ZM335.094 41.7656L334.641 41.9785L334.646 41.9892L334.652 41.9996L335.094 41.7656ZM336.406 43.1719L336.124 43.5845L336.136 43.5929L336.149 43.6006L336.406 43.1719ZM338.797 44.0625L338.687 44.5502L338.696 44.5522L338.705 44.5539L338.797 44.0625ZM351.219 43.6406L351.268 44.1383L351.277 44.1372L351.219 43.6406ZM356.141 43.125L356.095 42.6271L356.095 42.6271L356.141 43.125ZM370.062 44.0625L369.912 44.5392L369.913 44.5397L370.062 44.0625ZM373.109 73.1719L373.391 73.5849L373.394 73.5826L373.109 73.1719ZM363.172 77.4375L363.046 76.9536L363.045 76.9538L363.172 77.4375ZM340.25 78.375L340.318 77.8796L340.313 77.8789L340.25 78.375ZM331.766 76.8281L331.642 77.3126L331.647 77.3139L331.766 76.8281ZM324.172 74.4375L323.992 74.9039L323.994 74.9046L324.172 74.4375ZM317.75 71.5312L317.316 71.2832L317.06 71.7305L317.515 71.9726L317.75 71.5312ZM323.493 61.46C327.289 63.738 331.463 65.413 336.01 66.4866L336.24 65.5134C331.787 64.462 327.711 62.8245 324.007 60.6025L323.493 61.46ZM336.01 66.4866C340.549 67.5582 345.196 68.0938 349.953 68.0938V67.0938C345.272 67.0938 340.701 66.5668 336.24 65.5134L336.01 66.4866ZM349.953 68.0938C353.16 68.0938 355.853 67.8739 358.023 67.4272L357.821 66.4478C355.741 66.8761 353.121 67.0938 349.953 67.0938V68.0938ZM358.023 67.4272C360.174 66.9843 361.928 66.4092 363.268 65.6906L362.795 64.8094C361.572 65.4658 359.92 66.0157 357.821 66.4478L358.023 67.4272ZM363.268 65.6906C364.596 64.9777 365.584 64.1426 366.177 63.1657L365.323 62.6468C364.853 63.4199 364.029 64.1473 362.795 64.8094L363.268 65.6906ZM366.177 63.1657C366.75 62.2229 367.047 61.2436 367.047 60.2344H366.047C366.047 61.0377 365.813 61.8396 365.323 62.6468L366.177 63.1657ZM367.047 60.2344C367.047 58.7497 366.383 57.4891 365.127 56.471L364.498 57.2478C365.554 58.1047 366.047 59.094 366.047 60.2344H367.047ZM365.133 56.4753C363.87 55.4231 361.847 54.9531 359.188 54.9531V55.9531C361.778 55.9531 363.505 56.4207 364.492 57.2435L365.133 56.4753ZM359.188 54.9531C357.948 54.9531 356.617 55.0326 355.195 55.1906L355.305 56.1844C356.696 56.0299 357.99 55.9531 359.188 55.9531V54.9531ZM355.195 55.1906C353.787 55.347 352.301 55.519 350.737 55.7067L350.856 56.6996C352.418 56.5122 353.901 56.3405 355.305 56.1844L355.195 55.1906ZM350.746 55.7057C349.217 55.8618 347.609 56.0179 345.923 56.174L346.015 57.1697C347.704 57.0134 349.315 56.857 350.848 56.7005L350.746 55.7057ZM345.922 56.1741C344.282 56.3288 342.61 56.4062 340.906 56.4062V57.4062C342.64 57.4062 344.343 57.3274 346.016 57.1697L345.922 56.1741ZM340.906 56.4062C337.19 56.4062 334.039 56.0033 331.443 55.2094L331.151 56.1656C333.868 56.9967 337.123 57.4062 340.906 57.4062V56.4062ZM331.445 55.2099C328.868 54.4122 326.792 53.3309 325.199 51.9782L324.551 52.7405C326.271 54.2004 328.476 55.3378 331.149 56.1651L331.445 55.2099ZM325.199 51.9782C323.601 50.622 322.449 49.0325 321.731 47.2076L320.8 47.5737C321.582 49.5613 322.836 51.2843 324.551 52.7405L325.199 51.9782ZM321.732 47.2101C321.006 45.334 320.641 43.3175 320.641 41.1562H319.641C319.641 43.4325 320.026 45.5722 320.799 47.5711L321.732 47.2101ZM320.641 41.1562C320.641 38.4251 321.277 35.915 322.547 33.6168L321.672 33.1332C320.317 35.585 319.641 38.2624 319.641 41.1562H320.641ZM322.547 33.6168C323.819 31.3144 325.641 29.3226 328.023 27.643L327.446 26.8257C324.953 28.5837 323.024 30.6856 321.672 33.1332L322.547 33.6168ZM328.026 27.6405C330.408 25.9302 333.291 24.5934 336.683 23.6375L336.411 22.675C332.928 23.6566 329.936 25.0385 327.443 26.8282L328.026 27.6405ZM336.681 23.6378C340.099 22.6833 343.913 22.2031 348.125 22.2031V21.2031C343.837 21.2031 339.932 21.6917 336.412 22.6747L336.681 23.6378ZM348.125 22.2031C350.323 22.2031 352.616 22.3424 355.004 22.6216L355.121 21.6284C352.697 21.3451 350.365 21.2031 348.125 21.2031V22.2031ZM355.011 22.6224C357.436 22.871 359.813 23.2128 362.143 23.6478L362.326 22.6647C359.969 22.2247 357.564 21.879 355.114 21.6276L355.011 22.6224ZM362.143 23.6478C364.473 24.0829 366.71 24.5954 368.852 25.1852L369.117 24.2211C366.946 23.6234 364.683 23.1046 362.326 22.6647L362.143 23.6478ZM368.858 25.1869C370.999 25.7455 372.886 26.3489 374.519 26.9961L374.887 26.0664C373.208 25.4011 371.282 24.7857 369.111 24.2193L368.858 25.1869ZM374.24 26.3438L369.88 37.1251L370.807 37.4999L375.167 26.7187L374.24 26.3438ZM370.518 36.8438C366.965 35.5232 363.41 34.485 359.854 33.7297L359.646 34.7078C363.152 35.4525 366.66 36.4768 370.17 37.7812L370.518 36.8438ZM359.859 33.7308C356.322 32.9412 352.676 32.5469 348.922 32.5469V33.5469C352.605 33.5469 356.178 33.9338 359.641 34.7067L359.859 33.7308ZM348.922 32.5469C346.305 32.5469 344.063 32.7516 342.203 33.1684L342.422 34.1441C344.187 33.7484 346.352 33.5469 348.922 33.5469V32.5469ZM342.209 33.167C340.395 33.549 338.887 34.0796 337.701 34.7712L338.205 35.635C339.269 35.0141 340.667 34.5135 342.416 34.1455L342.209 33.167ZM337.71 34.766C336.533 35.4203 335.633 36.2072 335.046 37.1398L335.892 37.6727C336.367 36.9178 337.124 36.2359 338.196 35.6402L337.71 34.766ZM335.043 37.1442C334.497 38.0312 334.219 38.9806 334.219 39.9844H335.219C335.219 39.1756 335.44 38.4063 335.895 37.6683L335.043 37.1442ZM334.219 39.9844C334.219 40.7055 334.356 41.3732 334.641 41.9785L335.546 41.5527C335.331 41.0955 335.219 40.5757 335.219 39.9844H334.219ZM334.652 41.9996C334.978 42.6153 335.476 43.1415 336.124 43.5845L336.689 42.7592C336.149 42.3898 335.772 41.9785 335.536 41.5317L334.652 41.9996ZM336.149 43.6006C336.833 44.0109 337.684 44.3237 338.687 44.5502L338.907 43.5748C337.973 43.3638 337.23 43.0829 336.663 42.7431L336.149 43.6006ZM338.705 44.5539C339.745 44.7489 340.996 44.8438 342.453 44.8438V43.8438C341.035 43.8438 339.849 43.7511 338.889 43.5711L338.705 44.5539ZM342.453 44.8438C343.785 44.8438 345.194 44.7645 346.678 44.6066L346.572 43.6122C345.119 43.7668 343.746 43.8438 342.453 43.8438V44.8438ZM346.678 44.6066C348.145 44.4505 349.675 44.2944 351.268 44.1382L351.17 43.143C349.575 43.2994 348.042 43.4558 346.572 43.6122L346.678 44.6066ZM351.277 44.1372C352.867 43.9502 354.503 43.7788 356.187 43.6229L356.095 42.6271C354.403 42.7837 352.758 42.956 351.16 43.144L351.277 44.1372ZM356.186 43.6229C357.889 43.4681 359.624 43.3906 361.391 43.3906V42.3906C359.595 42.3906 357.83 42.4694 356.095 42.6271L356.186 43.6229ZM361.391 43.3906C364.665 43.3906 367.503 43.777 369.912 44.5392L370.213 43.5858C367.684 42.7855 364.741 42.3906 361.391 42.3906V43.3906ZM369.913 44.5397C372.362 45.3049 374.36 46.3692 375.923 47.7218L376.577 46.9657C374.89 45.5058 372.763 44.3826 370.212 43.5853L369.913 44.5397ZM375.923 47.7218C377.492 49.0802 378.665 50.6749 379.446 52.5085L380.366 52.1165C379.523 50.1376 378.258 48.4198 376.577 46.9657L375.923 47.7218ZM379.446 52.5085C380.23 54.3477 380.625 56.3584 380.625 58.5469H381.625C381.625 56.2353 381.207 54.0898 380.366 52.1165L379.446 52.5085ZM380.625 58.5469C380.625 61.3726 379.973 63.9941 378.669 66.4195L379.55 66.893C380.934 64.3184 381.625 61.5337 381.625 58.5469H380.625ZM378.669 66.4195C377.367 68.841 375.425 70.956 372.824 72.7611L373.394 73.5826C376.106 71.7002 378.164 69.4715 379.55 66.893L378.669 66.4195ZM372.828 72.7589C370.23 74.5314 366.974 75.933 363.046 76.9536L363.298 77.9214C367.307 76.8795 370.676 75.4374 373.391 73.5849L372.828 72.7589ZM363.045 76.9538C359.159 77.9717 354.64 78.4844 349.484 78.4844V79.4844C354.704 79.4844 359.31 78.9658 363.299 77.9212L363.045 76.9538ZM349.484 78.4844C346.318 78.4844 343.263 78.2826 340.318 77.8796L340.182 78.8704C343.175 79.2799 346.276 79.4844 349.484 79.4844V78.4844ZM340.313 77.8789C337.361 77.5061 334.552 76.9938 331.884 76.3424L331.647 77.3139C334.354 77.975 337.201 78.4939 340.187 78.8711L340.313 77.8789ZM331.89 76.3437C329.219 75.6605 326.706 74.8692 324.35 73.9704L323.994 74.9046C326.388 75.8183 328.937 76.6207 331.642 77.3125L331.89 76.3437ZM324.352 73.9711C322.025 73.0711 319.902 72.1105 317.985 71.0899L317.515 71.9726C319.473 73.0145 321.632 73.9914 323.992 74.9039L324.352 73.9711ZM318.184 71.7793L324.184 61.2793L323.316 60.7832L317.316 71.2832L318.184 71.7793ZM397.203 14.5781L397.029 15.0468L397.037 15.0498L397.045 15.0525L397.203 14.5781ZM394.391 12.9844L394.06 13.3598L394.069 13.3672L394.391 12.9844ZM392.562 10.6406L392.106 10.8452L392.111 10.8548L392.115 10.8642L392.562 10.6406ZM392.562 4.92188L392.112 4.70448L392.109 4.71132L392.562 4.92188ZM397.203 1.03125L397.365 1.50429L397.373 1.50153L397.203 1.03125ZM404.703 1.03125L404.529 1.49996L404.537 1.50291L404.545 1.50559L404.703 1.03125ZM409.344 4.92188L408.887 5.1264L408.892 5.13604L408.897 5.14548L409.344 4.92188ZM409.344 10.6406L408.893 10.4232L408.89 10.4301L409.344 10.6406ZM407.562 12.9844L407.884 13.3673L407.893 13.3597L407.562 12.9844ZM404.703 14.5781L404.865 15.0512L404.873 15.0484L404.703 14.5781ZM394.016 22.6875V22.1875H393.516V22.6875H394.016ZM407.891 22.6875H408.391V22.1875H407.891V22.6875ZM407.891 78V78.5H408.391V78H407.891ZM394.016 78H393.516V78.5H394.016V78ZM400.953 14.6406C399.623 14.6406 398.428 14.4593 397.361 14.1038L397.045 15.0525C398.228 15.4469 399.533 15.6406 400.953 15.6406V14.6406ZM397.377 14.1094C396.33 13.7203 395.444 13.216 394.712 12.6015L394.069 13.3672C394.9 14.0652 395.889 14.6235 397.029 15.0468L397.377 14.1094ZM394.721 12.609C393.985 11.9613 393.417 11.2308 393.01 10.417L392.115 10.8642C392.583 11.8005 393.234 12.6324 394.06 13.3597L394.721 12.609ZM393.019 10.4361C392.642 9.59463 392.453 8.71126 392.453 7.78125H391.453C391.453 8.85124 391.671 9.87412 392.106 10.8452L393.019 10.4361ZM392.453 7.78125C392.453 6.81762 392.642 5.93698 393.016 5.13243L392.109 4.71132C391.67 5.65677 391.453 6.68238 391.453 7.78125H392.453ZM393.013 5.13925C393.419 4.29754 393.984 3.57243 394.712 2.96098L394.069 2.19527C393.234 2.89632 392.581 3.73371 392.112 4.7045L393.013 5.13925ZM394.712 2.96098C395.44 2.34924 396.322 1.86189 397.365 1.50422L397.041 0.558277C395.897 0.950606 394.903 1.49451 394.069 2.19527L394.712 2.96098ZM397.373 1.50153C398.436 1.11764 399.627 0.921875 400.953 0.921875V-0.078125C399.529 -0.078125 398.22 0.132355 397.033 0.560973L397.373 1.50153ZM400.953 0.921875C402.312 0.921875 403.501 1.11817 404.529 1.49996L404.877 0.562537C403.718 0.131834 402.407 -0.078125 400.953 -0.078125V0.921875ZM404.545 1.50559C405.62 1.86385 406.515 2.35126 407.241 2.96098L407.884 2.19527C407.047 1.49249 406.036 0.948646 404.861 0.556908L404.545 1.50559ZM407.241 2.96098C407.966 3.57008 408.513 4.29091 408.887 5.1264L409.8 4.71735C409.362 3.74034 408.721 2.89867 407.884 2.19527L407.241 2.96098ZM408.897 5.14548C409.297 5.94729 409.5 6.8233 409.5 7.78125H410.5C410.5 6.6767 410.265 5.64646 409.791 4.69827L408.897 5.14548ZM409.5 7.78125C409.5 8.70548 409.298 9.58435 408.893 10.4233L409.794 10.858C410.264 9.8844 410.5 8.85702 410.5 7.78125H409.5ZM408.89 10.4301C408.515 11.2374 407.966 11.9637 407.232 12.609L407.893 13.3597C408.722 12.6301 409.36 11.7939 409.797 10.8512L408.89 10.4301ZM407.241 12.6015C406.512 13.214 405.612 13.7182 404.533 14.1078L404.873 15.0484C406.044 14.6255 407.051 14.0672 407.884 13.3672L407.241 12.6015ZM404.541 14.1052C403.509 14.4589 402.316 14.6406 400.953 14.6406V15.6406C402.403 15.6406 403.709 15.4474 404.865 15.0511L404.541 14.1052ZM394.016 23.1875H407.891V22.1875H394.016V23.1875ZM407.391 22.6875V78H408.391V22.6875H407.391ZM407.891 77.5H394.016V78.5H407.891V77.5ZM394.516 78V22.6875H393.516V78H394.516ZM434.375 87.375L434.543 86.9041L434.105 86.7476L433.917 87.1736L434.375 87.375ZM439.719 88.9219L439.836 88.4358L439.828 88.434L439.719 88.9219ZM444.969 89.9531L445.05 89.4596L445.042 89.4585L444.969 89.9531ZM449.891 90.5156L449.931 90.0171L449.921 90.0165L449.891 90.5156ZM463.672 89.3438L463.52 88.8672L463.514 88.8694L463.672 89.3438ZM470.516 85.7812L470.2 85.3934L470.197 85.3961L470.516 85.7812ZM474.641 80.5312L474.186 80.3222L474.185 80.3249L474.641 80.5312ZM476 71.8594H476.5V70.9114L475.718 71.4467L476 71.8594ZM460.484 77.5312L460.406 77.0375L460.405 77.0377L460.484 77.5312ZM441.312 76.0312L441.144 76.502L441.147 76.5032L441.312 76.0312ZM431.328 70.3125L430.998 70.6883L431.001 70.6903L431.328 70.3125ZM424.719 61.4531L424.264 61.66L424.265 61.6634L424.719 61.4531ZM424.859 38.3906L425.311 38.6061L425.311 38.6045L424.859 38.3906ZM431.703 29.4375L431.381 29.0547L431.379 29.0564L431.703 29.4375ZM466.719 23.1094L466.599 23.5949L466.601 23.5954L466.719 23.1094ZM471.781 24.7031L471.596 25.1675L471.607 25.1717L471.781 24.7031ZM476 26.6719L475.746 27.1026L476.5 27.5472V26.6719H476ZM476 22.6875V22.1875H475.5V22.6875H476ZM489.875 22.6875H490.375V22.1875H489.875V22.6875ZM480.828 94.7812L480.497 94.4067L480.493 94.4104L480.828 94.7812ZM469.859 100.781L469.713 100.303L469.709 100.304L469.859 100.781ZM448.484 102.562L448.527 102.064L448.52 102.064L448.484 102.562ZM441.875 101.812L441.952 101.318L441.946 101.318L441.875 101.812ZM435.359 100.641L435.466 100.152L435.46 100.151L435.359 100.641ZM429.219 99.0938L428.761 98.8924L428.534 99.4094L429.074 99.5725L429.219 99.0938ZM438.266 56.1562L437.809 56.3594L437.813 56.3681L438.266 56.1562ZM442.109 61.2656L441.778 61.6397L441.782 61.6432L442.109 61.2656ZM448.109 64.6875L447.94 65.158L447.946 65.1599L448.109 64.6875ZM461.703 65.3906L461.793 65.8825L461.8 65.8812L461.703 65.3906ZM467.141 63.8438L466.965 63.3756L466.962 63.3766L467.141 63.8438ZM472.016 61.4531L471.755 61.0267L471.751 61.0291L472.016 61.4531ZM476 58.3125L476.358 58.6612L476.5 58.5156V58.3125H476ZM476 40.0781H476.5V39.8378L476.312 39.6877L476 40.0781ZM461.844 34.2188L461.769 34.7132L461.778 34.7144L461.844 34.2188ZM448.484 35.1094L448.324 34.6356L448.323 34.6362L448.484 35.1094ZM442.203 38.5781L442.527 38.9587L442.528 38.9582L442.203 38.5781ZM434.207 87.8459C435.976 88.4777 437.777 88.9991 439.609 89.4098L439.828 88.434C438.036 88.0322 436.274 87.5223 434.543 86.9041L434.207 87.8459ZM439.601 89.4079C441.427 89.8486 443.192 90.1953 444.895 90.4477L445.042 89.4585C443.371 89.2109 441.635 88.8701 439.836 88.4358L439.601 89.4079ZM444.888 90.4466C446.622 90.7303 448.279 90.9199 449.861 91.0147L449.921 90.0165C448.377 89.9239 446.753 89.7385 445.049 89.4597L444.888 90.4466ZM449.851 91.014C451.423 91.1398 452.827 91.2031 454.062 91.2031V90.2031C452.86 90.2031 451.483 90.1414 449.93 90.0172L449.851 91.014ZM454.062 91.2031C457.789 91.2031 461.048 90.7454 463.83 89.8181L463.514 88.8694C460.858 89.7546 457.711 90.2031 454.062 90.2031V91.2031ZM463.823 89.8202C466.621 88.9301 468.963 87.7154 470.834 86.1664L470.197 85.3961C468.444 86.8471 466.223 88.0074 463.52 88.8673L463.823 89.8202ZM470.831 86.1691C472.73 84.6244 474.155 82.8138 475.096 80.7376L474.185 80.3249C473.313 82.2487 471.989 83.9381 470.2 85.3934L470.831 86.1691ZM475.095 80.7403C476.032 78.7044 476.5 76.5392 476.5 74.25H475.5C475.5 76.3983 475.062 78.4206 474.186 80.3222L475.095 80.7403ZM476.5 74.25V71.8594H475.5V74.25H476.5ZM475.718 71.4467C474.556 72.2412 473.19 73.0097 471.615 73.7507L472.041 74.6555C473.654 73.8966 475.069 73.1025 476.282 72.272L475.718 71.4467ZM471.615 73.7507C470.047 74.4886 468.321 75.1361 466.437 75.6923L466.72 76.6514C468.647 76.0826 470.421 75.4177 472.041 74.6555L471.615 73.7507ZM466.437 75.6923C464.553 76.2482 462.543 76.6968 460.406 77.0375L460.563 78.025C462.739 77.6782 464.791 77.2206 466.72 76.6514L466.437 75.6923ZM460.405 77.0377C458.307 77.3769 456.131 77.5469 453.875 77.5469V78.5469C456.181 78.5469 458.411 78.3731 460.564 78.0248L460.405 77.0377ZM453.875 77.5469C449.394 77.5469 445.263 76.8825 441.478 75.5593L441.147 76.5032C445.05 77.8675 449.294 78.5469 453.875 78.5469V77.5469ZM441.481 75.5605C437.69 74.2043 434.417 72.3278 431.656 69.9347L431.001 70.6903C433.864 73.1722 437.248 75.1082 441.144 76.502L441.481 75.5605ZM431.658 69.9367C428.898 67.5145 426.737 64.618 425.172 61.2428L424.265 61.6634C425.888 65.1633 428.133 68.173 430.998 70.6883L431.658 69.9367ZM425.174 61.2462C423.644 57.8805 422.875 54.1396 422.875 50.0156H421.875C421.875 54.2667 422.668 58.1508 424.264 61.66L425.174 61.2462ZM422.875 50.0156C422.875 45.8004 423.69 42.0002 425.311 38.6061L424.408 38.1752C422.716 41.7185 421.875 45.6684 421.875 50.0156H422.875ZM425.311 38.6045C426.938 35.1677 429.176 32.2406 432.027 29.8186L431.379 29.0564C428.418 31.5719 426.094 34.6136 424.407 38.1768L425.311 38.6045ZM432.025 29.8203C434.91 27.3957 438.322 25.5185 442.269 24.1927L441.95 23.2448C437.897 24.6065 434.371 26.5418 431.381 29.0547L432.025 29.8203ZM442.269 24.1927C446.212 22.868 450.501 22.2031 455.141 22.2031V21.2031C450.405 21.2031 446.007 21.882 441.95 23.2448L442.269 24.1927ZM455.141 22.2031C457.12 22.2031 459.083 22.3268 461.031 22.5741L461.157 21.5821C459.167 21.3294 457.162 21.2031 455.141 21.2031V22.2031ZM461.031 22.5741C462.982 22.8219 464.838 23.1624 466.599 23.5949L466.838 22.6238C465.037 22.1814 463.143 21.8343 461.157 21.5821L461.031 22.5741ZM466.601 23.5954C468.393 24.0279 470.058 24.5522 471.596 25.1674L471.967 24.2389C470.38 23.6041 468.669 23.0659 466.836 22.6233L466.601 23.5954ZM471.607 25.1717C473.178 25.7571 474.557 26.4014 475.746 27.1026L476.254 26.2412C475.005 25.5049 473.572 24.8366 471.956 24.2346L471.607 25.1717ZM476.5 26.6719V22.6875H475.5V26.6719H476.5ZM476 23.1875H489.875V22.1875H476V23.1875ZM489.375 22.6875V71.6719H490.375V22.6875H489.375ZM489.375 71.6719C489.375 76.6529 488.617 81.0418 487.113 84.8475L488.043 85.215C489.602 81.2707 490.375 76.7533 490.375 71.6719H489.375ZM487.113 84.8475C485.609 88.6531 483.404 91.8365 480.497 94.4067L481.159 95.1558C484.19 92.476 486.484 89.1594 488.043 85.215L487.113 84.8475ZM480.493 94.4104C477.617 97.0105 474.028 98.9777 469.713 100.303L470.006 101.259C474.44 99.8973 478.164 97.8645 481.163 95.1521L480.493 94.4104ZM469.709 100.304C465.393 101.661 460.429 102.344 454.812 102.344V103.344C460.508 103.344 465.576 102.652 470.009 101.258L469.709 100.304ZM454.812 102.344C452.797 102.344 450.702 102.251 448.527 102.064L448.442 103.061C450.642 103.249 452.766 103.344 454.812 103.344V102.344ZM448.52 102.064C446.347 101.909 444.157 101.66 441.952 101.318L441.798 102.307C444.03 102.652 446.247 102.904 448.449 103.061L448.52 102.064ZM441.946 101.318C439.77 101.007 437.61 100.618 435.466 100.152L435.253 101.129C437.421 101.601 439.605 101.993 441.804 102.307L441.946 101.318ZM435.46 100.151C433.349 99.7163 431.317 99.2042 429.363 98.615L429.074 99.5725C431.058 100.171 433.12 100.69 435.259 101.13L435.46 100.151ZM429.676 99.2951L434.833 87.5764L433.917 87.1736L428.761 98.8924L429.676 99.2951ZM436.453 49.875C436.453 52.1616 436.904 54.3247 437.809 56.3593L438.723 55.9532C437.877 54.0503 437.453 52.0259 437.453 49.875H436.453ZM437.813 56.3681C438.749 58.3695 440.072 60.1273 441.778 61.6397L442.441 60.8915C440.834 59.4664 439.595 57.818 438.719 55.9444L437.813 56.3681ZM441.782 61.6432C443.49 63.1263 445.546 64.2961 447.94 65.1579L448.279 64.2171C445.985 63.3914 444.041 62.2799 442.437 60.888L441.782 61.6432ZM447.946 65.1599C450.351 65.9937 453.048 66.4062 456.031 66.4062V65.4062C453.139 65.4062 450.556 65.0063 448.273 64.2151L447.946 65.1599ZM456.031 66.4062C457.968 66.4062 459.889 66.2316 461.793 65.8824L461.613 64.8988C459.768 65.2371 457.907 65.4062 456.031 65.4062V66.4062ZM461.8 65.8812C463.732 65.501 465.572 64.9778 467.319 64.3109L466.962 63.3766C465.272 64.0222 463.487 64.5302 461.607 64.9L461.8 65.8812ZM467.316 64.3119C469.096 63.6446 470.751 62.8333 472.281 61.8771L471.751 61.0291C470.28 61.948 468.686 62.7304 466.965 63.3756L467.316 64.3119ZM472.277 61.8796C473.84 60.9227 475.201 59.8504 476.358 58.6612L475.642 57.9638C474.549 59.0871 473.254 60.1085 471.755 61.0267L472.277 61.8796ZM476.5 58.3125V40.0781H475.5V58.3125H476.5ZM476.312 39.6877C474.879 38.5414 473.365 37.569 471.77 36.7715L471.323 37.666C472.853 38.431 474.308 39.3649 475.688 40.4686L476.312 39.6877ZM471.77 36.7715C470.184 35.9783 468.565 35.3273 466.913 34.819L466.619 35.7748C468.217 36.2664 469.785 36.8967 471.323 37.666L471.77 36.7715ZM466.913 34.819C465.261 34.3109 463.594 33.9455 461.909 33.7231L461.778 34.7144C463.406 34.9295 465.02 35.2828 466.619 35.7748L466.913 34.819ZM461.918 33.7244C460.239 33.4709 458.605 33.3438 457.016 33.3438V34.3438C458.551 34.3438 460.136 34.4666 461.769 34.7131L461.918 33.7244ZM457.016 33.3438C453.785 33.3438 450.885 33.7713 448.324 34.6356L448.644 35.5831C451.083 34.7599 453.872 34.3438 457.016 34.3438V33.3438ZM448.323 34.6362C445.803 35.4973 443.652 36.6824 441.878 38.198L442.528 38.9582C444.192 37.5363 446.228 36.4089 448.646 35.5825L448.323 34.6362ZM441.879 38.1975C440.139 39.6797 438.797 41.4241 437.86 43.4288L438.765 43.8525C439.64 41.9822 440.892 40.3516 442.527 38.9587L441.879 38.1975ZM437.86 43.4288C436.921 45.4351 436.453 47.5858 436.453 49.875H437.453C437.453 47.7267 437.891 45.7212 438.765 43.8525L437.86 43.4288ZM505.672 22.6875V22.1875H505.172V22.6875H505.672ZM519.547 22.6875H520.047V22.1875H519.547V22.6875ZM519.547 27.375H519.047V28.2339L519.794 27.8098L519.547 27.375ZM530.094 22.9688L529.972 22.4837L529.971 22.4839L530.094 22.9688ZM551.703 23.5781L551.539 24.0504L551.543 24.0516L551.703 23.5781ZM567.172 38.2031L566.708 38.3895L566.71 38.3943L567.172 38.2031ZM569.422 78V78.5H569.922V78H569.422ZM555.594 78H555.094V78.5H555.594V78ZM554.281 44.9531L553.809 45.1186L553.812 45.126L554.281 44.9531ZM550.578 38.9062L550.218 39.253L550.225 39.2598L550.578 38.9062ZM544.719 35.1562L544.54 35.6232L544.547 35.626L544.719 35.1562ZM532.391 34.3125L532.294 33.8218L532.293 33.8222L532.391 34.3125ZM527.75 35.6719L527.926 36.1401L527.931 36.1381L527.75 35.6719ZM523.391 37.8281L523.648 38.2569L523.655 38.2527L523.391 37.8281ZM519.547 40.7344L519.203 40.3711L519.047 40.5191V40.7344H519.547ZM519.547 78V78.5H520.047V78H519.547ZM505.672 78H505.172V78.5H505.672V78ZM505.672 23.1875H519.547V22.1875H505.672V23.1875ZM519.047 22.6875V27.375H520.047V22.6875H519.047ZM519.794 27.8098C523.451 25.7334 526.925 24.2841 530.216 23.4536L529.971 22.4839C526.575 23.3409 523.018 24.8291 519.3 26.9402L519.794 27.8098ZM530.215 23.4538C533.554 22.6192 536.81 22.2031 539.984 22.2031V21.2031C536.722 21.2031 533.384 21.6308 529.972 22.4837L530.215 23.4538ZM539.984 22.2031C544.153 22.2031 548.003 22.8206 551.539 24.0504L551.867 23.1059C548.215 21.8356 544.253 21.2031 539.984 21.2031V22.2031ZM551.543 24.0516C555.074 25.2491 558.121 27.0422 560.691 29.4289L561.371 28.6961C558.692 26.2078 555.52 24.3446 551.864 23.1046L551.543 24.0516ZM560.691 29.4289C563.257 31.8114 565.264 34.7947 566.708 38.3895L567.636 38.0167C566.142 34.299 564.056 31.1886 561.371 28.6961L560.691 29.4289ZM566.71 38.3943C568.18 41.947 568.922 46.0829 568.922 50.8125H569.922C569.922 45.9796 569.164 41.7093 567.634 38.0119L566.71 38.3943ZM568.922 50.8125V78H569.922V50.8125H568.922ZM569.422 77.5H555.594V78.5H569.422V77.5ZM556.094 78V53.0625H555.094V78H556.094ZM556.094 53.0625C556.094 49.9836 555.649 47.2204 554.75 44.7803L553.812 45.126C554.663 47.4359 555.094 50.0789 555.094 53.0625H556.094ZM554.753 44.7877C553.887 42.3185 552.615 40.2363 550.932 38.5527L550.225 39.2598C551.791 40.8262 552.988 42.7753 553.809 45.1186L554.753 44.7877ZM550.938 38.5596C549.288 36.8446 547.269 35.5545 544.89 34.6865L544.547 35.626C546.794 36.4455 548.681 37.6554 550.218 39.2529L550.938 38.5596ZM544.898 34.6894C542.551 33.7892 539.926 33.3438 537.031 33.3438V34.3438C539.824 34.3438 542.324 34.7733 544.54 35.6231L544.898 34.6894ZM537.031 33.3438C535.496 33.3438 533.917 33.5036 532.294 33.8218L532.487 34.8032C534.051 34.4964 535.566 34.3438 537.031 34.3438V33.3438ZM532.293 33.8222C530.701 34.1405 529.126 34.6019 527.569 35.2057L527.931 36.1381C529.436 35.5544 530.955 35.1095 532.489 34.8028L532.293 33.8222ZM527.574 35.2037C526.043 35.7782 524.56 36.5118 523.126 37.4036L523.655 38.2527C525.034 37.3945 526.457 36.6906 527.926 36.14L527.574 35.2037ZM523.133 37.3994C521.697 38.2612 520.387 39.2517 519.203 40.3711L519.89 41.0976C521.02 40.0295 522.272 39.0825 523.648 38.2569L523.133 37.3994ZM519.047 40.7344V78H520.047V40.7344H519.047ZM519.547 77.5H505.672V78.5H519.547V77.5ZM506.172 78V22.6875H505.172V78H506.172ZM586.156 39.4219L586.612 39.6269L586.613 39.6253L586.156 39.4219ZM603.312 24.0469L603.138 23.5784L603.137 23.5789L603.312 24.0469ZM631.812 24.0938L631.636 24.5615L631.64 24.563L631.812 24.0938ZM642.594 30.5625L642.252 30.9275L642.254 30.9293L642.594 30.5625ZM649.391 40.2656L648.93 40.4593L648.931 40.4626L649.391 40.2656ZM651.734 53.9531L651.235 53.9282L651.234 53.9406V53.9531H651.734ZM651.641 55.5938V56.0938H652.082L652.137 55.6558L651.641 55.5938ZM599.328 55.5938V55.0938H598.618L598.857 55.7625L599.328 55.5938ZM602.188 60.1406L601.826 60.4859L601.83 60.4901L602.188 60.1406ZM614.141 66.0469L614.036 66.5358L614.041 66.5369L614.141 66.0469ZM632.375 65.8594L632.477 66.3489L632.481 66.3479L632.375 65.8594ZM641.422 63.2812L641.879 63.0789L641.691 62.6536L641.253 62.8106L641.422 63.2812ZM646.109 73.875L646.32 74.3283L646.765 74.1213L646.567 73.6727L646.109 73.875ZM640.578 76.125L640.739 76.5986L640.743 76.5969L640.578 76.125ZM634.766 77.7188L634.865 78.2088L634.871 78.2075L634.766 77.7188ZM628.438 78.6562L628.388 78.1587L628.388 78.1587L628.438 78.6562ZM637.062 44.7656V45.2656H637.752L637.538 44.6104L637.062 44.7656ZM634.719 40.5L634.322 40.8045L634.33 40.8146L634.719 40.5ZM630.828 37.0312L630.559 37.4524L630.565 37.4562L630.828 37.0312ZM601.672 40.5938L601.288 40.2736L601.283 40.2792L601.672 40.5938ZM599.328 44.7656L598.855 44.6045L598.63 45.2656H599.328V44.7656ZM584.359 50.1562C584.359 46.4766 585.11 42.9684 586.612 39.6269L585.7 39.2169C584.14 42.6879 583.359 46.3359 583.359 50.1562H584.359ZM586.613 39.6253C588.115 36.2529 590.277 33.2776 593.103 30.6974L592.428 29.9589C589.504 32.6287 587.26 35.7158 585.7 39.2184L586.613 39.6253ZM593.103 30.6974C595.925 28.1208 599.383 26.0581 603.488 24.5149L603.137 23.5789C598.929 25.1606 595.357 27.2854 592.428 29.9589L593.103 30.6974ZM603.487 24.5153C607.609 22.9772 612.299 22.2031 617.562 22.2031V21.2031C612.201 21.2031 607.391 21.9915 603.138 23.5784L603.487 24.5153ZM617.562 22.2031C622.794 22.2031 627.482 22.9924 631.636 24.5615L631.989 23.626C627.705 22.0076 622.894 21.2031 617.562 21.2031V22.2031ZM631.64 24.563C635.835 26.1053 639.369 28.2286 642.252 30.9275L642.935 30.1975C639.943 27.3964 636.29 25.2072 631.985 23.6245L631.64 24.563ZM642.254 30.9293C645.171 33.6311 647.395 36.8065 648.93 40.4593L649.852 40.0719C648.261 36.2873 645.954 32.9939 642.934 30.1957L642.254 30.9293ZM648.931 40.4626C650.497 44.116 651.281 48.033 651.281 52.2188H652.281C652.281 47.9045 651.472 43.8528 649.85 40.0687L648.931 40.4626ZM651.281 52.2188C651.281 52.7404 651.266 53.3101 651.235 53.9282L652.234 53.9781C652.265 53.3462 652.281 52.7596 652.281 52.2188H651.281ZM651.234 53.9531C651.234 54.5297 651.204 55.0555 651.144 55.5317L652.137 55.6558C652.202 55.132 652.234 54.5641 652.234 53.9531H651.234ZM651.641 55.0938H599.328V56.0938H651.641V55.0938ZM598.857 55.7625C599.477 57.4897 600.469 59.0644 601.826 60.4859L602.549 59.7954C601.281 58.4668 600.367 57.0103 599.799 55.425L598.857 55.7625ZM601.83 60.4901C603.218 61.9108 604.938 63.1294 606.98 64.1503L607.427 63.2559C605.469 62.2768 603.844 61.1204 602.545 59.7912L601.83 60.4901ZM606.98 64.1503C609.024 65.1725 611.378 65.9661 614.036 66.5358L614.245 65.558C611.654 65.0026 609.382 64.2337 607.427 63.2559L606.98 64.1503ZM614.041 66.5369C616.705 67.0759 619.645 67.3438 622.859 67.3438V66.3438C619.699 66.3438 616.827 66.0803 614.24 65.5568L614.041 66.5369ZM622.859 67.3438C626.081 67.3438 629.287 67.012 632.477 66.3489L632.273 65.3698C629.15 66.0192 626.012 66.3438 622.859 66.3438V67.3438ZM632.481 66.3479C635.658 65.6561 638.694 64.7909 641.591 63.7519L641.253 62.8106C638.4 63.8341 635.405 64.6877 632.269 65.3708L632.481 66.3479ZM640.965 63.4836L645.652 74.0773L646.567 73.6727L641.879 63.0789L640.965 63.4836ZM645.898 73.4217C644.101 74.2585 642.272 75.0023 640.413 75.6531L640.743 76.5969C642.634 75.9352 644.493 75.179 646.32 74.3283L645.898 73.4217ZM640.418 75.6515C638.593 76.2699 636.674 76.7962 634.66 77.23L634.871 78.2075C636.92 77.7663 638.876 77.2301 640.739 76.5985L640.418 75.6515ZM634.666 77.2288C632.684 77.6313 630.592 77.9414 628.388 78.1587L628.487 79.1538C630.721 78.9336 632.847 78.6187 634.865 78.2087L634.666 77.2288ZM628.388 78.1587C626.218 78.3757 623.923 78.4844 621.5 78.4844V79.4844C623.952 79.4844 626.282 79.3743 628.487 79.1538L628.388 78.1587ZM621.5 78.4844C615.32 78.4844 609.92 77.7389 605.293 76.2582L604.988 77.2106C609.736 78.7299 615.243 79.4844 621.5 79.4844V78.4844ZM605.293 76.2582C600.654 74.7736 596.791 72.7538 593.692 70.2075L593.058 70.98C596.272 73.6212 600.253 75.6952 604.988 77.2106L605.293 76.2582ZM593.692 70.2075C590.591 67.659 588.265 64.6722 586.705 61.2459L585.795 61.6603C587.422 65.234 589.846 68.341 593.058 70.98L593.692 70.2075ZM586.705 61.2459C585.142 57.8141 584.359 54.1195 584.359 50.1562H583.359C583.359 54.2555 584.17 58.0921 585.795 61.6603L586.705 61.2459ZM637.538 44.6104C637.018 43.0184 636.206 41.543 635.107 40.1854L634.33 40.8146C635.356 42.082 636.107 43.4503 636.587 44.9208L637.538 44.6104ZM635.115 40.1956C634.044 38.8 632.701 37.6041 631.092 36.6063L630.565 37.4562C632.08 38.3959 633.331 39.5125 634.322 40.8044L635.115 40.1956ZM631.098 36.6101C629.487 35.579 627.626 34.7789 625.522 34.2051L625.259 35.1699C627.28 35.7211 629.045 36.4835 630.559 37.4524L631.098 36.6101ZM625.522 34.2051C623.411 33.6293 621.1 33.3438 618.594 33.3438V34.3438C621.025 34.3438 623.245 34.6207 625.259 35.1699L625.522 34.2051ZM618.594 33.3438C615.931 33.3438 613.495 33.6448 611.289 34.2523L611.555 35.2164C613.661 34.6364 616.006 34.3438 618.594 34.3438V33.3438ZM611.289 34.2523C609.095 34.8565 607.159 35.6706 605.488 36.6992L606.012 37.5508C607.591 36.5794 609.436 35.7997 611.555 35.2164L611.289 34.2523ZM605.488 36.6992C603.822 37.7243 602.42 38.915 601.288 40.2737L602.056 40.9138C603.111 39.6475 604.428 38.5257 606.012 37.5508L605.488 36.6992ZM601.283 40.2792C600.187 41.6334 599.375 43.0753 598.855 44.6045L599.801 44.9268C600.281 43.5185 601.032 42.1791 602.06 40.9083L601.283 40.2792ZM599.328 45.2656H637.062V44.2656H599.328V45.2656ZM666.734 22.6875V22.1875H666.234V22.6875H666.734ZM680.609 22.6875H681.109V22.1875H680.609V22.6875ZM680.609 30.6562H680.109V31.6522L680.908 31.0572L680.609 30.6562ZM700.484 20.9531L700.96 20.8003L700.816 20.3506L700.359 20.4691L700.484 20.9531ZM704.562 33.6562L704.612 34.1538L705.228 34.0926L705.039 33.5034L704.562 33.6562ZM690.453 37.2656L690.661 37.7203L690.663 37.7196L690.453 37.2656ZM680.609 45.0938L680.209 44.7938L680.109 44.9271V45.0938H680.609ZM680.609 78V78.5H681.109V78H680.609ZM666.734 78H666.234V78.5H666.734V78ZM666.734 23.1875H680.609V22.1875H666.734V23.1875ZM680.109 22.6875V30.6562H681.109V22.6875H680.109ZM680.908 31.0572C683.946 28.7945 687.153 26.8421 690.531 25.1997L690.094 24.3003C686.659 25.9704 683.398 27.9555 680.311 30.2553L680.908 31.0572ZM690.531 25.1997C693.91 23.5567 697.27 22.3031 700.61 21.4371L700.359 20.4691C696.949 21.3531 693.527 22.6308 690.094 24.3003L690.531 25.1997ZM700.008 21.106L704.086 33.8091L705.039 33.5034L700.96 20.8003L700.008 21.106ZM704.513 33.1587C699.125 33.6944 694.366 34.9092 690.244 36.8116L690.663 37.7196C694.666 35.8721 699.313 34.6806 704.612 34.1538L704.513 33.1587ZM690.245 36.8109C686.142 38.6876 682.793 41.3485 680.209 44.7938L681.009 45.3937C683.488 42.089 686.702 39.5312 690.661 37.7203L690.245 36.8109ZM680.109 45.0938V78H681.109V45.0938H680.109ZM680.609 77.5H666.734V78.5H680.609V77.5ZM667.234 78V22.6875H666.234V78H667.234Z" fill="white"/>
</svg>
