<svg width="974" height="101" viewBox="0 0 974 101" fill="none" xmlns="http://www.w3.org/2000/svg">
<path d="M0.9375 4.73438V4.23438H0.170216L0.480089 4.9363L0.9375 4.73438ZM17.1562 4.73438L17.6172 4.54067L17.4885 4.23438H17.1562V4.73438ZM37.0312 52.0312L37.4953 51.8449L37.4922 51.8375L37.0312 52.0312ZM41.625 63.4688L41.161 63.6551L41.6815 64.9511L42.1018 63.6192L41.625 63.4688ZM45.2344 52.0312L44.774 51.8361L44.7647 51.858L44.7576 51.8808L45.2344 52.0312ZM52.5469 34.7812L53.0072 34.9764L53.0914 34.7779L53.0048 34.5805L52.5469 34.7812ZM39.375 4.73438V4.23438H38.6099L38.9171 4.93512L39.375 4.73438ZM54.6562 4.73438L55.1241 4.55797L55.0021 4.23438H54.6562V4.73438ZM60.0469 19.0312L59.579 19.2077L60.0638 20.4934L60.5187 19.1968L60.0469 19.0312ZM65.0625 4.73438V4.23438H64.708L64.5907 4.56886L65.0625 4.73438ZM80.3438 4.73438L80.8017 4.93512L81.1089 4.23438H80.3438V4.73438ZM67.1719 34.7812L66.7139 34.5805L66.6275 34.7777L66.7114 34.976L67.1719 34.7812ZM74.625 52.4062L75.0882 52.2178L75.0855 52.2115L74.625 52.4062ZM79.125 63.4688L78.6619 63.6571L79.1899 64.9552L79.6028 63.6161L79.125 63.4688ZM82.5938 52.2188L82.1328 52.0249L82.1232 52.0478L82.1159 52.0714L82.5938 52.2188ZM102.562 4.73438V4.23438H102.23L102.102 4.54055L102.562 4.73438ZM118.781 4.73438L119.239 4.9363L119.549 4.23438H118.781V4.73438ZM86.4375 78V78.5H86.7633L86.8949 78.2019L86.4375 78ZM71.7188 78L71.2625 78.2046L71.395 78.5H71.7188V78ZM65.2031 63.4688L64.735 63.6445L64.7405 63.6591L64.7469 63.6733L65.2031 63.4688ZM59.9062 49.3594L60.3744 49.1836L59.9062 47.9368L59.4381 49.1836L59.9062 49.3594ZM54.6094 63.4688L55.0645 63.6758L55.0715 63.6603L55.0775 63.6445L54.6094 63.4688ZM48 78V78.5H48.3219L48.4551 78.207L48 78ZM33.2812 78L32.8238 78.2019L32.9554 78.5H33.2812V78ZM0.9375 5.23438H17.1562V4.23438H0.9375V5.23438ZM16.6953 4.92808L36.5703 52.225L37.4922 51.8375L17.6172 4.54067L16.6953 4.92808ZM36.5673 52.2176L41.161 63.6551L42.089 63.2824L37.4952 51.8449L36.5673 52.2176ZM42.1018 63.6192L45.7112 52.1817L44.7576 51.8808L41.1482 63.3183L42.1018 63.6192ZM45.6947 52.2264L53.0072 34.9764L52.0865 34.5861L44.774 51.8361L45.6947 52.2264ZM53.0048 34.5805L39.8329 4.53363L38.9171 4.93512L52.0889 34.982L53.0048 34.5805ZM39.375 5.23438H54.6562V4.23438H39.375V5.23438ZM54.1884 4.91078L59.579 19.2077L60.5147 18.8548L55.1241 4.55797L54.1884 4.91078ZM60.5187 19.1968L65.5343 4.89989L64.5907 4.56886L59.5751 18.8657L60.5187 19.1968ZM65.0625 5.23438H80.3438V4.23438H65.0625V5.23438ZM79.8858 4.53363L66.7139 34.5805L67.6298 34.982L80.8017 4.93512L79.8858 4.53363ZM66.7114 34.976L74.1645 52.601L75.0855 52.2115L67.6324 34.5865L66.7114 34.976ZM74.1619 52.5946L78.6619 63.6571L79.5881 63.2804L75.0881 52.2179L74.1619 52.5946ZM79.6028 63.6161L83.0716 52.3661L82.1159 52.0714L78.6472 63.3214L79.6028 63.6161ZM83.0547 52.4126L103.023 4.9282L102.102 4.54055L82.1328 52.0249L83.0547 52.4126ZM102.562 5.23438H118.781V4.23438H102.562V5.23438ZM118.324 4.53245L85.9801 77.7981L86.8949 78.2019L119.239 4.9363L118.324 4.53245ZM86.4375 77.5H71.7188V78.5H86.4375V77.5ZM72.175 77.7954L65.6594 63.2642L64.7469 63.6733L71.2625 78.2046L72.175 77.7954ZM65.6712 63.293L60.3744 49.1836L59.4381 49.5351L64.735 63.6445L65.6712 63.293ZM59.4381 49.1836L54.1413 63.293L55.0775 63.6445L60.3744 49.5351L59.4381 49.1836ZM54.1542 63.2617L47.5449 77.793L48.4551 78.207L55.0645 63.6758L54.1542 63.2617ZM48 77.5H33.2812V78.5H48V77.5ZM33.7387 77.7981L1.39491 4.53245L0.480089 4.9363L32.8238 78.2019L33.7387 77.7981ZM128.062 39.4219L128.519 39.6269L128.519 39.6253L128.062 39.4219ZM145.219 24.0469L145.044 23.5784L145.043 23.5789L145.219 24.0469ZM173.719 24.0938L173.542 24.5615L173.546 24.563L173.719 24.0938ZM184.5 30.5625L184.158 30.9275L184.16 30.9293L184.5 30.5625ZM191.297 40.2656L190.836 40.4593L190.837 40.4626L191.297 40.2656ZM193.641 53.9531L193.141 53.9282L193.141 53.9406V53.9531H193.641ZM193.547 55.5938V56.0938H193.988L194.043 55.6558L193.547 55.5938ZM141.234 55.5938V55.0938H140.524L140.764 55.7625L141.234 55.5938ZM144.094 60.1406L143.732 60.4859L143.736 60.4901L144.094 60.1406ZM156.047 66.0469L155.942 66.5358L155.948 66.5369L156.047 66.0469ZM174.281 65.8594L174.383 66.3489L174.388 66.3479L174.281 65.8594ZM183.328 63.2812L183.785 63.0789L183.597 62.6536L183.159 62.8106L183.328 63.2812ZM188.016 73.875L188.227 74.3283L188.671 74.1213L188.473 73.6727L188.016 73.875ZM182.484 76.125L182.645 76.5986L182.65 76.5969L182.484 76.125ZM176.672 77.7188L176.771 78.2088L176.777 78.2075L176.672 77.7188ZM170.344 78.6562L170.295 78.1587L170.294 78.1587L170.344 78.6562ZM178.969 44.7656V45.2656H179.658L179.444 44.6104L178.969 44.7656ZM176.625 40.5L176.228 40.8045L176.236 40.8146L176.625 40.5ZM172.734 37.0312L172.465 37.4524L172.471 37.4562L172.734 37.0312ZM143.578 40.5938L143.194 40.2736L143.19 40.2792L143.578 40.5938ZM141.234 44.7656L140.761 44.6045L140.536 45.2656H141.234V44.7656ZM126.266 50.1562C126.266 46.4766 127.016 42.9684 128.519 39.6269L127.606 39.2169C126.046 42.6879 125.266 46.3359 125.266 50.1562H126.266ZM128.519 39.6253C130.021 36.2529 132.183 33.2776 135.009 30.6974L134.335 29.9589C131.411 32.6287 129.166 35.7158 127.606 39.2184L128.519 39.6253ZM135.009 30.6974C137.831 28.1208 141.29 26.0581 145.395 24.5149L145.043 23.5789C140.835 25.1606 137.263 27.2854 134.335 29.9589L135.009 30.6974ZM145.394 24.5153C149.516 22.9772 154.205 22.2031 159.469 22.2031V21.2031C154.108 21.2031 149.297 21.9915 145.044 23.5784L145.394 24.5153ZM159.469 22.2031C164.7 22.2031 169.389 22.9924 173.542 24.5615L173.895 23.626C169.611 22.0076 164.8 21.2031 159.469 21.2031V22.2031ZM173.546 24.563C177.741 26.1053 181.275 28.2286 184.158 30.9275L184.842 30.1975C181.85 27.3964 178.196 25.2072 173.891 23.6245L173.546 24.563ZM184.16 30.9293C187.077 33.6311 189.301 36.8065 190.836 40.4593L191.758 40.0719C190.168 36.2873 187.861 32.9939 184.84 30.1957L184.16 30.9293ZM190.837 40.4626C192.403 44.116 193.188 48.033 193.188 52.2188H194.188C194.188 47.9045 193.378 43.8528 191.756 40.0687L190.837 40.4626ZM193.188 52.2188C193.188 52.7404 193.172 53.3101 193.141 53.9282L194.14 53.9781C194.172 53.3462 194.188 52.7596 194.188 52.2188H193.188ZM193.141 53.9531C193.141 54.5297 193.11 55.0555 193.051 55.5317L194.043 55.6558C194.108 55.132 194.141 54.5641 194.141 53.9531H193.141ZM193.547 55.0938H141.234V56.0938H193.547V55.0938ZM140.764 55.7625C141.383 57.4897 142.375 59.0644 143.732 60.4859L144.455 59.7954C143.187 58.4668 142.273 57.0103 141.705 55.425L140.764 55.7625ZM143.736 60.4901C145.125 61.9108 146.844 63.1294 148.886 64.1503L149.333 63.2559C147.375 62.2768 145.75 61.1204 144.451 59.7912L143.736 60.4901ZM148.886 64.1503C150.93 65.1725 153.284 65.9661 155.942 66.5358L156.152 65.558C153.56 65.0026 151.289 64.2337 149.333 63.2559L148.886 64.1503ZM155.948 66.5369C158.611 67.0759 161.551 67.3438 164.766 67.3438V66.3438C161.605 66.3438 158.733 66.0803 156.146 65.5568L155.948 66.5369ZM164.766 67.3438C167.988 67.3438 171.194 67.012 174.383 66.3489L174.179 65.3698C171.056 66.0192 167.919 66.3438 164.766 66.3438V67.3438ZM174.388 66.3479C177.564 65.6561 180.6 64.7909 183.497 63.7519L183.159 62.8106C180.306 63.8341 177.311 64.6877 174.175 65.3708L174.388 66.3479ZM182.871 63.4836L187.558 74.0773L188.473 73.6727L183.785 63.0789L182.871 63.4836ZM187.805 73.4217C186.007 74.2585 184.179 75.0023 182.319 75.6531L182.65 76.5969C184.54 75.9352 186.399 75.179 188.227 74.3283L187.805 73.4217ZM182.324 75.6515C180.499 76.2699 178.58 76.7962 176.567 77.23L176.777 78.2075C178.826 77.7663 180.782 77.2301 182.645 76.5985L182.324 75.6515ZM176.572 77.2288C174.59 77.6313 172.498 77.9414 170.295 78.1587L170.393 79.1538C172.627 78.9336 174.753 78.6187 176.771 78.2087L176.572 77.2288ZM170.294 78.1587C168.125 78.3757 165.829 78.4844 163.406 78.4844V79.4844C165.859 79.4844 168.188 79.3743 170.394 79.1538L170.294 78.1587ZM163.406 78.4844C157.226 78.4844 151.827 77.7389 147.199 76.2582L146.894 77.2106C151.642 78.7299 157.149 79.4844 163.406 79.4844V78.4844ZM147.199 76.2582C142.56 74.7736 138.697 72.7538 135.599 70.2075L134.964 70.98C138.178 73.6212 142.159 75.6952 146.894 77.2106L147.199 76.2582ZM135.599 70.2075C132.498 67.659 130.171 64.6722 128.611 61.2459L127.701 61.6603C129.329 65.234 131.752 68.341 134.964 70.98L135.599 70.2075ZM128.611 61.2459C127.049 57.8141 126.266 54.1195 126.266 50.1562H125.266C125.266 54.2555 126.076 58.0921 127.701 61.6603L128.611 61.2459ZM179.444 44.6104C178.924 43.0184 178.113 41.543 177.014 40.1854L176.236 40.8146C177.262 42.082 178.013 43.4503 178.493 44.9208L179.444 44.6104ZM177.022 40.1956C175.951 38.8 174.607 37.6041 172.998 36.6063L172.471 37.4562C173.986 38.3959 175.237 39.5125 176.228 40.8044L177.022 40.1956ZM173.004 36.6101C171.393 35.579 169.532 34.7789 167.428 34.2051L167.165 35.1699C169.186 35.7211 170.951 36.4835 172.465 37.4524L173.004 36.6101ZM167.428 34.2051C165.317 33.6293 163.006 33.3438 160.5 33.3438V34.3438C162.931 34.3438 165.152 34.6207 167.165 35.1699L167.428 34.2051ZM160.5 33.3438C157.838 33.3438 155.402 33.6448 153.195 34.2523L153.461 35.2164C155.567 34.6364 157.912 34.3438 160.5 34.3438V33.3438ZM153.195 34.2523C151.001 34.8565 149.066 35.6706 147.394 36.6992L147.918 37.5508C149.497 36.5794 151.343 35.7997 153.461 35.2164L153.195 34.2523ZM147.394 36.6992C145.728 37.7243 144.326 38.915 143.194 40.2737L143.962 40.9138C145.017 39.6475 146.334 38.5257 147.918 37.5508L147.394 36.6992ZM143.19 40.2792C142.093 41.6334 141.282 43.0753 140.761 44.6045L141.708 44.9268C142.187 43.5185 142.938 42.1791 143.967 40.9083L143.19 40.2792ZM141.234 45.2656H178.969V44.2656H141.234V45.2656ZM208.266 0.234375V-0.265625H207.766V0.234375H208.266ZM222.141 0.234375H222.641V-0.265625H222.141V0.234375ZM222.141 27.8906H221.641V28.8449L222.425 28.3017L222.141 27.8906ZM237.703 22.2188L237.779 22.713L237.787 22.7117L237.703 22.2188ZM256.688 23.7656L256.521 24.2373L256.523 24.2377L256.688 23.7656ZM273.375 38.5781L272.918 38.782L272.921 38.7869L273.375 38.5781ZM273.281 62.0625L273.734 62.2748L273.735 62.2733L273.281 62.0625ZM266.391 71.1562L266.717 71.5353L266.717 71.535L266.391 71.1562ZM255.984 76.9688L256.144 77.4427L256.146 77.442L255.984 76.9688ZM237 78.6094L236.936 79.1053L236.937 79.1054L237 78.6094ZM231.375 77.5781L231.256 78.0637L231.258 78.0642L231.375 77.5781ZM226.312 76.0312L226.127 76.4956L226.138 76.4998L226.312 76.0312ZM222.141 74.0156L222.395 73.5849L221.641 73.1403V74.0156H222.141ZM222.141 78V78.5H222.641V78H222.141ZM208.266 78H207.766V78.5H208.266V78ZM222.141 60.6094H221.641V60.8497L221.828 60.9998L222.141 60.6094ZM236.297 66.5156L236.222 67.0101L236.231 67.0113L236.297 66.5156ZM249.609 65.5781L249.771 66.0513L249.775 66.0501L249.609 65.5781ZM255.891 62.0156L255.562 61.6389L255.558 61.6419L255.891 62.0156ZM259.828 43.8281L259.371 44.0312L259.374 44.0372L259.828 43.8281ZM255.984 38.6719L255.649 39.0425L255.656 39.049L255.984 38.6719ZM249.938 35.1562L249.763 35.6247L249.77 35.6274L249.938 35.1562ZM236.391 34.4062L236.481 34.8981L236.489 34.8965L236.391 34.4062ZM230.953 35.9062L230.778 35.4381L230.775 35.4391L230.953 35.9062ZM226.078 38.2969L225.817 37.8704L225.813 37.8729L226.078 38.2969ZM222.141 41.4375L221.782 41.0888L221.641 41.2344V41.4375H222.141ZM208.266 0.734375H222.141V-0.265625H208.266V0.734375ZM221.641 0.234375V27.8906H222.641V0.234375H221.641ZM222.425 28.3017C223.614 27.4784 225.025 26.6957 226.659 25.9555L226.247 25.0445C224.569 25.8043 223.104 26.6153 221.856 27.4795L222.425 28.3017ZM226.659 25.9555C228.293 25.2158 230.052 24.5674 231.938 24.0108L231.655 23.0517C229.729 23.6201 227.926 24.2842 226.247 25.0445L226.659 25.9555ZM231.938 24.0108C233.822 23.4549 235.769 23.0221 237.779 22.7129L237.627 21.7246C235.574 22.0404 233.584 22.4826 231.655 23.0517L231.938 24.0108ZM237.787 22.7117C239.791 22.3726 241.794 22.2031 243.797 22.2031V21.2031C241.737 21.2031 239.678 21.3774 237.62 21.7258L237.787 22.7117ZM243.797 22.2031C248.435 22.2031 252.675 22.8833 256.521 24.2373L256.854 23.294C252.887 21.8979 248.534 21.2031 243.797 21.2031V22.2031ZM256.523 24.2377C260.405 25.5935 263.722 27.4997 266.48 29.9518L267.145 29.2044C264.278 26.6566 260.845 24.6878 256.852 23.2936L256.523 24.2377ZM266.48 29.9518C269.239 32.4038 271.384 35.3455 272.918 38.782L273.832 38.3743C272.241 34.8107 270.011 31.7525 267.145 29.2044L266.48 29.9518ZM272.921 38.7869C274.481 42.1835 275.266 45.955 275.266 50.1094H276.266C276.266 45.8262 275.456 41.9102 273.829 38.3694L272.921 38.7869ZM275.266 50.1094C275.266 54.4517 274.45 58.3629 272.828 61.8517L273.735 62.2733C275.425 58.6371 276.266 54.5795 276.266 50.1094H275.266ZM272.829 61.8502C271.202 65.3181 268.948 68.2925 266.064 70.7775L266.717 71.535C269.708 68.9575 272.048 65.8694 273.734 62.2748L272.829 61.8502ZM266.065 70.7772C263.212 73.2312 259.801 75.1388 255.823 76.4955L256.146 77.442C260.231 76.0487 263.757 74.0813 266.717 71.5353L266.065 70.7772ZM255.825 76.4948C251.882 77.8195 247.592 78.4844 242.953 78.4844V79.4844C247.689 79.4844 252.087 78.8055 256.144 77.4427L255.825 76.4948ZM242.953 78.4844C240.974 78.4844 239.011 78.3607 237.063 78.1134L236.937 79.1054C238.927 79.3581 240.932 79.4844 242.953 79.4844V78.4844ZM237.064 78.1135C235.144 77.8657 233.286 77.5251 231.492 77.0921L231.258 78.0642C233.089 78.5061 234.981 78.8531 236.936 79.1053L237.064 78.1135ZM231.494 77.0926C229.73 76.6593 228.061 76.1492 226.487 75.5627L226.138 76.4998C227.751 77.1008 229.457 77.6219 231.256 78.0637L231.494 77.0926ZM226.498 75.567C224.955 74.9497 223.588 74.2886 222.395 73.5849L221.887 74.4463C223.131 75.1801 224.545 75.8628 226.127 76.4955L226.498 75.567ZM221.641 74.0156V78H222.641V74.0156H221.641ZM222.141 77.5H208.266V78.5H222.141V77.5ZM208.766 78V0.234375H207.766V78H208.766ZM221.828 60.9998C223.261 62.1461 224.775 63.1185 226.37 63.916L226.817 63.0215C225.287 62.2565 223.833 61.3226 222.453 60.2189L221.828 60.9998ZM226.37 63.916C227.957 64.7092 229.576 65.3602 231.228 65.8685L231.522 64.9127C229.924 64.4211 228.356 63.7908 226.817 63.0215L226.37 63.916ZM231.228 65.8685C232.876 66.3757 234.541 66.7563 236.222 67.01L236.372 66.0212C234.74 65.775 233.124 65.4056 231.522 64.9127L231.228 65.8685ZM236.231 67.0113C237.908 67.2327 239.539 67.3438 241.125 67.3438V66.3438C239.586 66.3438 237.998 66.236 236.362 66.0199L236.231 67.0113ZM241.125 67.3438C244.356 67.3438 247.24 66.9162 249.771 66.0513L249.448 65.105C247.041 65.9275 244.269 66.3438 241.125 66.3438V67.3438ZM249.775 66.0501C252.326 65.1572 254.479 63.9395 256.223 62.3893L255.558 61.6419C253.927 63.0918 251.893 64.2491 249.444 65.1062L249.775 66.0501ZM256.219 62.3923C257.991 60.8459 259.348 59.0217 260.285 56.9225L259.372 56.515C258.496 58.4783 257.227 60.1854 255.562 61.6389L256.219 62.3923ZM260.285 56.9225C261.221 54.8228 261.688 52.5497 261.688 50.1094H260.688C260.688 52.419 260.247 54.5522 259.372 56.515L260.285 56.9225ZM261.688 50.1094C261.688 47.8202 261.219 45.655 260.282 43.6191L259.374 44.0372C260.249 45.9388 260.688 47.961 260.688 50.1094H261.688ZM260.285 43.6251C259.379 41.587 258.053 39.8095 256.313 38.2947L255.656 39.049C257.291 40.4717 258.527 42.1318 259.371 44.0312L260.285 43.6251ZM256.32 38.3013C254.609 36.7517 252.534 35.5481 250.105 34.6851L249.77 35.6274C252.091 36.4519 254.047 37.5921 255.649 39.0425L256.32 38.3013ZM250.112 34.6878C247.704 33.7887 245.003 33.3438 242.016 33.3438V34.3438C244.904 34.3438 247.484 34.7738 249.763 35.6247L250.112 34.6878ZM242.016 33.3438C240.107 33.3438 238.199 33.5346 236.293 33.916L236.489 34.8965C238.332 34.5279 240.174 34.3438 242.016 34.3438V33.3438ZM236.3 33.9144C234.397 34.2634 232.556 34.7712 230.778 35.4381L231.129 36.3744C232.85 35.7288 234.634 35.2366 236.481 34.8981L236.3 33.9144ZM230.775 35.4391C229.028 36.1061 227.375 36.9165 225.817 37.8704L226.339 38.7233C227.844 37.8023 229.441 37.0189 231.131 36.3734L230.775 35.4391ZM225.813 37.8729C224.282 38.8296 222.938 39.9012 221.782 41.0888L222.499 41.7862C223.593 40.6613 224.874 39.6391 226.343 38.7209L225.813 37.8729ZM221.641 41.4375V60.6094H222.641V41.4375H221.641ZM286.359 35.5312V35.0312H285.859V35.5312H286.359ZM329.344 35.5312H329.844V35.0312H329.344V35.5312ZM329.344 45.9375V46.4375H329.844V45.9375H329.344ZM286.359 45.9375H285.859V46.4375H286.359V45.9375ZM286.359 36.0312H329.344V35.0312H286.359V36.0312ZM328.844 35.5312V45.9375H329.844V35.5312H328.844ZM329.344 45.4375H286.359V46.4375H329.344V45.4375ZM286.859 45.9375V35.5312H285.859V45.9375H286.859ZM346.219 4.73438V4.23438H345.719V4.73438H346.219ZM407.859 14.5312L407.539 14.9151L407.542 14.9179L407.859 14.5312ZM416.344 25.9688L415.881 26.1583L415.883 26.1622L416.344 25.9688ZM416.391 55.8281L416.853 56.0177L416.854 56.0166L416.391 55.8281ZM407.953 67.5469L408.281 67.9245L408.283 67.923L407.953 67.5469ZM393.609 75.2812L393.761 75.7576L393.764 75.7569L393.609 75.2812ZM373.172 78.0469L373.171 78.5469H373.172V78.0469ZM346.219 78H345.719V78.4991L346.218 78.5L346.219 78ZM388.406 63.4688L388.566 63.9427L388.57 63.9413L388.406 63.4688ZM396.75 58.5938L396.409 58.2277L396.407 58.2301L396.75 58.5938ZM401.812 31.3594L401.346 31.5399L401.347 31.5416L401.812 31.3594ZM396.75 24L396.412 24.3688L396.418 24.3737L396.75 24ZM361.078 17.6719V17.1719H360.578V17.6719H361.078ZM361.078 65.1562H360.578V65.6562H361.078V65.1562ZM346.219 5.23438H373.078V4.23438H346.219V5.23438ZM373.078 5.23438C380.888 5.23438 387.651 6.07469 393.376 7.7456L393.656 6.78565C387.818 5.08156 380.956 4.23438 373.078 4.23438V5.23438ZM393.376 7.7456C399.105 9.418 403.821 11.8116 407.539 14.9151L408.18 14.1474C404.335 10.9384 399.489 8.48825 393.656 6.78565L393.376 7.7456ZM407.542 14.9179C411.292 17.9911 414.069 21.7362 415.881 26.1583L416.806 25.7792C414.931 21.2013 412.052 17.3214 408.176 14.1446L407.542 14.9179ZM415.883 26.1622C417.728 30.561 418.656 35.525 418.656 41.0625H419.656C419.656 35.4125 418.709 30.314 416.805 25.7753L415.883 26.1622ZM418.656 41.0625C418.656 46.316 417.745 51.1732 415.927 55.6397L416.854 56.0166C418.724 51.4205 419.656 46.434 419.656 41.0625H418.656ZM415.928 55.6386C414.115 60.0645 411.349 63.9075 407.624 67.1708L408.283 67.923C412.12 64.5612 414.979 60.5918 416.853 56.0177L415.928 55.6386ZM407.625 67.1692C403.904 70.3982 399.186 72.947 393.455 74.8056L393.764 75.7569C399.595 73.8655 404.439 71.2581 408.281 67.9245L407.625 67.1692ZM393.457 74.8049C387.737 76.6292 380.978 77.5469 373.172 77.5469V78.5469C381.053 78.5469 387.919 77.6208 393.761 75.7576L393.457 74.8049ZM373.173 77.5469L346.22 77.5L346.218 78.5L373.171 78.5469L373.173 77.5469ZM346.719 78V4.73438H345.719V78H346.719ZM376.734 65.6562C381.213 65.6562 385.159 65.0887 388.566 63.9426L388.247 62.9949C384.966 64.0988 381.131 64.6562 376.734 64.6562V65.6562ZM388.57 63.9413C391.97 62.7656 394.815 61.1069 397.093 58.9574L396.407 58.2301C394.247 60.2681 391.53 61.8594 388.243 62.9962L388.57 63.9413ZM397.091 58.9598C399.399 56.8119 401.129 54.2154 402.28 51.1772L401.345 50.8228C400.246 53.7221 398.601 56.1881 396.409 58.2277L397.091 58.9598ZM402.28 51.1772C403.429 48.1439 404 44.7702 404 41.0625H403C403 44.6673 402.446 47.9186 401.345 50.8228L402.28 51.1772ZM404 41.0625C404 37.4165 403.429 34.1189 402.278 31.1772L401.347 31.5416C402.446 34.3498 403 37.521 403 41.0625H404ZM402.279 31.1789C401.126 28.2012 399.394 25.681 397.082 23.6263L396.418 24.3737C398.606 26.319 400.249 28.7051 401.346 31.5399L402.279 31.1789ZM397.088 23.6312C394.808 21.5445 391.962 19.9494 388.562 18.8373L388.251 19.7877C391.538 20.8631 394.254 22.393 396.412 24.3688L397.088 23.6312ZM388.562 18.8373C385.157 17.7235 381.212 17.1719 376.734 17.1719V18.1719C381.132 18.1719 384.968 18.714 388.251 19.7877L388.562 18.8373ZM376.734 17.1719H361.078V18.1719H376.734V17.1719ZM360.578 17.6719V65.1562H361.578V17.6719H360.578ZM361.078 65.6562H376.734V64.6562H361.078V65.6562ZM432 39.4219L432.456 39.6269L432.457 39.6253L432 39.4219ZM449.156 24.0469L448.981 23.5784L448.98 23.5789L449.156 24.0469ZM477.656 24.0938L477.48 24.5615L477.484 24.563L477.656 24.0938ZM488.438 30.5625L488.096 30.9275L488.098 30.9293L488.438 30.5625ZM495.234 40.2656L494.773 40.4593L494.775 40.4626L495.234 40.2656ZM497.578 53.9531L497.079 53.9282L497.078 53.9406V53.9531H497.578ZM497.484 55.5938V56.0938H497.926L497.981 55.6558L497.484 55.5938ZM445.172 55.5938V55.0938H444.461L444.701 55.7625L445.172 55.5938ZM448.031 60.1406L447.67 60.4859L447.674 60.4901L448.031 60.1406ZM459.984 66.0469L459.88 66.5358L459.885 66.5369L459.984 66.0469ZM478.219 65.8594L478.321 66.3489L478.325 66.3479L478.219 65.8594ZM487.266 63.2812L487.723 63.0789L487.535 62.6536L487.097 62.8106L487.266 63.2812ZM491.953 73.875L492.164 74.3283L492.609 74.1213L492.41 73.6727L491.953 73.875ZM486.422 76.125L486.582 76.5986L486.587 76.5969L486.422 76.125ZM480.609 77.7188L480.709 78.2088L480.715 78.2075L480.609 77.7188ZM474.281 78.6562L474.232 78.1587L474.231 78.1587L474.281 78.6562ZM482.906 44.7656V45.2656H483.595L483.382 44.6104L482.906 44.7656ZM480.562 40.5L480.166 40.8045L480.174 40.8146L480.562 40.5ZM476.672 37.0312L476.402 37.4524L476.408 37.4562L476.672 37.0312ZM447.516 40.5938L447.131 40.2736L447.127 40.2792L447.516 40.5938ZM445.172 44.7656L444.699 44.6045L444.473 45.2656H445.172V44.7656ZM430.203 50.1562C430.203 46.4766 430.954 42.9684 432.456 39.6269L431.544 39.2169C429.984 42.6879 429.203 46.3359 429.203 50.1562H430.203ZM432.457 39.6253C433.959 36.2529 436.121 33.2776 438.947 30.6974L438.272 29.9589C435.348 32.6287 433.104 35.7158 431.543 39.2184L432.457 39.6253ZM438.947 30.6974C441.768 28.1208 445.227 26.0581 449.332 24.5149L448.98 23.5789C444.773 25.1606 441.2 27.2854 438.272 29.9589L438.947 30.6974ZM449.331 24.5153C453.453 22.9772 458.142 22.2031 463.406 22.2031V21.2031C458.045 21.2031 453.234 21.9915 448.981 23.5784L449.331 24.5153ZM463.406 22.2031C468.637 22.2031 473.326 22.9924 477.48 24.5615L477.833 23.626C473.549 22.0076 468.738 21.2031 463.406 21.2031V22.2031ZM477.484 24.563C481.679 26.1053 485.213 28.2286 488.096 30.9275L488.779 30.1975C485.787 27.3964 482.134 25.2072 477.829 23.6245L477.484 24.563ZM488.098 30.9293C491.014 33.6311 493.239 36.8065 494.773 40.4593L495.695 40.0719C494.105 36.2873 491.798 32.9939 488.777 30.1957L488.098 30.9293ZM494.775 40.4626C496.341 44.116 497.125 48.033 497.125 52.2188H498.125C498.125 47.9045 497.316 43.8528 495.694 40.0687L494.775 40.4626ZM497.125 52.2188C497.125 52.7404 497.11 53.3101 497.079 53.9282L498.078 53.9781C498.109 53.3462 498.125 52.7596 498.125 52.2188H497.125ZM497.078 53.9531C497.078 54.5297 497.048 55.0555 496.988 55.5317L497.981 55.6558C498.046 55.132 498.078 54.5641 498.078 53.9531H497.078ZM497.484 55.0938H445.172V56.0938H497.484V55.0938ZM444.701 55.7625C445.32 57.4897 446.313 59.0644 447.67 60.4859L448.393 59.7954C447.125 58.4668 446.211 57.0103 445.643 55.425L444.701 55.7625ZM447.674 60.4901C449.062 61.9108 450.781 63.1294 452.823 64.1503L453.27 63.2559C451.312 62.2768 449.688 61.1204 448.389 59.7912L447.674 60.4901ZM452.823 64.1503C454.868 65.1725 457.221 65.9661 459.88 66.5358L460.089 65.558C457.497 65.0026 455.226 64.2337 453.27 63.2559L452.823 64.1503ZM459.885 66.5369C462.548 67.0759 465.488 67.3438 468.703 67.3438V66.3438C465.543 66.3438 462.67 66.0803 460.084 65.5568L459.885 66.5369ZM468.703 67.3438C471.925 67.3438 475.131 67.012 478.321 66.3489L478.117 65.3698C474.994 66.0192 471.856 66.3438 468.703 66.3438V67.3438ZM478.325 66.3479C481.501 65.6561 484.538 64.7909 487.434 63.7519L487.097 62.8106C484.243 63.8341 481.249 64.6877 478.112 65.3708L478.325 66.3479ZM486.808 63.4836L491.496 74.0773L492.41 73.6727L487.723 63.0789L486.808 63.4836ZM491.742 73.4217C489.944 74.2585 488.116 75.0023 486.257 75.6531L486.587 76.5969C488.478 75.9352 490.337 75.179 492.164 74.3283L491.742 73.4217ZM486.261 75.6515C484.437 76.2699 482.518 76.7962 480.504 77.23L480.715 78.2075C482.763 77.7663 484.719 77.2301 486.582 76.5985L486.261 75.6515ZM480.51 77.2288C478.528 77.6313 476.436 77.9414 474.232 78.1587L474.33 79.1538C476.564 78.9336 478.691 78.6187 480.709 78.2087L480.51 77.2288ZM474.231 78.1587C472.062 78.3757 469.766 78.4844 467.344 78.4844V79.4844C469.796 79.4844 472.125 79.3743 474.331 79.1538L474.231 78.1587ZM467.344 78.4844C461.164 78.4844 455.764 77.7389 451.137 76.2582L450.832 77.2106C455.58 78.7299 461.086 79.4844 467.344 79.4844V78.4844ZM451.137 76.2582C446.497 74.7736 442.635 72.7538 439.536 70.2075L438.901 70.98C442.115 73.6212 446.096 75.6952 450.832 77.2106L451.137 76.2582ZM439.536 70.2075C436.435 67.659 434.109 64.6722 432.549 61.2459L431.639 61.6603C433.266 65.234 435.69 68.341 438.901 70.98L439.536 70.2075ZM432.549 61.2459C430.986 57.8141 430.203 54.1195 430.203 50.1562H429.203C429.203 54.2555 430.014 58.0921 431.639 61.6603L432.549 61.2459ZM483.382 44.6104C482.862 43.0184 482.05 41.543 480.951 40.1854L480.174 40.8146C481.2 42.082 481.951 43.4503 482.431 44.9208L483.382 44.6104ZM480.959 40.1956C479.888 38.8 478.545 37.6041 476.935 36.6063L476.408 37.4562C477.924 38.3959 479.174 39.5125 480.166 40.8044L480.959 40.1956ZM476.941 36.6101C475.33 35.579 473.47 34.7789 471.366 34.2051L471.103 35.1699C473.124 35.7211 474.888 36.4835 476.402 37.4524L476.941 36.6101ZM471.366 34.2051C469.255 33.6293 466.944 33.3438 464.438 33.3438V34.3438C466.869 34.3438 469.089 34.6207 471.103 35.1699L471.366 34.2051ZM464.438 33.3438C461.775 33.3438 459.339 33.6448 457.133 34.2523L457.398 35.2164C459.505 34.6364 461.85 34.3438 464.438 34.3438V33.3438ZM457.133 34.2523C454.939 34.8565 453.003 35.6706 451.332 36.6992L451.856 37.5508C453.434 36.5794 455.28 35.7997 457.398 35.2164L457.133 34.2523ZM451.332 36.6992C449.666 37.7243 448.264 38.915 447.132 40.2737L447.9 40.9138C448.955 39.6475 450.272 38.5257 451.856 37.5508L451.332 36.6992ZM447.127 40.2792C446.031 41.6334 445.219 43.0753 444.699 44.6045L445.645 44.9268C446.125 43.5185 446.876 42.1791 447.904 40.9083L447.127 40.2792ZM445.172 45.2656H482.906V44.2656H445.172V45.2656ZM504.938 22.6406V22.1406H504.148L504.486 22.8545L504.938 22.6406ZM521.016 22.6406L521.475 22.4422L521.344 22.1406H521.016V22.6406ZM535.406 55.9219L535.87 55.7353L535.865 55.7234L535.406 55.9219ZM539.156 65.25L538.692 65.4365L539.156 66.5905L539.62 65.4365L539.156 65.25ZM542.906 55.9219L542.447 55.7234L542.442 55.7354L542.906 55.9219ZM557.297 22.6406V22.1406H556.968L556.838 22.4422L557.297 22.6406ZM573.375 22.6406L573.827 22.8545L574.165 22.1406H573.375V22.6406ZM547.172 78V78.5H547.488L547.624 78.2139L547.172 78ZM531.141 78L530.689 78.2139L530.824 78.5H531.141V78ZM504.938 23.1406H521.016V22.1406H504.938V23.1406ZM520.557 22.8391L534.947 56.1203L535.865 55.7234L521.475 22.4422L520.557 22.8391ZM534.942 56.1084L538.692 65.4365L539.62 65.0635L535.87 55.7354L534.942 56.1084ZM539.62 65.4365L543.37 56.1084L542.442 55.7354L538.692 65.0635L539.62 65.4365ZM543.365 56.1203L557.756 22.8391L556.838 22.4422L542.447 55.7234L543.365 56.1203ZM557.297 23.1406H573.375V22.1406H557.297V23.1406ZM572.923 22.4267L546.72 77.7861L547.624 78.2139L573.827 22.8545L572.923 22.4267ZM547.172 77.5H531.141V78.5H547.172V77.5ZM531.593 77.7861L505.389 22.4267L504.486 22.8545L530.689 78.2139L531.593 77.7861ZM582.75 39.4219L583.206 39.6269L583.207 39.6253L582.75 39.4219ZM599.906 24.0469L599.731 23.5784L599.73 23.5789L599.906 24.0469ZM628.406 24.0938L628.23 24.5615L628.234 24.563L628.406 24.0938ZM639.188 30.5625L638.846 30.9275L638.848 30.9293L639.188 30.5625ZM645.984 40.2656L645.523 40.4593L645.525 40.4626L645.984 40.2656ZM648.328 53.9531L647.829 53.9282L647.828 53.9406V53.9531H648.328ZM648.234 55.5938V56.0938H648.676L648.731 55.6558L648.234 55.5938ZM595.922 55.5938V55.0938H595.211L595.451 55.7625L595.922 55.5938ZM598.781 60.1406L598.42 60.4859L598.424 60.4901L598.781 60.1406ZM610.734 66.0469L610.63 66.5358L610.635 66.5369L610.734 66.0469ZM628.969 65.8594L629.071 66.3489L629.075 66.3479L628.969 65.8594ZM638.016 63.2812L638.473 63.0789L638.285 62.6536L637.847 62.8106L638.016 63.2812ZM642.703 73.875L642.914 74.3283L643.359 74.1213L643.16 73.6727L642.703 73.875ZM637.172 76.125L637.332 76.5986L637.337 76.5969L637.172 76.125ZM631.359 77.7188L631.459 78.2088L631.465 78.2075L631.359 77.7188ZM625.031 78.6562L624.982 78.1587L624.981 78.1587L625.031 78.6562ZM633.656 44.7656V45.2656H634.345L634.132 44.6104L633.656 44.7656ZM631.312 40.5L630.916 40.8045L630.924 40.8146L631.312 40.5ZM627.422 37.0312L627.152 37.4524L627.158 37.4562L627.422 37.0312ZM598.266 40.5938L597.881 40.2736L597.877 40.2792L598.266 40.5938ZM595.922 44.7656L595.449 44.6045L595.223 45.2656H595.922V44.7656ZM580.953 50.1562C580.953 46.4766 581.704 42.9684 583.206 39.6269L582.294 39.2169C580.734 42.6879 579.953 46.3359 579.953 50.1562H580.953ZM583.207 39.6253C584.709 36.2529 586.871 33.2776 589.697 30.6974L589.022 29.9589C586.098 32.6287 583.854 35.7158 582.293 39.2184L583.207 39.6253ZM589.697 30.6974C592.518 28.1208 595.977 26.0581 600.082 24.5149L599.73 23.5789C595.523 25.1606 591.95 27.2854 589.022 29.9589L589.697 30.6974ZM600.081 24.5153C604.203 22.9772 608.892 22.2031 614.156 22.2031V21.2031C608.795 21.2031 603.984 21.9915 599.731 23.5784L600.081 24.5153ZM614.156 22.2031C619.387 22.2031 624.076 22.9924 628.23 24.5615L628.583 23.626C624.299 22.0076 619.488 21.2031 614.156 21.2031V22.2031ZM628.234 24.563C632.429 26.1053 635.963 28.2286 638.846 30.9275L639.529 30.1975C636.537 27.3964 632.884 25.2072 628.579 23.6245L628.234 24.563ZM638.848 30.9293C641.764 33.6311 643.989 36.8065 645.523 40.4593L646.445 40.0719C644.855 36.2873 642.548 32.9939 639.527 30.1957L638.848 30.9293ZM645.525 40.4626C647.091 44.116 647.875 48.033 647.875 52.2188H648.875C648.875 47.9045 648.066 43.8528 646.444 40.0687L645.525 40.4626ZM647.875 52.2188C647.875 52.7404 647.86 53.3101 647.829 53.9282L648.828 53.9781C648.859 53.3462 648.875 52.7596 648.875 52.2188H647.875ZM647.828 53.9531C647.828 54.5297 647.798 55.0555 647.738 55.5317L648.731 55.6558C648.796 55.132 648.828 54.5641 648.828 53.9531H647.828ZM648.234 55.0938H595.922V56.0938H648.234V55.0938ZM595.451 55.7625C596.07 57.4897 597.063 59.0644 598.42 60.4859L599.143 59.7954C597.875 58.4668 596.961 57.0103 596.393 55.425L595.451 55.7625ZM598.424 60.4901C599.812 61.9108 601.531 63.1294 603.573 64.1503L604.02 63.2559C602.062 62.2768 600.438 61.1204 599.139 59.7912L598.424 60.4901ZM603.573 64.1503C605.618 65.1725 607.971 65.9661 610.63 66.5358L610.839 65.558C608.247 65.0026 605.976 64.2337 604.02 63.2559L603.573 64.1503ZM610.635 66.5369C613.298 67.0759 616.238 67.3438 619.453 67.3438V66.3438C616.293 66.3438 613.42 66.0803 610.834 65.5568L610.635 66.5369ZM619.453 67.3438C622.675 67.3438 625.881 67.012 629.071 66.3489L628.867 65.3698C625.744 66.0192 622.606 66.3438 619.453 66.3438V67.3438ZM629.075 66.3479C632.251 65.6561 635.288 64.7909 638.184 63.7519L637.847 62.8106C634.993 63.8341 631.999 64.6877 628.862 65.3708L629.075 66.3479ZM637.558 63.4836L642.246 74.0773L643.16 73.6727L638.473 63.0789L637.558 63.4836ZM642.492 73.4217C640.694 74.2585 638.866 75.0023 637.007 75.6531L637.337 76.5969C639.228 75.9352 641.087 75.179 642.914 74.3283L642.492 73.4217ZM637.011 75.6515C635.187 76.2699 633.268 76.7962 631.254 77.23L631.465 78.2075C633.513 77.7663 635.469 77.2301 637.332 76.5985L637.011 75.6515ZM631.26 77.2288C629.278 77.6313 627.186 77.9414 624.982 78.1587L625.08 79.1538C627.314 78.9336 629.441 78.6187 631.459 78.2087L631.26 77.2288ZM624.981 78.1587C622.812 78.3757 620.516 78.4844 618.094 78.4844V79.4844C620.546 79.4844 622.875 79.3743 625.081 79.1538L624.981 78.1587ZM618.094 78.4844C611.914 78.4844 606.514 77.7389 601.887 76.2582L601.582 77.2106C606.33 78.7299 611.836 79.4844 618.094 79.4844V78.4844ZM601.887 76.2582C597.247 74.7736 593.385 72.7538 590.286 70.2075L589.651 70.98C592.865 73.6212 596.846 75.6952 601.582 77.2106L601.887 76.2582ZM590.286 70.2075C587.185 67.659 584.859 64.6722 583.299 61.2459L582.389 61.6603C584.016 65.234 586.44 68.341 589.651 70.98L590.286 70.2075ZM583.299 61.2459C581.736 57.8141 580.953 54.1195 580.953 50.1562H579.953C579.953 54.2555 580.764 58.0921 582.389 61.6603L583.299 61.2459ZM634.132 44.6104C633.612 43.0184 632.8 41.543 631.701 40.1854L630.924 40.8146C631.95 42.082 632.701 43.4503 633.181 44.9208L634.132 44.6104ZM631.709 40.1956C630.638 38.8 629.295 37.6041 627.685 36.6063L627.158 37.4562C628.674 38.3959 629.924 39.5125 630.916 40.8044L631.709 40.1956ZM627.691 36.6101C626.08 35.579 624.22 34.7789 622.116 34.2051L621.853 35.1699C623.874 35.7211 625.638 36.4835 627.152 37.4524L627.691 36.6101ZM622.116 34.2051C620.005 33.6293 617.694 33.3438 615.188 33.3438V34.3438C617.619 34.3438 619.839 34.6207 621.853 35.1699L622.116 34.2051ZM615.188 33.3438C612.525 33.3438 610.089 33.6448 607.883 34.2523L608.148 35.2164C610.255 34.6364 612.6 34.3438 615.188 34.3438V33.3438ZM607.883 34.2523C605.689 34.8565 603.753 35.6706 602.082 36.6992L602.606 37.5508C604.184 36.5794 606.03 35.7997 608.148 35.2164L607.883 34.2523ZM602.082 36.6992C600.416 37.7243 599.014 38.915 597.882 40.2737L598.65 40.9138C599.705 39.6475 601.022 38.5257 602.606 37.5508L602.082 36.6992ZM597.877 40.2792C596.781 41.6334 595.969 43.0753 595.449 44.6045L596.395 44.9268C596.875 43.5185 597.626 42.1791 598.654 40.9083L597.877 40.2792ZM595.922 45.2656H633.656V44.2656H595.922V45.2656ZM663.703 0.234375V-0.265625H663.203V0.234375H663.703ZM677.578 0.234375H678.078V-0.265625H677.578V0.234375ZM677.578 78V78.5H678.078V78H677.578ZM663.703 78H663.203V78.5H663.703V78ZM663.703 0.734375H677.578V-0.265625H663.703V0.734375ZM677.078 0.234375V78H678.078V0.234375H677.078ZM677.578 77.5H663.703V78.5H677.578V77.5ZM664.203 78V0.234375H663.203V78H664.203ZM694.453 39.1875L694 38.9754L693.999 38.9787L694.453 39.1875ZM701.344 30.0938L701.017 29.7155L701.015 29.7172L701.344 30.0938ZM712.172 23.9531L712.005 23.4816L712.004 23.482L712.172 23.9531ZM740.719 23.9531L740.551 24.4242L740.552 24.4246L740.719 23.9531ZM751.547 30.0938L751.218 30.4703L751.22 30.472L751.547 30.0938ZM758.438 39.1875L757.983 39.3963L757.985 39.3996L758.438 39.1875ZM758.438 61.5L757.985 61.2879L757.983 61.2912L758.438 61.5ZM751.547 70.5938L751.22 70.2155L751.218 70.2172L751.547 70.5938ZM740.719 76.7344L740.552 76.2629L740.551 76.2633L740.719 76.7344ZM712.172 76.7344L712.004 77.2055L712.005 77.2059L712.172 76.7344ZM701.344 70.5938L701.015 70.9703L701.017 70.972L701.344 70.5938ZM694.453 61.5L693.999 61.7088L694 61.7121L694.453 61.5ZM707.953 56.6719L707.495 56.8723L707.499 56.8809L707.953 56.6719ZM711.844 61.9219L711.508 62.2922L711.515 62.2986L711.844 61.9219ZM718.078 65.5312L717.904 66L717.911 66.0025L718.078 65.5312ZM734.812 65.5312L734.981 66.0019L734.985 66.0006L734.812 65.5312ZM741.047 61.9219L741.379 62.2956L741.379 62.2952L741.047 61.9219ZM744.938 56.6719L744.482 56.4655L744.481 56.4688L744.938 56.6719ZM744.938 44.0156L744.479 44.2161L744.482 44.222L744.938 44.0156ZM741.047 38.7656L740.711 39.136L740.718 39.1423L741.047 38.7656ZM734.812 35.1562L734.638 35.625L734.645 35.6275L734.812 35.1562ZM718.078 35.1562L718.247 35.6269L718.25 35.6256L718.078 35.1562ZM711.844 38.7656L712.176 39.1393L712.176 39.139L711.844 38.7656ZM707.953 44.0156L707.498 43.8092L707.495 43.8152L707.953 44.0156ZM692.562 50.3438C692.562 46.4441 693.345 42.7969 694.907 39.3963L693.999 38.9787C692.374 42.5156 691.562 46.3059 691.562 50.3438H692.562ZM694.906 39.3996C696.501 35.9955 698.755 33.0198 701.673 30.4703L701.015 29.7172C697.995 32.3552 695.656 35.442 694 38.9754L694.906 39.3996ZM701.671 30.472C704.618 27.9237 708.172 25.9061 712.339 24.4242L712.004 23.482C707.735 25.0001 704.069 27.0763 701.017 29.7155L701.671 30.472ZM712.338 24.4246C716.527 22.9464 721.235 22.2031 726.469 22.2031V21.2031C721.14 21.2031 716.317 21.9598 712.005 23.4816L712.338 24.4246ZM726.469 22.2031C731.703 22.2031 736.395 22.9464 740.551 24.4242L740.886 23.482C736.605 21.9598 731.797 21.2031 726.469 21.2031V22.2031ZM740.552 24.4246C744.751 25.9065 748.303 27.9237 751.218 30.4703L751.876 29.7172C748.853 27.0763 745.186 24.9997 740.885 23.4816L740.552 24.4246ZM751.22 30.472C754.168 33.0209 756.42 35.995 757.983 39.3963L758.892 38.9787C757.267 35.4425 754.926 32.3541 751.874 29.7155L751.22 30.472ZM757.985 39.3996C759.577 42.7996 760.375 46.4456 760.375 50.3438H761.375C761.375 46.3044 760.548 42.5129 758.89 38.9754L757.985 39.3996ZM760.375 50.3438C760.375 54.2419 759.577 57.8879 757.985 61.2879L758.89 61.7121C760.548 58.1746 761.375 54.3831 761.375 50.3438H760.375ZM757.983 61.2912C756.42 64.6925 754.168 67.6666 751.22 70.2155L751.874 70.972C754.926 68.3334 757.267 65.245 758.892 61.7088L757.983 61.2912ZM751.218 70.2172C748.303 72.7638 744.751 74.781 740.552 76.2629L740.885 77.2059C745.186 75.6878 748.853 73.6112 751.876 70.9703L751.218 70.2172ZM740.551 76.2633C736.395 77.7411 731.703 78.4844 726.469 78.4844V79.4844C731.797 79.4844 736.605 78.7277 740.886 77.2055L740.551 76.2633ZM726.469 78.4844C721.235 78.4844 716.527 77.7411 712.338 76.2629L712.005 77.2059C716.317 78.7277 721.14 79.4844 726.469 79.4844V78.4844ZM712.339 76.2633C708.172 74.7814 704.618 72.7638 701.671 70.2155L701.017 70.972C704.069 73.6112 707.735 75.6874 712.004 77.2055L712.339 76.2633ZM701.673 70.2172C698.755 67.6677 696.501 64.692 694.906 61.2879L694 61.7121C695.656 65.2455 697.995 68.3323 701.015 70.9703L701.673 70.2172ZM694.907 61.2912C693.345 57.8906 692.562 54.2434 692.562 50.3438H691.562C691.562 54.3816 692.374 58.1719 693.999 61.7088L694.907 61.2912ZM706.141 50.3438C706.141 52.6303 706.592 54.808 707.495 56.8723L708.411 56.4715C707.564 54.5357 707.141 52.4947 707.141 50.3438H706.141ZM707.499 56.8809C708.435 58.914 709.773 60.718 711.508 62.2922L712.18 61.5516C710.539 60.0632 709.284 58.3673 708.407 56.4628L707.499 56.8809ZM711.515 62.2986C713.285 63.8435 715.418 65.0755 717.904 65.9999L718.252 65.0626C715.864 64.1745 713.84 63.0003 712.173 61.5452L711.515 62.2986ZM717.911 66.0025C720.443 66.8998 723.298 67.3438 726.469 67.3438V66.3438C723.39 66.3438 720.651 65.9127 718.245 65.06L717.911 66.0025ZM726.469 67.3438C729.64 67.3438 732.48 66.8999 734.981 66.0018L734.644 65.0607C732.27 65.9126 729.548 66.3438 726.469 66.3438V67.3438ZM734.985 66.0006C737.503 65.0763 739.638 63.8435 741.379 62.2956L740.715 61.5482C739.081 63.0003 737.06 64.1737 734.64 65.0619L734.985 66.0006ZM741.379 62.2952C743.148 60.72 744.489 58.913 745.394 56.8749L744.481 56.4688C743.636 58.3682 742.384 60.0613 740.714 61.5485L741.379 62.2952ZM745.393 56.8782C746.329 54.8127 746.797 52.6329 746.797 50.3438H745.797C745.797 52.4921 745.359 54.531 744.482 56.4655L745.393 56.8782ZM746.797 50.3438C746.797 48.0546 746.329 45.8748 745.393 43.8093L744.482 44.222C745.359 46.1565 745.797 48.1954 745.797 50.3438H746.797ZM745.396 43.8152C744.49 41.7446 743.147 39.9352 741.376 38.3889L740.718 39.1423C742.384 40.5961 743.635 42.2867 744.479 44.216L745.396 43.8152ZM741.383 38.3953C739.64 36.8134 737.501 35.5788 734.98 34.685L734.645 35.6275C737.061 36.4837 739.079 37.6553 740.711 39.1359L741.383 38.3953ZM734.987 34.6876C732.484 33.7569 729.642 33.2969 726.469 33.2969V34.2969C729.546 34.2969 732.266 34.7431 734.638 35.6249L734.987 34.6876ZM726.469 33.2969C723.296 33.2969 720.439 33.757 717.906 34.6869L718.25 35.6256C720.655 34.743 723.392 34.2969 726.469 34.2969V33.2969ZM717.909 34.6857C715.419 35.5796 713.283 36.8134 711.511 38.3923L712.176 39.139C713.842 37.6553 715.862 36.4829 718.247 35.6268L717.909 34.6857ZM711.512 38.3919C709.773 39.9371 708.434 41.7436 707.498 43.8093L708.409 44.222C709.285 42.2876 710.539 40.5941 712.176 39.1393L711.512 38.3919ZM707.495 43.8152C706.592 45.8795 706.141 48.0572 706.141 50.3438H707.141C707.141 48.1928 707.564 46.1518 708.411 44.216L707.495 43.8152ZM788.391 100.594V101.094H788.891V100.594H788.391ZM774.516 100.594H774.016V101.094H774.516V100.594ZM774.516 22.6875V22.1875H774.016V22.6875H774.516ZM788.391 22.6875H788.891V22.1875H788.391V22.6875ZM788.391 27.8906H787.891V28.8449L788.675 28.3017L788.391 27.8906ZM803.953 22.2188L804.029 22.713L804.037 22.7117L803.953 22.2188ZM822.938 23.7656L822.771 24.2373L822.773 24.2377L822.938 23.7656ZM839.625 38.5781L839.168 38.782L839.171 38.7869L839.625 38.5781ZM839.531 62.0625L839.984 62.2748L839.985 62.2733L839.531 62.0625ZM832.641 71.1562L832.967 71.5353L832.967 71.535L832.641 71.1562ZM822.234 76.9688L822.394 77.4427L822.396 77.442L822.234 76.9688ZM803.25 78.6094L803.186 79.1053L803.187 79.1054L803.25 78.6094ZM797.625 77.5781L797.506 78.0637L797.508 78.0642L797.625 77.5781ZM792.562 76.0312L792.377 76.4956L792.388 76.4998L792.562 76.0312ZM788.391 74.0156L788.645 73.5849L787.891 73.1403V74.0156H788.391ZM788.391 60.6094H787.891V60.8497L788.078 60.9998L788.391 60.6094ZM802.547 66.5156L802.472 67.0101L802.481 67.0113L802.547 66.5156ZM815.859 65.5781L816.021 66.0513L816.025 66.0501L815.859 65.5781ZM822.141 62.0156L821.812 61.6389L821.808 61.6419L822.141 62.0156ZM826.078 43.8281L825.621 44.0312L825.624 44.0372L826.078 43.8281ZM822.234 38.6719L821.899 39.0425L821.906 39.049L822.234 38.6719ZM816.188 35.1562L816.013 35.6247L816.02 35.6274L816.188 35.1562ZM802.641 34.4062L802.731 34.8981L802.739 34.8965L802.641 34.4062ZM797.203 35.9062L797.028 35.4381L797.025 35.4391L797.203 35.9062ZM792.328 38.2969L792.067 37.8704L792.063 37.8729L792.328 38.2969ZM788.391 41.4375L788.032 41.0888L787.891 41.2344V41.4375H788.391ZM788.391 100.094H774.516V101.094H788.391V100.094ZM775.016 100.594V22.6875H774.016V100.594H775.016ZM774.516 23.1875H788.391V22.1875H774.516V23.1875ZM787.891 22.6875V27.8906H788.891V22.6875H787.891ZM788.675 28.3017C789.864 27.4784 791.275 26.6957 792.909 25.9555L792.497 25.0445C790.819 25.8043 789.354 26.6153 788.106 27.4795L788.675 28.3017ZM792.909 25.9555C794.543 25.2158 796.302 24.5674 798.188 24.0108L797.905 23.0517C795.979 23.6201 794.176 24.2842 792.497 25.0445L792.909 25.9555ZM798.188 24.0108C800.072 23.4549 802.019 23.0221 804.029 22.7129L803.877 21.7246C801.824 22.0404 799.834 22.4826 797.905 23.0517L798.188 24.0108ZM804.037 22.7117C806.041 22.3726 808.044 22.2031 810.047 22.2031V21.2031C807.987 21.2031 805.928 21.3774 803.87 21.7258L804.037 22.7117ZM810.047 22.2031C814.685 22.2031 818.925 22.8833 822.771 24.2373L823.104 23.294C819.137 21.8979 814.784 21.2031 810.047 21.2031V22.2031ZM822.773 24.2377C826.655 25.5935 829.972 27.4997 832.73 29.9518L833.395 29.2044C830.528 26.6566 827.095 24.6878 823.102 23.2936L822.773 24.2377ZM832.73 29.9518C835.489 32.4038 837.634 35.3455 839.168 38.782L840.082 38.3743C838.491 34.8107 836.261 31.7525 833.395 29.2044L832.73 29.9518ZM839.171 38.7869C840.731 42.1835 841.516 45.955 841.516 50.1094H842.516C842.516 45.8262 841.706 41.9102 840.079 38.3694L839.171 38.7869ZM841.516 50.1094C841.516 54.4517 840.7 58.3629 839.078 61.8517L839.985 62.2733C841.675 58.6371 842.516 54.5795 842.516 50.1094H841.516ZM839.079 61.8502C837.452 65.3181 835.198 68.2925 832.314 70.7775L832.967 71.535C835.958 68.9575 838.298 65.8694 839.984 62.2748L839.079 61.8502ZM832.315 70.7772C829.462 73.2312 826.051 75.1388 822.073 76.4955L822.396 77.442C826.481 76.0487 830.007 74.0813 832.967 71.5353L832.315 70.7772ZM822.075 76.4948C818.132 77.8195 813.842 78.4844 809.203 78.4844V79.4844C813.939 79.4844 818.337 78.8055 822.394 77.4427L822.075 76.4948ZM809.203 78.4844C807.224 78.4844 805.261 78.3607 803.313 78.1134L803.187 79.1054C805.177 79.3581 807.182 79.4844 809.203 79.4844V78.4844ZM803.314 78.1135C801.394 77.8657 799.536 77.5251 797.742 77.0921L797.508 78.0642C799.339 78.5061 801.231 78.8531 803.186 79.1053L803.314 78.1135ZM797.744 77.0926C795.98 76.6593 794.311 76.1492 792.737 75.5627L792.388 76.4998C794.001 77.1008 795.707 77.6219 797.506 78.0637L797.744 77.0926ZM792.748 75.567C791.205 74.9497 789.838 74.2886 788.645 73.5849L788.137 74.4463C789.381 75.1801 790.795 75.8628 792.377 76.4955L792.748 75.567ZM787.891 74.0156V100.594H788.891V74.0156H787.891ZM788.078 60.9998C789.511 62.1461 791.025 63.1185 792.62 63.916L793.067 63.0215C791.537 62.2565 790.083 61.3226 788.703 60.2189L788.078 60.9998ZM792.62 63.916C794.207 64.7092 795.826 65.3602 797.478 65.8685L797.772 64.9127C796.174 64.4211 794.606 63.7908 793.067 63.0215L792.62 63.916ZM797.478 65.8685C799.126 66.3757 800.791 66.7563 802.472 67.01L802.622 66.0212C800.99 65.775 799.374 65.4056 797.772 64.9127L797.478 65.8685ZM802.481 67.0113C804.158 67.2327 805.789 67.3438 807.375 67.3438V66.3438C805.836 66.3438 804.248 66.236 802.612 66.0199L802.481 67.0113ZM807.375 67.3438C810.606 67.3438 813.49 66.9162 816.021 66.0513L815.698 65.105C813.291 65.9275 810.519 66.3438 807.375 66.3438V67.3438ZM816.025 66.0501C818.576 65.1572 820.729 63.9395 822.473 62.3893L821.808 61.6419C820.177 63.0918 818.143 64.2491 815.694 65.1062L816.025 66.0501ZM822.469 62.3923C824.241 60.8459 825.598 59.0217 826.535 56.9225L825.622 56.515C824.746 58.4783 823.477 60.1854 821.812 61.6389L822.469 62.3923ZM826.535 56.9225C827.471 54.8228 827.938 52.5497 827.938 50.1094H826.938C826.938 52.419 826.497 54.5522 825.622 56.515L826.535 56.9225ZM827.938 50.1094C827.938 47.8202 827.469 45.655 826.532 43.6191L825.624 44.0372C826.499 45.9388 826.938 47.961 826.938 50.1094H827.938ZM826.535 43.6251C825.629 41.587 824.303 39.8095 822.563 38.2947L821.906 39.049C823.541 40.4717 824.777 42.1318 825.621 44.0312L826.535 43.6251ZM822.57 38.3013C820.859 36.7517 818.784 35.5481 816.355 34.6851L816.02 35.6274C818.341 36.4519 820.297 37.5921 821.899 39.0425L822.57 38.3013ZM816.362 34.6878C813.954 33.7887 811.253 33.3438 808.266 33.3438V34.3438C811.154 34.3438 813.734 34.7738 816.013 35.6247L816.362 34.6878ZM808.266 33.3438C806.357 33.3438 804.449 33.5346 802.543 33.916L802.739 34.8965C804.582 34.5279 806.424 34.3438 808.266 34.3438V33.3438ZM802.55 33.9144C800.647 34.2634 798.806 34.7712 797.028 35.4381L797.379 36.3744C799.1 35.7288 800.884 35.2366 802.731 34.8981L802.55 33.9144ZM797.025 35.4391C795.278 36.1061 793.625 36.9165 792.067 37.8704L792.589 38.7233C794.094 37.8023 795.691 37.0189 797.381 36.3734L797.025 35.4391ZM792.063 37.8729C790.532 38.8296 789.188 39.9012 788.032 41.0888L788.749 41.7862C789.843 40.6613 791.124 39.6391 792.593 38.7209L792.063 37.8729ZM787.891 41.4375V60.6094H788.891V41.4375H787.891ZM854.812 39.4219L855.269 39.6269L855.269 39.6253L854.812 39.4219ZM871.969 24.0469L871.794 23.5784L871.793 23.5789L871.969 24.0469ZM900.469 24.0938L900.292 24.5615L900.296 24.563L900.469 24.0938ZM911.25 30.5625L910.908 30.9275L910.91 30.9293L911.25 30.5625ZM918.047 40.2656L917.586 40.4593L917.587 40.4626L918.047 40.2656ZM920.391 53.9531L919.891 53.9282L919.891 53.9406V53.9531H920.391ZM920.297 55.5938V56.0938H920.738L920.793 55.6558L920.297 55.5938ZM867.984 55.5938V55.0938H867.274L867.514 55.7625L867.984 55.5938ZM870.844 60.1406L870.482 60.4859L870.486 60.4901L870.844 60.1406ZM882.797 66.0469L882.692 66.5358L882.698 66.5369L882.797 66.0469ZM901.031 65.8594L901.133 66.3489L901.138 66.3479L901.031 65.8594ZM910.078 63.2812L910.535 63.0789L910.347 62.6536L909.909 62.8106L910.078 63.2812ZM914.766 73.875L914.977 74.3283L915.421 74.1213L915.223 73.6727L914.766 73.875ZM909.234 76.125L909.395 76.5986L909.4 76.5969L909.234 76.125ZM903.422 77.7188L903.521 78.2088L903.527 78.2075L903.422 77.7188ZM897.094 78.6562L897.045 78.1587L897.044 78.1587L897.094 78.6562ZM905.719 44.7656V45.2656H906.408L906.194 44.6104L905.719 44.7656ZM903.375 40.5L902.978 40.8045L902.986 40.8146L903.375 40.5ZM899.484 37.0312L899.215 37.4524L899.221 37.4562L899.484 37.0312ZM870.328 40.5938L869.944 40.2736L869.94 40.2792L870.328 40.5938ZM867.984 44.7656L867.511 44.6045L867.286 45.2656H867.984V44.7656ZM853.016 50.1562C853.016 46.4766 853.766 42.9684 855.269 39.6269L854.356 39.2169C852.796 42.6879 852.016 46.3359 852.016 50.1562H853.016ZM855.269 39.6253C856.771 36.2529 858.933 33.2776 861.759 30.6974L861.085 29.9589C858.161 32.6287 855.916 35.7158 854.356 39.2184L855.269 39.6253ZM861.759 30.6974C864.581 28.1208 868.04 26.0581 872.145 24.5149L871.793 23.5789C867.585 25.1606 864.013 27.2854 861.085 29.9589L861.759 30.6974ZM872.144 24.5153C876.266 22.9772 880.955 22.2031 886.219 22.2031V21.2031C880.858 21.2031 876.047 21.9915 871.794 23.5784L872.144 24.5153ZM886.219 22.2031C891.45 22.2031 896.139 22.9924 900.292 24.5615L900.645 23.626C896.361 22.0076 891.55 21.2031 886.219 21.2031V22.2031ZM900.296 24.563C904.491 26.1053 908.025 28.2286 910.908 30.9275L911.592 30.1975C908.6 27.3964 904.946 25.2072 900.641 23.6245L900.296 24.563ZM910.91 30.9293C913.827 33.6311 916.051 36.8065 917.586 40.4593L918.508 40.0719C916.918 36.2873 914.611 32.9939 911.59 30.1957L910.91 30.9293ZM917.587 40.4626C919.153 44.116 919.938 48.033 919.938 52.2188H920.938C920.938 47.9045 920.128 43.8528 918.506 40.0687L917.587 40.4626ZM919.938 52.2188C919.938 52.7404 919.922 53.3101 919.891 53.9282L920.89 53.9781C920.922 53.3462 920.938 52.7596 920.938 52.2188H919.938ZM919.891 53.9531C919.891 54.5297 919.86 55.0555 919.801 55.5317L920.793 55.6558C920.858 55.132 920.891 54.5641 920.891 53.9531H919.891ZM920.297 55.0938H867.984V56.0938H920.297V55.0938ZM867.514 55.7625C868.133 57.4897 869.125 59.0644 870.482 60.4859L871.205 59.7954C869.937 58.4668 869.023 57.0103 868.455 55.425L867.514 55.7625ZM870.486 60.4901C871.875 61.9108 873.594 63.1294 875.636 64.1503L876.083 63.2559C874.125 62.2768 872.5 61.1204 871.201 59.7912L870.486 60.4901ZM875.636 64.1503C877.68 65.1725 880.034 65.9661 882.692 66.5358L882.902 65.558C880.31 65.0026 878.039 64.2337 876.083 63.2559L875.636 64.1503ZM882.698 66.5369C885.361 67.0759 888.301 67.3438 891.516 67.3438V66.3438C888.355 66.3438 885.483 66.0803 882.896 65.5568L882.698 66.5369ZM891.516 67.3438C894.738 67.3438 897.944 67.012 901.133 66.3489L900.929 65.3698C897.806 66.0192 894.669 66.3438 891.516 66.3438V67.3438ZM901.138 66.3479C904.314 65.6561 907.35 64.7909 910.247 63.7519L909.909 62.8106C907.056 63.8341 904.061 64.6877 900.925 65.3708L901.138 66.3479ZM909.621 63.4836L914.308 74.0773L915.223 73.6727L910.535 63.0789L909.621 63.4836ZM914.555 73.4217C912.757 74.2585 910.929 75.0023 909.069 75.6531L909.4 76.5969C911.29 75.9352 913.149 75.179 914.977 74.3283L914.555 73.4217ZM909.074 75.6515C907.249 76.2699 905.33 76.7962 903.317 77.23L903.527 78.2075C905.576 77.7663 907.532 77.2301 909.395 76.5985L909.074 75.6515ZM903.322 77.2288C901.34 77.6313 899.248 77.9414 897.045 78.1587L897.143 79.1538C899.377 78.9336 901.503 78.6187 903.521 78.2087L903.322 77.2288ZM897.044 78.1587C894.875 78.3757 892.579 78.4844 890.156 78.4844V79.4844C892.609 79.4844 894.938 79.3743 897.144 79.1538L897.044 78.1587ZM890.156 78.4844C883.976 78.4844 878.577 77.7389 873.949 76.2582L873.644 77.2106C878.392 78.7299 883.899 79.4844 890.156 79.4844V78.4844ZM873.949 76.2582C869.31 74.7736 865.447 72.7538 862.349 70.2075L861.714 70.98C864.928 73.6212 868.909 75.6952 873.644 77.2106L873.949 76.2582ZM862.349 70.2075C859.248 67.659 856.921 64.6722 855.361 61.2459L854.451 61.6603C856.079 65.234 858.502 68.341 861.714 70.98L862.349 70.2075ZM855.361 61.2459C853.799 57.8141 853.016 54.1195 853.016 50.1562H852.016C852.016 54.2555 852.826 58.0921 854.451 61.6603L855.361 61.2459ZM906.194 44.6104C905.674 43.0184 904.863 41.543 903.764 40.1854L902.986 40.8146C904.012 42.082 904.763 43.4503 905.243 44.9208L906.194 44.6104ZM903.772 40.1956C902.701 38.8 901.357 37.6041 899.748 36.6063L899.221 37.4562C900.736 38.3959 901.987 39.5125 902.978 40.8044L903.772 40.1956ZM899.754 36.6101C898.143 35.579 896.282 34.7789 894.178 34.2051L893.915 35.1699C895.936 35.7211 897.701 36.4835 899.215 37.4524L899.754 36.6101ZM894.178 34.2051C892.067 33.6293 889.756 33.3438 887.25 33.3438V34.3438C889.681 34.3438 891.902 34.6207 893.915 35.1699L894.178 34.2051ZM887.25 33.3438C884.588 33.3438 882.152 33.6448 879.945 34.2523L880.211 35.2164C882.317 34.6364 884.662 34.3438 887.25 34.3438V33.3438ZM879.945 34.2523C877.751 34.8565 875.816 35.6706 874.144 36.6992L874.668 37.5508C876.247 36.5794 878.093 35.7997 880.211 35.2164L879.945 34.2523ZM874.144 36.6992C872.478 37.7243 871.076 38.915 869.944 40.2737L870.712 40.9138C871.767 39.6475 873.084 38.5257 874.668 37.5508L874.144 36.6992ZM869.94 40.2792C868.843 41.6334 868.032 43.0753 867.511 44.6045L868.458 44.9268C868.937 43.5185 869.688 42.1791 870.717 40.9083L869.94 40.2792ZM867.984 45.2656H905.719V44.2656H867.984V45.2656ZM935.391 22.6875V22.1875H934.891V22.6875H935.391ZM949.266 22.6875H949.766V22.1875H949.266V22.6875ZM949.266 30.6562H948.766V31.6522L949.564 31.0572L949.266 30.6562ZM969.141 20.9531L969.617 20.8003L969.472 20.3506L969.015 20.4691L969.141 20.9531ZM973.219 33.6562L973.268 34.1538L973.884 34.0926L973.695 33.5034L973.219 33.6562ZM959.109 37.2656L959.317 37.7203L959.319 37.7196L959.109 37.2656ZM949.266 45.0938L948.866 44.7938L948.766 44.9271V45.0938H949.266ZM949.266 78V78.5H949.766V78H949.266ZM935.391 78H934.891V78.5H935.391V78ZM935.391 23.1875H949.266V22.1875H935.391V23.1875ZM948.766 22.6875V30.6562H949.766V22.6875H948.766ZM949.564 31.0572C952.602 28.7945 955.81 26.8421 959.187 25.1997L958.75 24.3003C955.315 25.9704 952.054 27.9555 948.967 30.2553L949.564 31.0572ZM959.187 25.1997C962.566 23.5567 965.926 22.3031 969.266 21.4371L969.015 20.4691C965.605 21.3531 962.184 22.6308 958.75 24.3003L959.187 25.1997ZM968.665 21.106L972.743 33.8091L973.695 33.5034L969.617 20.8003L968.665 21.106ZM973.169 33.1587C967.781 33.6944 963.022 34.9092 958.9 36.8116L959.319 37.7196C963.322 35.8721 967.969 34.6806 973.268 34.1538L973.169 33.1587ZM958.901 36.8109C954.798 38.6876 951.45 41.3485 948.866 44.7938L949.666 45.3937C952.144 42.089 955.358 39.5312 959.317 37.7203L958.901 36.8109ZM948.766 45.0938V78H949.766V45.0938H948.766ZM949.266 77.5H935.391V78.5H949.266V77.5ZM935.891 78V22.6875H934.891V78H935.891Z" fill="white"/>
</svg>
