<svg width="339" height="74" viewBox="0 0 339 74" fill="none" xmlns="http://www.w3.org/2000/svg">
<path d="M0.984375 0.734375V-1.26562H-1.01562V0.734375H0.984375ZM15.8438 0.734375H17.8438V-1.26562H15.8438V0.734375ZM15.8438 19.8594H13.8438V21.8594H15.8438V19.8594ZM61.4062 19.8594V21.8594H63.4062V19.8594H61.4062ZM61.4062 0.734375V-1.26562H59.4062V0.734375H61.4062ZM76.3125 0.734375H78.3125V-1.26562H76.3125V0.734375ZM76.3125 74V76H78.3125V74H76.3125ZM61.4062 74H59.4062V76H61.4062V74ZM61.4062 32.5625H63.4062V30.5625H61.4062V32.5625ZM15.8438 32.5625V30.5625H13.8438V32.5625H15.8438ZM15.8438 74V76H17.8438V74H15.8438ZM0.984375 74H-1.01562V76H0.984375V74ZM0.984375 2.73438H15.8438V-1.26562H0.984375V2.73438ZM13.8438 0.734375V19.8594H17.8438V0.734375H13.8438ZM15.8438 21.8594H61.4062V17.8594H15.8438V21.8594ZM63.4062 19.8594V0.734375H59.4062V19.8594H63.4062ZM61.4062 2.73438H76.3125V-1.26562H61.4062V2.73438ZM74.3125 0.734375V74H78.3125V0.734375H74.3125ZM76.3125 72H61.4062V76H76.3125V72ZM63.4062 74V32.5625H59.4062V74H63.4062ZM61.4062 30.5625H15.8438V34.5625H61.4062V30.5625ZM13.8438 32.5625V74H17.8438V32.5625H13.8438ZM15.8438 72H0.984375V76H15.8438V72ZM2.98438 74V0.734375H-1.01562V74H2.98438ZM119.203 13.7656H121.203V11.7656H119.203V13.7656ZM92.1562 13.7656H90.1562V15.7656H92.1562V13.7656ZM92.1562 0.734375V-1.26562H90.1562V0.734375H92.1562ZM161.109 0.734375H163.109V-1.26562H161.109V0.734375ZM161.109 13.7656V15.7656H163.109V13.7656H161.109ZM134.062 13.7656V11.7656H132.062V13.7656H134.062ZM134.062 74V76H136.062V74H134.062ZM119.203 74H117.203V76H119.203V74ZM119.203 11.7656H92.1562V15.7656H119.203V11.7656ZM94.1562 13.7656V0.734375H90.1562V13.7656H94.1562ZM92.1562 2.73438H161.109V-1.26562H92.1562V2.73438ZM159.109 0.734375V13.7656H163.109V0.734375H159.109ZM161.109 11.7656H134.062V15.7656H161.109V11.7656ZM132.062 13.7656V74H136.062V13.7656H132.062ZM134.062 72H119.203V76H134.062V72ZM121.203 74V13.7656H117.203V74H121.203ZM177.047 0.734375V-1.26562H175.047V0.734375H177.047ZM191.906 0.734375L193.323 -0.677351L192.737 -1.26562H191.906V0.734375ZM218.531 27.4531L217.115 28.8649L218.531 30.2865L219.948 28.8649L218.531 27.4531ZM245.156 0.734375V-1.26562H244.326L243.74 -0.677351L245.156 0.734375ZM260.016 0.734375H262.016V-1.26562H260.016V0.734375ZM260.016 74V76H262.016V74H260.016ZM245.156 74H243.156V76H245.156V74ZM245.156 21.3125H247.156V16.6098L243.769 19.8719L245.156 21.3125ZM218.531 46.9531L217.144 48.3937L218.531 49.7298L219.919 48.3937L218.531 46.9531ZM191.906 21.3125L193.294 19.8719L189.906 16.6098V21.3125H191.906ZM191.906 74V76H193.906V74H191.906ZM177.047 74H175.047V76H177.047V74ZM177.047 2.73438H191.906V-1.26562H177.047V2.73438ZM190.49 2.1461L217.115 28.8649L219.948 26.0414L193.323 -0.677351L190.49 2.1461ZM219.948 28.8649L246.573 2.1461L243.74 -0.677351L217.115 26.0414L219.948 28.8649ZM245.156 2.73438H260.016V-1.26562H245.156V2.73438ZM258.016 0.734375V74H262.016V0.734375H258.016ZM260.016 72H245.156V76H260.016V72ZM247.156 74V21.3125H243.156V74H247.156ZM243.769 19.8719L217.144 45.5125L219.919 48.3937L246.544 22.7531L243.769 19.8719ZM219.919 45.5125L193.294 19.8719L190.519 22.7531L217.144 48.3937L219.919 45.5125ZM189.906 21.3125V74H193.906V21.3125H189.906ZM191.906 72H177.047V76H191.906V72ZM179.047 74V0.734375H175.047V74H179.047ZM280.875 0.734375V-1.26562H278.875V0.734375H280.875ZM295.734 0.734375H297.734V-1.26562H295.734V0.734375ZM295.734 60.9688H293.734V62.9688H295.734V60.9688ZM338.344 60.9688H340.344V58.9688H338.344V60.9688ZM338.344 74V76H340.344V74H338.344ZM280.875 74H278.875V76H280.875V74ZM280.875 2.73438H295.734V-1.26562H280.875V2.73438ZM293.734 0.734375V60.9688H297.734V0.734375H293.734ZM295.734 62.9688H338.344V58.9688H295.734V62.9688ZM336.344 60.9688V74H340.344V60.9688H336.344ZM338.344 72H280.875V76H338.344V72ZM282.875 74V0.734375H278.875V74H282.875Z" fill="white"/>
</svg>
