<svg width="639" height="103" viewBox="0 0 639 103" fill="none" xmlns="http://www.w3.org/2000/svg">
<path d="M0.765625 90.1406L-0.274269 88.4322L-1.78795 89.3536L-1.05557 90.9672L0.765625 90.1406ZM6.29688 86.0156L4.94276 84.5438L4.93535 84.5506L4.928 84.5575L6.29688 86.0156ZM10.1406 81.2344L8.41193 80.2286L8.40801 80.2353L8.40414 80.2421L10.1406 81.2344ZM12.3438 75.4688L14.2968 75.8996L14.2981 75.8936L12.3438 75.4688ZM13.0469 4.73438V2.73438H11.0469V4.73438H13.0469ZM27.9062 4.73438H29.9062V2.73438H27.9062V4.73438ZM27.4844 74.3906L29.4733 74.6012L29.4735 74.5988L27.4844 74.3906ZM26.0781 81.7031L24.1603 81.1359L24.1555 81.1518L24.1511 81.1678L26.0781 81.7031ZM23.5 87.8906L21.7724 86.8829L21.7661 86.8937L21.76 86.9046L23.5 87.8906ZM19.5156 93.2344L18.0616 91.8611L18.0548 91.8683L18.0481 91.8756L19.5156 93.2344ZM13.9375 98.1094L12.7639 96.4898L12.7527 96.4981L13.9375 98.1094ZM6.53125 102.844L4.71006 103.67L5.61413 105.662L7.51728 104.584L6.53125 102.844ZM1.80552 91.849C4.05696 90.4786 6.01601 89.0225 7.66575 87.4738L4.928 84.5575C3.51524 85.8837 1.78679 87.1777 -0.274269 88.4322L1.80552 91.849ZM7.65099 87.4875C9.35673 85.9182 10.7697 84.1646 11.8771 82.2267L8.40414 80.2421C7.51151 81.8042 6.36202 83.238 4.94276 84.5438L7.65099 87.4875ZM11.8693 82.2402C12.9827 80.3265 13.7876 78.2077 14.2968 75.8996L10.3907 75.0379C9.96235 76.9798 9.29851 78.7048 8.41193 80.2286L11.8693 82.2402ZM14.2981 75.8936C14.8032 73.57 15.0469 70.9863 15.0469 68.1562H11.0469C11.0469 70.7637 10.8218 73.055 10.3894 75.0439L14.2981 75.8936ZM15.0469 68.1562V4.73438H11.0469V68.1562H15.0469ZM13.0469 6.73438H27.9062V2.73438H13.0469V6.73438ZM25.9062 4.73438V65.4844H29.9062V4.73438H25.9062ZM25.9062 65.4844C25.9062 68.6783 25.768 71.5763 25.4952 74.1825L29.4735 74.5988C29.7633 71.83 29.9062 68.7905 29.9062 65.4844H25.9062ZM25.4955 74.18C25.2251 76.7335 24.7773 79.0498 24.1603 81.1359L27.996 82.2704C28.6915 79.9189 29.1811 77.3602 29.4733 74.6012L25.4955 74.18ZM24.1511 81.1678C23.5686 83.2649 22.7734 85.1669 21.7724 86.8829L25.2276 88.8984C26.4141 86.8643 27.3377 84.6414 28.0052 82.2384L24.1511 81.1678ZM21.76 86.9046C20.7827 88.6292 19.5532 90.2818 18.0616 91.8611L20.9697 94.6076C22.6655 92.812 24.0923 90.9021 25.24 88.8767L21.76 86.9046ZM18.0481 91.8756C16.5875 93.453 14.8301 94.9926 12.7639 96.4899L15.1111 99.7289C17.3574 98.1011 19.3188 96.3907 20.9831 94.5932L18.0481 91.8756ZM12.7527 96.4981C10.7037 98.0047 8.30367 99.5406 5.54522 101.104L7.51728 104.584C10.3838 102.959 12.9213 101.339 15.1223 99.7207L12.7527 96.4981ZM8.35244 102.017L2.58682 89.314L-1.05557 90.9672L4.71006 103.67L8.35244 102.017ZM49.5156 47.6719L50.6353 49.3291L50.643 49.3239L50.6506 49.3187L49.5156 47.6719ZM58.1406 44.0156L58.6174 45.958L58.6298 45.9549L58.1406 44.0156ZM80.9688 43.4531L80.7044 45.4356L80.7066 45.4359L80.9688 43.4531ZM92.6406 45.75L92.1413 47.6867L94.8846 48.3939L94.6327 45.5721L92.6406 45.75ZM91.0469 40.9219L89.335 41.9561L89.3399 41.9641L89.3448 41.9721L91.0469 40.9219ZM87.25 37.0781L86.1183 38.7272L86.1368 38.7398L86.1555 38.7521L87.25 37.0781ZM81.4375 34.5469L80.9272 36.4807L80.9337 36.4824L81.4375 34.5469ZM56.8281 36.1875L56.2787 34.2644L56.2705 34.2668L56.8281 36.1875ZM51.3906 38.2031L49.5151 38.8978L50.2668 40.9273L52.2309 40.0181L51.3906 38.2031ZM47.1719 26.8125L46.4974 24.9297L44.5943 25.6114L45.2964 27.5071L47.1719 26.8125ZM53.875 24.75L53.3722 22.8142L53.366 22.8159L53.875 24.75ZM61.2344 23.1562L61.5791 25.1263L61.5911 25.1242L61.603 25.122L61.2344 23.1562ZM106.609 78V80H108.609V78H106.609ZM92.7344 78H90.7344V80H92.7344V78ZM92.7344 72.7969H94.7344V69.3039L91.722 71.072L92.7344 72.7969ZM88 75.1875L87.2001 73.3544L87.1877 73.3599L88 75.1875ZM76 78.4688L75.7322 76.4868L75.7171 76.4888L75.702 76.4911L76 78.4688ZM57.3438 77.5781L56.7894 79.4998L56.7943 79.5012L57.3438 77.5781ZM44.2188 67.875L42.42 68.7494L42.4274 68.7645L42.4349 68.7795L44.2188 67.875ZM57.9062 62.7188L56.1579 63.69L56.1658 63.7042L56.1739 63.7182L57.9062 62.7188ZM60.1562 64.9219L59.0825 66.6092L59.1009 66.6209L59.1196 66.6323L60.1562 64.9219ZM64.0938 66.4688L63.5997 68.4068L63.6218 68.4124L63.644 68.4175L64.0938 66.4688ZM92.7344 59.25L94.1051 60.7064L94.7344 60.1141V59.25H92.7344ZM92.7344 56.8125H94.7344V55.2947L93.2726 54.8863L92.7344 56.8125ZM86.4062 55.3125L86.0197 57.2748L86.0253 57.2759L86.4062 55.3125ZM80.4531 54.375L80.1888 56.3575L80.2069 56.3599L80.2251 56.362L80.4531 54.375ZM75.1094 53.8594L74.9963 55.8562L74.9984 55.8563L75.1094 53.8594ZM60.1094 55.6406L61.0452 57.4082L61.0652 57.3976L61.085 57.3865L60.1094 55.6406ZM44.5781 60.5625C44.5781 58.2074 45.0878 56.11 46.0807 54.2315L42.5443 52.3623C41.2247 54.8588 40.5781 57.6051 40.5781 60.5625H44.5781ZM46.0807 54.2315C47.0647 52.3699 48.5598 50.7315 50.6353 49.3291L48.3959 46.0147C45.8465 47.7373 43.8728 49.8488 42.5443 52.3623L46.0807 54.2315ZM50.6506 49.3187C52.719 47.8931 55.3566 46.7583 58.6174 45.958L57.6639 42.0733C54.0497 42.9604 50.9373 44.2631 48.3807 46.0251L50.6506 49.3187ZM58.6298 45.9549C61.9009 45.1297 65.7615 44.7031 70.2344 44.7031V40.7031C65.5198 40.7031 61.3179 41.1515 57.6514 42.0764L58.6298 45.9549ZM70.2344 44.7031C73.5432 44.7031 77.0326 44.946 80.7044 45.4356L81.2331 41.4707C77.4049 40.9602 73.7381 40.7031 70.2344 40.7031V44.7031ZM80.7066 45.4359C84.4017 45.9245 88.213 46.6739 92.1413 47.6867L93.1399 43.8133C89.0682 42.7636 85.0983 41.9818 81.2309 41.4704L80.7066 45.4359ZM94.6327 45.5721C94.4493 43.5186 93.8213 41.6096 92.7489 39.8717L89.3448 41.9721C90.0849 43.1716 90.5194 44.4814 90.6485 45.9279L94.6327 45.5721ZM92.7587 39.8876C91.6812 38.1042 90.1933 36.613 88.3445 35.4042L86.1555 38.7521C87.5567 39.6682 88.6 40.7396 89.335 41.9561L92.7587 39.8876ZM88.3817 35.4291C86.5601 34.179 84.3992 33.2511 81.9413 32.6114L80.9337 36.4824C83.0383 37.0302 84.7524 37.7898 86.1183 38.7272L88.3817 35.4291ZM81.9478 32.6131C79.4976 31.9665 76.7586 31.6562 73.75 31.6562V35.6562C76.4914 35.6562 78.8774 35.9398 80.9272 36.4807L81.9478 32.6131ZM73.75 31.6562C72.1092 31.6562 70.3229 31.7546 68.3947 31.9474L68.7928 35.9276C70.6146 35.7454 72.2658 35.6562 73.75 35.6562V31.6562ZM68.3947 31.9474C66.4586 32.141 64.4644 32.4308 62.4127 32.8155L63.1498 36.747C65.0981 36.3817 66.9789 36.109 68.7928 35.9276L68.3947 31.9474ZM62.4127 32.8155C60.3514 33.202 58.3067 33.685 56.2787 34.2645L57.3776 38.1105C59.2871 37.565 61.2111 37.1105 63.1498 36.747L62.4127 32.8155ZM56.2705 34.2668C54.2443 34.855 52.3366 35.5612 50.5504 36.3882L52.2309 40.0181C53.8196 39.2825 55.5369 38.645 57.3857 38.1082L56.2705 34.2668ZM53.2661 37.5085L49.0474 26.1179L45.2964 27.5071L49.5151 38.8978L53.2661 37.5085ZM47.8463 28.6953C49.8804 27.9667 52.0592 27.2959 54.384 26.6841L53.366 22.8159C50.9408 23.4541 48.6508 24.1583 46.4974 24.9297L47.8463 28.6953ZM54.3778 26.6858C56.7308 26.0746 59.1312 25.5547 61.5791 25.1263L60.8896 21.1862C58.3376 21.6328 55.8317 22.1754 53.3722 22.8142L54.3778 26.6858ZM61.603 25.122C64.0475 24.6636 66.4909 24.3124 68.9334 24.0682L68.5354 20.0881C65.9778 20.3438 63.4213 20.7114 60.8658 21.1905L61.603 25.122ZM68.9334 24.0682C71.3719 23.8243 73.7273 23.7031 76 23.7031V19.7031C73.5852 19.7031 71.0968 19.8319 68.5354 20.0881L68.9334 24.0682ZM76 23.7031C86.0293 23.7031 93.0957 26.2613 97.6144 31.0045L100.511 28.2455C94.9668 22.4262 86.6582 19.7031 76 19.7031V23.7031ZM97.6144 31.0045C102.15 35.7656 104.609 43.2638 104.609 53.9062H108.609C108.609 42.7362 106.037 34.0469 100.511 28.2455L97.6144 31.0045ZM104.609 53.9062V78H108.609V53.9062H104.609ZM106.609 76H92.7344V80H106.609V76ZM94.7344 78V72.7969H90.7344V78H94.7344ZM91.722 71.072C90.361 71.8709 88.8548 72.6324 87.2001 73.3544L88.7999 77.0206C90.5827 76.2426 92.2328 75.4103 93.7468 74.5217L91.722 71.072ZM87.1877 73.3599C85.5981 74.0664 83.846 74.6913 81.9273 75.2309L83.0102 79.0816C85.0915 78.4962 87.0269 77.8086 88.8123 77.0151L87.1877 73.3599ZM81.9273 75.2309C80.0272 75.7653 77.9633 76.1853 75.7322 76.4868L76.2678 80.4507C78.6617 80.1272 80.9103 79.6722 83.0102 79.0816L81.9273 75.2309ZM75.702 76.4911C73.5295 76.8184 71.2079 76.9844 68.7344 76.9844V80.9844C71.3858 80.9844 73.908 80.8066 76.298 80.4464L75.702 76.4911ZM68.7344 76.9844C64.5612 76.9844 60.956 76.5302 57.8932 75.6551L56.7943 79.5012C60.294 80.5011 64.2825 80.9844 68.7344 80.9844V76.9844ZM57.8981 75.6565C54.8309 74.7717 52.3469 73.571 50.3948 72.093L47.9802 75.282C50.4031 77.1165 53.3566 78.5095 56.7894 79.4998L57.8981 75.6565ZM50.3948 72.093C48.4241 70.6009 46.9766 68.8916 46.0026 66.9705L42.4349 68.7795C43.7109 71.2959 45.5759 73.4616 47.9802 75.282L50.3948 72.093ZM46.0175 67.0006C45.0627 65.0365 44.5781 62.8999 44.5781 60.5625H40.5781C40.5781 63.4751 41.1873 66.2135 42.42 68.7494L46.0175 67.0006ZM55.2031 60.0938C55.2031 61.362 55.5352 62.5691 56.1579 63.69L59.6546 61.7475C59.3398 61.1809 59.2031 60.638 59.2031 60.0938H55.2031ZM56.1739 63.7182C56.8449 64.8813 57.8591 65.8307 59.0825 66.6092L61.23 63.2346C60.3909 62.7006 59.9051 62.1812 59.6386 61.7193L56.1739 63.7182ZM59.1196 66.6323C60.3683 67.389 61.8793 67.9682 63.5997 68.4068L64.5878 64.5307C63.1207 64.1568 62.0067 63.7047 61.1929 63.2115L59.1196 66.6323ZM63.644 68.4175C65.4592 68.8364 67.5717 69.0312 69.9531 69.0312V65.0312C67.7721 65.0312 65.9783 64.8511 64.5435 64.52L63.644 68.4175ZM69.9531 69.0312C72.5108 69.0312 74.9966 68.8017 77.4079 68.3392L76.6546 64.4108C74.5034 64.8233 72.2704 65.0312 69.9531 65.0312V69.0312ZM77.4079 68.3392C79.7832 67.8837 82.0127 67.2785 84.0921 66.5193L82.7204 62.7619C80.8623 63.4402 78.8418 63.9913 76.6546 64.4108L77.4079 68.3392ZM84.0921 66.5193C86.1599 65.7644 88.0531 64.8866 89.764 63.8801L87.736 60.4324C86.2594 61.3009 84.5901 62.0793 82.7204 62.7619L84.0921 66.5193ZM89.764 63.8801C91.4539 62.8861 92.9097 61.8315 94.1051 60.7064L91.3636 57.7936C90.434 58.6685 89.2336 59.5514 87.736 60.4324L89.764 63.8801ZM94.7344 59.25V56.8125H90.7344V59.25H94.7344ZM93.2726 54.8863C91.0975 54.2785 88.9356 53.766 86.7872 53.3491L86.0253 57.2759C88.0644 57.6715 90.1213 58.159 92.1962 58.7387L93.2726 54.8863ZM86.7928 53.3502C84.6827 52.9346 82.6453 52.6134 80.6811 52.388L80.2251 56.362C82.0735 56.5741 84.0048 56.8779 86.0197 57.2748L86.7928 53.3502ZM80.7175 52.3925C78.7974 52.1365 76.9647 51.9594 75.2203 51.8625L74.9984 55.8563C76.629 55.9469 78.3588 56.1135 80.1888 56.3575L80.7175 52.3925ZM75.2224 51.8626C73.5398 51.7673 72.0476 51.7188 70.75 51.7188V55.7188C71.9524 55.7188 73.3664 55.7639 74.9963 55.8562L75.2224 51.8626ZM70.75 51.7188C68.0808 51.7188 65.7824 51.8945 63.889 52.2732L64.6735 56.1955C66.2176 55.8867 68.2317 55.7188 70.75 55.7188V51.7188ZM63.889 52.2732C62.0476 52.6415 60.4391 53.1653 59.1337 53.8947L61.085 57.3865C61.9046 56.9285 63.0774 56.5148 64.6735 56.1955L63.889 52.2732ZM59.1736 53.873C57.8845 54.5555 56.7942 55.4651 56.1144 56.679L59.6044 58.6335C59.7996 58.2849 60.2092 57.8507 61.0452 57.4082L59.1736 53.873ZM56.1144 56.679C55.5203 57.7399 55.2031 58.8868 55.2031 60.0938H59.2031C59.2031 59.6132 59.3235 59.1351 59.6044 58.6335L56.1144 56.679ZM117.344 22.6406V20.6406H114.184L115.536 23.4963L117.344 22.6406ZM133.422 22.6406L135.258 21.8469L134.736 20.6406H133.422V22.6406ZM147.812 55.9219L149.668 55.1759L149.659 55.1519L149.648 55.1281L147.812 55.9219ZM151.562 65.25L149.707 65.996L151.562 70.612L153.418 65.996L151.562 65.25ZM155.312 55.9219L153.477 55.1281L153.466 55.1519L153.457 55.1759L155.312 55.9219ZM169.703 22.6406V20.6406H168.389L167.867 21.8469L169.703 22.6406ZM185.781 22.6406L187.589 23.4963L188.941 20.6406H185.781V22.6406ZM159.578 78V80H160.844L161.386 78.8556L159.578 78ZM143.547 78L141.739 78.8556L142.281 80H143.547V78ZM117.344 24.6406H133.422V20.6406H117.344V24.6406ZM131.586 23.4344L145.977 56.7156L149.648 55.1281L135.258 21.8469L131.586 23.4344ZM145.957 56.6679L149.707 65.996L153.418 64.504L149.668 55.1759L145.957 56.6679ZM153.418 65.996L157.168 56.6679L153.457 55.1759L149.707 64.504L153.418 65.996ZM157.148 56.7156L171.539 23.4344L167.867 21.8469L153.477 55.1281L157.148 56.7156ZM169.703 24.6406H185.781V20.6406H169.703V24.6406ZM183.974 21.785L157.77 77.1444L161.386 78.8556L187.589 23.4963L183.974 21.785ZM159.578 76H143.547V80H159.578V76ZM145.355 77.1444L119.151 21.785L115.536 23.4963L141.739 78.8556L145.355 77.1444ZM199.797 47.6719L200.917 49.3291L200.924 49.3239L200.932 49.3187L199.797 47.6719ZM208.422 44.0156L208.899 45.958L208.911 45.9549L208.422 44.0156ZM231.25 43.4531L230.986 45.4356L230.988 45.4359L231.25 43.4531ZM242.922 45.75L242.423 47.6867L245.166 48.3939L244.914 45.5721L242.922 45.75ZM241.328 40.9219L239.616 41.9561L239.621 41.9641L239.626 41.9721L241.328 40.9219ZM237.531 37.0781L236.4 38.7272L236.418 38.7398L236.437 38.7521L237.531 37.0781ZM231.719 34.5469L231.208 36.4807L231.215 36.4824L231.719 34.5469ZM207.109 36.1875L206.56 34.2644L206.552 34.2668L207.109 36.1875ZM201.672 38.2031L199.796 38.8978L200.548 40.9273L202.512 40.0181L201.672 38.2031ZM197.453 26.8125L196.779 24.9297L194.876 25.6114L195.578 27.5071L197.453 26.8125ZM204.156 24.75L203.653 22.8142L203.647 22.8159L204.156 24.75ZM211.516 23.1562L211.86 25.1263L211.872 25.1242L211.884 25.122L211.516 23.1562ZM256.891 78V80H258.891V78H256.891ZM243.016 78H241.016V80H243.016V78ZM243.016 72.7969H245.016V69.3039L242.003 71.072L243.016 72.7969ZM238.281 75.1875L237.481 73.3544L237.469 73.3599L238.281 75.1875ZM226.281 78.4688L226.013 76.4868L225.998 76.4888L225.983 76.4911L226.281 78.4688ZM207.625 77.5781L207.071 79.4998L207.076 79.5012L207.625 77.5781ZM194.5 67.875L192.701 68.7494L192.709 68.7645L192.716 68.7795L194.5 67.875ZM208.188 62.7188L206.439 63.69L206.447 63.7042L206.455 63.7182L208.188 62.7188ZM210.438 64.9219L209.364 66.6092L209.382 66.6209L209.401 66.6323L210.438 64.9219ZM214.375 66.4688L213.881 68.4068L213.903 68.4124L213.925 68.4175L214.375 66.4688ZM243.016 59.25L244.386 60.7064L245.016 60.1141V59.25H243.016ZM243.016 56.8125H245.016V55.2947L243.554 54.8863L243.016 56.8125ZM236.688 55.3125L236.301 57.2748L236.307 57.2759L236.688 55.3125ZM230.734 54.375L230.47 56.3575L230.488 56.3599L230.506 56.362L230.734 54.375ZM225.391 53.8594L225.278 55.8562L225.28 55.8563L225.391 53.8594ZM210.391 55.6406L211.326 57.4082L211.346 57.3976L211.366 57.3865L210.391 55.6406ZM194.859 60.5625C194.859 58.2074 195.369 56.11 196.362 54.2315L192.826 52.3623C191.506 54.8588 190.859 57.6051 190.859 60.5625H194.859ZM196.362 54.2315C197.346 52.3699 198.841 50.7315 200.917 49.3291L198.677 46.0147C196.128 47.7373 194.154 49.8488 192.826 52.3623L196.362 54.2315ZM200.932 49.3187C203 47.8931 205.638 46.7583 208.899 45.958L207.945 42.0733C204.331 42.9604 201.219 44.2631 198.662 46.0251L200.932 49.3187ZM208.911 45.9549C212.182 45.1297 216.043 44.7031 220.516 44.7031V40.7031C215.801 40.7031 211.599 41.1515 207.933 42.0764L208.911 45.9549ZM220.516 44.7031C223.824 44.7031 227.314 44.946 230.986 45.4356L231.514 41.4707C227.686 40.9602 224.019 40.7031 220.516 40.7031V44.7031ZM230.988 45.4359C234.683 45.9245 238.494 46.6739 242.423 47.6867L243.421 43.8133C239.349 42.7636 235.38 41.9818 231.512 41.4704L230.988 45.4359ZM244.914 45.5721C244.731 43.5186 244.103 41.6096 243.03 39.8717L239.626 41.9721C240.366 43.1716 240.801 44.4814 240.93 45.9279L244.914 45.5721ZM243.04 39.8876C241.962 38.1042 240.475 36.613 238.626 35.4042L236.437 38.7521C237.838 39.6682 238.881 40.7396 239.616 41.9561L243.04 39.8876ZM238.663 35.4291C236.841 34.179 234.68 33.2511 232.223 32.6114L231.215 36.4824C233.32 37.0302 235.034 37.7898 236.4 38.7272L238.663 35.4291ZM232.229 32.6131C229.779 31.9665 227.04 31.6562 224.031 31.6562V35.6562C226.773 35.6562 229.159 35.9398 231.208 36.4807L232.229 32.6131ZM224.031 31.6562C222.39 31.6562 220.604 31.7546 218.676 31.9474L219.074 35.9276C220.896 35.7454 222.547 35.6562 224.031 35.6562V31.6562ZM218.676 31.9474C216.74 32.141 214.746 32.4308 212.694 32.8155L213.431 36.747C215.379 36.3817 217.26 36.109 219.074 35.9276L218.676 31.9474ZM212.694 32.8155C210.633 33.202 208.588 33.685 206.56 34.2645L207.659 38.1105C209.568 37.565 211.492 37.1105 213.431 36.747L212.694 32.8155ZM206.552 34.2668C204.526 34.855 202.618 35.5612 200.832 36.3882L202.512 40.0181C204.101 39.2825 205.818 38.645 207.667 38.1082L206.552 34.2668ZM203.547 37.5085L199.329 26.1179L195.578 27.5071L199.796 38.8978L203.547 37.5085ZM198.128 28.6953C200.162 27.9667 202.34 27.2959 204.665 26.6841L203.647 22.8159C201.222 23.4541 198.932 24.1583 196.779 24.9297L198.128 28.6953ZM204.659 26.6858C207.012 26.0746 209.412 25.5547 211.86 25.1263L211.171 21.1862C208.619 21.6328 206.113 22.1754 203.653 22.8142L204.659 26.6858ZM211.884 25.122C214.329 24.6636 216.772 24.3124 219.215 24.0682L218.817 20.0881C216.259 20.3438 213.703 20.7114 211.147 21.1905L211.884 25.122ZM219.215 24.0682C221.653 23.8243 224.009 23.7031 226.281 23.7031V19.7031C223.866 19.7031 221.378 19.8319 218.817 20.0881L219.215 24.0682ZM226.281 23.7031C236.311 23.7031 243.377 26.2613 247.896 31.0045L250.792 28.2455C245.248 22.4262 236.939 19.7031 226.281 19.7031V23.7031ZM247.896 31.0045C252.431 35.7656 254.891 43.2638 254.891 53.9062H258.891C258.891 42.7362 256.319 34.0469 250.792 28.2455L247.896 31.0045ZM254.891 53.9062V78H258.891V53.9062H254.891ZM256.891 76H243.016V80H256.891V76ZM245.016 78V72.7969H241.016V78H245.016ZM242.003 71.072C240.642 71.8709 239.136 72.6324 237.481 73.3544L239.081 77.0206C240.864 76.2426 242.514 75.4103 244.028 74.5217L242.003 71.072ZM237.469 73.3599C235.879 74.0664 234.127 74.6913 232.209 75.2309L233.291 79.0816C235.373 78.4962 237.308 77.8086 239.094 77.0151L237.469 73.3599ZM232.209 75.2309C230.308 75.7653 228.245 76.1853 226.013 76.4868L226.549 80.4507C228.943 80.1272 231.192 79.6722 233.291 79.0816L232.209 75.2309ZM225.983 76.4911C223.811 76.8184 221.489 76.9844 219.016 76.9844V80.9844C221.667 80.9844 224.189 80.8066 226.579 80.4464L225.983 76.4911ZM219.016 76.9844C214.842 76.9844 211.237 76.5302 208.174 75.6551L207.076 79.5012C210.575 80.5011 214.564 80.9844 219.016 80.9844V76.9844ZM208.179 75.6565C205.112 74.7717 202.628 73.571 200.676 72.093L198.261 75.282C200.684 77.1165 203.638 78.5095 207.071 79.4998L208.179 75.6565ZM200.676 72.093C198.705 70.6009 197.258 68.8916 196.284 66.9705L192.716 68.7795C193.992 71.2959 195.857 73.4616 198.261 75.282L200.676 72.093ZM196.299 67.0006C195.344 65.0365 194.859 62.8999 194.859 60.5625H190.859C190.859 63.4751 191.469 66.2135 192.701 68.7494L196.299 67.0006ZM205.484 60.0938C205.484 61.362 205.816 62.5691 206.439 63.69L209.936 61.7475C209.621 61.1809 209.484 60.638 209.484 60.0938H205.484ZM206.455 63.7182C207.126 64.8813 208.14 65.8307 209.364 66.6092L211.511 63.2346C210.672 62.7006 210.186 62.1812 209.92 61.7193L206.455 63.7182ZM209.401 66.6323C210.65 67.389 212.161 67.9682 213.881 68.4068L214.869 64.5307C213.402 64.1568 212.288 63.7047 211.474 63.2115L209.401 66.6323ZM213.925 68.4175C215.74 68.8364 217.853 69.0312 220.234 69.0312V65.0312C218.053 65.0312 216.26 64.8511 214.825 64.52L213.925 68.4175ZM220.234 69.0312C222.792 69.0312 225.278 68.8017 227.689 68.3392L226.936 64.4108C224.785 64.8233 222.552 65.0312 220.234 65.0312V69.0312ZM227.689 68.3392C230.064 67.8837 232.294 67.2785 234.373 66.5193L233.002 62.7619C231.144 63.4402 229.123 63.9913 226.936 64.4108L227.689 68.3392ZM234.373 66.5193C236.441 65.7644 238.334 64.8866 240.045 63.8801L238.017 60.4324C236.541 61.3009 234.871 62.0793 233.002 62.7619L234.373 66.5193ZM240.045 63.8801C241.735 62.8861 243.191 61.8315 244.386 60.7064L241.645 57.7936C240.715 58.6685 239.515 59.5514 238.017 60.4324L240.045 63.8801ZM245.016 59.25V56.8125H241.016V59.25H245.016ZM243.554 54.8863C241.379 54.2785 239.217 53.766 237.068 53.3491L236.307 57.2759C238.346 57.6715 240.403 58.159 242.477 58.7387L243.554 54.8863ZM237.074 53.3502C234.964 52.9346 232.927 52.6134 230.962 52.388L230.506 56.362C232.355 56.5741 234.286 56.8779 236.301 57.2748L237.074 53.3502ZM230.999 52.3925C229.079 52.1365 227.246 51.9594 225.502 51.8625L225.28 55.8563C226.91 55.9469 228.64 56.1135 230.47 56.3575L230.999 52.3925ZM225.504 51.8626C223.821 51.7673 222.329 51.7188 221.031 51.7188V55.7188C222.234 55.7188 223.648 55.7639 225.278 55.8562L225.504 51.8626ZM221.031 51.7188C218.362 51.7188 216.064 51.8945 214.17 52.2732L214.955 56.1955C216.499 55.8867 218.513 55.7188 221.031 55.7188V51.7188ZM214.17 52.2732C212.329 52.6415 210.72 53.1653 209.415 53.8947L211.366 57.3865C212.186 56.9285 213.359 56.5148 214.955 56.1955L214.17 52.2732ZM209.455 53.873C208.166 54.5555 207.075 55.4651 206.396 56.679L209.886 58.6335C210.081 58.2849 210.49 57.8507 211.326 57.4082L209.455 53.873ZM206.396 56.679C205.802 57.7399 205.484 58.8868 205.484 60.0938H209.484C209.484 59.6132 209.605 59.1351 209.886 58.6335L206.396 56.679ZM280.422 56.2031L281.405 54.4616L279.778 53.5425L278.751 55.1043L280.422 56.2031ZM288.484 60.2812L287.666 62.1063L287.679 62.1119L287.692 62.1174L288.484 60.2812ZM297.016 63.3281L296.463 65.2504L296.473 65.2531L296.482 65.2557L297.016 63.3281ZM306.25 65.2031L305.981 67.1849L305.983 67.1852L306.25 65.2031ZM327.859 65.0156L328.217 66.9834L328.227 66.9816L328.236 66.9798L327.859 65.0156ZM335.406 62.625L336.324 64.4023L336.334 64.3967L335.406 62.625ZM339.672 58.9688L337.991 57.8853L337.982 57.8987L337.974 57.9121L339.672 58.9688ZM337.703 48.0938L336.552 49.729L336.559 49.7344L336.567 49.7398L337.703 48.0938ZM321.016 46.1719L321.236 48.1596L321.25 48.1581L321.264 48.1564L321.016 46.1719ZM314.172 47.0156L313.904 45.0336L313.9 45.0341L314.172 47.0156ZM307.375 47.9062L307.599 49.8937L307.611 49.8923L307.623 49.8908L307.375 47.9062ZM291.625 47.0156L291.084 48.9409L291.089 48.9424L291.625 47.0156ZM283.609 43.2188L282.43 44.8344L282.441 44.8418L283.609 43.2188ZM276.812 22.0781L274.889 21.5287L274.885 21.5429L274.882 21.5571L276.812 22.0781ZM279.438 16.4531L277.778 15.3371L277.773 15.3437L279.438 16.4531ZM284.125 11.4375L285.378 12.9967L285.385 12.9906L285.393 12.9843L284.125 11.4375ZM291.016 7.40625L290.251 5.5582L290.243 5.56137L291.016 7.40625ZM300.391 4.78125L300.739 6.75069L300.753 6.74816L300.391 4.78125ZM322.422 4.35938L322.197 6.34668L322.206 6.34773L322.215 6.34869L322.422 4.35938ZM332.078 5.85938L331.667 7.81669L331.671 7.8175L332.078 5.85938ZM341.172 8.25L340.558 10.1534L340.567 10.1564L340.576 10.1593L341.172 8.25ZM349.281 11.2969L351.039 12.2512L352.067 10.3574L350.102 9.47303L349.281 11.2969ZM342.766 23.2969L341.961 25.1279L343.645 25.868L344.523 24.2512L342.766 23.2969ZM336.109 20.8125L335.484 22.7124L335.496 22.7161L335.507 22.7197L336.109 20.8125ZM320.594 17.4844L320.346 19.4689L320.358 19.4705L320.37 19.4719L320.594 17.4844ZM302.031 17.8594L301.595 15.9075L301.59 15.9087L302.031 17.8594ZM295.75 20.1562L296.753 21.8863L296.766 21.8789L296.779 21.8712L295.75 20.1562ZM292.469 23.25L290.709 22.299L290.705 22.3077L290.7 22.3165L292.469 23.25ZM294.531 32.0156L293.369 33.6431L293.377 33.6492L293.386 33.6553L294.531 32.0156ZM309.109 33.75L309.317 35.7392L309.33 35.7378L309.343 35.7363L309.109 33.75ZM315.766 32.9531L315.527 30.9674L315.524 30.9678L315.766 32.9531ZM322.891 32.2031L323.072 34.1949L323.083 34.1939L323.095 34.1927L322.891 32.2031ZM341.406 33.2812L340.845 35.2008L340.85 35.2023L341.406 33.2812ZM349.797 37.4531L348.542 39.0106L348.549 39.016L348.555 39.0212L349.797 37.4531ZM354.906 43.9688L353.083 44.7913L353.087 44.7997L354.906 43.9688ZM353.688 63.7969L351.968 62.775L351.965 62.78L353.688 63.7969ZM345.344 72.1406L346.405 73.8358L346.409 73.8333L345.344 72.1406ZM332.312 77.2969L332.755 79.2473L332.767 79.2446L332.312 77.2969ZM303.203 78.2344L303.471 76.2523L303.463 76.2513L303.455 76.2503L303.203 78.2344ZM291.859 76.0781L291.339 78.0092L291.349 78.0119L291.359 78.0144L291.859 76.0781ZM281.547 72.6562L280.783 74.5045L280.793 74.5089L280.804 74.5132L281.547 72.6562ZM272.5 68.25L270.829 67.1511L269.661 68.928L271.506 69.9853L272.5 68.25ZM279.438 57.9446C282.147 59.4743 284.89 60.8617 287.666 62.1063L289.302 58.4562C286.641 57.2633 284.009 55.932 281.405 54.4616L279.438 57.9446ZM287.692 62.1174C290.521 63.3394 293.446 64.3836 296.463 65.2504L297.568 61.4059C294.711 60.5852 291.947 59.5981 289.277 58.4451L287.692 62.1174ZM296.482 65.2557C299.512 66.0937 302.679 66.7361 305.981 67.1849L306.519 63.2213C303.384 62.7952 300.394 62.1875 297.549 61.4005L296.482 65.2557ZM305.983 67.1852C309.331 67.6359 312.874 67.8594 316.609 67.8594V63.8594C313.032 63.8594 309.669 63.6453 306.517 63.221L305.983 67.1852ZM316.609 67.8594C321.092 67.8594 324.969 67.5739 328.217 66.9834L327.502 63.0479C324.562 63.5823 320.939 63.8594 316.609 63.8594V67.8594ZM328.236 66.9798C331.442 66.3645 334.159 65.5196 336.324 64.4022L334.489 60.8478C332.779 61.7304 330.464 62.4793 327.482 63.0515L328.236 66.9798ZM336.334 64.3967C338.515 63.2546 340.253 61.8207 341.37 60.0254L337.974 57.9121C337.341 58.9293 336.235 59.9329 334.478 60.8533L336.334 64.3967ZM341.353 60.0522C342.465 58.3264 343.031 56.4196 343.031 54.375H339.031C339.031 55.6429 338.691 56.7986 337.991 57.8853L341.353 60.0522ZM343.031 54.375C343.031 51.0498 341.589 48.3456 338.839 46.4477L336.567 49.7398C338.255 50.9044 339.031 52.3877 339.031 54.375H343.031ZM338.855 46.4585C336.135 44.5434 332.215 43.75 327.438 43.75V47.75C331.91 47.75 334.833 48.5191 336.552 49.729L338.855 46.4585ZM327.438 43.75C325.314 43.75 323.091 43.8969 320.768 44.1873L321.264 48.1564C323.441 47.8843 325.498 47.75 327.438 47.75V43.75ZM320.795 44.1841C318.529 44.4359 316.232 44.7191 313.904 45.0336L314.44 48.9976C316.737 48.6872 319.003 48.4078 321.236 48.1596L320.795 44.1841ZM313.9 45.0341C311.627 45.3456 309.369 45.6414 307.127 45.9217L307.623 49.8908C309.881 49.6086 312.154 49.3107 314.443 48.9971L313.9 45.0341ZM307.151 45.9188C304.997 46.1615 302.979 46.2812 301.094 46.2812V50.2812C303.146 50.2812 305.315 50.151 307.599 49.8937L307.151 45.9188ZM301.094 46.2812C297.986 46.2812 295.011 45.882 292.161 45.0889L291.089 48.9424C294.302 49.8368 297.639 50.2812 301.094 50.2812V46.2812ZM292.166 45.0903C289.374 44.3049 286.917 43.1361 284.778 41.5957L282.441 44.8418C284.989 46.6764 287.876 48.0389 291.084 48.9409L292.166 45.0903ZM284.788 41.6032C282.717 40.0915 281.07 38.2084 279.836 35.936L276.321 37.8453C277.836 40.6353 279.877 42.971 282.43 44.8343L284.788 41.6032ZM279.836 35.936C278.645 33.7444 278.016 31.1302 278.016 28.0312H274.016C274.016 31.6823 274.761 34.9744 276.321 37.8453L279.836 35.936ZM278.016 28.0312C278.016 26.2107 278.257 24.4014 278.743 22.5992L274.882 21.5571C274.305 23.6924 274.016 25.8518 274.016 28.0312H278.016ZM278.736 22.6276C279.239 20.8667 280.024 19.1795 281.102 17.5625L277.773 15.3437C276.476 17.2892 275.511 19.3521 274.889 21.5287L278.736 22.6276ZM281.097 17.5691C282.191 15.9427 283.61 14.4165 285.378 12.9967L282.872 9.87826C280.827 11.521 279.122 13.3385 277.778 15.3371L281.097 17.5691ZM285.393 12.9843C287.125 11.5646 289.248 10.3145 291.788 9.25113L290.243 5.56137C287.409 6.74799 284.938 8.18541 282.857 9.89072L285.393 12.9843ZM291.78 9.25428C294.34 8.19517 297.321 7.35566 300.739 6.75064L300.042 2.81186C296.398 3.45684 293.129 4.36733 290.251 5.55822L291.78 9.25428ZM300.753 6.74816C304.171 6.11859 308.093 5.79688 312.531 5.79688V1.79688C307.907 1.79688 303.736 2.13141 300.028 2.81434L300.753 6.74816ZM312.531 5.79688C315.736 5.79688 318.958 5.98 322.197 6.34668L322.647 2.37207C319.261 1.98875 315.889 1.79688 312.531 1.79688V5.79688ZM322.215 6.34869C325.462 6.68562 328.613 7.17522 331.667 7.81668L332.489 3.90207C329.294 3.23103 326.007 2.72063 322.628 2.37006L322.215 6.34869ZM331.671 7.8175C334.761 8.46002 337.723 9.239 340.558 10.1534L341.786 6.34658C338.808 5.386 335.708 4.57123 332.485 3.90125L331.671 7.8175ZM340.576 10.1593C343.414 11.0442 346.041 12.0321 348.461 13.1207L350.102 9.47303C347.521 8.31166 344.742 7.26828 341.767 6.34068L340.576 10.1593ZM347.524 10.3425L341.008 22.3425L344.523 24.2512L351.039 12.2512L347.524 10.3425ZM343.57 21.4658C341.435 20.5277 339.148 19.6748 336.712 18.9053L335.507 22.7197C337.82 23.4502 339.971 24.2535 341.961 25.1279L343.57 21.4658ZM336.734 18.9126C334.289 18.1084 331.738 17.4186 329.08 16.8423L328.232 20.7514C330.762 21.3001 333.179 21.9541 335.484 22.7124L336.734 18.9126ZM329.08 16.8423C326.417 16.2647 323.662 15.8165 320.817 15.4969L320.37 19.4719C323.088 19.7772 325.708 20.2041 328.232 20.7514L329.08 16.8423ZM320.842 15.4998C318.007 15.1454 315.111 14.9688 312.156 14.9688V18.9688C314.951 18.9688 317.681 19.1358 320.346 19.4689L320.842 15.4998ZM312.156 14.9688C307.981 14.9688 304.447 15.2701 301.595 15.9075L302.468 19.8112C304.928 19.2612 308.144 18.9688 312.156 18.9688V14.9688ZM301.59 15.9087C298.847 16.5291 296.53 17.3557 294.721 18.4413L296.779 21.8712C298.095 21.0818 299.966 20.3771 302.472 19.8101L301.59 15.9087ZM294.747 18.4262C292.98 19.4509 291.564 20.7186 290.709 22.299L294.228 24.201C294.624 23.4689 295.395 22.6741 296.753 21.8863L294.747 18.4262ZM290.7 22.3165C289.974 23.6912 289.578 25.1342 289.578 26.625H293.578C293.578 25.8658 293.776 25.0588 294.238 24.1835L290.7 22.3165ZM289.578 26.625C289.578 29.5341 290.939 31.9077 293.369 33.6431L295.694 30.3882C294.186 29.3111 293.578 28.0909 293.578 26.625H289.578ZM293.386 33.6553C295.85 35.376 299.341 36.0781 303.531 36.0781V32.0781C299.659 32.0781 297.15 31.4053 295.676 30.3759L293.386 33.6553ZM303.531 36.0781C305.242 36.0781 307.173 35.9632 309.317 35.7392L308.902 31.7608C306.858 31.9743 305.07 32.0781 303.531 32.0781V36.0781ZM309.343 35.7363C311.471 35.486 313.692 35.22 316.007 34.9385L315.524 30.9678C313.214 31.2487 310.998 31.514 308.876 31.7637L309.343 35.7363ZM316.004 34.9389C318.328 34.66 320.684 34.412 323.072 34.1949L322.71 30.2113C320.285 30.4318 317.891 30.6838 315.527 30.9674L316.004 34.9389ZM323.095 34.1927C325.469 33.9491 327.76 33.8281 329.969 33.8281V29.8281C327.615 29.8281 325.187 29.9571 322.687 30.2136L323.095 34.1927ZM329.969 33.8281C334.136 33.8281 337.754 34.2968 340.845 35.2008L341.968 31.3617C338.434 30.3282 334.426 29.8281 329.969 29.8281V33.8281ZM340.85 35.2023C343.99 36.112 346.536 37.3947 348.542 39.0106L351.052 35.8956C348.558 33.8866 345.51 32.388 341.963 31.3602L340.85 35.2023ZM348.555 39.0212C350.56 40.6083 352.061 42.5265 353.083 44.7913L356.729 43.1462C355.439 40.286 353.534 37.8604 351.038 35.885L348.555 39.0212ZM353.087 44.7997C354.109 47.0373 354.641 49.592 354.641 52.5H358.641C358.641 49.0955 358.016 45.9627 356.725 43.1378L353.087 44.7997ZM354.641 52.5C354.641 56.3943 353.736 59.8006 351.968 62.775L355.407 64.8187C357.576 61.1681 358.641 57.0432 358.641 52.5H354.641ZM351.965 62.78C350.209 65.7544 347.668 68.3151 344.279 70.4479L346.409 73.8333C350.27 71.4037 353.291 68.4019 355.41 64.8138L351.965 62.78ZM344.282 70.4455C340.914 72.5546 336.785 74.2005 331.858 75.3491L332.767 79.2446C338.027 78.0183 342.586 76.2266 346.405 73.8358L344.282 70.4455ZM331.87 75.3465C326.946 76.4641 321.426 77.0312 315.297 77.0312V81.0312C321.668 81.0312 327.491 80.4422 332.755 79.2473L331.87 75.3465ZM315.297 77.0312C311.258 77.0312 307.316 76.7712 303.471 76.2523L302.936 80.2164C306.965 80.7601 311.086 81.0312 315.297 81.0312V77.0312ZM303.455 76.2503C299.596 75.7603 295.899 75.0569 292.36 74.1418L291.359 78.0144C295.07 78.9743 298.935 79.7084 302.951 80.2184L303.455 76.2503ZM292.38 74.1471C288.858 73.1976 285.495 72.0813 282.29 70.7993L280.804 74.5132C284.162 75.8562 287.674 77.0212 291.339 78.0092L292.38 74.1471ZM282.311 70.808C279.133 69.4938 276.195 68.0621 273.494 66.5147L271.506 69.9853C274.368 71.6254 277.461 73.1312 280.783 74.5045L282.311 70.808ZM274.171 69.3489L282.093 57.302L278.751 55.1043L270.829 67.1511L274.171 69.3489ZM370.141 39.1406L368.3 38.3587L368.296 38.3667L370.141 39.1406ZM376.656 30L377.995 31.4858L377.996 31.485L376.656 30ZM387.156 23.9062L386.49 22.0205L386.485 22.0221L387.156 23.9062ZM415.094 23.3438L414.615 25.2857L414.632 25.2897L414.648 25.2935L415.094 23.3438ZM421.234 25.1719L420.529 27.0433L420.542 27.0484L420.556 27.0533L421.234 25.1719ZM426.203 27.4688L427.907 28.5157L428.965 26.7936L427.232 25.7538L426.203 27.4688ZM419.781 37.9219L418.94 39.7361L420.554 40.485L421.485 38.9688L419.781 37.9219ZM411.156 34.8281L410.682 36.771L410.687 36.7723L411.156 34.8281ZM394.375 35.1094L394.986 37.0137L394.997 37.0103L395.007 37.0067L394.375 35.1094ZM387.906 38.5781L389.192 40.1101L389.195 40.1079L387.906 38.5781ZM383.875 43.8281L382.059 42.99L382.053 43.0027L383.875 43.8281ZM383.969 57L382.164 57.8609L382.172 57.8778L382.18 57.8944L383.969 57ZM388.141 62.2031L386.868 63.7462L386.883 63.7583L386.898 63.7701L388.141 62.2031ZM394.656 65.625L394.024 67.5224L394.038 67.527L394.052 67.5315L394.656 65.625ZM412.891 65.3906L412.287 63.4837L412.282 63.4855L412.891 65.3906ZM421.422 61.5L423.126 60.4531L422.075 58.7432L420.369 59.7995L421.422 61.5ZM427.844 71.9531L428.877 73.6653L430.603 72.6235L429.548 70.9062L427.844 71.9531ZM422.453 74.7656L423.252 76.5993L423.264 76.5939L423.276 76.5884L422.453 74.7656ZM416.219 76.9688L415.676 75.0437L415.669 75.0457L416.219 76.9688ZM409.281 78.4219L409.002 76.4415L408.988 76.4435L408.973 76.4457L409.281 78.4219ZM376.938 70.875L375.615 72.3752L375.624 72.3832L376.938 70.875ZM370.234 61.8281L368.405 62.6358L368.408 62.6427L368.411 62.6495L370.234 61.8281ZM369.938 50.4844C369.938 46.6687 370.626 43.1526 371.985 39.9145L368.296 38.3667C366.718 42.1286 365.938 46.175 365.938 50.4844H369.938ZM371.981 39.9226C373.368 36.6591 375.368 33.8526 377.995 31.4858L375.317 28.5142C372.257 31.2724 369.914 34.5597 368.3 38.3587L371.981 39.9226ZM377.996 31.485C380.652 29.0883 383.917 27.1827 387.827 25.7904L386.485 22.0221C382.146 23.5673 378.41 25.7242 375.317 28.515L377.996 31.485ZM387.823 25.792C391.726 24.4126 396.229 23.7031 401.359 23.7031V19.7031C395.865 19.7031 390.899 20.4624 386.49 22.0205L387.823 25.792ZM401.359 23.7031C403.591 23.7031 405.839 23.8388 408.105 24.1108L408.582 20.1392C406.161 19.8487 403.753 19.7031 401.359 19.7031V23.7031ZM408.105 24.1108C410.373 24.3829 412.543 24.7751 414.615 25.2857L415.572 21.4018C413.332 20.8499 411.002 20.4296 408.582 20.1392L408.105 24.1108ZM414.648 25.2935C416.756 25.7753 418.715 26.3595 420.529 27.0433L421.94 23.3005C419.941 22.5467 417.806 21.9122 415.539 21.394L414.648 25.2935ZM420.556 27.0533C422.367 27.7066 423.901 28.4201 425.174 29.1837L427.232 25.7538C425.692 24.8299 423.914 24.0121 421.913 23.2905L420.556 27.0533ZM424.499 26.4218L418.077 36.875L421.485 38.9688L427.907 28.5157L424.499 26.4218ZM420.623 36.1076C417.494 34.6562 414.494 33.5764 411.626 32.884L410.687 36.7723C413.256 37.3923 416.006 38.375 418.94 39.7361L420.623 36.1076ZM411.631 32.8852C408.787 32.1908 405.893 31.8438 402.953 31.8438V35.8438C405.575 35.8438 408.15 36.1529 410.682 36.771L411.631 32.8852ZM402.953 31.8438C399.591 31.8438 396.513 32.2885 393.743 33.212L395.007 37.0067C397.3 36.2427 399.94 35.8438 402.953 35.8438V31.8438ZM393.764 33.2051C391.019 34.086 388.625 35.3585 386.618 37.0483L389.195 40.1079C390.75 38.7977 392.668 37.7578 394.986 37.0137L393.764 33.2051ZM386.621 37.0462C384.65 38.7002 383.123 40.6855 382.059 42.99L385.691 44.6662C386.502 42.9083 387.663 41.3936 389.192 40.1101L386.621 37.0462ZM382.053 43.0027C381.02 45.2826 380.516 47.7545 380.516 50.3906H384.516C384.516 48.2768 384.917 46.3736 385.697 44.6536L382.053 43.0027ZM380.516 50.3906C380.516 53.0466 381.059 55.546 382.164 57.8609L385.774 56.1391C384.941 54.3915 384.516 52.4846 384.516 50.3906H380.516ZM382.18 57.8944C383.309 60.1525 384.879 62.1056 386.868 63.7462L389.413 60.66C387.84 59.3631 386.629 57.8475 385.758 56.1056L382.18 57.8944ZM386.898 63.7701C388.919 65.3728 391.305 66.616 394.024 67.5224L395.289 63.7276C392.945 62.9465 390.988 61.9084 389.383 60.6361L386.898 63.7701ZM394.052 67.5315C396.839 68.4151 399.89 68.8438 403.188 68.8438V64.8438C400.235 64.8438 397.599 64.4599 395.261 63.7185L394.052 67.5315ZM403.188 68.8438C406.815 68.8438 410.256 68.3322 413.499 67.2957L412.282 63.4855C409.463 64.3866 406.435 64.8438 403.188 64.8438V68.8438ZM413.494 67.2975C416.708 66.2809 419.703 64.9161 422.475 63.2005L420.369 59.7995C417.89 61.3339 415.199 62.5629 412.287 63.4838L413.494 67.2975ZM419.718 62.5469L426.14 73L429.548 70.9062L423.126 60.4531L419.718 62.5469ZM426.81 70.241C425.228 71.1962 423.502 72.0974 421.63 72.9429L423.276 76.5884C425.279 75.6839 427.147 74.7101 428.877 73.6653L426.81 70.241ZM421.655 72.932C419.807 73.7364 417.816 74.4411 415.676 75.0437L416.761 78.8938C419.059 78.2464 421.224 77.4824 423.252 76.5993L421.655 72.932ZM415.669 75.0457C413.577 75.6434 411.356 76.1096 409.002 76.4415L409.561 80.4023C412.082 80.0467 414.485 79.5441 416.768 78.8918L415.669 75.0457ZM408.973 76.4457C406.675 76.8039 404.279 76.9844 401.781 76.9844V80.9844C404.471 80.9844 407.075 80.7899 409.589 80.398L408.973 76.4457ZM401.781 76.9844C396.68 76.9844 392.17 76.2899 388.227 74.9365L386.929 78.7198C391.361 80.2413 396.32 80.9844 401.781 80.9844V76.9844ZM388.227 74.9365C384.248 73.5704 380.936 71.7053 378.251 69.3668L375.624 72.3832C378.752 75.1072 382.533 77.2108 386.929 78.7198L388.227 74.9365ZM378.26 69.3749C375.563 66.9968 373.501 64.2113 372.058 61.0067L368.411 62.6495C370.092 66.3824 372.499 69.6282 375.615 72.3751L378.26 69.3749ZM372.064 61.0204C370.654 57.8259 369.938 54.3224 369.938 50.4844H365.938C365.938 54.8338 366.752 58.8929 368.405 62.6358L372.064 61.0204ZM442.797 22.6875V20.6875H440.797V22.6875H442.797ZM456.672 22.6875H458.672V20.6875H456.672V22.6875ZM456.672 30.6562H454.672V34.6399L457.867 32.2602L456.672 30.6562ZM476.547 20.9531L478.451 20.3418L477.874 18.543L476.045 19.0171L476.547 20.9531ZM480.625 33.6562L480.823 35.6464L483.286 35.4016L482.529 33.0449L480.625 33.6562ZM466.516 37.2656L467.347 39.0844L467.354 39.0815L466.516 37.2656ZM456.672 45.0938L455.072 43.8937L454.672 44.4271V45.0938H456.672ZM456.672 78V80H458.672V78H456.672ZM442.797 78H440.797V80H442.797V78ZM442.797 24.6875H456.672V20.6875H442.797V24.6875ZM454.672 22.6875V30.6562H458.672V22.6875H454.672ZM457.867 32.2602C460.83 30.0531 463.957 28.1497 467.25 26.5486L465.5 22.9514C461.981 24.6628 458.639 26.6969 455.477 29.0523L457.867 32.2602ZM467.25 26.5486C470.547 24.9455 473.813 23.7281 477.049 22.8891L476.045 19.0171C472.531 19.9282 469.016 21.242 465.5 22.9514L467.25 26.5486ZM474.643 21.5645L478.721 34.2676L482.529 33.0449L478.451 20.3418L474.643 21.5645ZM480.427 31.6661C474.905 32.2151 469.978 33.4648 465.678 35.4497L467.354 39.0815C471.178 37.3164 475.658 36.1599 480.823 35.6464L480.427 31.6661ZM465.684 35.4468C461.365 37.4222 457.814 40.2379 455.072 43.8937L458.272 46.2938C460.592 43.1996 463.604 40.7966 467.347 39.0844L465.684 35.4468ZM454.672 45.0938V78H458.672V45.0938H454.672ZM456.672 76H442.797V80H456.672V76ZM444.797 78V22.6875H440.797V78H444.797ZM494.547 14.5781L493.851 16.453L493.882 16.4648L493.914 16.4755L494.547 14.5781ZM491.734 12.9844L490.413 14.4858L490.43 14.501L490.448 14.5158L491.734 12.9844ZM489.906 10.6406L488.081 11.4587L488.099 11.4973L488.117 11.5351L489.906 10.6406ZM489.906 4.92188L488.105 4.05238L488.099 4.06597L488.092 4.07965L489.906 4.92188ZM494.547 1.03125L495.196 2.92314L495.211 2.91787L495.226 2.91236L494.547 1.03125ZM502.047 1.03125L501.351 2.9061L501.382 2.9179L501.414 2.92862L502.047 1.03125ZM506.688 4.92188L504.862 5.73999L504.88 5.77853L504.899 5.8163L506.688 4.92188ZM506.688 10.6406L504.886 9.77113L504.88 9.78472L504.873 9.7984L506.688 10.6406ZM504.906 12.9844L506.193 14.5158L506.21 14.501L506.228 14.4858L504.906 12.9844ZM502.047 14.5781L502.696 16.47L502.711 16.4647L502.726 16.4592L502.047 14.5781ZM491.359 22.6875V20.6875H489.359V22.6875H491.359ZM505.234 22.6875H507.234V20.6875H505.234V22.6875ZM505.234 78V80H507.234V78H505.234ZM491.359 78H489.359V80H491.359V78ZM498.297 13.1406C497.103 13.1406 496.071 12.9779 495.179 12.6808L493.914 16.4755C495.273 16.9283 496.74 17.1406 498.297 17.1406V13.1406ZM495.243 12.7033C494.334 12.3655 493.603 11.9423 493.021 11.453L490.448 14.5158C491.428 15.339 492.572 15.9782 493.851 16.453L495.243 12.7033ZM493.056 11.4829C492.455 10.9548 492.01 10.3762 491.695 9.7462L488.117 11.5351C488.677 12.6551 489.451 13.639 490.413 14.4858L493.056 11.4829ZM491.731 9.82251C491.441 9.17541 491.297 8.50127 491.297 7.78125H487.297C487.297 9.06123 487.559 10.2933 488.081 11.4587L491.731 9.82251ZM491.297 7.78125C491.297 7.02049 491.445 6.35729 491.72 5.7641L488.092 4.07965C487.555 5.23646 487.297 6.47951 487.297 7.78125H491.297ZM491.707 5.79137C492.02 5.14327 492.453 4.5866 493.021 4.10953L490.448 1.04672C489.453 1.88215 488.667 2.88798 488.105 4.05238L491.707 5.79137ZM493.021 4.10953C493.59 3.63135 494.304 3.22883 495.196 2.92314L493.898 -0.860642C492.602 -0.416326 491.441 0.2124 490.448 1.04672L493.021 4.10953ZM495.226 2.91236C496.103 2.59558 497.119 2.42188 498.297 2.42188V-1.57812C496.724 -1.57812 495.24 -1.34558 493.868 -0.849858L495.226 2.91236ZM498.297 2.42188C499.513 2.42188 500.52 2.59766 501.351 2.9061L502.743 -0.843601C501.386 -1.34766 499.893 -1.57812 498.297 -1.57812V2.42188ZM501.414 2.92862C502.339 3.23667 503.06 3.63943 503.62 4.10953L506.193 1.04672C505.19 0.204319 504.005 -0.424167 502.679 -0.866117L501.414 2.92862ZM503.62 4.10953C504.177 4.57718 504.583 5.11676 504.862 5.73999L508.513 4.10376C507.979 2.91449 507.198 1.89157 506.193 1.04672L503.62 4.10953ZM504.899 5.8163C505.19 6.39854 505.344 7.04322 505.344 7.78125H509.344C509.344 6.45678 509.06 5.19521 508.476 4.02745L504.899 5.8163ZM505.344 7.78125C505.344 8.47817 505.194 9.13426 504.886 9.77113L508.489 11.5101C509.056 10.3345 509.344 9.08433 509.344 7.78125H505.344ZM504.873 9.7984C504.593 10.4026 504.175 10.964 503.585 11.4829L506.228 14.4858C507.2 13.6297 507.97 12.6287 508.502 11.4828L504.873 9.7984ZM503.62 11.453C503.047 11.9342 502.309 12.3572 501.368 12.697L502.726 16.4592C504.035 15.9865 505.203 15.347 506.193 14.5158L503.62 11.453ZM501.398 12.6862C500.553 12.9761 499.529 13.1406 498.297 13.1406V17.1406C499.878 17.1406 501.353 16.9302 502.696 16.47L501.398 12.6862ZM491.359 24.6875H505.234V20.6875H491.359V24.6875ZM503.234 22.6875V78H507.234V22.6875H503.234ZM505.234 76H491.359V80H505.234V76ZM493.359 78V22.6875H489.359V78H493.359ZM536.547 100.594V102.594H538.547V100.594H536.547ZM522.672 100.594H520.672V102.594H522.672V100.594ZM522.672 22.6875V20.6875H520.672V22.6875H522.672ZM536.547 22.6875H538.547V20.6875H536.547V22.6875ZM536.547 27.8906H534.547V31.7078L537.685 29.535L536.547 27.8906ZM552.109 22.2188L552.413 24.1955L552.428 24.1932L552.443 24.1907L552.109 22.2188ZM571.094 23.7656L570.43 25.6522L570.434 25.6538L571.094 23.7656ZM587.781 38.5781L585.955 39.3934L585.959 39.4033L585.964 39.4131L587.781 38.5781ZM587.688 62.0625L589.498 62.9118L589.501 62.9057L587.688 62.0625ZM580.797 71.1562L582.101 72.6725L582.102 72.6713L580.797 71.1562ZM570.391 76.9688L571.028 78.8647L571.036 78.8617L570.391 76.9688ZM551.406 78.6094L551.15 80.5929L551.154 80.5934L551.406 78.6094ZM545.781 77.5781L545.304 79.5204L545.312 79.5223L545.781 77.5781ZM540.719 76.0312L539.976 77.8882L539.998 77.8971L540.021 77.9054L540.719 76.0312ZM536.547 74.0156L537.563 72.2929L534.547 70.5142V74.0156H536.547ZM536.547 60.6094H534.547V61.5706L535.297 62.1711L536.547 60.6094ZM550.703 66.5156L550.405 68.4932L550.423 68.496L550.441 68.4984L550.703 66.5156ZM564.016 65.5781L564.662 67.4706L564.669 67.4683L564.676 67.4658L564.016 65.5781ZM570.297 62.0156L568.982 60.5088L568.975 60.5148L568.968 60.5208L570.297 62.0156ZM574.234 43.8281L572.407 44.6404L572.412 44.6524L572.418 44.6644L574.234 43.8281ZM570.391 38.6719L569.048 40.1543L569.063 40.1675L569.078 40.1805L570.391 38.6719ZM564.344 35.1562L563.644 37.0299L563.659 37.0355L563.674 37.0409L564.344 35.1562ZM550.797 34.4062L551.158 36.3735L551.173 36.3706L551.189 36.3674L550.797 34.4062ZM545.359 35.9062L544.657 34.0336L544.646 34.0378L545.359 35.9062ZM540.484 38.2969L539.44 36.5912L539.432 36.596L539.424 36.6009L540.484 38.2969ZM536.547 41.4375L535.113 40.0428L534.547 40.6251V41.4375H536.547ZM536.547 98.5938H522.672V102.594H536.547V98.5938ZM524.672 100.594V22.6875H520.672V100.594H524.672ZM522.672 24.6875H536.547V20.6875H522.672V24.6875ZM534.547 22.6875V27.8906H538.547V22.6875H534.547ZM537.685 29.535C538.786 28.773 540.114 28.033 541.684 27.3219L540.034 23.6781C538.292 24.467 536.745 25.3207 535.408 26.2462L537.685 29.535ZM541.684 27.3219C543.249 26.6133 544.943 25.9883 546.769 25.4495L545.637 21.613C543.65 22.1992 541.782 22.8867 540.034 23.6781L541.684 27.3219ZM546.769 25.4495C548.587 24.9132 550.468 24.4948 552.413 24.1955L551.805 20.242C549.688 20.5677 547.632 21.0243 545.637 21.613L546.769 25.4495ZM552.443 24.1907C554.366 23.8654 556.285 23.7031 558.203 23.7031V19.7031C556.058 19.7031 553.916 19.8846 551.776 20.2468L552.443 24.1907ZM558.203 23.7031C562.694 23.7031 566.763 24.3615 570.43 25.6522L571.758 21.8791C567.612 20.4198 563.087 19.7031 558.203 19.7031V23.7031ZM570.434 25.6538C574.152 26.952 577.293 28.7644 579.89 31.0729L582.547 28.0833C579.52 25.3918 575.911 23.3292 571.753 21.8774L570.434 25.6538ZM579.89 31.0729C582.486 33.3807 584.506 36.1477 585.955 39.3934L589.608 37.7628C587.932 34.0085 585.576 30.7755 582.547 28.0833L579.89 31.0729ZM585.964 39.4131C587.425 42.5935 588.172 46.1483 588.172 50.1094H592.172C592.172 45.6329 591.325 41.5002 589.599 37.7431L585.964 39.4131ZM588.172 50.1094C588.172 54.2599 587.393 57.9514 585.874 61.2193L589.501 62.9057C591.294 59.0486 592.172 54.7713 592.172 50.1094H588.172ZM585.877 61.2132C584.339 64.491 582.214 67.2949 579.491 69.6412L582.102 72.6713C585.255 69.9551 587.723 66.6965 589.498 62.9118L585.877 61.2132ZM579.493 69.64C576.8 71.9561 573.561 73.7741 569.745 75.0758L571.036 78.8617C575.282 77.4134 578.981 75.3564 582.101 72.6725L579.493 69.64ZM569.754 75.0729C565.98 76.3405 561.854 76.9844 557.359 76.9844V80.9844C562.24 80.9844 566.801 80.2845 571.028 78.8646L569.754 75.0729ZM557.359 76.9844C555.443 76.9844 553.543 76.8646 551.658 76.6253L551.154 80.5934C553.207 80.8541 555.276 80.9844 557.359 80.9844V76.9844ZM551.662 76.6258C549.793 76.3846 547.989 76.0537 546.251 75.634L545.312 79.5223C547.198 79.9776 549.144 80.3341 551.15 80.5929L551.662 76.6258ZM546.258 75.6359C544.546 75.2153 542.933 74.7219 541.417 74.1571L540.021 77.9054C541.692 78.5281 543.454 79.0659 545.304 79.5204L546.258 75.6359ZM541.462 74.1743C539.976 73.5802 538.68 72.9514 537.563 72.2929L535.531 75.7384C536.852 76.5173 538.336 77.2323 539.976 77.8882L541.462 74.1743ZM534.547 74.0156V100.594H538.547V74.0156H534.547ZM535.297 62.1711C536.81 63.3814 538.413 64.4114 540.106 65.2576L541.894 61.6799C540.462 60.9636 539.096 60.0874 537.796 59.0476L535.297 62.1711ZM540.106 65.2576C541.764 66.0868 543.46 66.7689 545.193 67.3022L546.369 63.4791C544.853 63.0123 543.361 62.4132 541.894 61.6799L540.106 65.2576ZM545.193 67.3022C546.911 67.8309 548.649 68.2282 550.405 68.4932L551.002 64.538C549.445 64.303 547.901 63.9503 546.369 63.4791L545.193 67.3022ZM550.441 68.4984C552.178 68.7278 553.875 68.8438 555.531 68.8438V64.8438C554.062 64.8438 552.54 64.7409 550.965 64.5328L550.441 68.4984ZM555.531 68.8438C558.892 68.8438 561.945 68.3993 564.662 67.4706L563.369 63.6856C561.149 64.4444 558.546 64.8438 555.531 64.8438V68.8438ZM564.676 67.4658C567.381 66.5194 569.712 65.211 571.626 63.5104L568.968 60.5208C567.506 61.8203 565.651 62.8869 563.355 63.6904L564.676 67.4658ZM571.612 63.5225C573.544 61.8367 575.033 59.8368 576.061 57.5336L572.408 55.9039C571.623 57.6632 570.488 59.1946 568.982 60.5088L571.612 63.5225ZM576.061 57.5336C577.089 55.2289 577.594 52.7458 577.594 50.1094H573.594C573.594 52.2229 573.192 54.1461 572.408 55.9039L576.061 57.5336ZM577.594 50.1094C577.594 47.609 577.081 45.2292 576.051 42.9918L572.418 44.6644C573.2 46.3646 573.594 48.1723 573.594 50.1094H577.594ZM576.062 43.0158C575.064 40.7699 573.603 38.8162 571.704 37.1633L569.078 40.1805C570.553 41.465 571.655 42.9489 572.407 44.6404L576.062 43.0158ZM571.733 37.1895C569.858 35.491 567.605 34.1925 565.013 33.2716L563.674 37.0409C565.832 37.8075 567.611 38.8527 569.048 40.1543L571.733 37.1895ZM565.043 33.2826C562.441 32.3109 559.557 31.8438 556.422 31.8438V35.8438C559.161 35.8438 561.559 36.2516 563.644 37.0299L565.043 33.2826ZM556.422 31.8438C554.413 31.8438 552.406 32.0448 550.405 32.4451L551.189 36.3674C552.938 36.0177 554.681 35.8438 556.422 35.8438V31.8438ZM550.436 32.439C548.447 32.8037 546.52 33.335 544.657 34.0336L546.062 37.7789C547.699 37.165 549.397 36.6963 551.158 36.3735L550.436 32.439ZM544.646 34.0378C542.815 34.7369 541.079 35.5878 539.44 36.5912L541.529 40.0026C542.952 39.131 544.466 38.3881 546.073 37.7747L544.646 34.0378ZM539.424 36.6009C537.801 37.6154 536.361 38.761 535.113 40.0428L537.98 42.8322C538.983 41.8015 540.168 40.8534 541.544 39.9929L539.424 36.6009ZM534.547 41.4375V60.6094H538.547V41.4375H534.547ZM611.641 33.0938H613.641V31.0938H611.641V33.0938ZM598.281 33.0938H596.281V35.0938H598.281V33.0938ZM598.281 22.6875V20.6875H596.281V22.6875H598.281ZM611.641 22.6875V24.6875H613.641V22.6875H611.641ZM611.641 5.48438V3.48438H609.641V5.48438H611.641ZM625.516 5.48438H627.516V3.48438H625.516V5.48438ZM625.516 22.6875H623.516V24.6875H625.516V22.6875ZM638.875 22.6875H640.875V20.6875H638.875V22.6875ZM638.875 33.0938V35.0938H640.875V33.0938H638.875ZM625.516 33.0938V31.0938H623.516V33.0938H625.516ZM625.516 78V80H627.516V78H625.516ZM611.641 78H609.641V80H611.641V78ZM611.641 31.0938H598.281V35.0938H611.641V31.0938ZM600.281 33.0938V22.6875H596.281V33.0938H600.281ZM598.281 24.6875H611.641V20.6875H598.281V24.6875ZM613.641 22.6875V5.48438H609.641V22.6875H613.641ZM611.641 7.48438H625.516V3.48438H611.641V7.48438ZM623.516 5.48438V22.6875H627.516V5.48438H623.516ZM625.516 24.6875H638.875V20.6875H625.516V24.6875ZM636.875 22.6875V33.0938H640.875V22.6875H636.875ZM638.875 31.0938H625.516V35.0938H638.875V31.0938ZM623.516 33.0938V78H627.516V33.0938H623.516ZM625.516 76H611.641V80H625.516V76ZM613.641 78V33.0938H609.641V78H613.641Z" fill="white"/>
</svg>
