<svg width="257" height="99" viewBox="0 0 257 99" fill="none" xmlns="http://www.w3.org/2000/svg">
<path d="M0.734375 86.1406L-0.305519 84.4322L-1.8192 85.3536L-1.08682 86.9672L0.734375 86.1406ZM6.26562 82.0156L4.91151 80.5438L4.9041 80.5506L4.89675 80.5575L6.26562 82.0156ZM10.1094 77.2344L8.38068 76.2286L8.37676 76.2353L8.37289 76.2421L10.1094 77.2344ZM12.3125 71.4688L14.2656 71.8996L14.2669 71.8936L12.3125 71.4688ZM13.0156 0.734375V-1.26562H11.0156V0.734375H13.0156ZM27.875 0.734375H29.875V-1.26562H27.875V0.734375ZM27.4531 70.3906L29.442 70.6012L29.4423 70.5988L27.4531 70.3906ZM26.0469 77.7031L24.129 77.1359L24.1243 77.1518L24.1198 77.1678L26.0469 77.7031ZM23.4688 83.8906L21.7412 82.8829L21.7349 82.8937L21.7287 82.9046L23.4688 83.8906ZM19.4844 89.2344L18.0303 87.8611L18.0236 87.8683L18.0169 87.8756L19.4844 89.2344ZM13.9062 94.1094L12.7327 92.4898L12.7215 92.4981L13.9062 94.1094ZM6.5 98.8438L4.67881 99.6703L5.58288 101.662L7.48603 100.584L6.5 98.8438ZM1.77427 87.849C4.02571 86.4786 5.98476 85.0225 7.6345 83.4738L4.89675 80.5575C3.48399 81.8837 1.75554 83.1777 -0.305519 84.4322L1.77427 87.849ZM7.61974 83.4875C9.32548 81.9182 10.7385 80.1646 11.8459 78.2267L8.37289 76.2421C7.48026 77.8042 6.33077 79.238 4.91151 80.5438L7.61974 83.4875ZM11.8381 78.2402C12.9515 76.3265 13.7564 74.2077 14.2655 71.8996L10.3595 71.0379C9.9311 72.9798 9.26726 74.7048 8.38068 76.2286L11.8381 78.2402ZM14.2669 71.8936C14.772 69.57 15.0156 66.9863 15.0156 64.1562H11.0156C11.0156 66.7637 10.7905 69.055 10.3581 71.0439L14.2669 71.8936ZM15.0156 64.1562V0.734375H11.0156V64.1562H15.0156ZM13.0156 2.73438H27.875V-1.26562H13.0156V2.73438ZM25.875 0.734375V61.4844H29.875V0.734375H25.875ZM25.875 61.4844C25.875 64.6783 25.7367 67.5763 25.464 70.1825L29.4423 70.5988C29.732 67.83 29.875 64.7905 29.875 61.4844H25.875ZM25.4642 70.18C25.1939 72.7335 24.746 75.0498 24.129 77.1359L27.9647 78.2704C28.6602 75.9189 29.1499 73.3602 29.442 70.6012L25.4642 70.18ZM24.1198 77.1678C23.5373 79.2649 22.7422 81.1669 21.7412 82.8829L25.1963 84.8984C26.3828 82.8643 27.3064 80.6414 27.9739 78.2384L24.1198 77.1678ZM21.7287 82.9046C20.7515 84.6292 19.522 86.2818 18.0303 87.8611L20.9384 90.6076C22.6343 88.812 24.061 86.9021 25.2088 84.8767L21.7287 82.9046ZM18.0169 87.8756C16.5562 89.453 14.7989 90.9926 12.7327 92.4899L15.0798 95.7289C17.3261 94.1011 19.2875 92.3907 20.9519 90.5932L18.0169 87.8756ZM12.7215 92.4981C10.6724 94.0047 8.27242 95.5406 5.51397 97.1037L7.48603 100.584C10.3526 98.9594 12.8901 97.339 15.091 95.7207L12.7215 92.4981ZM8.32119 98.0172L2.55557 85.314L-1.08682 86.9672L4.67881 99.6703L8.32119 98.0172ZM49.4844 43.6719L50.6041 45.3291L50.6117 45.3239L50.6193 45.3187L49.4844 43.6719ZM58.1094 40.0156L58.5861 41.958L58.5986 41.9549L58.1094 40.0156ZM80.9375 39.4531L80.6732 41.4356L80.6753 41.4359L80.9375 39.4531ZM92.6094 41.75L92.1101 43.6867L94.8534 44.3939L94.6015 41.5721L92.6094 41.75ZM91.0156 36.9219L89.3038 37.9561L89.3086 37.9641L89.3136 37.9721L91.0156 36.9219ZM87.2188 33.0781L86.0871 34.7272L86.1055 34.7398L86.1243 34.7521L87.2188 33.0781ZM81.4062 30.5469L80.8959 32.4807L80.9025 32.4824L81.4062 30.5469ZM56.7969 32.1875L56.2474 30.2644L56.2393 30.2668L56.7969 32.1875ZM51.3594 34.2031L49.4839 34.8978L50.2356 36.9273L52.1996 36.0181L51.3594 34.2031ZM47.1406 22.8125L46.4662 20.9297L44.563 21.6114L45.2651 23.5071L47.1406 22.8125ZM53.8438 20.75L53.341 18.8142L53.3348 18.8159L53.8438 20.75ZM61.2031 19.1562L61.5479 21.1263L61.5598 21.1242L61.5717 21.122L61.2031 19.1562ZM106.578 74V76H108.578V74H106.578ZM92.7031 74H90.7031V76H92.7031V74ZM92.7031 68.7969H94.7031V65.3039L91.6907 67.072L92.7031 68.7969ZM87.9688 71.1875L87.1688 69.3544L87.1565 69.3599L87.9688 71.1875ZM75.9688 74.4688L75.7009 72.4868L75.6858 72.4888L75.6707 72.4911L75.9688 74.4688ZM57.3125 73.5781L56.7582 75.4998L56.7631 75.5012L57.3125 73.5781ZM44.1875 63.875L42.3888 64.7494L42.3961 64.7645L42.4037 64.7795L44.1875 63.875ZM57.875 58.7188L56.1267 59.69L56.1345 59.7042L56.1426 59.7182L57.875 58.7188ZM60.125 60.9219L59.0512 62.6092L59.0697 62.6209L59.0884 62.6323L60.125 60.9219ZM64.0625 62.4688L63.5685 64.4068L63.5906 64.4124L63.6128 64.4175L64.0625 62.4688ZM92.7031 55.25L94.0739 56.7064L94.7031 56.1141V55.25H92.7031ZM92.7031 52.8125H94.7031V51.2947L93.2413 50.8863L92.7031 52.8125ZM86.375 51.3125L85.9885 53.2748L85.994 53.2759L86.375 51.3125ZM80.4219 50.375L80.1575 52.3575L80.1757 52.3599L80.1939 52.362L80.4219 50.375ZM75.0781 49.8594L74.9651 51.8562L74.9672 51.8563L75.0781 49.8594ZM60.0781 51.6406L61.0139 53.4082L61.034 53.3976L61.0538 53.3865L60.0781 51.6406ZM44.5469 56.5625C44.5469 54.2074 45.0565 52.11 46.0494 50.2315L42.5131 48.3623C41.1935 50.8588 40.5469 53.6051 40.5469 56.5625H44.5469ZM46.0494 50.2315C47.0334 48.3699 48.5285 46.7315 50.6041 45.3291L48.3647 42.0147C45.8152 43.7373 43.8416 45.8488 42.5131 48.3623L46.0494 50.2315ZM50.6193 45.3187C52.6877 43.8931 55.3253 42.7583 58.5861 41.958L57.6326 38.0733C54.0184 38.9604 50.906 40.2631 48.3494 42.0251L50.6193 45.3187ZM58.5986 41.9549C61.8696 41.1297 65.7302 40.7031 70.2031 40.7031V36.7031C65.4885 36.7031 61.2866 37.1515 57.6202 38.0764L58.5986 41.9549ZM70.2031 40.7031C73.5119 40.7031 77.0013 40.946 80.6732 41.4356L81.2018 37.4707C77.3737 36.9602 73.7068 36.7031 70.2031 36.7031V40.7031ZM80.6753 41.4359C84.3704 41.9245 88.1818 42.6739 92.1101 43.6867L93.1087 39.8133C89.037 38.7636 85.0671 37.9818 81.1997 37.4704L80.6753 41.4359ZM94.6015 41.5721C94.4181 39.5186 93.7901 37.6096 92.7177 35.8717L89.3136 37.9721C90.0537 39.1716 90.4882 40.4814 90.6173 41.9279L94.6015 41.5721ZM92.7275 35.8876C91.65 34.1042 90.162 32.613 88.3132 31.4042L86.1243 34.7521C87.5255 35.6682 88.5688 36.7396 89.3038 37.9561L92.7275 35.8876ZM88.3504 31.4291C86.5288 30.179 84.368 29.2511 81.91 28.6114L80.9025 32.4824C83.007 33.0302 84.7212 33.7898 86.0871 34.7272L88.3504 31.4291ZM81.9166 28.6131C79.4664 27.9665 76.7273 27.6562 73.7188 27.6562V31.6562C76.4602 31.6562 78.8461 31.9398 80.8959 32.4807L81.9166 28.6131ZM73.7188 27.6562C72.0779 27.6562 70.2917 27.7546 68.3635 27.9474L68.7615 31.9276C70.5833 31.7454 72.2346 31.6562 73.7188 31.6562V27.6562ZM68.3635 27.9474C66.4274 28.141 64.4332 28.4308 62.3814 28.8155L63.1186 32.747C65.0668 32.3817 66.9476 32.109 68.7615 31.9276L68.3635 27.9474ZM62.3814 28.8155C60.3201 29.202 58.2754 29.685 56.2474 30.2645L57.3463 34.1105C59.2558 33.565 61.1799 33.1105 63.1186 32.747L62.3814 28.8155ZM56.2393 30.2668C54.2131 30.855 52.3054 31.5612 50.5191 32.3882L52.1996 36.0181C53.7884 35.2825 55.5057 34.645 57.3545 34.1082L56.2393 30.2668ZM53.2349 33.5085L49.0161 22.1179L45.2651 23.5071L49.4839 34.8978L53.2349 33.5085ZM47.8151 24.6953C49.8492 23.9667 52.0279 23.2959 54.3527 22.6841L53.3348 18.8159C50.9096 19.4541 48.6196 20.1583 46.4662 20.9297L47.8151 24.6953ZM54.3465 22.6858C56.6995 22.0746 59.0999 21.5547 61.5479 21.1263L60.8584 17.1862C58.3063 17.6328 55.8005 18.1754 53.341 18.8142L54.3465 22.6858ZM61.5717 21.122C64.0162 20.6636 66.4597 20.3124 68.9021 20.0682L68.5041 16.0881C65.9466 16.3438 63.39 16.7114 60.8345 17.1905L61.5717 21.122ZM68.9021 20.0682C71.3407 19.8243 73.696 19.7031 75.9688 19.7031V15.7031C73.554 15.7031 71.0656 15.8319 68.5041 16.0881L68.9021 20.0682ZM75.9688 19.7031C85.9981 19.7031 93.0645 22.2613 97.5832 27.0045L100.479 24.2455C94.9355 18.4262 86.6269 15.7031 75.9688 15.7031V19.7031ZM97.5832 27.0045C102.119 31.7656 104.578 39.2638 104.578 49.9062H108.578C108.578 38.7362 106.006 30.0469 100.479 24.2455L97.5832 27.0045ZM104.578 49.9062V74H108.578V49.9062H104.578ZM106.578 72H92.7031V76H106.578V72ZM94.7031 74V68.7969H90.7031V74H94.7031ZM91.6907 67.072C90.3297 67.8709 88.8235 68.6324 87.1689 69.3544L88.7686 73.0206C90.5515 72.2426 92.2015 71.4103 93.7155 70.5217L91.6907 67.072ZM87.1565 69.3599C85.5668 70.0664 83.8148 70.6913 81.896 71.2309L82.979 75.0816C85.0602 74.4962 86.9957 73.8086 88.781 73.0151L87.1565 69.3599ZM81.896 71.2309C79.9959 71.7653 77.9321 72.1853 75.7009 72.4868L76.2366 76.4507C78.6304 76.1272 80.8791 75.6722 82.979 75.0816L81.896 71.2309ZM75.6707 72.4911C73.4983 72.8184 71.1767 72.9844 68.7031 72.9844V76.9844C71.3546 76.9844 73.8767 76.8066 76.2668 76.4464L75.6707 72.4911ZM68.7031 72.9844C64.53 72.9844 60.9247 72.5302 57.8619 71.6551L56.7631 75.5012C60.2628 76.5011 64.2513 76.9844 68.7031 76.9844V72.9844ZM57.8668 71.6565C54.7996 70.7717 52.3156 69.571 50.3635 68.093L47.949 71.282C50.3719 73.1165 53.3254 74.5095 56.7582 75.4998L57.8668 71.6565ZM50.3635 68.093C48.3928 66.6009 46.9454 64.8916 45.9713 62.9705L42.4037 64.7795C43.6796 67.2959 45.5447 69.4616 47.949 71.282L50.3635 68.093ZM45.9862 63.0006C45.0315 61.0365 44.5469 58.8999 44.5469 56.5625H40.5469C40.5469 59.4751 41.156 62.2135 42.3888 64.7494L45.9862 63.0006ZM55.1719 56.0938C55.1719 57.362 55.504 58.5691 56.1267 59.69L59.6233 57.7475C59.3085 57.1809 59.1719 56.638 59.1719 56.0938H55.1719ZM56.1426 59.7182C56.8137 60.8813 57.8279 61.8307 59.0512 62.6092L61.1988 59.2346C60.3596 58.7006 59.8738 58.1812 59.6074 57.7193L56.1426 59.7182ZM59.0884 62.6323C60.337 63.389 61.848 63.9682 63.5685 64.4068L64.5565 60.5307C63.0895 60.1568 61.9755 59.7047 61.1616 59.2115L59.0884 62.6323ZM63.6128 64.4175C65.4279 64.8364 67.5404 65.0312 69.9219 65.0312V61.0312C67.7408 61.0312 65.9471 60.8511 64.5122 60.52L63.6128 64.4175ZM69.9219 65.0312C72.4796 65.0312 74.9653 64.8017 77.3767 64.3392L76.6233 60.4108C74.4722 60.8233 72.2392 61.0312 69.9219 61.0312V65.0312ZM77.3767 64.3392C79.752 63.8837 81.9814 63.2785 84.0609 62.5193L82.6891 58.7619C80.8311 59.4402 78.8105 59.9913 76.6233 60.4108L77.3767 64.3392ZM84.0609 62.5193C86.1287 61.7644 88.0218 60.8866 89.7328 59.8801L87.7047 56.4324C86.2282 57.3009 84.5588 58.0793 82.6891 58.7619L84.0609 62.5193ZM89.7328 59.8801C91.4227 58.8861 92.8785 57.8315 94.0739 56.7064L91.3324 53.7936C90.4028 54.6685 89.2023 55.5514 87.7047 56.4324L89.7328 59.8801ZM94.7031 55.25V52.8125H90.7031V55.25H94.7031ZM93.2413 50.8863C91.0662 50.2785 88.9044 49.766 86.756 49.3491L85.994 53.2759C88.0331 53.6715 90.09 54.159 92.1649 54.7387L93.2413 50.8863ZM86.7615 49.3502C84.6514 48.9346 82.614 48.6134 80.6499 48.388L80.1939 52.362C82.0422 52.5741 83.9736 52.8779 85.9885 53.2748L86.7615 49.3502ZM80.6862 48.3925C78.7662 48.1365 76.9335 47.9594 75.1891 47.8625L74.9672 51.8563C76.5978 51.9469 78.3276 52.1135 80.1575 52.3575L80.6862 48.3925ZM75.1912 47.8626C73.5086 47.7673 72.0163 47.7188 70.7188 47.7188V51.7188C71.9212 51.7188 73.3352 51.7639 74.9651 51.8562L75.1912 47.8626ZM70.7188 47.7188C68.0496 47.7188 65.7511 47.8945 63.8578 48.2732L64.6422 52.1955C66.1864 51.8867 68.2004 51.7188 70.7188 51.7188V47.7188ZM63.8578 48.2732C62.0164 48.6415 60.4079 49.1653 59.1025 49.8947L61.0538 53.3865C61.8734 52.9285 63.0461 52.5148 64.6422 52.1955L63.8578 48.2732ZM59.1423 49.873C57.8533 50.5555 56.7629 51.4651 56.0831 52.679L59.5731 54.6335C59.7683 54.2849 60.178 53.8507 61.0139 53.4082L59.1423 49.873ZM56.0831 52.679C55.489 53.7399 55.1719 54.8868 55.1719 56.0938H59.1719C59.1719 55.6132 59.2922 55.1351 59.5731 54.6335L56.0831 52.679ZM117.312 18.6406V16.6406H114.153L115.505 19.4963L117.312 18.6406ZM133.391 18.6406L135.226 17.8469L134.705 16.6406H133.391V18.6406ZM147.781 51.9219L149.637 51.1759L149.627 51.1519L149.617 51.1281L147.781 51.9219ZM151.531 61.25L149.676 61.996L151.531 66.612L153.387 61.996L151.531 61.25ZM155.281 51.9219L153.446 51.1281L153.435 51.1519L153.426 51.1759L155.281 51.9219ZM169.672 18.6406V16.6406H168.358L167.836 17.8469L169.672 18.6406ZM185.75 18.6406L187.558 19.4963L188.909 16.6406H185.75V18.6406ZM159.547 74V76H160.813L161.355 74.8556L159.547 74ZM143.516 74L141.708 74.8556L142.25 76H143.516V74ZM117.312 20.6406H133.391V16.6406H117.312V20.6406ZM131.555 19.4344L145.946 52.7156L149.617 51.1281L135.226 17.8469L131.555 19.4344ZM145.926 52.6679L149.676 61.996L153.387 60.504L149.637 51.1759L145.926 52.6679ZM153.387 61.996L157.137 52.6679L153.426 51.1759L149.676 60.504L153.387 61.996ZM157.117 52.7156L171.508 19.4344L167.836 17.8469L153.446 51.1281L157.117 52.7156ZM169.672 20.6406H185.75V16.6406H169.672V20.6406ZM183.942 17.785L157.739 73.1444L161.355 74.8556L187.558 19.4963L183.942 17.785ZM159.547 72H143.516V76H159.547V72ZM145.323 73.1444L119.12 17.785L115.505 19.4963L141.708 74.8556L145.323 73.1444ZM199.766 43.6719L200.885 45.3291L200.893 45.3239L200.901 45.3187L199.766 43.6719ZM208.391 40.0156L208.867 41.958L208.88 41.9549L208.391 40.0156ZM231.219 39.4531L230.954 41.4356L230.957 41.4359L231.219 39.4531ZM242.891 41.75L242.391 43.6867L245.135 44.3939L244.883 41.5721L242.891 41.75ZM241.297 36.9219L239.585 37.9561L239.59 37.9641L239.595 37.9721L241.297 36.9219ZM237.5 33.0781L236.368 34.7272L236.387 34.7398L236.406 34.7521L237.5 33.0781ZM231.688 30.5469L231.177 32.4807L231.184 32.4824L231.688 30.5469ZM207.078 32.1875L206.529 30.2644L206.521 30.2668L207.078 32.1875ZM201.641 34.2031L199.765 34.8978L200.517 36.9273L202.481 36.0181L201.641 34.2031ZM197.422 22.8125L196.747 20.9297L194.844 21.6114L195.546 23.5071L197.422 22.8125ZM204.125 20.75L203.622 18.8142L203.616 18.8159L204.125 20.75ZM211.484 19.1562L211.829 21.1263L211.841 21.1242L211.853 21.122L211.484 19.1562ZM256.859 74V76H258.859V74H256.859ZM242.984 74H240.984V76H242.984V74ZM242.984 68.7969H244.984V65.3039L241.972 67.072L242.984 68.7969ZM238.25 71.1875L237.45 69.3544L237.438 69.3599L238.25 71.1875ZM226.25 74.4688L225.982 72.4868L225.967 72.4888L225.952 72.4911L226.25 74.4688ZM207.594 73.5781L207.039 75.4998L207.044 75.5012L207.594 73.5781ZM194.469 63.875L192.67 64.7494L192.677 64.7645L192.685 64.7795L194.469 63.875ZM208.156 58.7188L206.408 59.69L206.416 59.7042L206.424 59.7182L208.156 58.7188ZM210.406 60.9219L209.332 62.6092L209.351 62.6209L209.37 62.6323L210.406 60.9219ZM214.344 62.4688L213.85 64.4068L213.872 64.4124L213.894 64.4175L214.344 62.4688ZM242.984 55.25L244.355 56.7064L244.984 56.1141V55.25H242.984ZM242.984 52.8125H244.984V51.2947L243.523 50.8863L242.984 52.8125ZM236.656 51.3125L236.27 53.2748L236.275 53.2759L236.656 51.3125ZM230.703 50.375L230.439 52.3575L230.457 52.3599L230.475 52.362L230.703 50.375ZM225.359 49.8594L225.246 51.8562L225.248 51.8563L225.359 49.8594ZM210.359 51.6406L211.295 53.4082L211.315 53.3976L211.335 53.3865L210.359 51.6406ZM194.828 56.5625C194.828 54.2074 195.338 52.11 196.331 50.2315L192.794 48.3623C191.475 50.8588 190.828 53.6051 190.828 56.5625H194.828ZM196.331 50.2315C197.315 48.3699 198.81 46.7315 200.885 45.3291L198.646 42.0147C196.096 43.7373 194.123 45.8488 192.794 48.3623L196.331 50.2315ZM200.901 45.3187C202.969 43.8931 205.607 42.7583 208.867 41.958L207.914 38.0733C204.3 38.9604 201.187 40.2631 198.631 42.0251L200.901 45.3187ZM208.88 41.9549C212.151 41.1297 216.011 40.7031 220.484 40.7031V36.7031C215.77 36.7031 211.568 37.1515 207.901 38.0764L208.88 41.9549ZM220.484 40.7031C223.793 40.7031 227.283 40.946 230.954 41.4356L231.483 37.4707C227.655 36.9602 223.988 36.7031 220.484 36.7031V40.7031ZM230.957 41.4359C234.652 41.9245 238.463 42.6739 242.391 43.6867L243.39 39.8133C239.318 38.7636 235.348 37.9818 231.481 37.4704L230.957 41.4359ZM244.883 41.5721C244.699 39.5186 244.071 37.6096 242.999 35.8717L239.595 37.9721C240.335 39.1716 240.769 40.4814 240.899 41.9279L244.883 41.5721ZM243.009 35.8876C241.931 34.1042 240.443 32.613 238.594 31.4042L236.406 34.7521C237.807 35.6682 238.85 36.7396 239.585 37.9561L243.009 35.8876ZM238.632 31.4291C236.81 30.179 234.649 29.2511 232.191 28.6114L231.184 32.4824C233.288 33.0302 235.002 33.7898 236.368 34.7272L238.632 31.4291ZM232.198 28.6131C229.748 27.9665 227.009 27.6562 224 27.6562V31.6562C226.741 31.6562 229.127 31.9398 231.177 32.4807L232.198 28.6131ZM224 27.6562C222.359 27.6562 220.573 27.7546 218.645 27.9474L219.043 31.9276C220.865 31.7454 222.516 31.6562 224 31.6562V27.6562ZM218.645 27.9474C216.709 28.141 214.714 28.4308 212.663 28.8155L213.4 32.747C215.348 32.3817 217.229 32.109 219.043 31.9276L218.645 27.9474ZM212.663 28.8155C210.601 29.202 208.557 29.685 206.529 30.2645L207.628 34.1105C209.537 33.565 211.461 33.1105 213.4 32.747L212.663 28.8155ZM206.521 30.2668C204.494 30.855 202.587 31.5612 200.8 32.3882L202.481 36.0181C204.07 35.2825 205.787 34.645 207.636 34.1082L206.521 30.2668ZM203.516 33.5085L199.297 22.1179L195.546 23.5071L199.765 34.8978L203.516 33.5085ZM198.096 24.6953C200.13 23.9667 202.309 23.2959 204.634 22.6841L203.616 18.8159C201.191 19.4541 198.901 20.1583 196.747 20.9297L198.096 24.6953ZM204.628 22.6858C206.981 22.0746 209.381 21.5547 211.829 21.1263L211.14 17.1862C208.588 17.6328 206.082 18.1754 203.622 18.8142L204.628 22.6858ZM211.853 21.122C214.297 20.6636 216.741 20.3124 219.183 20.0682L218.785 16.0881C216.228 16.3438 213.671 16.7114 211.116 17.1905L211.853 21.122ZM219.183 20.0682C221.622 19.8243 223.977 19.7031 226.25 19.7031V15.7031C223.835 15.7031 221.347 15.8319 218.785 16.0881L219.183 20.0682ZM226.25 19.7031C236.279 19.7031 243.346 22.2613 247.864 27.0045L250.761 24.2455C245.217 18.4262 236.908 15.7031 226.25 15.7031V19.7031ZM247.864 27.0045C252.4 31.7656 254.859 39.2638 254.859 49.9062H258.859C258.859 38.7362 256.287 30.0469 250.761 24.2455L247.864 27.0045ZM254.859 49.9062V74H258.859V49.9062H254.859ZM256.859 72H242.984V76H256.859V72ZM244.984 74V68.7969H240.984V74H244.984ZM241.972 67.072C240.611 67.8709 239.105 68.6324 237.45 69.3544L239.05 73.0206C240.833 72.2426 242.483 71.4103 243.997 70.5217L241.972 67.072ZM237.438 69.3599C235.848 70.0664 234.096 70.6913 232.177 71.2309L233.26 75.0816C235.341 74.4962 237.277 73.8086 239.062 73.0151L237.438 69.3599ZM232.177 71.2309C230.277 71.7653 228.213 72.1853 225.982 72.4868L226.518 76.4507C228.912 76.1272 231.16 75.6722 233.26 75.0816L232.177 71.2309ZM225.952 72.4911C223.78 72.8184 221.458 72.9844 218.984 72.9844V76.9844C221.636 76.9844 224.158 76.8066 226.548 76.4464L225.952 72.4911ZM218.984 72.9844C214.811 72.9844 211.206 72.5302 208.143 71.6551L207.044 75.5012C210.544 76.5011 214.533 76.9844 218.984 76.9844V72.9844ZM208.148 71.6565C205.081 70.7717 202.597 69.571 200.645 68.093L198.23 71.282C200.653 73.1165 203.607 74.5095 207.039 75.4998L208.148 71.6565ZM200.645 68.093C198.674 66.6009 197.227 64.8916 196.253 62.9705L192.685 64.7795C193.961 67.2959 195.826 69.4616 198.23 71.282L200.645 68.093ZM196.267 63.0006C195.313 61.0365 194.828 58.8999 194.828 56.5625H190.828C190.828 59.4751 191.437 62.2135 192.67 64.7494L196.267 63.0006ZM205.453 56.0938C205.453 57.362 205.785 58.5691 206.408 59.69L209.905 57.7475C209.59 57.1809 209.453 56.638 209.453 56.0938H205.453ZM206.424 59.7182C207.095 60.8813 208.109 61.8307 209.332 62.6092L211.48 59.2346C210.641 58.7006 210.155 58.1812 209.889 57.7193L206.424 59.7182ZM209.37 62.6323C210.618 63.389 212.129 63.9682 213.85 64.4068L214.838 60.5307C213.371 60.1568 212.257 59.7047 211.443 59.2115L209.37 62.6323ZM213.894 64.4175C215.709 64.8364 217.822 65.0312 220.203 65.0312V61.0312C218.022 61.0312 216.228 60.8511 214.793 60.52L213.894 64.4175ZM220.203 65.0312C222.761 65.0312 225.247 64.8017 227.658 64.3392L226.905 60.4108C224.753 60.8233 222.52 61.0312 220.203 61.0312V65.0312ZM227.658 64.3392C230.033 63.8837 232.263 63.2785 234.342 62.5193L232.97 58.7619C231.112 59.4402 229.092 59.9913 226.905 60.4108L227.658 64.3392ZM234.342 62.5193C236.41 61.7644 238.303 60.8866 240.014 59.8801L237.986 56.4324C236.509 57.3009 234.84 58.0793 232.97 58.7619L234.342 62.5193ZM240.014 59.8801C241.704 58.8861 243.16 57.8315 244.355 56.7064L241.614 53.7936C240.684 54.6685 239.484 55.5514 237.986 56.4324L240.014 59.8801ZM244.984 55.25V52.8125H240.984V55.25H244.984ZM243.523 50.8863C241.347 50.2785 239.186 49.766 237.037 49.3491L236.275 53.2759C238.314 53.6715 240.371 54.159 242.446 54.7387L243.523 50.8863ZM237.043 49.3502C234.933 48.9346 232.895 48.6134 230.931 48.388L230.475 52.362C232.323 52.5741 234.255 52.8779 236.27 53.2748L237.043 49.3502ZM230.967 48.3925C229.047 48.1365 227.215 47.9594 225.47 47.8625L225.248 51.8563C226.879 51.9469 228.609 52.1135 230.439 52.3575L230.967 48.3925ZM225.472 47.8626C223.79 47.7673 222.298 47.7188 221 47.7188V51.7188C222.202 51.7188 223.616 51.7639 225.246 51.8562L225.472 47.8626ZM221 47.7188C218.331 47.7188 216.032 47.8945 214.139 48.2732L214.923 52.1955C216.468 51.8867 218.482 51.7188 221 51.7188V47.7188ZM214.139 48.2732C212.298 48.6415 210.689 49.1653 209.384 49.8947L211.335 53.3865C212.155 52.9285 213.327 52.5148 214.923 52.1955L214.139 48.2732ZM209.424 49.873C208.135 50.5555 207.044 51.4651 206.364 52.679L209.854 54.6335C210.05 54.2849 210.459 53.8507 211.295 53.4082L209.424 49.873ZM206.364 52.679C205.77 53.7399 205.453 54.8868 205.453 56.0938H209.453C209.453 55.6132 209.573 55.1351 209.854 54.6335L206.364 52.679Z" fill="white"/>
</svg>
