<svg width="688" height="103" viewBox="0 0 688 103" fill="none" xmlns="http://www.w3.org/2000/svg">
<path d="M28.0312 17.7656H30.0312V15.7656H28.0312V17.7656ZM0.984375 17.7656H-1.01562V19.7656H0.984375V17.7656ZM0.984375 4.73438V2.73438H-1.01562V4.73438H0.984375ZM69.9375 4.73438H71.9375V2.73438H69.9375V4.73438ZM69.9375 17.7656V19.7656H71.9375V17.7656H69.9375ZM42.8906 17.7656V15.7656H40.8906V17.7656H42.8906ZM42.8906 78V80H44.8906V78H42.8906ZM28.0312 78H26.0312V80H28.0312V78ZM28.0312 15.7656H0.984375V19.7656H28.0312V15.7656ZM2.98438 17.7656V4.73438H-1.01562V17.7656H2.98438ZM0.984375 6.73438H69.9375V2.73438H0.984375V6.73438ZM67.9375 4.73438V17.7656H71.9375V4.73438H67.9375ZM69.9375 15.7656H42.8906V19.7656H69.9375V15.7656ZM40.8906 17.7656V78H44.8906V17.7656H40.8906ZM42.8906 76H28.0312V80H42.8906V76ZM30.0312 78V17.7656H26.0312V78H30.0312ZM90.7031 84.9375L91.7957 83.2623L89.8216 81.9749L88.8725 84.132L90.7031 84.9375ZM100.641 89.2031L100.14 91.1394L100.148 91.1415L100.641 89.2031ZM106.266 90.2344L106.526 88.2514L106.51 88.2493L106.494 88.2474L106.266 90.2344ZM126.656 86.4844L125.422 84.9103L125.415 84.9164L125.407 84.9226L126.656 86.4844ZM131.859 72.3281H133.859V68.511L130.721 70.6837L131.859 72.3281ZM127.734 74.6719L128.568 76.49L128.576 76.4862L128.584 76.4823L127.734 74.6719ZM122.859 76.4531L122.31 74.5301L122.301 74.5327L122.859 76.4531ZM117.375 77.625L117.635 79.608L117.649 79.6062L117.662 79.6043L117.375 77.625ZM100.219 76.1719L99.5126 78.0431L99.5232 78.0471L99.5339 78.0509L100.219 76.1719ZM91.7812 70.7344L90.3298 72.1104L90.339 72.1201L90.3483 72.1296L91.7812 70.7344ZM84.7031 22.6875V20.6875H82.7031V22.6875H84.7031ZM98.5312 22.6875H100.531V20.6875H98.5312V22.6875ZM102.328 60.8438L100.762 62.0875L100.769 62.096L100.775 62.1044L102.328 60.8438ZM124.688 63.5625L125.512 65.3846L125.521 65.3806L124.688 63.5625ZM131.859 58.3125L133.392 59.5973L133.859 59.0399V58.3125H131.859ZM131.859 22.6875V20.6875H129.859V22.6875H131.859ZM145.734 22.6875H147.734V20.6875H145.734V22.6875ZM143.484 85.4062L141.619 84.6843L141.617 84.6893L143.484 85.4062ZM136.922 95.1094L135.591 93.6163L135.583 93.6236L136.922 95.1094ZM126.422 100.828L125.846 98.9128L125.833 98.9169L126.422 100.828ZM85.5469 96.6562L83.7162 95.8508L82.952 97.5877L84.6465 98.4421L85.5469 96.6562ZM89.6106 86.6127C91.1524 87.6183 92.8192 88.5005 94.6069 89.2619L96.1743 85.5818C94.5871 84.9058 93.1288 84.1317 91.7957 83.2623L89.6106 86.6127ZM94.6069 89.2619C96.3881 90.0206 98.2328 90.6462 100.14 91.1394L101.141 87.2668C99.4235 86.8225 97.7682 86.2607 96.1743 85.5818L94.6069 89.2619ZM100.148 91.1415C102.079 91.6325 104.043 91.9924 106.038 92.2213L106.494 88.2474C104.676 88.0388 102.889 87.7112 101.133 87.2648L100.148 91.1415ZM106.006 92.2174C107.996 92.4784 109.973 92.6094 111.938 92.6094V88.6094C110.152 88.6094 108.348 88.4903 106.526 88.2514L106.006 92.2174ZM111.938 92.6094C118.569 92.6094 123.985 91.1826 127.906 88.0461L125.407 84.9226C122.452 87.2862 118.056 88.6094 111.938 88.6094V92.6094ZM127.89 88.0585C131.958 84.8702 133.859 80.1232 133.859 74.2031H129.859C129.859 79.2206 128.292 82.6611 125.422 84.9103L127.89 88.0585ZM133.859 74.2031V72.3281H129.859V74.2031H133.859ZM130.721 70.6837C129.605 71.4561 128.329 72.1834 126.885 72.8614L128.584 76.4823C130.202 75.7228 131.676 74.8877 132.998 73.9725L130.721 70.6837ZM126.901 72.8537C125.502 73.4951 123.973 74.055 122.31 74.5301L123.409 78.3762C125.246 77.8512 126.967 77.2236 128.568 76.49L126.901 72.8537ZM122.301 74.5327C120.679 75.0046 118.942 75.3766 117.088 75.6457L117.662 79.6043C119.683 79.3109 121.602 78.9017 123.418 78.3735L122.301 74.5327ZM117.115 75.642C115.297 75.8804 113.446 76 111.562 76V80C113.616 80 115.641 79.8696 117.635 79.608L117.115 75.642ZM111.562 76C107.535 76 103.991 75.4183 100.904 74.2928L99.5339 78.0509C103.134 79.363 107.152 80 111.562 80V76ZM100.925 74.3007C97.8676 73.147 95.3085 71.49 93.2142 69.3391L90.3483 72.1296C92.879 74.7287 95.9449 76.6968 99.5126 78.0431L100.925 74.3007ZM93.2327 69.3584C91.1683 67.1809 89.5566 64.4812 88.42 61.2173L84.6425 62.5327C85.9434 66.2688 87.8317 69.4754 90.3298 72.1104L93.2327 69.3584ZM88.42 61.2173C87.2887 57.9685 86.7031 54.1975 86.7031 49.875H82.7031C82.7031 54.5525 83.3363 58.7815 84.6425 62.5327L88.42 61.2173ZM86.7031 49.875V22.6875H82.7031V49.875H86.7031ZM84.7031 24.6875H98.5312V20.6875H84.7031V24.6875ZM96.5312 22.6875V46.0312H100.531V22.6875H96.5312ZM96.5312 46.0312C96.5312 52.9027 97.8193 58.382 100.762 62.0875L103.894 59.6C101.774 56.9305 100.531 52.5348 100.531 46.0312H96.5312ZM100.775 62.1044C103.84 65.8795 108.546 67.5781 114.422 67.5781V63.5781C109.298 63.5781 105.941 62.1205 103.881 59.5831L100.775 62.1044ZM114.422 67.5781C118.528 67.5781 122.24 66.8656 125.512 65.3845L123.863 61.7405C121.197 62.9469 118.065 63.5781 114.422 63.5781V67.5781ZM125.521 65.3806C128.74 63.9052 131.387 61.989 133.392 59.5973L130.327 57.0277C128.769 58.886 126.635 60.4698 123.854 61.7444L125.521 65.3806ZM133.859 58.3125V22.6875H129.859V58.3125H133.859ZM131.859 24.6875H145.734V20.6875H131.859V24.6875ZM143.734 22.6875V71.6719H147.734V22.6875H143.734ZM143.734 71.6719C143.734 76.7703 143.01 81.0925 141.619 84.6843L145.35 86.1282C146.959 81.97 147.734 77.136 147.734 71.6719H143.734ZM141.617 84.6893C140.222 88.3241 138.208 91.2841 135.591 93.6163L138.253 96.6024C141.386 93.8097 143.747 90.3009 145.351 86.1232L141.617 84.6893ZM135.583 93.6236C132.986 95.9634 129.757 97.7365 125.846 98.9129L126.998 102.743C131.399 101.42 135.17 99.3803 138.261 96.5952L135.583 93.6236ZM125.833 98.9169C121.903 100.128 117.388 100.75 112.266 100.75V104.75C117.705 104.75 122.628 104.09 127.011 102.739L125.833 98.9169ZM112.266 100.75C107.251 100.75 102.599 100.218 98.3036 99.1667L97.3526 103.052C101.994 104.188 106.968 104.75 112.266 104.75V100.75ZM98.3036 99.1667C93.9668 98.1053 90.0175 96.6705 86.4473 94.8704L84.6465 98.4421C88.5137 100.392 92.7519 101.926 97.3526 103.052L98.3036 99.1667ZM87.3775 97.4617L92.5338 85.743L88.8725 84.132L83.7162 95.8508L87.3775 97.4617ZM177.188 100.594V102.594H179.188V100.594H177.188ZM163.312 100.594H161.312V102.594H163.312V100.594ZM163.312 22.6875V20.6875H161.312V22.6875H163.312ZM177.188 22.6875H179.188V20.6875H177.188V22.6875ZM177.188 27.8906H175.188V31.7078L178.326 29.535L177.188 27.8906ZM192.75 22.2188L193.054 24.1955L193.069 24.1932L193.084 24.1907L192.75 22.2188ZM211.734 23.7656L211.07 25.6522L211.075 25.6538L211.734 23.7656ZM228.422 38.5781L226.596 39.3934L226.6 39.4033L226.605 39.4131L228.422 38.5781ZM228.328 62.0625L230.139 62.9118L230.142 62.9057L228.328 62.0625ZM221.438 71.1562L222.742 72.6725L222.743 72.6713L221.438 71.1562ZM211.031 76.9688L211.668 78.8647L211.677 78.8617L211.031 76.9688ZM192.047 78.6094L191.791 80.5929L191.795 80.5934L192.047 78.6094ZM186.422 77.5781L185.945 79.5204L185.953 79.5223L186.422 77.5781ZM181.359 76.0312L180.617 77.8882L180.639 77.8971L180.661 77.9054L181.359 76.0312ZM177.188 74.0156L178.203 72.2929L175.188 70.5142V74.0156H177.188ZM177.188 60.6094H175.188V61.5706L175.938 62.1711L177.188 60.6094ZM191.344 66.5156L191.045 68.4932L191.064 68.496L191.082 68.4984L191.344 66.5156ZM204.656 65.5781L205.303 67.4706L205.31 67.4683L205.317 67.4658L204.656 65.5781ZM210.938 62.0156L209.622 60.5088L209.616 60.5148L209.609 60.5208L210.938 62.0156ZM214.875 43.8281L213.047 44.6404L213.053 44.6524L213.058 44.6644L214.875 43.8281ZM211.031 38.6719L209.689 40.1543L209.703 40.1675L209.718 40.1805L211.031 38.6719ZM204.984 35.1562L204.285 37.0299L204.3 37.0355L204.315 37.0409L204.984 35.1562ZM191.438 34.4062L191.798 36.3735L191.814 36.3706L191.83 36.3674L191.438 34.4062ZM186 35.9062L185.298 34.0336L185.287 34.0378L186 35.9062ZM181.125 38.2969L180.081 36.5912L180.073 36.596L180.065 36.6009L181.125 38.2969ZM177.188 41.4375L175.754 40.0428L175.188 40.6251V41.4375H177.188ZM177.188 98.5938H163.312V102.594H177.188V98.5938ZM165.312 100.594V22.6875H161.312V100.594H165.312ZM163.312 24.6875H177.188V20.6875H163.312V24.6875ZM175.188 22.6875V27.8906H179.188V22.6875H175.188ZM178.326 29.535C179.427 28.773 180.755 28.033 182.325 27.3219L180.675 23.6781C178.933 24.467 177.386 25.3207 176.049 26.2462L178.326 29.535ZM182.325 27.3219C183.89 26.6133 185.584 25.9883 187.41 25.4495L186.278 21.613C184.291 22.1992 182.423 22.8867 180.675 23.6781L182.325 27.3219ZM187.41 25.4495C189.227 24.9132 191.108 24.4948 193.054 24.1955L192.446 20.242C190.329 20.5677 188.273 21.0243 186.278 21.613L187.41 25.4495ZM193.084 24.1907C195.006 23.8654 196.926 23.7031 198.844 23.7031V19.7031C196.699 19.7031 194.556 19.8846 192.416 20.2468L193.084 24.1907ZM198.844 23.7031C203.335 23.7031 207.404 24.3615 211.07 25.6522L212.398 21.8791C208.253 20.4198 203.728 19.7031 198.844 19.7031V23.7031ZM211.075 25.6538C214.793 26.952 217.934 28.7644 220.531 31.0729L223.188 28.0833C220.16 25.3918 216.551 23.3292 212.394 21.8774L211.075 25.6538ZM220.531 31.0729C223.127 33.3807 225.147 36.1477 226.596 39.3934L230.248 37.7628C228.572 34.0085 226.217 30.7755 223.188 28.0833L220.531 31.0729ZM226.605 39.4131C228.066 42.5935 228.812 46.1483 228.812 50.1094H232.812C232.812 45.6329 231.965 41.5002 230.239 37.7431L226.605 39.4131ZM228.812 50.1094C228.812 54.2599 228.034 57.9514 226.515 61.2193L230.142 62.9057C231.935 59.0486 232.812 54.7713 232.812 50.1094H228.812ZM226.517 61.2132C224.98 64.491 222.855 67.2949 220.132 69.6412L222.743 72.6713C225.895 69.9551 228.364 66.6965 230.139 62.9118L226.517 61.2132ZM220.133 69.64C217.441 71.9561 214.202 73.7741 210.386 75.0758L211.677 78.8617C215.923 77.4134 219.622 75.3564 222.742 72.6725L220.133 69.64ZM210.394 75.0729C206.621 76.3405 202.495 76.9844 198 76.9844V80.9844C202.88 80.9844 207.441 80.2845 211.668 78.8646L210.394 75.0729ZM198 76.9844C196.084 76.9844 194.183 76.8646 192.299 76.6253L191.795 80.5934C193.848 80.8541 195.916 80.9844 198 80.9844V76.9844ZM192.303 76.6258C190.434 76.3846 188.63 76.0537 186.891 75.634L185.953 79.5223C187.839 79.9776 189.785 80.3341 191.791 80.5929L192.303 76.6258ZM186.899 75.6359C185.187 75.2153 183.574 74.7219 182.058 74.1571L180.661 77.9054C182.333 78.5281 184.094 79.0659 185.945 79.5204L186.899 75.6359ZM182.102 74.1743C180.617 73.5802 179.32 72.9514 178.203 72.2929L176.172 75.7384C177.492 76.5173 178.977 77.2323 180.617 77.8882L182.102 74.1743ZM175.188 74.0156V100.594H179.188V74.0156H175.188ZM175.938 62.1711C177.451 63.3814 179.054 64.4114 180.746 65.2576L182.535 61.6799C181.102 60.9636 179.737 60.0874 178.437 59.0476L175.938 62.1711ZM180.746 65.2576C182.405 66.0868 184.101 66.7689 185.834 67.3022L187.01 63.4791C185.493 63.0123 184.002 62.4132 182.535 61.6799L180.746 65.2576ZM185.834 67.3022C187.552 67.8309 189.289 68.2282 191.045 68.4932L191.642 64.538C190.086 64.303 188.542 63.9503 187.01 63.4791L185.834 67.3022ZM191.082 68.4984C192.819 68.7278 194.516 68.8438 196.172 68.8438V64.8438C194.703 64.8438 193.181 64.7409 191.606 64.5328L191.082 68.4984ZM196.172 68.8438C199.532 68.8438 202.586 68.3993 205.303 67.4706L204.009 63.6856C201.789 64.4444 199.186 64.8438 196.172 64.8438V68.8438ZM205.317 67.4658C208.021 66.5194 210.353 65.211 212.266 63.5104L209.609 60.5208C208.147 61.8203 206.291 62.8869 203.996 63.6904L205.317 67.4658ZM212.253 63.5225C214.184 61.8367 215.674 59.8368 216.701 57.5336L213.049 55.9039C212.264 57.6632 211.128 59.1946 209.622 60.5088L212.253 63.5225ZM216.701 57.5336C217.73 55.2289 218.234 52.7458 218.234 50.1094H214.234C214.234 52.2229 213.833 54.1461 213.049 55.9039L216.701 57.5336ZM218.234 50.1094C218.234 47.609 217.722 45.2292 216.692 42.9918L213.058 44.6644C213.841 46.3646 214.234 48.1723 214.234 50.1094H218.234ZM216.703 43.0158C215.704 40.7699 214.243 38.8162 212.344 37.1633L209.718 40.1805C211.194 41.465 212.296 42.9489 213.047 44.6404L216.703 43.0158ZM212.374 37.1895C210.498 35.491 208.246 34.1925 205.654 33.2716L204.315 37.0409C206.473 37.8075 208.252 38.8527 209.689 40.1543L212.374 37.1895ZM205.684 33.2826C203.081 32.3109 200.198 31.8438 197.062 31.8438V35.8438C199.802 35.8438 202.2 36.2516 204.285 37.0299L205.684 33.2826ZM197.062 31.8438C195.053 31.8438 193.047 32.0448 191.045 32.4451L191.83 36.3674C193.578 36.0177 195.322 35.8438 197.062 35.8438V31.8438ZM191.077 32.439C189.088 32.8037 187.161 33.335 185.298 34.0336L186.702 37.7789C188.339 37.165 190.037 36.6963 191.798 36.3735L191.077 32.439ZM185.287 34.0378C183.456 34.7369 181.72 35.5878 180.081 36.5912L182.169 40.0026C183.593 39.131 185.107 38.3881 186.713 37.7747L185.287 34.0378ZM180.065 36.6009C178.442 37.6154 177.001 38.761 175.754 40.0428L178.621 42.8322C179.624 41.8015 180.808 40.8534 182.185 39.9929L180.065 36.6009ZM175.188 41.4375V60.6094H179.188V41.4375H175.188ZM243.609 39.4219L245.434 40.2419L245.436 40.2357L243.609 39.4219ZM260.766 24.0469L260.066 22.1731L260.062 22.1748L260.766 24.0469ZM289.266 24.0938L288.559 25.9647L288.567 25.9678L288.575 25.9709L289.266 24.0938ZM300.047 30.5625L298.68 32.0226L298.688 32.0297L300.047 30.5625ZM306.844 40.2656L305 41.0404L305.003 41.0469L305.005 41.0535L306.844 40.2656ZM309.188 53.9531L307.19 53.8532L307.188 53.9032V53.9531H309.188ZM309.094 55.5938V57.5938H310.859L311.078 55.8418L309.094 55.5938ZM256.781 55.5938V53.5938H253.94L254.899 56.2687L256.781 55.5938ZM259.641 60.1406L258.194 61.5216L258.202 61.5301L258.21 61.5385L259.641 60.1406ZM271.594 66.0469L271.175 68.0025L271.186 68.0049L271.197 68.0071L271.594 66.0469ZM289.828 65.8594L290.235 67.8175L290.245 67.8156L290.254 67.8136L289.828 65.8594ZM298.875 63.2812L300.704 62.472L299.951 60.7705L298.2 61.3987L298.875 63.2812ZM303.562 73.875L304.407 75.6882L306.185 74.8601L305.391 73.0657L303.562 73.875ZM298.031 76.125L298.673 78.0191L298.683 78.016L298.692 78.0127L298.031 76.125ZM292.219 77.7188L292.617 79.6787L292.628 79.6764L292.64 79.6739L292.219 77.7188ZM285.891 78.6562L285.694 76.6659L285.692 76.6662L285.891 78.6562ZM294.516 44.7656V46.7656H297.273L296.417 44.1448L294.516 44.7656ZM292.172 40.5L290.585 41.7176L290.601 41.7382L290.617 41.7584L292.172 40.5ZM288.281 37.0312L287.203 38.7158L287.215 38.7235L287.227 38.7311L288.281 37.0312ZM259.125 40.5938L257.589 39.3134L257.579 39.3243L257.571 39.3354L259.125 40.5938ZM256.781 44.7656L254.888 44.1211L253.988 46.7656H256.781V44.7656ZM243.312 50.1562C243.312 46.6877 244.019 43.3892 245.434 40.2419L241.785 38.6018C240.138 42.267 239.312 46.1248 239.312 50.1562H243.312ZM245.436 40.2357C246.852 37.0586 248.889 34.2509 251.567 31.8051L248.87 28.8512C245.799 31.6553 243.43 34.9102 241.782 38.6081L245.436 40.2357ZM251.567 31.8051C254.23 29.374 257.518 27.4044 261.469 25.919L260.062 22.1748C255.701 23.8143 251.958 26.0323 248.87 28.8512L251.567 31.8051ZM261.465 25.9207C265.391 24.4557 269.898 23.7031 275.016 23.7031V19.7031C269.508 19.7031 264.515 20.513 260.066 22.1731L261.465 25.9207ZM275.016 23.7031C280.096 23.7031 284.601 24.4695 288.559 25.9647L289.972 22.2228C285.493 20.5305 280.498 19.7031 275.016 19.7031V23.7031ZM288.575 25.9709C292.606 27.4526 295.961 29.477 298.68 32.0225L301.414 29.1025C298.258 26.148 294.426 23.8599 289.956 22.2166L288.575 25.9709ZM298.688 32.0297C301.448 34.5867 303.548 37.5852 305 41.0404L308.688 39.4909C307.014 35.5085 304.583 32.0383 301.406 29.0953L298.688 32.0297ZM305.005 41.0535C306.487 44.5108 307.234 48.2257 307.234 52.2188H311.234C311.234 47.7118 310.388 43.458 308.682 39.4778L305.005 41.0535ZM307.234 52.2188C307.234 52.7115 307.22 53.2559 307.19 53.8532L311.185 54.053C311.218 53.4004 311.234 52.7885 311.234 52.2188H307.234ZM307.188 53.9531C307.188 54.4781 307.16 54.9409 307.109 55.3457L311.078 55.8418C311.153 55.2466 311.188 54.6156 311.188 53.9531H307.188ZM309.094 53.5938H256.781V57.5938H309.094V53.5938ZM254.899 56.2687C255.594 58.2088 256.704 59.9608 258.194 61.5216L261.087 58.7597C259.952 57.5705 259.156 56.2912 258.664 54.9188L254.899 56.2687ZM258.21 61.5385C259.733 63.0963 261.594 64.4083 263.762 65.492L265.551 61.9143C263.718 60.9979 262.236 59.9349 261.071 58.7428L258.21 61.5385ZM263.762 65.492C265.939 66.5807 268.417 67.4115 271.175 68.0025L272.013 64.0913C269.521 63.5573 267.373 62.8256 265.551 61.9143L263.762 65.492ZM271.197 68.0071C273.974 68.5692 277.016 68.8438 280.312 68.8438V64.8438C277.234 64.8438 274.463 64.587 271.99 64.0866L271.197 68.0071ZM280.312 68.8438C283.638 68.8438 286.947 68.5013 290.235 67.8175L289.421 63.9013C286.397 64.53 283.362 64.8438 280.312 64.8438V68.8438ZM290.254 67.8136C293.49 67.1087 296.589 66.2259 299.55 65.1638L298.2 61.3987C295.411 62.3991 292.479 63.2351 289.402 63.9052L290.254 67.8136ZM297.046 64.0905L301.734 74.6843L305.391 73.0657L300.704 62.472L297.046 64.0905ZM302.718 72.0618C300.965 72.8779 299.183 73.603 297.371 74.2373L298.692 78.0127C300.63 77.3345 302.535 76.5596 304.407 75.6882L302.718 72.0618ZM297.389 74.2309C295.623 74.8297 293.759 75.3411 291.798 75.7636L292.64 79.6739C294.741 79.2214 296.752 78.6703 298.673 78.0191L297.389 74.2309ZM291.821 75.7588C289.893 76.1503 287.852 76.4532 285.694 76.6659L286.087 80.6466C288.367 80.4218 290.544 80.0997 292.617 79.6787L291.821 75.7588ZM285.692 76.6662C283.577 76.8776 281.331 76.9844 278.953 76.9844V80.9844C281.45 80.9844 283.829 80.8724 286.09 80.6463L285.692 76.6662ZM278.953 76.9844C272.889 76.9844 267.65 76.2524 263.203 74.8295L261.984 78.6392C266.913 80.2164 272.579 80.9844 278.953 80.9844V76.9844ZM263.203 74.8295C258.709 73.3912 255.023 71.4526 252.098 69.0486L249.558 72.1389C252.945 74.9224 257.104 77.0775 261.984 78.6392L263.203 74.8295ZM252.098 69.0486C249.162 66.6362 246.983 63.8295 245.523 60.6243L241.883 62.282C243.611 66.0768 246.181 69.3638 249.558 72.1389L252.098 69.0486ZM245.523 60.6243C244.054 57.3971 243.312 53.9156 243.312 50.1562H239.312C239.312 54.4594 240.165 58.5092 241.883 62.282L245.523 60.6243ZM296.417 44.1448C295.837 42.3706 294.935 40.7344 293.726 39.2416L290.617 41.7584C291.534 42.8906 292.194 44.0982 292.614 45.3864L296.417 44.1448ZM293.758 39.2824C292.568 37.7313 291.085 36.4165 289.335 35.3314L287.227 38.7311C288.602 39.5835 289.713 40.5812 290.585 41.7176L293.758 39.2824ZM289.359 35.3467C287.603 34.2224 285.599 33.3658 283.37 32.758L282.318 36.617C284.214 37.1342 285.835 37.8401 287.203 38.7158L289.359 35.3467ZM283.37 32.758C281.112 32.1421 278.667 31.8438 276.047 31.8438V35.8438C278.365 35.8438 280.451 36.1079 282.318 36.617L283.37 32.758ZM276.047 31.8438C273.273 31.8438 270.7 32.1574 268.344 32.8061L269.406 36.6626C271.362 36.1239 273.571 35.8438 276.047 35.8438V31.8438ZM268.344 32.8061C266.036 33.4417 263.966 34.3074 262.155 35.4217L264.251 38.8283C265.691 37.9426 267.401 37.2146 269.406 36.6626L268.344 32.8061ZM262.155 35.4217C260.367 36.5221 258.836 37.8161 257.589 39.3134L260.661 41.8741C261.601 40.7464 262.79 39.7279 264.251 38.8283L262.155 35.4217ZM257.571 39.3354C256.373 40.8147 255.47 42.4105 254.888 44.1211L258.675 45.4102C259.092 44.1833 259.752 42.9978 260.679 41.8521L257.571 39.3354ZM256.781 46.7656H294.516V42.7656H256.781V46.7656ZM329.344 56.2031L330.327 54.4616L328.7 53.5425L327.673 55.1043L329.344 56.2031ZM337.406 60.2812L336.588 62.1063L336.601 62.1119L336.613 62.1174L337.406 60.2812ZM345.938 63.3281L345.385 65.2504L345.395 65.2531L345.404 65.2557L345.938 63.3281ZM355.172 65.2031L354.903 67.1849L354.905 67.1852L355.172 65.2031ZM376.781 65.0156L377.139 66.9834L377.149 66.9816L377.158 66.9798L376.781 65.0156ZM384.328 62.625L385.245 64.4023L385.256 64.3967L384.328 62.625ZM388.594 58.9688L386.913 57.8853L386.904 57.8987L386.896 57.9121L388.594 58.9688ZM386.625 48.0938L385.473 49.729L385.481 49.7344L385.489 49.7398L386.625 48.0938ZM369.938 46.1719L370.158 48.1596L370.172 48.1581L370.186 48.1564L369.938 46.1719ZM363.094 47.0156L362.826 45.0336L362.822 45.0341L363.094 47.0156ZM356.297 47.9062L356.521 49.8937L356.533 49.8923L356.545 49.8908L356.297 47.9062ZM340.547 47.0156L340.005 48.9409L340.011 48.9424L340.547 47.0156ZM332.531 43.2188L331.352 44.8344L331.363 44.8418L332.531 43.2188ZM325.734 22.0781L323.811 21.5287L323.807 21.5429L323.803 21.5571L325.734 22.0781ZM328.359 16.4531L326.7 15.3371L326.695 15.3437L328.359 16.4531ZM333.047 11.4375L334.299 12.9967L334.307 12.9906L334.315 12.9843L333.047 11.4375ZM339.938 7.40625L339.173 5.5582L339.165 5.56137L339.938 7.40625ZM349.312 4.78125L349.661 6.75069L349.675 6.74816L349.312 4.78125ZM371.344 4.35938L371.119 6.34668L371.128 6.34773L371.137 6.34869L371.344 4.35938ZM381 5.85938L380.589 7.81669L380.593 7.8175L381 5.85938ZM390.094 8.25L389.48 10.1534L389.489 10.1564L389.498 10.1593L390.094 8.25ZM398.203 11.2969L399.961 12.2512L400.989 10.3574L399.024 9.47303L398.203 11.2969ZM391.688 23.2969L390.883 25.1279L392.567 25.868L393.445 24.2512L391.688 23.2969ZM385.031 20.8125L384.406 22.7124L384.418 22.7161L384.429 22.7197L385.031 20.8125ZM369.516 17.4844L369.268 19.4689L369.28 19.4705L369.292 19.4719L369.516 17.4844ZM350.953 17.8594L350.517 15.9075L350.512 15.9087L350.953 17.8594ZM344.672 20.1562L345.675 21.8863L345.688 21.8789L345.701 21.8712L344.672 20.1562ZM341.391 23.25L339.631 22.299L339.626 22.3077L339.622 22.3165L341.391 23.25ZM343.453 32.0156L342.291 33.6431L342.299 33.6492L342.308 33.6553L343.453 32.0156ZM358.031 33.75L358.239 35.7392L358.252 35.7378L358.265 35.7363L358.031 33.75ZM364.688 32.9531L364.449 30.9674L364.446 30.9678L364.688 32.9531ZM371.812 32.2031L371.994 34.1949L372.005 34.1939L372.017 34.1927L371.812 32.2031ZM390.328 33.2812L389.767 35.2008L389.772 35.2023L390.328 33.2812ZM398.719 37.4531L397.464 39.0106L397.471 39.016L397.477 39.0212L398.719 37.4531ZM403.828 43.9688L402.005 44.7913L402.009 44.7997L403.828 43.9688ZM402.609 63.7969L400.89 62.775L400.887 62.78L402.609 63.7969ZM394.266 72.1406L395.327 73.8358L395.331 73.8333L394.266 72.1406ZM381.234 77.2969L381.677 79.2473L381.688 79.2446L381.234 77.2969ZM352.125 78.2344L352.392 76.2523L352.385 76.2513L352.377 76.2503L352.125 78.2344ZM340.781 76.0781L340.261 78.0092L340.271 78.0119L340.28 78.0144L340.781 76.0781ZM330.469 72.6562L329.705 74.5045L329.715 74.5089L329.726 74.5132L330.469 72.6562ZM321.422 68.25L319.751 67.1511L318.582 68.928L320.427 69.9853L321.422 68.25ZM328.36 57.9446C331.069 59.4743 333.812 60.8617 336.588 62.1063L338.224 58.4562C335.563 57.2633 332.931 55.932 330.327 54.4616L328.36 57.9446ZM336.613 62.1174C339.443 63.3394 342.368 64.3836 345.385 65.2504L346.49 61.4059C343.632 60.5852 340.869 59.5981 338.199 58.4451L336.613 62.1174ZM345.404 65.2557C348.434 66.0937 351.6 66.7361 354.903 67.1849L355.441 63.2213C352.306 62.7952 349.316 62.1875 346.471 61.4005L345.404 65.2557ZM354.905 67.1852C358.253 67.6359 361.796 67.8594 365.531 67.8594V63.8594C361.954 63.8594 358.591 63.6453 355.439 63.221L354.905 67.1852ZM365.531 67.8594C370.014 67.8594 373.891 67.5739 377.139 66.9834L376.423 63.0479C373.484 63.5823 369.861 63.8594 365.531 63.8594V67.8594ZM377.158 66.9798C380.364 66.3645 383.081 65.5196 385.245 64.4022L383.411 60.8478C381.701 61.7304 379.386 62.4793 376.404 63.0515L377.158 66.9798ZM385.256 64.3967C387.436 63.2546 389.175 61.8207 390.292 60.0254L386.896 57.9121C386.263 58.9293 385.157 59.9329 383.4 60.8533L385.256 64.3967ZM390.275 60.0522C391.387 58.3264 391.953 56.4196 391.953 54.375H387.953C387.953 55.6429 387.613 56.7986 386.913 57.8853L390.275 60.0522ZM391.953 54.375C391.953 51.0498 390.511 48.3456 387.761 46.4477L385.489 49.7398C387.176 50.9044 387.953 52.3877 387.953 54.375H391.953ZM387.777 46.4585C385.057 44.5434 381.137 43.75 376.359 43.75V47.75C380.832 47.75 383.755 48.5191 385.473 49.729L387.777 46.4585ZM376.359 43.75C374.236 43.75 372.012 43.8969 369.689 44.1873L370.186 48.1564C372.363 47.8843 374.42 47.75 376.359 47.75V43.75ZM369.717 44.1841C367.45 44.4359 365.154 44.7191 362.826 45.0336L363.362 48.9976C365.659 48.6872 367.925 48.4078 370.158 48.1596L369.717 44.1841ZM362.822 45.0341C360.549 45.3456 358.291 45.6414 356.049 45.9217L356.545 49.8908C358.803 49.6086 361.076 49.3107 363.365 48.9971L362.822 45.0341ZM356.073 45.9188C353.919 46.1615 351.9 46.2812 350.016 46.2812V50.2812C352.068 50.2812 354.237 50.151 356.521 49.8937L356.073 45.9188ZM350.016 46.2812C346.908 46.2812 343.932 45.882 341.083 45.0889L340.011 48.9424C343.224 49.8368 346.561 50.2812 350.016 50.2812V46.2812ZM341.088 45.0903C338.296 44.3049 335.839 43.1361 333.7 41.5957L331.363 44.8418C333.911 46.6764 336.798 48.0389 340.005 48.9409L341.088 45.0903ZM333.71 41.6032C331.639 40.0915 329.992 38.2084 328.757 35.936L325.243 37.8453C326.758 40.6353 328.799 42.971 331.352 44.8343L333.71 41.6032ZM328.757 35.936C327.567 33.7444 326.938 31.1302 326.938 28.0312H322.938C322.938 31.6823 323.683 34.9744 325.243 37.8453L328.757 35.936ZM326.938 28.0312C326.938 26.2107 327.179 24.4014 327.665 22.5992L323.803 21.5571C323.227 23.6924 322.938 25.8518 322.938 28.0312H326.938ZM327.657 22.6276C328.161 20.8667 328.945 19.1795 330.023 17.5625L326.695 15.3437C325.398 17.2892 324.433 19.3521 323.811 21.5287L327.657 22.6276ZM330.019 17.5691C331.113 15.9427 332.532 14.4165 334.299 12.9967L331.794 9.87826C329.749 11.521 328.044 13.3385 326.7 15.3371L330.019 17.5691ZM334.315 12.9843C336.047 11.5646 338.169 10.3145 340.71 9.25113L339.165 5.56137C336.331 6.74799 333.859 8.18541 331.779 9.89072L334.315 12.9843ZM340.702 9.25428C343.262 8.19517 346.243 7.35566 349.661 6.75064L348.964 2.81186C345.32 3.45684 342.051 4.36733 339.173 5.55822L340.702 9.25428ZM349.675 6.74816C353.092 6.11859 357.015 5.79688 361.453 5.79688V1.79688C356.829 1.79688 352.658 2.13141 348.95 2.81434L349.675 6.74816ZM361.453 5.79688C364.658 5.79688 367.88 5.98 371.119 6.34668L371.569 2.37207C368.183 1.98875 364.811 1.79688 361.453 1.79688V5.79688ZM371.137 6.34869C374.384 6.68562 377.534 7.17522 380.589 7.81668L381.411 3.90207C378.216 3.23103 374.928 2.72063 371.55 2.37006L371.137 6.34869ZM380.593 7.8175C383.683 8.46002 386.645 9.239 389.48 10.1534L390.708 6.34658C387.73 5.386 384.629 4.57123 381.407 3.90125L380.593 7.8175ZM389.498 10.1593C392.336 11.0442 394.963 12.0321 397.382 13.1207L399.024 9.47303C396.443 8.31166 393.664 7.26828 390.689 6.34068L389.498 10.1593ZM396.446 10.3425L389.93 22.3425L393.445 24.2512L399.961 12.2512L396.446 10.3425ZM392.492 21.4658C390.357 20.5277 388.07 19.6748 385.634 18.9053L384.429 22.7197C386.742 23.4502 388.893 24.2535 390.883 25.1279L392.492 21.4658ZM385.656 18.9126C383.211 18.1084 380.66 17.4186 378.002 16.8423L377.154 20.7514C379.684 21.3001 382.101 21.9541 384.406 22.7124L385.656 18.9126ZM378.002 16.8423C375.339 16.2647 372.584 15.8165 369.739 15.4969L369.292 19.4719C372.01 19.7772 374.63 20.2041 377.154 20.7514L378.002 16.8423ZM369.764 15.4998C366.928 15.1454 364.033 14.9688 361.078 14.9688V18.9688C363.873 18.9688 366.603 19.1358 369.268 19.4689L369.764 15.4998ZM361.078 14.9688C356.903 14.9688 353.369 15.2701 350.517 15.9075L351.389 19.8112C353.85 19.2612 357.066 18.9688 361.078 18.9688V14.9688ZM350.512 15.9087C347.769 16.5291 345.452 17.3557 343.643 18.4413L345.701 21.8712C347.017 21.0818 348.887 20.3771 351.394 19.8101L350.512 15.9087ZM343.668 18.4262C341.902 19.4509 340.485 20.7186 339.631 22.299L343.15 24.201C343.546 23.4689 344.317 22.6741 345.675 21.8863L343.668 18.4262ZM339.622 22.3165C338.896 23.6912 338.5 25.1342 338.5 26.625H342.5C342.5 25.8658 342.697 25.0588 343.159 24.1835L339.622 22.3165ZM338.5 26.625C338.5 29.5341 339.861 31.9077 342.291 33.6431L344.616 30.3882C343.108 29.3111 342.5 28.0909 342.5 26.625H338.5ZM342.308 33.6553C344.772 35.376 348.263 36.0781 352.453 36.0781V32.0781C348.581 32.0781 346.072 31.4053 344.598 30.3759L342.308 33.6553ZM352.453 36.0781C354.164 36.0781 356.095 35.9632 358.239 35.7392L357.823 31.7608C355.78 31.9743 353.992 32.0781 352.453 32.0781V36.0781ZM358.265 35.7363C360.393 35.486 362.614 35.22 364.929 34.9385L364.446 30.9678C362.136 31.2487 359.92 31.514 357.798 31.7637L358.265 35.7363ZM364.926 34.9389C367.25 34.66 369.606 34.412 371.994 34.1949L371.631 30.2113C369.207 30.4318 366.812 30.6838 364.449 30.9674L364.926 34.9389ZM372.017 34.1927C374.391 33.9491 376.682 33.8281 378.891 33.8281V29.8281C376.536 29.8281 374.109 29.9571 371.608 30.2136L372.017 34.1927ZM378.891 33.8281C383.058 33.8281 386.675 34.2968 389.767 35.2008L390.89 31.3617C387.356 30.3282 383.348 29.8281 378.891 29.8281V33.8281ZM389.772 35.2023C392.912 36.112 395.458 37.3947 397.464 39.0106L399.973 35.8956C397.479 33.8866 394.432 32.388 390.885 31.3602L389.772 35.2023ZM397.477 39.0212C399.482 40.6083 400.983 42.5265 402.005 44.7913L405.651 43.1462C404.361 40.286 402.455 37.8604 399.96 35.885L397.477 39.0212ZM402.009 44.7997C403.031 47.0373 403.562 49.592 403.562 52.5H407.562C407.562 49.0955 406.938 45.9627 405.647 43.1378L402.009 44.7997ZM403.562 52.5C403.562 56.3943 402.658 59.8006 400.89 62.775L404.329 64.8187C406.498 61.1681 407.562 57.0432 407.562 52.5H403.562ZM400.887 62.78C399.131 65.7544 396.59 68.3151 393.2 70.4479L395.331 73.8333C399.192 71.4037 402.213 68.4019 404.332 64.8138L400.887 62.78ZM393.204 70.4455C389.835 72.5546 385.707 74.2005 380.78 75.3491L381.688 79.2446C386.949 78.0183 391.508 76.2266 395.327 73.8358L393.204 70.4455ZM380.792 75.3465C375.868 76.4641 370.348 77.0312 364.219 77.0312V81.0312C370.59 81.0312 376.413 80.4422 381.677 79.2473L380.792 75.3465ZM364.219 77.0312C360.18 77.0312 356.238 76.7712 352.392 76.2523L351.858 80.2164C355.887 80.7601 360.008 81.0312 364.219 81.0312V77.0312ZM352.377 76.2503C348.518 75.7603 344.82 75.0569 341.282 74.1418L340.28 78.0144C343.992 78.9743 347.857 79.7084 351.873 80.2184L352.377 76.2503ZM341.302 74.1471C337.78 73.1976 334.416 72.0813 331.212 70.7993L329.726 74.5132C333.084 75.8562 336.595 77.0212 340.261 78.0092L341.302 74.1471ZM331.233 70.808C328.054 69.4938 325.117 68.0621 322.416 66.5147L320.427 69.9853C323.29 71.6254 326.383 73.1312 329.705 74.5045L331.233 70.808ZM323.093 69.3489L331.015 57.302L327.673 55.1043L319.751 67.1511L323.093 69.3489ZM419.062 39.1406L417.222 38.3587L417.218 38.3667L419.062 39.1406ZM425.578 30L426.917 31.4858L426.918 31.485L425.578 30ZM436.078 23.9062L435.412 22.0205L435.407 22.0221L436.078 23.9062ZM464.016 23.3438L463.537 25.2857L463.554 25.2897L463.57 25.2935L464.016 23.3438ZM470.156 25.1719L469.451 27.0433L469.464 27.0484L469.478 27.0533L470.156 25.1719ZM475.125 27.4688L476.829 28.5157L477.887 26.7936L476.154 25.7538L475.125 27.4688ZM468.703 37.9219L467.861 39.7361L469.476 40.485L470.407 38.9688L468.703 37.9219ZM460.078 34.8281L459.604 36.771L459.609 36.7723L460.078 34.8281ZM443.297 35.1094L443.908 37.0137L443.919 37.0103L443.929 37.0067L443.297 35.1094ZM436.828 38.5781L438.114 40.1101L438.116 40.1079L436.828 38.5781ZM432.797 43.8281L430.981 42.99L430.975 43.0027L432.797 43.8281ZM432.891 57L431.085 57.8609L431.093 57.8778L431.102 57.8944L432.891 57ZM437.062 62.2031L435.79 63.7462L435.805 63.7583L435.82 63.7701L437.062 62.2031ZM443.578 65.625L442.946 67.5224L442.96 67.527L442.974 67.5315L443.578 65.625ZM461.812 65.3906L461.209 63.4837L461.204 63.4855L461.812 65.3906ZM470.344 61.5L472.048 60.4531L470.997 58.7432L469.291 59.7995L470.344 61.5ZM476.766 71.9531L477.799 73.6653L479.525 72.6235L478.47 70.9062L476.766 71.9531ZM471.375 74.7656L472.174 76.5993L472.186 76.5939L472.198 76.5884L471.375 74.7656ZM465.141 76.9688L464.598 75.0437L464.591 75.0457L465.141 76.9688ZM458.203 78.4219L457.924 76.4415L457.909 76.4435L457.895 76.4457L458.203 78.4219ZM425.859 70.875L424.537 72.3752L424.546 72.3832L425.859 70.875ZM419.156 61.8281L417.327 62.6358L417.33 62.6427L417.333 62.6495L419.156 61.8281ZM418.859 50.4844C418.859 46.6687 419.548 43.1526 420.907 39.9145L417.218 38.3667C415.64 42.1286 414.859 46.175 414.859 50.4844H418.859ZM420.903 39.9226C422.29 36.6591 424.29 33.8526 426.917 31.4858L424.239 28.5142C421.178 31.2724 418.835 34.5597 417.222 38.3587L420.903 39.9226ZM426.918 31.485C429.574 29.0883 432.839 27.1827 436.749 25.7904L435.407 22.0221C431.067 23.5673 427.332 25.7242 424.238 28.515L426.918 31.485ZM436.745 25.792C440.648 24.4126 445.151 23.7031 450.281 23.7031V19.7031C444.787 19.7031 439.821 20.4624 435.412 22.0205L436.745 25.792ZM450.281 23.7031C452.512 23.7031 454.761 23.8388 457.027 24.1108L457.504 20.1392C455.083 19.8487 452.675 19.7031 450.281 19.7031V23.7031ZM457.027 24.1108C459.295 24.3829 461.465 24.7751 463.537 25.2857L464.494 21.4018C462.254 20.8499 459.924 20.4296 457.504 20.1392L457.027 24.1108ZM463.57 25.2935C465.678 25.7753 467.637 26.3595 469.451 27.0433L470.862 23.3005C468.863 22.5467 466.728 21.9122 464.461 21.394L463.57 25.2935ZM469.478 27.0533C471.289 27.7066 472.823 28.4201 474.096 29.1837L476.154 25.7538C474.614 24.8299 472.836 24.0121 470.835 23.2905L469.478 27.0533ZM473.421 26.4218L466.999 36.875L470.407 38.9688L476.829 28.5157L473.421 26.4218ZM469.545 36.1076C466.416 34.6562 463.416 33.5764 460.547 32.884L459.609 36.7723C462.178 37.3923 464.927 38.375 467.861 39.7361L469.545 36.1076ZM460.553 32.8852C457.709 32.1908 454.815 31.8438 451.875 31.8438V35.8438C454.497 35.8438 457.072 36.1529 459.604 36.771L460.553 32.8852ZM451.875 31.8438C448.513 31.8438 445.435 32.2885 442.664 33.212L443.929 37.0067C446.221 36.2427 448.862 35.8438 451.875 35.8438V31.8438ZM442.686 33.2051C439.941 34.086 437.546 35.3585 435.54 37.0483L438.116 40.1079C439.672 38.7977 441.59 37.7578 443.908 37.0137L442.686 33.2051ZM435.542 37.0462C433.572 38.7002 432.045 40.6855 430.981 42.99L434.613 44.6662C435.424 42.9083 436.585 41.3936 438.114 40.1101L435.542 37.0462ZM430.975 43.0027C429.942 45.2826 429.438 47.7545 429.438 50.3906H433.438C433.438 48.2768 433.839 46.3736 434.619 44.6536L430.975 43.0027ZM429.438 50.3906C429.438 53.0466 429.981 55.546 431.085 57.8609L434.696 56.1391C433.862 54.3915 433.438 52.4846 433.438 50.3906H429.438ZM431.102 57.8944C432.231 60.1525 433.8 62.1056 435.79 63.7462L438.335 60.66C436.762 59.3631 435.55 57.8475 434.679 56.1056L431.102 57.8944ZM435.82 63.7701C437.841 65.3728 440.227 66.616 442.946 67.5224L444.211 63.7276C441.867 62.9465 439.909 61.9084 438.305 60.6361L435.82 63.7701ZM442.974 67.5315C445.76 68.4151 448.812 68.8438 452.109 68.8438V64.8438C449.157 64.8438 446.521 64.4599 444.183 63.7185L442.974 67.5315ZM452.109 68.8438C455.737 68.8438 459.178 68.3322 462.421 67.2957L461.204 63.4855C458.384 64.3866 455.357 64.8438 452.109 64.8438V68.8438ZM462.416 67.2975C465.63 66.2809 468.625 64.9161 471.396 63.2005L469.291 59.7995C466.812 61.3339 464.12 62.5629 461.209 63.4838L462.416 67.2975ZM468.64 62.5469L475.062 73L478.47 70.9062L472.048 60.4531L468.64 62.5469ZM475.732 70.241C474.15 71.1962 472.424 72.0974 470.552 72.9429L472.198 76.5884C474.201 75.6839 476.069 74.7101 477.799 73.6653L475.732 70.241ZM470.576 72.932C468.729 73.7364 466.737 74.4411 464.598 75.0437L465.683 78.8938C467.981 78.2464 470.146 77.4824 472.174 76.5993L470.576 72.932ZM464.591 75.0457C462.499 75.6434 460.277 76.1096 457.924 76.4415L458.482 80.4023C461.004 80.0467 463.407 79.5441 465.69 78.8918L464.591 75.0457ZM457.895 76.4457C455.597 76.8039 453.2 76.9844 450.703 76.9844V80.9844C453.393 80.9844 455.997 80.7899 458.511 80.398L457.895 76.4457ZM450.703 76.9844C445.601 76.9844 441.092 76.2899 437.149 74.9365L435.851 78.7198C440.283 80.2413 445.242 80.9844 450.703 80.9844V76.9844ZM437.149 74.9365C433.17 73.5704 429.858 71.7053 427.173 69.3668L424.546 72.3832C427.673 75.1072 431.455 77.2108 435.851 78.7198L437.149 74.9365ZM427.182 69.3749C424.485 66.9968 422.423 64.2113 420.98 61.0067L417.333 62.6495C419.014 66.3824 421.421 69.6282 424.537 72.3751L427.182 69.3749ZM420.986 61.0204C419.576 57.8259 418.859 54.3224 418.859 50.4844H414.859C414.859 54.8338 415.674 58.8929 417.327 62.6358L420.986 61.0204ZM491.719 22.6875V20.6875H489.719V22.6875H491.719ZM505.594 22.6875H507.594V20.6875H505.594V22.6875ZM505.594 30.6562H503.594V34.6399L506.789 32.2602L505.594 30.6562ZM525.469 20.9531L527.373 20.3418L526.796 18.543L524.967 19.0171L525.469 20.9531ZM529.547 33.6562L529.745 35.6464L532.208 35.4016L531.451 33.0449L529.547 33.6562ZM515.438 37.2656L516.269 39.0844L516.276 39.0815L515.438 37.2656ZM505.594 45.0938L503.994 43.8937L503.594 44.4271V45.0938H505.594ZM505.594 78V80H507.594V78H505.594ZM491.719 78H489.719V80H491.719V78ZM491.719 24.6875H505.594V20.6875H491.719V24.6875ZM503.594 22.6875V30.6562H507.594V22.6875H503.594ZM506.789 32.2602C509.751 30.0531 512.879 28.1497 516.171 26.5486L514.422 22.9514C510.903 24.6628 507.561 26.6969 504.399 29.0523L506.789 32.2602ZM516.171 26.5486C519.469 24.9455 522.735 23.7281 525.971 22.8891L524.967 19.0171C521.453 19.9282 517.938 21.242 514.422 22.9514L516.171 26.5486ZM523.564 21.5645L527.643 34.2676L531.451 33.0449L527.373 20.3418L523.564 21.5645ZM529.349 31.6661C523.827 32.2151 518.9 33.4648 514.599 35.4497L516.276 39.0815C520.1 37.3164 524.58 36.1599 529.745 35.6464L529.349 31.6661ZM514.606 35.4468C510.287 37.4222 506.736 40.2379 503.994 43.8937L507.194 46.2938C509.514 43.1996 512.526 40.7966 516.269 39.0844L514.606 35.4468ZM503.594 45.0938V78H507.594V45.0938H503.594ZM505.594 76H491.719V80H505.594V76ZM493.719 78V22.6875H489.719V78H493.719ZM543.469 14.5781L542.772 16.453L542.804 16.4648L542.836 16.4755L543.469 14.5781ZM540.656 12.9844L539.335 14.4858L539.352 14.501L539.37 14.5158L540.656 12.9844ZM538.828 10.6406L537.003 11.4587L537.02 11.4973L537.039 11.5351L538.828 10.6406ZM538.828 4.92188L537.027 4.05238L537.02 4.06597L537.014 4.07965L538.828 4.92188ZM543.469 1.03125L544.117 2.92314L544.133 2.91787L544.148 2.91236L543.469 1.03125ZM550.969 1.03125L550.272 2.9061L550.304 2.9179L550.336 2.92862L550.969 1.03125ZM555.609 4.92188L553.784 5.73999L553.802 5.77853L553.821 5.8163L555.609 4.92188ZM555.609 10.6406L553.808 9.77113L553.802 9.78472L553.795 9.7984L555.609 10.6406ZM553.828 12.9844L555.115 14.5158L555.132 14.501L555.149 14.4858L553.828 12.9844ZM550.969 14.5781L551.617 16.47L551.633 16.4647L551.648 16.4592L550.969 14.5781ZM540.281 22.6875V20.6875H538.281V22.6875H540.281ZM554.156 22.6875H556.156V20.6875H554.156V22.6875ZM554.156 78V80H556.156V78H554.156ZM540.281 78H538.281V80H540.281V78ZM547.219 13.1406C546.025 13.1406 544.993 12.9779 544.101 12.6808L542.836 16.4755C544.195 16.9283 545.662 17.1406 547.219 17.1406V13.1406ZM544.165 12.7033C543.256 12.3655 542.525 11.9423 541.943 11.453L539.37 14.5158C540.35 15.339 541.494 15.9782 542.772 16.453L544.165 12.7033ZM541.978 11.4829C541.377 10.9548 540.932 10.3762 540.617 9.7462L537.039 11.5351C537.599 12.6551 538.373 13.639 539.335 14.4858L541.978 11.4829ZM540.653 9.82251C540.363 9.17541 540.219 8.50127 540.219 7.78125H536.219C536.219 9.06123 536.481 10.2933 537.003 11.4587L540.653 9.82251ZM540.219 7.78125C540.219 7.02049 540.367 6.35729 540.642 5.7641L537.014 4.07965C536.477 5.23646 536.219 6.47951 536.219 7.78125H540.219ZM540.629 5.79137C540.942 5.14327 541.375 4.5866 541.943 4.10953L539.37 1.04672C538.375 1.88215 537.589 2.88798 537.027 4.05238L540.629 5.79137ZM541.943 4.10953C542.512 3.63135 543.226 3.22883 544.117 2.92314L542.82 -0.860642C541.524 -0.416326 540.363 0.2124 539.37 1.04672L541.943 4.10953ZM544.148 2.91236C545.025 2.59558 546.041 2.42188 547.219 2.42188V-1.57812C545.646 -1.57812 544.162 -1.34558 542.789 -0.849858L544.148 2.91236ZM547.219 2.42188C548.435 2.42188 549.442 2.59766 550.272 2.9061L551.665 -0.843601C550.308 -1.34766 548.815 -1.57812 547.219 -1.57812V2.42188ZM550.336 2.92862C551.26 3.23667 551.982 3.63943 552.542 4.10953L555.115 1.04672C554.112 0.204319 552.927 -0.424167 551.601 -0.866117L550.336 2.92862ZM552.542 4.10953C553.098 4.57718 553.505 5.11676 553.784 5.73999L557.434 4.10376C556.901 2.91449 556.12 1.89157 555.115 1.04672L552.542 4.10953ZM553.821 5.8163C554.112 6.39854 554.266 7.04322 554.266 7.78125H558.266C558.266 6.45678 557.982 5.19521 557.398 4.02745L553.821 5.8163ZM554.266 7.78125C554.266 8.47817 554.116 9.13426 553.808 9.77113L557.41 11.5101C557.978 10.3345 558.266 9.08433 558.266 7.78125H554.266ZM553.795 9.7984C553.515 10.4026 553.097 10.964 552.507 11.4829L555.149 14.4858C556.122 13.6297 556.891 12.6287 557.423 11.4828L553.795 9.7984ZM552.542 11.453C551.969 11.9342 551.23 12.3572 550.289 12.697L551.648 16.4592C552.957 15.9865 554.125 15.347 555.115 14.5158L552.542 11.453ZM550.32 12.6862C549.475 12.9761 548.45 13.1406 547.219 13.1406V17.1406C548.8 17.1406 550.275 16.9302 551.617 16.47L550.32 12.6862ZM540.281 24.6875H554.156V20.6875H540.281V24.6875ZM552.156 22.6875V78H556.156V22.6875H552.156ZM554.156 76H540.281V80H554.156V76ZM542.281 78V22.6875H538.281V78H542.281ZM585.469 100.594V102.594H587.469V100.594H585.469ZM571.594 100.594H569.594V102.594H571.594V100.594ZM571.594 22.6875V20.6875H569.594V22.6875H571.594ZM585.469 22.6875H587.469V20.6875H585.469V22.6875ZM585.469 27.8906H583.469V31.7078L586.607 29.535L585.469 27.8906ZM601.031 22.2188L601.335 24.1955L601.35 24.1932L601.365 24.1907L601.031 22.2188ZM620.016 23.7656L619.352 25.6522L619.356 25.6538L620.016 23.7656ZM636.703 38.5781L634.877 39.3934L634.881 39.4033L634.886 39.4131L636.703 38.5781ZM636.609 62.0625L638.42 62.9118L638.423 62.9057L636.609 62.0625ZM629.719 71.1562L631.023 72.6725L631.024 72.6713L629.719 71.1562ZM619.312 76.9688L619.949 78.8647L619.958 78.8617L619.312 76.9688ZM600.328 78.6094L600.072 80.5929L600.076 80.5934L600.328 78.6094ZM594.703 77.5781L594.226 79.5204L594.234 79.5223L594.703 77.5781ZM589.641 76.0312L588.898 77.8882L588.92 77.8971L588.942 77.9054L589.641 76.0312ZM585.469 74.0156L586.485 72.2929L583.469 70.5142V74.0156H585.469ZM585.469 60.6094H583.469V61.5706L584.219 62.1711L585.469 60.6094ZM599.625 66.5156L599.326 68.4932L599.345 68.496L599.363 68.4984L599.625 66.5156ZM612.938 65.5781L613.584 67.4706L613.591 67.4683L613.598 67.4658L612.938 65.5781ZM619.219 62.0156L617.904 60.5088L617.897 60.5148L617.89 60.5208L619.219 62.0156ZM623.156 43.8281L621.329 44.6404L621.334 44.6524L621.339 44.6644L623.156 43.8281ZM619.312 38.6719L617.97 40.1543L617.985 40.1675L617.999 40.1805L619.312 38.6719ZM613.266 35.1562L612.566 37.0299L612.581 37.0355L612.596 37.0409L613.266 35.1562ZM599.719 34.4062L600.079 36.3735L600.095 36.3706L600.111 36.3674L599.719 34.4062ZM594.281 35.9062L593.579 34.0336L593.568 34.0378L594.281 35.9062ZM589.406 38.2969L588.362 36.5912L588.354 36.596L588.346 36.6009L589.406 38.2969ZM585.469 41.4375L584.035 40.0428L583.469 40.6251V41.4375H585.469ZM585.469 98.5938H571.594V102.594H585.469V98.5938ZM573.594 100.594V22.6875H569.594V100.594H573.594ZM571.594 24.6875H585.469V20.6875H571.594V24.6875ZM583.469 22.6875V27.8906H587.469V22.6875H583.469ZM586.607 29.535C587.708 28.773 589.036 28.033 590.606 27.3219L588.956 23.6781C587.214 24.467 585.667 25.3207 584.33 26.2462L586.607 29.535ZM590.606 27.3219C592.171 26.6133 593.865 25.9883 595.691 25.4495L594.559 21.613C592.572 22.1992 590.704 22.8867 588.956 23.6781L590.606 27.3219ZM595.691 25.4495C597.509 24.9132 599.39 24.4948 601.335 24.1955L600.727 20.242C598.61 20.5677 596.554 21.0243 594.559 21.613L595.691 25.4495ZM601.365 24.1907C603.288 23.8654 605.207 23.7031 607.125 23.7031V19.7031C604.98 19.7031 602.837 19.8846 600.698 20.2468L601.365 24.1907ZM607.125 23.7031C611.616 23.7031 615.685 24.3615 619.352 25.6522L620.68 21.8791C616.534 20.4198 612.009 19.7031 607.125 19.7031V23.7031ZM619.356 25.6538C623.074 26.952 626.215 28.7644 628.812 31.0729L631.469 28.0833C628.441 25.3918 624.832 23.3292 620.675 21.8774L619.356 25.6538ZM628.812 31.0729C631.408 33.3807 633.428 36.1477 634.877 39.3934L638.529 37.7628C636.853 34.0085 634.498 30.7755 631.469 28.0833L628.812 31.0729ZM634.886 39.4131C636.347 42.5935 637.094 46.1483 637.094 50.1094H641.094C641.094 45.6329 640.247 41.5002 638.52 37.7431L634.886 39.4131ZM637.094 50.1094C637.094 54.2599 636.315 57.9514 634.796 61.2193L638.423 62.9057C640.216 59.0486 641.094 54.7713 641.094 50.1094H637.094ZM634.799 61.2132C633.261 64.491 631.136 67.2949 628.413 69.6412L631.024 72.6713C634.176 69.9551 636.645 66.6965 638.42 62.9118L634.799 61.2132ZM628.414 69.64C625.722 71.9561 622.483 73.7741 618.667 75.0758L619.958 78.8617C624.204 77.4134 627.903 75.3564 631.023 72.6725L628.414 69.64ZM618.676 75.0729C614.902 76.3405 610.776 76.9844 606.281 76.9844V80.9844C611.161 80.9844 615.723 80.2845 619.949 78.8646L618.676 75.0729ZM606.281 76.9844C604.365 76.9844 602.465 76.8646 600.58 76.6253L600.076 80.5934C602.129 80.8541 604.198 80.9844 606.281 80.9844V76.9844ZM600.584 76.6258C598.715 76.3846 596.911 76.0537 595.172 75.634L594.234 79.5223C596.12 79.9776 598.066 80.3341 600.072 80.5929L600.584 76.6258ZM595.18 75.6359C593.468 75.2153 591.855 74.7219 590.339 74.1571L588.942 77.9054C590.614 78.5281 592.376 79.0659 594.226 79.5204L595.18 75.6359ZM590.383 74.1743C588.898 73.5802 587.601 72.9514 586.485 72.2929L584.453 75.7384C585.774 76.5173 587.258 77.2323 588.898 77.8882L590.383 74.1743ZM583.469 74.0156V100.594H587.469V74.0156H583.469ZM584.219 62.1711C585.732 63.3814 587.335 64.4114 589.027 65.2576L590.816 61.6799C589.384 60.9636 588.018 60.0874 586.718 59.0476L584.219 62.1711ZM589.027 65.2576C590.686 66.0868 592.382 66.7689 594.115 67.3022L595.291 63.4791C593.774 63.0123 592.283 62.4132 590.816 61.6799L589.027 65.2576ZM594.115 67.3022C595.833 67.8309 597.571 68.2282 599.326 68.4932L599.924 64.538C598.367 64.303 596.823 63.9503 595.291 63.4791L594.115 67.3022ZM599.363 68.4984C601.1 68.7278 602.797 68.8438 604.453 68.8438V64.8438C602.984 64.8438 601.462 64.7409 599.887 64.5328L599.363 68.4984ZM604.453 68.8438C607.814 68.8438 610.867 68.3993 613.584 67.4706L612.291 63.6856C610.07 64.4444 607.468 64.8438 604.453 64.8438V68.8438ZM613.598 67.4658C616.302 66.5194 618.634 65.211 620.547 63.5104L617.89 60.5208C616.428 61.8203 614.573 62.8869 612.277 63.6904L613.598 67.4658ZM620.534 63.5225C622.465 61.8367 623.955 59.8368 624.983 57.5336L621.33 55.9039C620.545 57.6632 619.41 59.1946 617.904 60.5088L620.534 63.5225ZM624.983 57.5336C626.011 55.2289 626.516 52.7458 626.516 50.1094H622.516C622.516 52.2229 622.114 54.1461 621.33 55.9039L624.983 57.5336ZM626.516 50.1094C626.516 47.609 626.003 45.2292 624.973 42.9918L621.339 44.6644C622.122 46.3646 622.516 48.1723 622.516 50.1094H626.516ZM624.984 43.0158C623.986 40.7699 622.525 38.8162 620.626 37.1633L617.999 40.1805C619.475 41.465 620.577 42.9489 621.329 44.6404L624.984 43.0158ZM620.655 37.1895C618.78 35.491 616.527 34.1925 613.935 33.2716L612.596 37.0409C614.754 37.8075 616.533 38.8527 617.97 40.1543L620.655 37.1895ZM613.965 33.2826C611.362 32.3109 608.479 31.8438 605.344 31.8438V35.8438C608.083 35.8438 610.481 36.2516 612.566 37.0299L613.965 33.2826ZM605.344 31.8438C603.334 31.8438 601.328 32.0448 599.327 32.4451L600.111 36.3674C601.859 36.0177 603.603 35.8438 605.344 35.8438V31.8438ZM599.358 32.439C597.369 32.8037 595.442 33.335 593.579 34.0336L594.983 37.7789C596.62 37.165 598.319 36.6963 600.079 36.3735L599.358 32.439ZM593.568 34.0378C591.737 34.7369 590.001 35.5878 588.362 36.5912L590.451 40.0026C591.874 39.131 593.388 38.3881 594.995 37.7747L593.568 34.0378ZM588.346 36.6009C586.723 37.6154 585.282 38.761 584.035 40.0428L586.902 42.8322C587.905 41.8015 589.089 40.8534 590.466 39.9929L588.346 36.6009ZM583.469 41.4375V60.6094H587.469V41.4375H583.469ZM660.562 33.0938H662.562V31.0938H660.562V33.0938ZM647.203 33.0938H645.203V35.0938H647.203V33.0938ZM647.203 22.6875V20.6875H645.203V22.6875H647.203ZM660.562 22.6875V24.6875H662.562V22.6875H660.562ZM660.562 5.48438V3.48438H658.562V5.48438H660.562ZM674.438 5.48438H676.438V3.48438H674.438V5.48438ZM674.438 22.6875H672.438V24.6875H674.438V22.6875ZM687.797 22.6875H689.797V20.6875H687.797V22.6875ZM687.797 33.0938V35.0938H689.797V33.0938H687.797ZM674.438 33.0938V31.0938H672.438V33.0938H674.438ZM674.438 78V80H676.438V78H674.438ZM660.562 78H658.562V80H660.562V78ZM660.562 31.0938H647.203V35.0938H660.562V31.0938ZM649.203 33.0938V22.6875H645.203V33.0938H649.203ZM647.203 24.6875H660.562V20.6875H647.203V24.6875ZM662.562 22.6875V5.48438H658.562V22.6875H662.562ZM660.562 7.48438H674.438V3.48438H660.562V7.48438ZM672.438 5.48438V22.6875H676.438V5.48438H672.438ZM674.438 24.6875H687.797V20.6875H674.438V24.6875ZM685.797 22.6875V33.0938H689.797V22.6875H685.797ZM687.797 31.0938H674.438V35.0938H687.797V31.0938ZM672.438 33.0938V78H676.438V33.0938H672.438ZM674.438 76H660.562V80H674.438V76ZM662.562 78V33.0938H658.562V78H662.562Z" fill="white"/>
</svg>
