<svg width="479" height="118" viewBox="0 0 479 118" fill="none" xmlns="http://www.w3.org/2000/svg">
<path d="M0.264001 92V3.936H9.608V92H0.264001ZM57.992 92V3.936H67.336V92H57.992ZM6.408 50.784V42.208H60.552V50.784H6.408ZM111.521 93.28C106.657 93.28 102.305 92.1707 98.465 89.952C94.625 87.648 91.5957 84.5333 89.377 80.608C87.2437 76.6827 86.177 72.0747 86.177 66.784V31.84H95.265V66.4C95.265 70.0693 95.905 73.2693 97.185 76C98.5503 78.7307 100.47 80.864 102.945 82.4C105.42 83.936 108.278 84.704 111.521 84.704C116.556 84.704 120.524 83.04 123.425 79.712C126.412 76.384 127.905 71.9467 127.905 66.4V31.84H136.865V66.784C136.865 71.9893 135.798 76.5973 133.665 80.608C131.532 84.6187 128.545 87.7333 124.705 89.952C120.865 92.1707 116.47 93.28 111.521 93.28ZM172.02 93.28C168.777 93.28 165.663 92.8533 162.676 92C159.689 91.0613 156.959 89.7813 154.484 88.16C152.095 86.5387 150.004 84.6187 148.212 82.4L153.972 76.512C156.361 79.4133 159.049 81.5893 162.036 83.04C165.108 84.4053 168.521 85.088 172.276 85.088C176.287 85.088 179.401 84.32 181.62 82.784C183.924 81.248 185.076 79.1147 185.076 76.384C185.076 73.824 184.265 71.8187 182.644 70.368C181.023 68.9173 178.932 67.7653 176.372 66.912C173.897 66.0587 171.252 65.248 168.436 64.48C165.62 63.6267 162.932 62.6027 160.372 61.408C157.812 60.128 155.721 58.3787 154.1 56.16C152.564 53.9413 151.796 51.04 151.796 47.456C151.796 44.0427 152.607 41.0987 154.228 38.624C155.935 36.064 158.324 34.1013 161.396 32.736C164.553 31.2853 168.265 30.56 172.532 30.56C177.055 30.56 181.151 31.3707 184.82 32.992C188.489 34.6133 191.433 37.0027 193.652 40.16L187.892 45.92C186.1 43.616 183.839 41.8667 181.108 40.672C178.463 39.392 175.476 38.752 172.148 38.752C168.308 38.752 165.364 39.52 163.316 41.056C161.353 42.5067 160.372 44.4267 160.372 46.816C160.372 49.12 161.183 50.9547 162.804 52.32C164.425 53.6 166.473 54.6667 168.948 55.52C171.508 56.288 174.196 57.0987 177.012 57.952C179.828 58.72 182.516 59.7867 185.076 61.152C187.636 62.432 189.684 64.224 191.22 66.528C192.841 68.7467 193.652 71.776 193.652 75.616C193.652 80.992 191.689 85.3013 187.764 88.544C183.924 91.7013 178.676 93.28 172.02 93.28ZM233.95 93.28C228.318 93.28 223.241 91.9147 218.718 89.184C214.195 86.368 210.611 82.6133 207.966 77.92C205.321 73.2267 203.998 67.936 203.998 62.048C203.998 56.0747 205.321 50.7413 207.966 46.048C210.611 41.2693 214.153 37.5147 218.59 34.784C223.113 31.968 228.19 30.56 233.822 30.56C238.43 30.56 242.526 31.4987 246.11 33.376C249.779 35.168 252.766 37.728 255.07 41.056C257.374 44.2987 258.739 48.096 259.166 52.448V71.264C258.654 75.616 257.246 79.456 254.942 82.784C252.723 86.112 249.822 88.7147 246.238 90.592C242.654 92.384 238.558 93.28 233.95 93.28ZM235.358 84.704C241.673 84.704 246.707 82.6133 250.462 78.432C254.217 74.2507 256.094 68.7467 256.094 61.92C256.094 57.3973 255.241 53.4293 253.534 50.016C251.827 46.5173 249.395 43.8293 246.238 41.952C243.081 39.9893 239.411 39.008 235.23 39.008C230.963 39.008 227.166 39.9893 223.838 41.952C220.595 43.9147 218.035 46.6453 216.158 50.144C214.281 53.5573 213.342 57.4827 213.342 61.92C213.342 66.3573 214.281 70.2827 216.158 73.696C218.035 77.1093 220.638 79.7973 223.966 81.76C227.294 83.7227 231.091 84.704 235.358 84.704ZM255.582 117.344V76.512L257.374 61.792L255.582 47.2V31.84H264.67V117.344H255.582Z" fill="black"/>
<path d="M313.817 93.28C309.209 93.28 305.07 92.3413 301.401 90.464C297.732 88.5867 294.702 86.0267 292.313 82.784C290.009 79.456 288.601 75.616 288.089 71.264V52.448C288.601 48.0107 290.052 44.1707 292.441 40.928C294.83 37.6 297.86 35.04 301.529 33.248C305.284 31.456 309.38 30.56 313.817 30.56C319.364 30.56 324.356 31.968 328.793 34.784C333.23 37.5147 336.729 41.2693 339.289 46.048C341.934 50.7413 343.257 56.0747 343.257 62.048C343.257 67.936 341.977 73.2267 339.417 77.92C336.857 82.6133 333.316 86.368 328.793 89.184C324.356 91.9147 319.364 93.28 313.817 93.28ZM312.281 84.704C316.548 84.704 320.302 83.7653 323.545 81.888C326.788 79.9253 329.305 77.2373 331.097 73.824C332.974 70.3253 333.913 66.3573 333.913 61.92C333.913 57.3973 332.974 53.4293 331.097 50.016C329.305 46.6027 326.788 43.9147 323.545 41.952C320.302 39.9893 316.59 39.008 312.409 39.008C308.228 39.008 304.516 39.9893 301.273 41.952C298.116 43.9147 295.641 46.6027 293.849 50.016C292.057 53.4293 291.161 57.3973 291.161 61.92C291.161 66.3573 292.057 70.3253 293.849 73.824C295.641 77.2373 298.116 79.9253 301.273 81.888C304.43 83.7653 308.1 84.704 312.281 84.704ZM282.713 117.344V31.84H291.673V47.2L289.881 61.792L291.673 76.512V117.344H282.713ZM383.188 93.28C377.641 93.28 372.649 91.9147 368.212 89.184C363.775 86.4533 360.233 82.7413 357.588 78.048C355.028 73.2693 353.748 67.936 353.748 62.048C353.748 56.0747 355.028 50.7413 357.588 46.048C360.233 41.2693 363.775 37.5147 368.212 34.784C372.649 31.968 377.641 30.56 383.188 30.56C387.711 30.56 391.807 31.456 395.476 33.248C399.145 35.04 402.175 37.6 404.564 40.928C407.039 44.1707 408.489 48.0107 408.916 52.448V71.264C408.404 75.616 406.953 79.456 404.564 82.784C402.26 86.0267 399.273 88.5867 395.604 90.464C391.935 92.3413 387.796 93.28 383.188 93.28ZM384.724 84.704C388.905 84.704 392.575 83.7653 395.732 81.888C398.889 79.9253 401.364 77.2373 403.156 73.824C404.948 70.3253 405.844 66.3573 405.844 61.92C405.844 57.3973 404.905 53.4293 403.028 50.016C401.236 46.6027 398.761 43.9147 395.604 41.952C392.447 39.9893 388.777 39.008 384.596 39.008C380.415 39.008 376.703 39.9893 373.46 41.952C370.217 43.9147 367.657 46.6453 365.78 50.144C363.988 53.5573 363.092 57.4827 363.092 61.92C363.092 66.3573 363.988 70.3253 365.78 73.824C367.657 77.2373 370.217 79.9253 373.46 81.888C376.788 83.7653 380.543 84.704 384.724 84.704ZM414.292 92H405.332V75.872L407.124 61.024L405.332 46.56V1.376H414.292V92ZM441.295 92V21.6C441.295 17.4187 442.191 13.7067 443.983 10.464C445.86 7.22133 448.42 4.704 451.663 2.91199C454.991 1.03466 458.746 0.095993 462.927 0.095993C466.17 0.095993 469.028 0.693326 471.503 1.88799C473.978 2.99733 476.239 4.57599 478.287 6.62399L472.399 12.512C471.034 11.1467 469.583 10.1653 468.047 9.56799C466.596 8.88533 464.89 8.544 462.927 8.544C458.916 8.544 455.802 9.73867 453.583 12.128C451.45 14.432 450.383 17.6747 450.383 21.856V92H441.295ZM426.191 39.904V31.84H470.479V39.904H426.191Z" fill="#2BBC3A"/>
</svg>
