<svg width="138" height="648" viewBox="0 0 138 648" fill="none" xmlns="http://www.w3.org/2000/svg">
<path d="M131.688 46.1875H132.688V45.5523L132.113 45.2823L131.688 46.1875ZM131.688 67.1875L132.123 68.0877L132.688 67.8146V67.1875H131.688ZM34 114.438H33L33 116.032L34.4354 115.338L34 114.438ZM34 93.625L33.5707 92.7218L33 92.9931V93.625H34ZM50.4375 85.8125L50.8668 86.7157L51.4375 86.4444V85.8125H50.4375ZM50.4375 28.75H51.4375V28.1093L50.8555 27.8415L50.4375 28.75ZM34 21.1875H33V21.8282L33.582 22.096L34 21.1875ZM34 0.3125L34.4251 -0.59266L33 -1.26189V0.3125H34ZM66.75 78H65.75V79.5836L67.1798 78.9029L66.75 78ZM111.125 56.875L111.555 57.7779L113.477 56.8628L111.545 55.9677L111.125 56.875ZM66.75 36.3125L67.1704 35.4052L65.75 34.747V36.3125H66.75ZM130.688 46.1875V67.1875H132.688V46.1875H130.688ZM131.252 66.2873L33.5646 113.537L34.4354 115.338L132.123 68.0877L131.252 66.2873ZM35 114.438V93.625H33V114.438H35ZM34.4293 94.5282L50.8668 86.7157L50.0082 84.9093L33.5707 92.7218L34.4293 94.5282ZM51.4375 85.8125V28.75H49.4375V85.8125H51.4375ZM50.8555 27.8415L34.418 20.279L33.582 22.096L50.0195 29.6585L50.8555 27.8415ZM35 21.1875V0.3125H33V21.1875H35ZM33.5749 1.21766L131.262 47.0927L132.113 45.2823L34.4251 -0.59266L33.5749 1.21766ZM67.1798 78.9029L111.555 57.7779L110.695 55.9721L66.3202 77.0971L67.1798 78.9029ZM111.545 55.9677L67.1704 35.4052L66.3296 37.2198L110.705 57.7823L111.545 55.9677ZM65.75 36.3125V78H67.75V36.3125H65.75ZM107.75 127.312H108.75V126.312H107.75V127.312ZM107.75 145.812V146.812H108.75V145.812H107.75ZM101.5 145.812V144.812H99.7822L100.63 146.306L101.5 145.812ZM107.375 159.875L108.345 159.632L108.345 159.63L107.375 159.875ZM106.563 188.688L105.618 188.359L105.615 188.366L106.563 188.688ZM87.0625 209.312L86.6897 208.385L86.6801 208.388L87.0625 209.312ZM34 212.312H33V213.312H34V212.312ZM34 193.875V192.875H33V193.875H34ZM78.0625 192.125L77.7316 191.181L77.7242 191.184L77.7168 191.187L78.0625 192.125ZM86.125 187.188L85.4316 186.467L85.4247 186.474L85.4179 186.48L86.125 187.188ZM91.125 179.375L90.1913 179.017L90.1884 179.025L90.1856 179.032L91.125 179.375ZM92.25 162.938L93.2313 162.745L93.2306 162.741L92.25 162.938ZM90.4375 156.75L89.5011 157.101L89.5051 157.112L90.4375 156.75ZM87.5625 150.938L86.705 151.452L86.7092 151.459L86.7134 151.466L87.5625 150.938ZM83.6875 145.812L84.414 145.125L84.1181 144.812H83.6875V145.812ZM34 145.812H33V146.812H34V145.812ZM34 127.312V126.313H33V127.312H34ZM106.75 127.312V145.812H108.75V127.312H106.75ZM107.75 144.812H101.5V146.812H107.75V144.812ZM100.63 146.306C103.387 151.162 105.307 155.766 106.405 160.12L108.345 159.63C107.193 155.068 105.196 150.296 102.37 145.319L100.63 146.306ZM106.405 160.118C107.512 164.545 108.062 168.859 108.063 173.062H110.063C110.062 168.683 109.488 164.205 108.345 159.632L106.405 160.118ZM108.063 173.062C108.063 178.588 107.244 183.684 105.618 188.359L107.507 189.016C109.214 184.108 110.063 178.787 110.063 173.062H108.063ZM105.615 188.366C104.033 193.033 101.666 197.054 98.5172 200.445L99.9828 201.805C103.334 198.196 105.842 193.926 107.51 189.009L105.615 188.366ZM98.5172 200.445C95.3772 203.826 91.4418 206.476 86.6897 208.385L87.4353 210.24C92.4332 208.233 96.6228 205.424 99.9828 201.805L98.5172 200.445ZM86.6801 208.388C81.9914 210.329 76.5217 211.312 70.25 211.312V213.312C76.7283 213.312 82.4669 212.296 87.4449 210.237L86.6801 208.388ZM70.25 211.312H34V213.312H70.25V211.312ZM35 212.312V193.875H33V212.312H35ZM34 194.875H67.25V192.875H34V194.875ZM67.25 194.875C71.3869 194.875 75.1114 194.278 78.4082 193.063L77.7168 191.187C74.6803 192.305 71.1964 192.875 67.25 192.875V194.875ZM78.3934 193.069C81.7276 191.9 84.5482 190.178 86.8321 187.895L85.4179 186.48C83.3684 188.53 80.814 190.1 77.7316 191.181L78.3934 193.069ZM86.8184 187.908C89.1441 185.67 90.891 182.934 92.0644 179.718L90.1856 179.032C89.109 181.983 87.5226 184.455 85.4316 186.467L86.8184 187.908ZM92.0587 179.733C93.2757 176.56 93.875 173.019 93.875 169.125H91.875C91.875 172.814 91.3076 176.107 90.1913 179.017L92.0587 179.733ZM93.875 169.125C93.875 167.055 93.6594 164.928 93.2313 162.745L91.2687 163.13C91.6739 165.197 91.875 167.195 91.875 169.125H93.875ZM93.2306 162.741C92.8023 160.6 92.1817 158.482 91.3699 156.388L89.5051 157.112C90.2766 159.101 90.8644 161.108 91.2694 163.134L93.2306 162.741ZM91.3738 156.399C90.5999 154.335 89.6119 152.338 88.4116 150.409L86.7134 151.466C87.8464 153.287 88.7751 155.165 89.5012 157.101L91.3738 156.399ZM88.42 150.423C87.2588 148.488 85.9236 146.721 84.414 145.125L82.961 146.5C84.3681 147.987 85.6162 149.637 86.705 151.452L88.42 150.423ZM83.6875 144.812H34V146.812H83.6875V144.812ZM35 145.812V127.312H33V145.812H35ZM34 128.312H107.75V126.312L34 126.313V128.312ZM21.5 246.625L22.4417 246.961L22.7549 246.085L21.9027 245.71L21.5 246.625ZM19.4375 253.75L20.4096 253.985L20.4115 253.977L20.4133 253.969L19.4375 253.75ZM18.0625 260.75L19.0494 260.911L19.0506 260.904L19.0517 260.897L18.0625 260.75ZM17.3125 267.312L18.3093 267.392L18.3101 267.382L18.3107 267.372L17.3125 267.312ZM18.875 285.688L19.828 285.384L19.8237 285.371L18.875 285.688ZM23.625 294.812L24.4007 294.181L24.3954 294.175L23.625 294.812ZM30.625 300.312L31.0432 299.404L31.0377 299.402L30.625 300.312ZM42.1875 302.125V303.125H44.0834L43.0128 301.56L42.1875 302.125ZM36.4375 289.562L37.3966 289.279L36.4375 289.562ZM34.625 281.438L35.6125 281.28L35.6122 281.278L34.625 281.438ZM36.625 255.875L35.6834 255.538L35.681 255.545L36.625 255.875ZM44.25 242.562L43.4984 241.903L43.4943 241.908L44.25 242.562ZM56.0625 233.75L55.6487 232.84L55.6419 232.843L56.0625 233.75ZM86.8125 233.938L86.3816 234.84L86.3848 234.841L86.8125 233.938ZM98.75 243.062L99.5156 242.419L99.5121 242.415L98.75 243.062ZM106.375 256.938L107.323 256.619L106.375 256.938ZM107.188 289.75L106.216 289.511L106.215 289.515L107.188 289.75ZM105.063 296.5L104.134 296.129L104.13 296.14L104.125 296.151L105.063 296.5ZM102.438 302.125L101.576 301.617L100.687 303.125H102.438V302.125ZM107.75 302.125H108.75V301.125H107.75V302.125ZM107.75 320.625V321.625H108.75V320.625H107.75ZM11.625 308.562L12.3742 307.9L12.3667 307.892L11.625 308.562ZM3.625 293.938L4.58095 293.644L4.57899 293.638L3.625 293.938ZM1.25 265.438L2.24635 265.523L2.24695 265.516L2.24746 265.509L1.25 265.438ZM2.25 256.625L3.23828 256.778L3.23995 256.766L2.25 256.625ZM3.8125 247.938L4.78974 248.15L4.79196 248.139L3.8125 247.938ZM5.875 239.75L6.27774 238.835L5.24377 238.38L4.91759 239.461L5.875 239.75ZM63.125 251.812L62.7189 250.899L62.71 250.903L62.7013 250.907L63.125 251.812ZM56.3125 256.938L55.5643 256.274L55.5573 256.282L56.3125 256.938ZM51.75 264.938L50.809 264.599L50.8052 264.61L51.75 264.938ZM50.8125 283.062L49.8288 283.243L49.8313 283.256L50.8125 283.062ZM52.875 290.312L53.8113 289.961L53.8092 289.956L52.875 290.312ZM56.0625 296.812L56.9154 296.29L56.9105 296.283L56.0625 296.812ZM60.25 302.125L59.5526 302.842L59.8438 303.125H60.25V302.125ZM84.5625 302.125V303.125H85.0431L85.3434 302.75L84.5625 302.125ZM92.375 283.25L91.3862 283.101L91.3848 283.11L91.3836 283.119L92.375 283.25ZM91.1875 265.438L92.135 265.118L92.1338 265.114L91.1875 265.438ZM86.5625 257.062L85.8013 257.711L85.8023 257.712L86.5625 257.062ZM20.5583 246.289C19.7112 248.66 19.0123 251.075 18.4617 253.531L20.4133 253.969C20.946 251.592 21.6221 249.256 22.4417 246.961L20.5583 246.289ZM18.4654 253.515C17.8757 255.958 17.4114 258.321 17.0733 260.603L19.0517 260.897C19.3803 258.679 19.8326 256.375 20.4096 253.985L18.4654 253.515ZM17.0756 260.589C16.6957 262.91 16.4415 265.132 16.3143 267.253L18.3107 267.372C18.4335 265.327 18.6793 263.173 19.0494 260.911L17.0756 260.589ZM16.3157 267.233C16.1475 269.336 16.0625 271.217 16.0625 272.875H18.0625C18.0625 271.283 18.1442 269.456 18.3093 267.392L16.3157 267.233ZM16.0625 272.875C16.0625 277.87 16.6758 282.252 17.9263 286.004L19.8237 285.371C18.6575 281.873 18.0625 277.713 18.0625 272.875H16.0625ZM17.9221 285.991C19.1191 289.753 20.7567 292.915 22.8546 295.45L24.3954 294.175C22.4933 291.877 20.9643 288.956 19.8279 285.384L17.9221 285.991ZM22.8493 295.444C24.9388 298.012 27.3932 299.946 30.2123 301.223L31.0377 299.402C28.5235 298.262 26.3112 296.53 24.4007 294.181L22.8493 295.444ZM30.2069 301.221C32.9662 302.491 35.9008 303.125 39 303.125V301.125C36.1825 301.125 33.5338 300.551 31.0431 299.404L30.2069 301.221ZM39 303.125H42.1875V301.125H39V303.125ZM43.0128 301.56C41.9654 300.03 40.9494 298.224 39.9673 296.137L38.1577 296.988C39.1756 299.151 40.2429 301.054 41.3622 302.69L43.0128 301.56ZM39.9673 296.137C38.9916 294.063 38.134 291.778 37.3966 289.279L35.4784 289.846C36.241 292.43 37.1334 294.812 38.1577 296.988L39.9673 296.137ZM37.3966 289.279C36.6599 286.783 36.0648 284.117 35.6125 281.28L33.6375 281.595C34.1019 284.508 34.7151 287.259 35.4784 289.846L37.3966 289.279ZM35.6122 281.278C35.1629 278.5 34.9375 275.616 34.9375 272.625H32.9375C32.9375 275.717 33.1705 278.708 33.6378 281.597L35.6122 281.278ZM34.9375 272.625C34.9375 266.683 35.8183 261.213 37.569 256.205L35.681 255.545C33.8483 260.787 32.9375 266.484 32.9375 272.625H34.9375ZM37.5666 256.212C39.3622 251.192 41.8443 246.865 45.0057 243.217L43.4943 241.908C40.1557 245.76 37.5544 250.308 35.6834 255.538L37.5666 256.212ZM45.0015 243.222C48.2002 239.578 52.0245 236.724 56.4831 234.657L55.6419 232.843C50.9338 235.026 46.8832 238.047 43.4985 241.903L45.0015 243.222ZM56.4763 234.66C60.9161 232.642 65.8563 231.625 71.3125 231.625V229.625C65.6021 229.625 60.3755 230.691 55.6487 232.84L56.4763 234.66ZM71.3125 231.625C76.8888 231.625 81.9058 232.703 86.3816 234.84L87.2434 233.035C82.4692 230.756 77.1528 229.625 71.3125 229.625V231.625ZM86.3848 234.841C90.925 236.99 94.7896 239.945 97.9879 243.71L99.5121 242.415C96.127 238.43 92.0333 235.302 87.2402 233.034L86.3848 234.841ZM97.9845 243.706C101.188 247.517 103.671 252.03 105.427 257.256L107.323 256.619C105.495 251.179 102.896 246.441 99.5155 242.419L97.9845 243.706ZM105.427 257.256C107.181 262.476 108.063 268.159 108.063 274.312H110.063C110.063 267.966 109.153 262.066 107.323 256.619L105.427 257.256ZM108.063 274.312C108.063 276.937 107.898 279.541 107.57 282.124L109.555 282.376C109.893 279.709 110.063 277.021 110.063 274.312H108.063ZM107.57 282.124C107.242 284.714 106.79 287.176 106.216 289.511L108.159 289.989C108.752 287.574 109.217 285.036 109.555 282.376L107.57 282.124ZM106.215 289.515C105.642 291.89 104.948 294.094 104.134 296.129L105.991 296.871C106.844 294.739 107.566 292.443 108.16 289.985L106.215 289.515ZM104.125 296.151C103.35 298.231 102.499 300.052 101.576 301.617L103.299 302.633C104.292 300.948 105.191 299.019 106 296.849L104.125 296.151ZM102.438 303.125H107.75V301.125H102.438V303.125ZM106.75 302.125V320.625H108.75V302.125H106.75ZM107.75 319.625H42.4375V321.625H107.75V319.625ZM42.4375 319.625C35.8295 319.625 30.0206 318.619 24.9925 316.632L24.2575 318.493C29.5627 320.589 35.6288 321.625 42.4375 321.625V319.625ZM24.9925 316.632C19.9646 314.646 15.7644 311.734 12.3741 307.9L10.8759 309.225C14.4856 313.307 18.9521 316.396 24.2575 318.493L24.9925 316.632ZM12.3667 307.892C8.93734 304.099 6.3363 299.359 4.58093 293.644L2.66907 294.231C4.49703 300.183 7.22932 305.192 10.8833 309.233L12.3667 307.892ZM4.57899 293.638C2.7823 287.921 1.875 281.338 1.875 273.875H-0.125C-0.125 281.496 0.801035 288.287 2.67101 294.237L4.57899 293.638ZM1.875 273.875C1.875 271.197 1.99859 268.413 2.24635 265.523L0.253653 265.352C0.00141207 268.295 -0.125 271.136 -0.125 273.875H1.875ZM2.24746 265.509C2.45379 262.62 2.78398 259.71 3.23821 256.778L1.26179 256.472C0.79935 259.457 0.462878 262.422 0.252541 265.366L2.24746 265.509ZM3.23995 256.766C3.65322 253.874 4.16979 251.001 4.78968 248.15L2.83532 247.725C2.20521 250.624 1.68011 253.543 1.26005 256.484L3.23995 256.766ZM4.79196 248.139C5.36958 245.334 6.04985 242.634 6.83241 240.039L4.91759 239.461C4.11682 242.116 3.42209 244.875 2.83304 247.736L4.79196 248.139ZM5.47226 240.665L21.0973 247.54L21.9027 245.71L6.27774 238.835L5.47226 240.665ZM71.5 249.062C68.406 249.062 65.4756 249.673 62.7189 250.899L63.5311 252.726C66.0244 251.618 68.6773 251.062 71.5 251.062V249.062ZM62.7013 250.907C59.9901 252.175 57.6099 253.967 55.5643 256.274L57.0607 257.601C58.9317 255.491 61.0933 253.867 63.5487 252.718L62.7013 250.907ZM55.5573 256.282C53.5495 258.595 51.9703 261.373 50.8091 264.599L52.6909 265.276C53.7797 262.252 55.2422 259.696 57.0677 257.593L55.5573 256.282ZM50.8052 264.61C49.6793 267.858 49.125 271.492 49.125 275.5H51.125C51.125 271.675 51.654 268.267 52.6948 265.265L50.8052 264.61ZM49.125 275.5C49.125 278.102 49.3597 280.683 49.8289 283.243L51.7961 282.882C51.3487 280.442 51.125 277.981 51.125 275.5H49.125ZM49.8313 283.256C50.3417 285.85 51.0444 288.322 51.9408 290.669L53.8092 289.956C52.9556 287.72 52.2833 285.358 51.7937 282.869L49.8313 283.256ZM51.9387 290.664C52.8358 293.056 53.9272 295.283 55.2145 297.342L56.9105 296.283C55.6978 294.342 54.6642 292.236 53.8113 289.961L51.9387 290.664ZM55.2096 297.335C56.4983 299.44 57.945 301.277 59.5526 302.842L60.9474 301.408C59.4717 299.973 58.1267 298.269 56.9154 296.29L55.2096 297.335ZM60.25 303.125H84.5625V301.125H60.25V303.125ZM85.3434 302.75C86.886 300.821 88.1953 298.783 89.2694 296.635L87.4806 295.74C86.4714 297.759 85.239 299.679 83.7816 301.5L85.3434 302.75ZM89.2694 296.635C90.3351 294.503 91.21 292.327 91.8933 290.107L89.9817 289.518C89.3317 291.631 88.4983 293.705 87.4806 295.74L89.2694 296.635ZM91.8933 290.107C92.5761 287.888 93.0673 285.646 93.3664 283.381L91.3836 283.119C91.0994 285.271 90.6323 287.404 89.9817 289.518L91.8933 290.107ZM93.3638 283.399C93.7041 281.145 93.875 278.949 93.875 276.812H91.875C91.875 278.842 91.7126 280.938 91.3862 283.101L93.3638 283.399ZM93.875 276.812C93.875 272.476 93.3011 268.573 92.135 265.118L90.24 265.757C91.3239 268.969 91.875 272.649 91.875 276.812H93.875ZM92.1338 265.114C90.9741 261.721 89.3747 258.814 87.3227 256.413L85.8023 257.712C87.6669 259.894 89.1509 262.571 90.2412 265.761L92.1338 265.114ZM87.3237 256.414C85.3177 254.059 82.9539 252.24 80.2362 250.969L79.3888 252.781C81.8378 253.926 83.9739 255.566 85.8013 257.711L87.3237 256.414ZM80.2362 250.969C77.5152 249.696 74.5991 249.062 71.5 249.062V251.062C74.3175 251.062 76.9431 251.637 79.3888 252.781L80.2362 250.969ZM107.813 341.688H108.813V340.688H107.813V341.688ZM107.813 360.125V361.125H108.813V360.125H107.813ZM62.4375 361.25L62.1816 360.283L62.178 360.284L62.4375 361.25ZM55.25 365.062L54.5827 364.318L54.5743 364.325L55.25 365.062ZM50.5625 372.312L49.6262 371.961L49.6233 371.969L49.6205 371.977L50.5625 372.312ZM49.625 390.062L50.6041 389.859L50.6033 389.856L49.625 390.062ZM51.5 396.375L50.5702 396.743L50.5735 396.751L50.5769 396.76L51.5 396.375ZM54.4375 401.938L55.2787 401.397L55.2727 401.388L54.4375 401.938ZM58.125 406.438L57.4411 407.167L57.7296 407.438H58.125V406.438ZM107.813 406.438H108.813V405.438H107.813V406.438ZM107.813 424.938V425.938H108.813V424.938H107.813ZM34 424.938H33V425.938H34V424.938ZM34 406.438V405.438H33V406.438H34ZM40.3125 406.438V407.438H42.0731L41.1714 405.925L40.3125 406.438ZM35.1875 362.312L34.2405 361.991L34.2396 361.994L35.1875 362.312ZM42.25 350.5L41.5524 349.783L41.5429 349.793L42.25 350.5ZM53.6875 343.812L53.3897 342.858L53.3872 342.859L53.6875 343.812ZM106.813 341.688V360.125H108.813V341.688H106.813ZM107.813 359.125H71.8125V361.125H107.813V359.125ZM71.8125 359.125C68.3234 359.125 65.1109 359.508 62.1816 360.283L62.6934 362.217C65.4308 361.492 68.4683 361.125 71.8125 361.125V359.125ZM62.178 360.284C59.2469 361.072 56.7083 362.414 54.5828 364.318L55.9172 365.807C57.7917 364.128 60.0448 362.928 62.697 362.216L62.178 360.284ZM54.5743 364.325C52.439 366.283 50.7965 368.841 49.6262 371.961L51.4988 372.664C52.5785 369.784 54.061 367.509 55.9257 365.8L54.5743 364.325ZM49.6205 371.977C48.4869 375.16 47.9375 379.052 47.9375 383.625H49.9375C49.9375 379.198 50.4714 375.549 51.5045 372.648L49.6205 371.977ZM47.9375 383.625C47.9375 385.822 48.1745 388.038 48.6467 390.269L50.6033 389.856C50.1588 387.754 49.9375 385.678 49.9375 383.625H47.9375ZM48.6459 390.266C49.1153 392.528 49.7564 394.687 50.5702 396.743L52.4298 396.007C51.6603 394.063 51.0514 392.014 50.6041 389.859L48.6459 390.266ZM50.5769 396.76C51.4329 398.814 52.441 400.724 53.6023 402.487L55.2727 401.388C54.184 399.734 53.2338 397.936 52.4231 395.99L50.5769 396.76ZM53.5963 402.478C54.7598 404.288 56.0402 405.854 57.4411 407.167L58.8089 405.708C57.5432 404.521 56.3652 403.087 55.2787 401.397L53.5963 402.478ZM58.125 407.438H107.813V405.438H58.125V407.438ZM106.813 406.438V424.938H108.813V406.438H106.813ZM107.813 423.938H34V425.938H107.813V423.938ZM35 424.938V406.438H33V424.938H35ZM34 407.438H40.3125V405.438H34V407.438ZM41.1714 405.925C38.5066 401.457 36.6094 396.983 35.4691 392.503L33.5309 392.997C34.7239 397.684 36.7017 402.335 39.4536 406.95L41.1714 405.925ZM35.4691 392.503C34.32 387.989 33.75 383.718 33.75 379.688H31.75C31.75 383.907 32.3466 388.344 33.5309 392.997L35.4691 392.503ZM33.75 379.688C33.75 373.013 34.554 367.335 36.1354 362.631L34.2396 361.994C32.571 366.957 31.75 372.862 31.75 379.688H33.75ZM36.1345 362.634C37.7181 357.964 39.9984 354.166 42.9571 351.207L41.5429 349.793C38.3349 353.001 35.9069 357.078 34.2405 361.991L36.1345 362.634ZM42.9475 351.217C45.9515 348.293 49.6245 346.14 53.9878 344.766L53.3872 342.859C48.7505 344.318 44.7985 346.624 41.5525 349.783L42.9475 351.217ZM53.9853 344.767C58.4123 343.386 63.4757 342.688 69.1875 342.688V340.688C63.316 340.688 58.0461 341.405 53.3897 342.858L53.9853 344.767ZM69.1875 342.688H107.813V340.688H69.1875V342.688ZM137.688 448.938H138.688V447.938H137.688V448.938ZM137.688 467.438V468.438H138.688V467.438H137.688ZM34 467.438H33V468.438H34V467.438ZM34 448.938V447.938H33V448.938H34ZM136.688 448.938V467.438H138.688V448.938H136.688ZM137.688 466.438H34V468.438H137.688V466.438ZM35 467.438V448.938H33V467.438H35ZM34 449.938H137.688V447.938H34V449.938ZM66.9375 490L67.4048 489.116L66.9375 490ZM74.4375 496.938L73.6089 497.497L73.6141 497.505L74.4375 496.938ZM79.3125 508.438L78.3413 508.676L78.3429 508.682L79.3125 508.438ZM80.0625 538.875L79.0713 538.743L79.0711 538.744L80.0625 538.875ZM77 554.438L76.0317 554.188L75.678 555.56L77.0889 555.434L77 554.438ZM83.4375 552.312L82.9204 551.457L82.9124 551.461L83.4375 552.312ZM88.5625 547.25L87.738 546.684L87.7317 546.693L87.7255 546.703L88.5625 547.25ZM91.9375 539.5L90.9706 539.245L90.9697 539.248L91.9375 539.5ZM89.75 506.688L90.7115 506.413L90.7103 506.409L89.75 506.688ZM87.0625 499.438L86.7152 498.5L85.7004 498.876L86.155 499.858L87.0625 499.438ZM102.25 493.812L103.191 493.475L102.851 492.524L101.903 492.875L102.25 493.812ZM105 502.75L105.968 502.499L105.967 502.496L105 502.75ZM107.125 512.562L106.14 512.735L106.142 512.747L107.125 512.562ZM98.5 563L97.8102 562.276L98.5 563ZM34 573.062H33V574.062H34V573.062ZM34 554.562V553.562H33V554.562H34ZM40.9375 554.562V555.562H42.684L41.7999 554.056L40.9375 554.562ZM37.75 548.25L38.6666 547.85L38.6638 547.844L37.75 548.25ZM33.375 532.25L34.366 532.116L34.365 532.109L34.3638 532.101L33.375 532.25ZM34.5625 507.375L33.6017 507.098L33.601 507.1L34.5625 507.375ZM47.5 489.875L47.0628 488.976L47.0553 488.979L47.0478 488.983L47.5 489.875ZM54.375 508.125L53.8894 507.251L53.8823 507.255L53.8753 507.259L54.375 508.125ZM51.4375 511.125L50.5938 510.588L50.588 510.597L50.5823 510.607L51.4375 511.125ZM49.375 516.375L48.406 516.128L48.4032 516.139L48.4006 516.15L49.375 516.375ZM49.5 533.625L50.4821 533.437L49.5 533.625ZM59 554.562L58.2718 555.248L58.5679 555.562H59V554.562ZM62.25 554.562V555.562H63.0089L63.2131 554.832L62.25 554.562ZM64.25 546.125L63.2688 545.932L63.2683 545.935L64.25 546.125ZM65.5 538.188L64.5088 538.055L64.5076 538.064L64.5065 538.073L65.5 538.188ZM66.1875 531.062L65.1891 531.006L65.189 531.007L66.1875 531.062ZM65.6875 516.625L64.7069 516.821L65.6875 516.625ZM63.8125 511.062L62.9287 511.53L62.934 511.54L62.9396 511.55L63.8125 511.062ZM57.25 488.688C60.6411 488.688 63.708 489.424 66.4702 490.884L67.4048 489.116C64.3336 487.493 60.9423 486.688 57.25 486.688V488.688ZM66.4702 490.884C69.2239 492.34 71.6056 494.532 73.6089 497.497L75.2661 496.378C73.1027 493.176 70.4844 490.744 67.4048 489.116L66.4702 490.884ZM73.6141 497.505C75.655 500.466 77.238 504.181 78.3413 508.676L80.2837 508.199C79.137 503.527 77.47 499.575 75.2609 496.37L73.6141 497.505ZM78.3429 508.682C79.4846 513.208 80.0625 518.498 80.0625 524.562H82.0625C82.0625 518.377 81.4737 512.917 80.2821 508.193L78.3429 508.682ZM80.0625 524.562C80.0625 529.055 79.7327 533.782 79.0713 538.743L81.0537 539.007C81.7256 533.968 82.0625 529.153 82.0625 524.562H80.0625ZM79.0711 538.744C78.4102 543.742 77.3974 548.89 76.0317 554.188L77.9683 554.687C79.3526 549.318 80.3815 544.091 81.0539 539.006L79.0711 538.744ZM77.0889 555.434C79.5741 555.212 81.8697 554.455 83.9626 553.164L82.9124 551.461C81.0887 552.587 79.0926 553.247 76.9111 553.441L77.0889 555.434ZM83.9546 553.168C86.0963 551.874 87.9096 550.076 89.3995 547.797L87.7255 546.703C86.382 548.758 84.7787 550.334 82.9204 551.457L83.9546 553.168ZM89.387 547.816C90.9235 545.577 92.0906 542.882 92.9053 539.752L90.9697 539.248C90.2011 542.201 89.1181 544.673 87.738 546.684L89.387 547.816ZM92.9044 539.755C93.7225 536.655 94.125 533.15 94.125 529.25H92.125C92.125 533.017 91.7359 536.345 90.9706 539.245L92.9044 539.755ZM94.125 529.25C94.125 527.128 93.9977 524.802 93.745 522.275L91.755 522.475C92.0023 524.948 92.125 527.206 92.125 529.25H94.125ZM93.745 522.275C93.492 519.745 93.1127 517.133 92.6079 514.441L90.6421 514.809C91.1373 517.45 91.508 520.005 91.755 522.475L93.745 522.275ZM92.6079 514.441C92.1021 511.743 91.47 509.067 90.7115 506.413L88.7885 506.962C89.53 509.558 90.1479 512.173 90.6421 514.809L92.6079 514.441ZM90.7103 506.409C89.9475 503.781 89.0345 501.317 87.97 499.017L86.155 499.858C87.1738 502.058 88.0525 504.427 88.7897 506.966L90.7103 506.409ZM87.4098 500.375L102.597 494.75L101.903 492.875L86.7152 498.5L87.4098 500.375ZM101.309 494.15C102.298 496.912 103.206 499.863 104.033 503.004L105.967 502.496C105.127 499.304 104.202 496.297 103.191 493.475L101.309 494.15ZM104.032 503.001C104.859 506.183 105.561 509.428 106.14 512.735L108.11 512.39C107.522 509.031 106.808 505.734 105.968 502.499L104.032 503.001ZM106.142 512.747C106.762 516.052 107.237 519.357 107.567 522.662L109.558 522.463C109.221 519.101 108.738 515.739 108.108 512.378L106.142 512.747ZM107.567 522.662C107.898 525.965 108.063 529.161 108.063 532.25H110.063C110.063 529.089 109.894 525.827 109.558 522.463L107.567 522.662ZM108.063 532.25C108.063 545.884 104.583 555.824 97.8102 562.276L99.1898 563.724C106.5 556.759 110.063 546.199 110.063 532.25H108.063ZM97.8102 562.276C91.0287 568.737 80.5348 572.062 66.125 572.062V574.062C80.7986 574.062 91.888 570.68 99.1898 563.724L97.8102 562.276ZM66.125 572.062H34V574.062H66.125V572.062ZM35 573.062V554.562H33V573.062H35ZM34 555.562H40.9375V553.562H34V555.562ZM41.7999 554.056C40.6974 552.178 39.6526 550.11 38.6665 547.85L36.8335 548.65C37.8474 550.974 38.9276 553.114 40.0751 555.069L41.7999 554.056ZM38.6638 547.844C37.6856 545.643 36.8262 543.23 36.0877 540.604L34.1623 541.146C34.9238 543.853 35.8144 546.357 36.8362 548.656L38.6638 547.844ZM36.0877 540.604C35.3517 537.988 34.7772 535.159 34.366 532.116L32.384 532.384C32.8062 535.508 33.3983 538.429 34.1623 541.146L36.0877 540.604ZM34.3638 532.101C33.9137 529.114 33.6875 525.935 33.6875 522.562H31.6875C31.6875 526.024 31.9196 529.303 32.3862 532.399L34.3638 532.101ZM33.6875 522.562C33.6875 516.882 34.3052 511.915 35.524 507.65L33.601 507.1C32.3198 511.585 31.6875 516.743 31.6875 522.562H33.6875ZM35.5233 507.652C36.747 503.41 38.428 499.903 40.5473 497.104L38.9527 495.896C36.6553 498.931 34.878 502.673 33.6017 507.098L35.5233 507.652ZM40.5473 497.104C42.6735 494.295 45.1427 492.191 47.9522 490.767L47.0478 488.983C43.9406 490.559 41.2432 492.871 38.9527 495.896L40.5473 497.104ZM47.9372 490.774C50.7942 489.386 53.8938 488.688 57.25 488.688V486.688C53.6062 486.688 50.2058 487.448 47.0628 488.976L47.9372 490.774ZM57.875 506.188C56.4857 506.188 55.1529 506.549 53.8894 507.251L54.8606 508.999C55.8471 508.451 56.8477 508.188 57.875 508.188V506.188ZM53.8753 507.259C52.6166 507.985 51.53 509.117 50.5938 510.588L52.2812 511.662C53.095 510.383 53.9667 509.515 54.8747 508.991L53.8753 507.259ZM50.5823 510.607C49.6831 512.09 48.9638 513.94 48.406 516.128L50.344 516.622C50.8695 514.56 51.5252 512.91 52.2927 511.643L50.5823 510.607ZM48.4006 516.15C47.8787 518.412 47.625 521.096 47.625 524.188H49.625C49.625 521.196 49.8713 518.671 50.3494 516.6L48.4006 516.15ZM47.625 524.188C47.625 527.498 47.9221 530.707 48.5179 533.813L50.4821 533.437C49.9112 530.46 49.625 527.377 49.625 524.188H47.625ZM48.5179 533.813C49.1102 536.902 49.8946 539.788 50.8731 542.468L52.7519 541.782C51.8137 539.212 51.0564 536.431 50.4821 533.437L48.5179 533.813ZM50.8731 542.468C51.8496 545.142 52.9786 547.573 54.2631 549.757L55.9869 548.743C54.7714 546.677 53.6921 544.358 52.7519 541.782L50.8731 542.468ZM54.2631 549.757C55.5413 551.93 56.8759 553.765 58.2718 555.248L59.7282 553.877C58.4574 552.527 57.2087 550.82 55.9869 548.743L54.2631 549.757ZM59 555.562H62.25V553.562H59V555.562ZM63.2131 554.832C64.0118 551.973 64.6847 549.134 65.2317 546.315L63.2683 545.935C62.7319 548.699 62.0716 551.485 61.2869 554.293L63.2131 554.832ZM65.2311 546.318C65.7775 543.544 66.1985 540.872 66.4935 538.302L64.5065 538.073C64.2182 540.586 63.8058 543.206 63.2689 545.932L65.2311 546.318ZM66.4912 538.32C66.8276 535.797 67.0594 533.396 67.186 531.118L65.189 531.007C65.0656 533.229 64.8391 535.578 64.5088 538.055L66.4912 538.32ZM67.1859 531.119C67.3116 528.898 67.375 526.94 67.375 525.25H65.375C65.375 526.893 65.3134 528.811 65.1891 531.006L67.1859 531.119ZM67.375 525.25C67.375 521.754 67.1439 518.808 66.6681 516.429L64.7069 516.821C65.1478 519.025 65.375 521.829 65.375 525.25H67.375ZM66.6681 516.429C66.1975 514.076 65.545 512.113 64.6854 510.575L62.9396 511.55C63.6634 512.846 64.2608 514.591 64.7069 516.821L66.6681 516.429ZM64.6963 510.595C63.8863 509.065 62.8716 507.894 61.6136 507.19L60.6364 508.935C61.4617 509.397 62.2387 510.227 62.9287 511.53L64.6963 510.595ZM61.6136 507.19C60.4321 506.528 59.1816 506.188 57.875 506.188V508.188C58.8184 508.188 59.7346 508.43 60.6364 508.935L61.6136 507.19ZM107.75 597.562H108.75V596.562H107.75V597.562ZM107.75 616.062V617.062H108.75V616.062H107.75ZM97.125 616.062V615.062H95.1332L96.323 616.66L97.125 616.062ZM110.063 642.562L110.368 643.515L111.268 643.226L111.03 642.312L110.063 642.562ZM93.125 648L92.1299 648.099L92.2523 649.33L93.4307 648.952L93.125 648ZM88.3125 629.188L87.4031 629.603L87.4045 629.607L88.3125 629.188ZM77.875 616.062L78.475 615.263L78.2083 615.062H77.875V616.062ZM34 616.062H33V617.062H34V616.062ZM34 597.562V596.562H33V597.562H34ZM106.75 597.562V616.062H108.75V597.562H106.75ZM107.75 615.062H97.125V617.062H107.75V615.062ZM96.323 616.66C99.3276 620.693 101.92 624.952 104.101 629.437L105.899 628.563C103.663 623.964 101.006 619.598 97.927 615.465L96.323 616.66ZM104.101 629.437C106.282 633.924 107.946 638.383 109.095 642.813L111.03 642.312C109.846 637.742 108.134 633.159 105.899 628.563L104.101 629.437ZM109.757 641.61L92.8193 647.048L93.4307 648.952L110.368 643.515L109.757 641.61ZM94.1201 647.901C93.4029 640.687 91.7754 634.304 89.2205 628.768L87.4045 629.607C89.8496 634.904 91.4304 641.063 92.1299 648.099L94.1201 647.901ZM89.2219 628.772C86.6978 623.253 83.1154 618.743 78.475 615.263L77.275 616.862C81.6346 620.132 85.0106 624.372 87.4031 629.603L89.2219 628.772ZM77.875 615.062H34V617.062H77.875V615.062ZM35 616.062V597.562H33V616.062H35ZM34 598.562H107.75V596.562H34V598.562Z" fill="#464646"/>
</svg>
