<svg width="135" height="1112" viewBox="0 0 135 1112" fill="none" xmlns="http://www.w3.org/2000/svg">
<path d="M6.3125 1111.12H5.3125V1112.12H6.3125V1111.12ZM19.375 1028.94L20.1427 1029.58L20.1484 1029.57L19.375 1028.94ZM34.625 1017.62L35.0041 1018.55L35.0119 1018.55L34.625 1017.62ZM74.4375 1017.56L74.8166 1016.64L74.8144 1016.64L74.4375 1017.56ZM90.0625 1028.81L90.8178 1028.16L90.8147 1028.15L90.0625 1028.81ZM100.375 1047.94L101.328 1047.63L101.326 1047.63L100.375 1047.94ZM104.062 1075.19L105.062 1075.19V1075.19H104.062ZM104 1111.12V1112.12H104.998L105 1111.13L104 1111.12ZM84.625 1054.88L85.5728 1054.56L85.5701 1054.55L84.625 1054.88ZM78.125 1043.75L77.3929 1044.43L77.3977 1044.44L78.125 1043.75ZM41.8125 1037L42.1735 1037.93L42.1769 1037.93L41.8125 1037ZM32 1043.75L32.7376 1044.43L32.7425 1044.42L32.7474 1044.41L32 1043.75ZM23.5625 1091.31H22.5625V1092.31H23.5625V1091.31ZM86.875 1091.31V1092.31H87.875V1091.31H86.875ZM7.3125 1111.12L7.3125 1075.31H5.3125L5.3125 1111.12H7.3125ZM7.3125 1075.31C7.3125 1064.92 8.43063 1055.94 10.6474 1048.34L8.72756 1047.78C6.44437 1055.6 5.3125 1064.79 5.3125 1075.31H7.3125ZM10.6474 1048.34C12.8672 1040.74 16.0399 1034.49 20.1427 1029.58L18.6073 1028.3C14.2934 1033.46 11.0078 1039.97 8.72756 1047.78L10.6474 1048.34ZM20.1484 1029.57C24.2114 1024.61 29.1599 1020.94 35.0041 1018.55L34.2459 1016.7C28.0901 1019.22 22.872 1023.09 18.6016 1028.3L20.1484 1029.57ZM35.0119 1018.55C40.8303 1016.11 47.4042 1014.88 54.75 1014.88V1012.88C47.1791 1012.88 40.3364 1014.14 34.2381 1016.7L35.0119 1018.55ZM54.75 1014.88C61.7153 1014.88 68.1486 1016.08 74.0606 1018.49L74.8144 1016.64C68.6431 1014.13 61.9514 1012.88 54.75 1012.88V1014.88ZM74.0584 1018.49C79.9102 1020.89 84.9921 1024.54 89.3103 1029.47L90.8147 1028.15C86.2995 1023 80.9648 1019.16 74.8166 1016.64L74.0584 1018.49ZM89.3072 1029.47C93.5776 1034.39 96.9565 1040.64 99.4238 1048.25L101.326 1047.63C98.7935 1039.82 95.2974 1033.32 90.8178 1028.16L89.3072 1029.47ZM99.4223 1048.24C101.842 1055.83 103.062 1064.8 103.062 1075.19H105.062C105.062 1064.65 103.825 1055.46 101.328 1047.63L99.4223 1048.24ZM103.063 1075.19L103 1111.12L105 1111.13L105.062 1075.19L103.063 1075.19ZM104 1110.12H6.3125V1112.12H104V1110.12ZM87.875 1070.44C87.875 1064.44 87.115 1059.14 85.5728 1054.56L83.6772 1055.19C85.135 1059.53 85.875 1064.6 85.875 1070.44H87.875ZM85.5701 1054.55C83.9895 1049.98 81.7555 1046.14 78.8523 1043.06L77.3977 1044.44C80.0778 1047.28 82.1772 1050.86 83.6799 1055.2L85.5701 1054.55ZM78.8571 1043.07C75.9572 1039.95 72.4515 1037.62 68.3544 1036.06L67.6456 1037.94C71.4651 1039.38 74.7095 1041.55 77.3929 1044.43L78.8571 1043.07ZM68.3544 1036.06C64.267 1034.52 59.728 1033.75 54.75 1033.75V1035.75C59.522 1035.75 63.8163 1036.48 67.6456 1037.94L68.3544 1036.06ZM54.75 1033.75C49.8538 1033.75 45.4149 1034.52 41.4481 1036.07L42.1769 1037.93C45.8767 1036.48 50.0629 1035.75 54.75 1035.75V1033.75ZM41.4515 1036.07C37.4336 1037.62 34.0287 1039.96 31.2526 1043.09L32.7474 1044.41C35.3046 1041.54 38.4414 1039.38 42.1735 1037.93L41.4515 1036.07ZM31.2624 1043.07C28.4431 1046.15 26.2947 1049.99 24.7996 1054.56L26.7004 1055.19C28.122 1050.84 30.1402 1047.26 32.7376 1044.43L31.2624 1043.07ZM24.7996 1054.56C23.3011 1059.15 22.5625 1064.44 22.5625 1070.44H24.5625C24.5625 1064.6 25.2822 1059.52 26.7004 1055.19L24.7996 1054.56ZM22.5625 1070.44V1091.31H24.5625V1070.44H22.5625ZM23.5625 1092.31H86.875V1090.31H23.5625V1092.31ZM87.875 1091.31V1070.44H85.875V1091.31H87.875ZM52.5625 996.75L52.9725 995.838L52.9694 995.837L52.5625 996.75ZM32.0625 973.875L31.1256 974.225L31.1265 974.227L32.0625 973.875ZM32.125 935.875L33.0605 936.228L33.0636 936.22L32.125 935.875ZM40.75 921.5L41.48 922.183L41.4836 922.18L40.75 921.5ZM53.6875 912.438L54.0749 913.359L54.0814 913.357L53.6875 912.438ZM71.9375 909.312L71.8876 910.311L71.9125 910.312H71.9375V909.312ZM74.125 909.438H75.125V908.555L74.249 908.445L74.125 909.438ZM74.125 979.188H73.125V980.608L74.4625 980.129L74.125 979.188ZM80.1875 975.375L80.878 976.098L80.8864 976.09L80.1875 975.375ZM88.0625 959.438L89.0404 959.647L89.0426 959.636L88.0625 959.438ZM87.8125 935.125L88.7916 934.921L88.7896 934.912L87.8125 935.125ZM84.375 923.062L83.9704 922.148L83.1196 922.524L83.4337 923.4L84.375 923.062ZM98.5 916.812L99.4066 916.39L98.9925 915.501L98.0954 915.898L98.5 916.812ZM101.5 924.188L102.447 923.866L102.444 923.857L101.5 924.188ZM103.625 931.938L104.605 931.738L104.603 931.727L103.625 931.938ZM104.875 940.375L103.88 940.473L103.88 940.475L104.875 940.375ZM94.125 987.125L94.8976 987.76L94.125 987.125ZM59.6875 928.875H60.6875V927.497L59.3771 927.924L59.6875 928.875ZM54 932L54.6088 932.793L54.6191 932.785L54.6292 932.777L54 932ZM49.375 937.188L50.2173 937.727L50.2211 937.721L50.2249 937.714L49.375 937.188ZM54.125 976.062L53.4848 976.831L53.4903 976.835L53.4958 976.84L54.125 976.062ZM59.6875 979.188L59.3652 980.134L60.6875 980.584V979.188H59.6875ZM66.875 998.812C62.0157 998.812 57.3847 997.821 52.9725 995.838L52.1525 997.662C56.8236 999.762 61.7343 1000.81 66.875 1000.81V998.812ZM52.9694 995.837C48.5163 993.853 44.5864 990.998 41.176 987.263L39.699 988.612C43.2886 992.543 47.4421 995.564 52.1556 997.663L52.9694 995.837ZM41.176 987.263C37.7729 983.536 35.0434 978.962 32.9985 973.523L31.1265 974.227C33.2483 979.871 36.1021 984.672 39.699 988.612L41.176 987.263ZM32.9994 973.525C30.9648 968.073 29.9375 961.861 29.9375 954.875H27.9375C27.9375 962.056 28.9935 968.511 31.1256 974.225L32.9994 973.525ZM29.9375 954.875C29.9375 947.934 30.9848 941.723 33.0605 936.228L31.1895 935.522C29.0152 941.277 27.9375 947.733 27.9375 954.875H29.9375ZM33.0636 936.22C35.1065 930.663 37.9156 925.991 41.48 922.183L40.02 920.817C36.2511 924.842 33.3102 929.753 31.1864 935.53L33.0636 936.22ZM41.4836 922.18C45.0538 918.325 49.2483 915.387 54.0749 913.359L53.3001 911.516C48.21 913.654 43.7796 916.758 40.0164 920.82L41.4836 922.18ZM54.0814 913.357C58.909 911.288 64.0868 910.25 69.625 910.25V908.25C63.8299 908.25 58.3826 909.337 53.2936 911.518L54.0814 913.357ZM69.625 910.25C70.3141 910.25 71.068 910.27 71.8876 910.311L71.9874 908.314C71.1403 908.271 70.3526 908.25 69.625 908.25V910.25ZM71.9375 910.312C72.6948 910.312 73.3819 910.352 74.001 910.43L74.249 908.445C73.5347 908.356 72.7635 908.312 71.9375 908.312V910.312ZM73.125 909.438V979.188H75.125V909.438H73.125ZM74.4625 980.129C76.8127 979.286 78.9517 977.937 80.878 976.098L79.497 974.652C77.7566 976.313 75.8539 977.505 73.7875 978.246L74.4625 980.129ZM80.8864 976.09C82.8112 974.209 84.4568 971.885 85.8319 969.135L84.0431 968.24C82.7516 970.823 81.2305 972.957 79.4886 974.66L80.8864 976.09ZM85.8319 969.135C87.2096 966.379 88.276 963.214 89.0403 959.647L87.0847 959.228C86.349 962.661 85.3321 965.662 84.0431 968.24L85.8319 969.135ZM89.0426 959.636C89.7664 956.06 90.125 952.117 90.125 947.812H88.125C88.125 952.008 87.7753 955.815 87.0824 959.239L89.0426 959.636ZM90.125 947.812C90.125 943.493 89.6803 939.196 88.7916 934.921L86.8334 935.329C87.6947 939.471 88.125 943.632 88.125 947.812H90.125ZM88.7896 934.912C87.8642 930.664 86.7067 926.601 85.3163 922.725L83.4337 923.4C84.7933 927.19 85.9274 931.169 86.8354 935.338L88.7896 934.912ZM84.7796 923.977L98.9046 917.727L98.0954 915.898L83.9704 922.148L84.7796 923.977ZM97.5934 917.235C98.7046 919.621 99.6921 922.049 100.556 924.518L102.444 923.857C101.558 921.326 100.545 918.837 99.4066 916.39L97.5934 917.235ZM100.553 924.509C101.373 926.928 102.072 929.475 102.647 932.148L104.603 931.727C104.012 928.984 103.293 926.363 102.447 923.866L100.553 924.509ZM102.645 932.137C103.179 934.767 103.591 937.546 103.88 940.473L105.87 940.277C105.575 937.288 105.154 934.441 104.605 931.738L102.645 932.137ZM103.88 940.475C104.168 943.355 104.313 946.405 104.313 949.625H106.312C106.312 946.345 106.165 943.229 105.87 940.275L103.88 940.475ZM104.313 949.625C104.313 957.839 103.322 965.003 101.36 971.133L103.265 971.742C105.303 965.372 106.312 957.994 106.312 949.625H104.313ZM101.36 971.133C99.3909 977.286 96.7159 982.397 93.3524 986.49L94.8976 987.76C98.4508 983.436 101.234 978.089 103.265 971.742L101.36 971.133ZM93.3524 986.49C89.9847 990.588 86.0423 993.657 81.5231 995.715L82.3519 997.535C87.166 995.343 91.3486 992.079 94.8976 987.76L93.3524 986.49ZM81.5231 995.715C76.9928 997.778 72.1141 998.812 66.875 998.812V1000.81C72.3859 1000.81 77.5489 999.722 82.3519 997.535L81.5231 995.715ZM59.3771 927.924C57.2139 928.631 55.211 929.733 53.3708 931.223L54.6292 932.777C56.289 931.434 58.0777 930.453 59.9979 929.826L59.3771 927.924ZM53.3912 931.207C51.4959 932.661 49.8749 934.483 48.5251 936.661L50.2249 937.714C51.4584 935.725 52.9208 934.089 54.6088 932.793L53.3912 931.207ZM48.5327 936.648C47.1373 938.829 46.0579 941.341 45.2852 944.174L47.2148 944.701C47.9421 942.034 48.9461 939.713 50.2173 937.727L48.5327 936.648ZM45.2852 944.174C44.5086 947.022 44.125 950.133 44.125 953.5H46.125C46.125 950.284 46.4914 947.353 47.2148 944.701L45.2852 944.174ZM44.125 953.5C44.125 957.075 44.5292 960.353 45.3484 963.328L47.2766 962.797C46.5125 960.022 46.125 956.925 46.125 953.5H44.125ZM45.3484 963.328C46.1609 966.279 47.2578 968.89 48.6483 971.149L50.3517 970.101C49.0755 968.027 48.0474 965.596 47.2766 962.797L45.3484 963.328ZM48.6483 971.149C50.0319 973.397 51.6424 975.295 53.4848 976.831L54.7652 975.294C53.1076 973.913 51.6348 972.186 50.3517 970.101L48.6483 971.149ZM53.4958 976.84C55.3292 978.324 57.286 979.426 59.3652 980.134L60.0098 978.241C58.1724 977.615 56.4208 976.634 54.7542 975.285L53.4958 976.84ZM60.6875 979.188V928.875H58.6875V979.188H60.6875ZM30.1875 899.5H29.1875V901.08L30.6153 900.404L30.1875 899.5ZM30.1875 878.062L29.7906 877.145L29.1875 877.405V878.062H30.1875ZM74.5625 858.875L74.1895 857.947L74.1775 857.952L74.1656 857.957L74.5625 858.875ZM87 853.875L87.373 854.803L89.681 853.875L87.373 852.947L87 853.875ZM74.5625 848.875L74.1656 849.793L74.1775 849.798L74.1895 849.803L74.5625 848.875ZM30.1875 829.688H29.1875V830.345L29.7906 830.605L30.1875 829.688ZM30.1875 808.25L30.6153 807.346L29.1875 806.67V808.25H30.1875ZM104 843.188H105V842.554L104.428 842.284L104 843.188ZM104 864.562L104.428 865.466L105 865.196V864.562H104ZM31.1875 899.5V878.062H29.1875V899.5H31.1875ZM30.5844 878.98L74.9594 859.793L74.1656 857.957L29.7906 877.145L30.5844 878.98ZM74.9355 859.803L87.373 854.803L86.627 852.947L74.1895 857.947L74.9355 859.803ZM87.373 852.947L74.9355 847.947L74.1895 849.803L86.627 854.803L87.373 852.947ZM74.9594 847.957L30.5844 828.77L29.7906 830.605L74.1656 849.793L74.9594 847.957ZM31.1875 829.688V808.25H29.1875V829.688H31.1875ZM29.7597 809.154L103.572 844.091L104.428 842.284L30.6153 807.346L29.7597 809.154ZM103 843.188V864.562H105V843.188H103ZM103.572 863.659L29.7597 898.596L30.6153 900.404L104.428 865.466L103.572 863.659ZM52.5625 795.75L52.9725 794.838L52.9694 794.837L52.5625 795.75ZM32.0625 772.875L31.1256 773.225L31.1265 773.227L32.0625 772.875ZM32.125 734.875L33.0605 735.228L33.0636 735.22L32.125 734.875ZM40.75 720.5L41.48 721.183L41.4836 721.18L40.75 720.5ZM53.6875 711.438L54.0749 712.359L54.0814 712.357L53.6875 711.438ZM71.9375 708.312L71.8876 709.311L71.9125 709.312H71.9375V708.312ZM74.125 708.438H75.125V707.555L74.249 707.445L74.125 708.438ZM74.125 778.188H73.125V779.608L74.4625 779.129L74.125 778.188ZM80.1875 774.375L80.878 775.098L80.8864 775.09L80.1875 774.375ZM88.0625 758.438L89.0404 758.647L89.0426 758.636L88.0625 758.438ZM87.8125 734.125L88.7916 733.921L88.7896 733.912L87.8125 734.125ZM84.375 722.062L83.9704 721.148L83.1196 721.524L83.4337 722.4L84.375 722.062ZM98.5 715.812L99.4066 715.39L98.9925 714.501L98.0954 714.898L98.5 715.812ZM101.5 723.188L102.447 722.866L102.444 722.857L101.5 723.188ZM103.625 730.938L104.605 730.738L104.603 730.727L103.625 730.938ZM104.875 739.375L103.88 739.473L103.88 739.475L104.875 739.375ZM94.125 786.125L94.8976 786.76L94.125 786.125ZM59.6875 727.875H60.6875V726.497L59.3771 726.924L59.6875 727.875ZM54 731L54.6088 731.793L54.6191 731.785L54.6292 731.777L54 731ZM49.375 736.188L50.2173 736.727L50.2211 736.721L50.2249 736.714L49.375 736.188ZM54.125 775.062L53.4848 775.831L53.4903 775.835L53.4958 775.84L54.125 775.062ZM59.6875 778.188L59.3652 779.134L60.6875 779.584V778.188H59.6875ZM66.875 797.812C62.0157 797.812 57.3847 796.821 52.9725 794.838L52.1525 796.662C56.8236 798.762 61.7343 799.812 66.875 799.812V797.812ZM52.9694 794.837C48.5163 792.853 44.5864 789.998 41.176 786.263L39.699 787.612C43.2886 791.543 47.4421 794.564 52.1556 796.663L52.9694 794.837ZM41.176 786.263C37.7729 782.536 35.0434 777.962 32.9985 772.523L31.1265 773.227C33.2483 778.871 36.1021 783.672 39.699 787.612L41.176 786.263ZM32.9994 772.525C30.9648 767.073 29.9375 760.861 29.9375 753.875H27.9375C27.9375 761.056 28.9935 767.511 31.1256 773.225L32.9994 772.525ZM29.9375 753.875C29.9375 746.934 30.9848 740.723 33.0605 735.228L31.1895 734.522C29.0152 740.277 27.9375 746.733 27.9375 753.875H29.9375ZM33.0636 735.22C35.1065 729.663 37.9156 724.991 41.48 721.183L40.02 719.817C36.2511 723.842 33.3102 728.753 31.1864 734.53L33.0636 735.22ZM41.4836 721.18C45.0538 717.325 49.2483 714.387 54.0749 712.359L53.3001 710.516C48.21 712.654 43.7796 715.758 40.0164 719.82L41.4836 721.18ZM54.0814 712.357C58.909 710.288 64.0868 709.25 69.625 709.25V707.25C63.8299 707.25 58.3826 708.337 53.2936 710.518L54.0814 712.357ZM69.625 709.25C70.3141 709.25 71.068 709.27 71.8876 709.311L71.9874 707.314C71.1403 707.271 70.3526 707.25 69.625 707.25V709.25ZM71.9375 709.312C72.6948 709.312 73.3819 709.352 74.001 709.43L74.249 707.445C73.5347 707.356 72.7635 707.312 71.9375 707.312V709.312ZM73.125 708.438L73.125 778.188H75.125L75.125 708.438H73.125ZM74.4625 779.129C76.8127 778.286 78.9517 776.937 80.878 775.098L79.497 773.652C77.7566 775.313 75.8539 776.505 73.7875 777.246L74.4625 779.129ZM80.8864 775.09C82.8112 773.209 84.4568 770.885 85.8319 768.135L84.0431 767.24C82.7516 769.823 81.2305 771.957 79.4886 773.66L80.8864 775.09ZM85.8319 768.135C87.2096 765.379 88.276 762.214 89.0403 758.647L87.0847 758.228C86.349 761.661 85.3321 764.662 84.0431 767.24L85.8319 768.135ZM89.0426 758.636C89.7664 755.06 90.125 751.117 90.125 746.812H88.125C88.125 751.008 87.7753 754.815 87.0824 758.239L89.0426 758.636ZM90.125 746.812C90.125 742.493 89.6803 738.196 88.7916 733.921L86.8334 734.329C87.6947 738.471 88.125 742.632 88.125 746.812H90.125ZM88.7896 733.912C87.8642 729.664 86.7067 725.601 85.3163 721.725L83.4337 722.4C84.7933 726.19 85.9274 730.169 86.8354 734.338L88.7896 733.912ZM84.7796 722.977L98.9046 716.727L98.0954 714.898L83.9704 721.148L84.7796 722.977ZM97.5934 716.235C98.7046 718.621 99.6921 721.049 100.556 723.518L102.444 722.857C101.558 720.326 100.545 717.837 99.4066 715.39L97.5934 716.235ZM100.553 723.509C101.373 725.928 102.072 728.475 102.647 731.148L104.603 730.727C104.012 727.984 103.293 725.363 102.447 722.866L100.553 723.509ZM102.645 731.137C103.179 733.767 103.591 736.546 103.88 739.473L105.87 739.277C105.575 736.288 105.154 733.441 104.605 730.738L102.645 731.137ZM103.88 739.475C104.168 742.355 104.313 745.405 104.313 748.625H106.313C106.313 745.345 106.165 742.229 105.87 739.275L103.88 739.475ZM104.313 748.625C104.313 756.839 103.322 764.003 101.36 770.133L103.265 770.742C105.303 764.372 106.313 756.994 106.313 748.625H104.313ZM101.36 770.133C99.3909 776.286 96.7159 781.397 93.3524 785.49L94.8976 786.76C98.4508 782.436 101.234 777.089 103.265 770.742L101.36 770.133ZM93.3524 785.49C89.9847 789.588 86.0423 792.657 81.5231 794.715L82.3519 796.535C87.166 794.343 91.3486 791.079 94.8976 786.76L93.3524 785.49ZM81.5231 794.715C76.9928 796.778 72.1141 797.812 66.875 797.812V799.812C72.3859 799.812 77.5489 798.722 82.3519 796.535L81.5231 794.715ZM59.3771 726.924C57.2139 727.631 55.211 728.733 53.3708 730.223L54.6292 731.777C56.289 730.434 58.0777 729.453 59.9979 728.826L59.3771 726.924ZM53.3912 730.207C51.4959 731.661 49.8749 733.483 48.5251 735.661L50.2249 736.714C51.4584 734.725 52.9208 733.089 54.6088 731.793L53.3912 730.207ZM48.5327 735.648C47.1373 737.829 46.0579 740.341 45.2852 743.174L47.2148 743.701C47.9421 741.034 48.9461 738.713 50.2173 736.727L48.5327 735.648ZM45.2852 743.174C44.5086 746.022 44.125 749.133 44.125 752.5H46.125C46.125 749.284 46.4914 746.353 47.2148 743.701L45.2852 743.174ZM44.125 752.5C44.125 756.075 44.5292 759.353 45.3484 762.328L47.2766 761.797C46.5125 759.022 46.125 755.925 46.125 752.5H44.125ZM45.3484 762.328C46.1609 765.279 47.2578 767.89 48.6483 770.149L50.3517 769.101C49.0755 767.027 48.0474 764.596 47.2766 761.797L45.3484 762.328ZM48.6483 770.149C50.0319 772.397 51.6424 774.295 53.4848 775.831L54.7652 774.294C53.1076 772.913 51.6348 771.186 50.3517 769.101L48.6483 770.149ZM53.4958 775.84C55.3292 777.324 57.286 778.426 59.3652 779.134L60.0098 777.241C58.1724 776.615 56.4208 775.634 54.7542 774.285L53.4958 775.84ZM60.6875 778.188L60.6875 727.875H58.6875L58.6875 778.188H60.6875ZM0.3125 687.812H-0.6875V688.812H0.3125V687.812ZM0.3125 669.312V668.312H-0.6875V669.312H0.3125ZM104 669.312H105V668.312H104V669.312ZM104 687.812V688.812H105V687.812H104ZM1.3125 687.812V669.312H-0.6875V687.812H1.3125ZM0.3125 670.312H104V668.312H0.3125V670.312ZM103 669.312V687.812H105V669.312H103ZM104 686.812H0.3125V688.812H104V686.812ZM52.25 646.812L51.8258 647.718L51.8325 647.721L52.25 646.812ZM40.125 637.625L39.3685 638.279L39.3719 638.283L40.125 637.625ZM31.9375 623.188L30.9945 623.52L30.9953 623.523L31.9375 623.188ZM31.9375 585.125L32.8797 585.46L32.8805 585.458L31.9375 585.125ZM40.125 570.688L40.8781 571.345L40.8815 571.342L40.125 570.688ZM52.25 561.5L52.6675 562.409L52.6742 562.406L52.25 561.5ZM82 561.5L81.5758 562.406L81.5825 562.409L82 561.5ZM94.125 570.688L93.3685 571.342L93.3719 571.345L94.125 570.688ZM102.313 585.125L101.37 585.458L101.37 585.46L102.313 585.125ZM102.313 623.188L103.255 623.523L103.255 623.52L102.313 623.188ZM94.125 637.625L94.8781 638.283L94.8815 638.279L94.125 637.625ZM82 646.812L82.4175 647.721L82.4242 647.718L82 646.812ZM75.5625 628.812L75.9633 629.729L75.972 629.725L75.9806 629.721L75.5625 628.812ZM82.5625 623.625L83.3031 624.297L83.3096 624.29L83.3159 624.283L82.5625 623.625ZM87.375 615.312L88.3123 615.661L88.315 615.654L88.3175 615.647L87.375 615.312ZM87.375 593L88.3162 592.662L88.3137 592.655L87.375 593ZM82.5625 584.688L83.3099 584.023L83.3092 584.022L82.5625 584.688ZM75.5625 579.5L75.1498 580.411L75.1564 580.414L75.5625 579.5ZM58.6875 579.5L59.0884 580.416L59.1002 580.411L58.6875 579.5ZM51.6875 584.688L52.4281 585.359L52.4346 585.352L52.4409 585.345L51.6875 584.688ZM46.875 593L47.8123 593.348L47.815 593.341L47.8175 593.334L46.875 593ZM46.875 615.312L47.8162 614.975L47.8137 614.968L46.875 615.312ZM51.6875 623.625L52.4349 622.961L52.4342 622.96L51.6875 623.625ZM58.6875 628.812L58.2747 629.723L58.2867 629.729L58.6875 628.812ZM67.125 649C61.9716 649 57.1563 647.966 52.6675 645.904L51.8325 647.721C56.5937 649.909 61.6951 651 67.125 651V649ZM52.6742 645.907C48.1785 643.801 44.2479 640.824 40.8781 636.967L39.3719 638.283C42.9188 642.343 47.0715 645.491 51.8258 647.718L52.6742 645.907ZM40.8815 636.971C37.5141 633.076 34.8435 628.376 32.8797 622.852L30.9953 623.523C33.0315 629.249 35.8192 634.174 39.3685 638.279L40.8815 636.971ZM32.8805 622.855C30.9241 617.312 29.9375 611.072 29.9375 604.125H27.9375C27.9375 611.261 28.9509 617.73 30.9945 623.52L32.8805 622.855ZM29.9375 604.125C29.9375 597.177 30.9241 590.96 32.8797 585.46L30.9953 584.79C28.9509 590.54 27.9375 596.989 27.9375 604.125H29.9375ZM32.8805 585.458C34.8443 579.894 37.5141 575.196 40.8781 571.345L39.3719 570.03C35.8192 574.096 33.0307 579.023 30.9945 584.792L32.8805 585.458ZM40.8815 571.342C44.25 567.445 48.1775 564.472 52.6675 562.409L51.8325 560.591C47.0725 562.778 42.9166 565.93 39.3685 570.033L40.8815 571.342ZM52.6742 562.406C57.1616 560.303 61.9745 559.25 67.125 559.25V557.25C61.6921 557.25 56.5884 558.363 51.8258 560.594L52.6742 562.406ZM67.125 559.25C72.2755 559.25 77.0884 560.303 81.5758 562.406L82.4242 560.594C77.6616 558.363 72.5579 557.25 67.125 557.25V559.25ZM81.5825 562.409C86.0725 564.472 90 567.445 93.3685 571.342L94.8815 570.033C91.3334 565.93 87.1775 562.778 82.4175 560.591L81.5825 562.409ZM93.3719 571.345C96.7359 575.196 99.4057 579.894 101.37 585.458L103.255 584.792C101.219 579.023 98.4308 574.096 94.8781 570.03L93.3719 571.345ZM101.37 585.46C103.326 590.96 104.313 597.177 104.313 604.125H106.313C106.313 596.989 105.299 590.54 103.255 584.79L101.37 585.46ZM104.313 604.125C104.313 611.072 103.326 617.312 101.37 622.855L103.255 623.52C105.299 617.73 106.313 611.261 106.313 604.125H104.313ZM101.37 622.852C99.4065 628.376 96.7359 633.076 93.3685 636.971L94.8815 638.279C98.4308 634.174 101.218 629.249 103.255 623.523L101.37 622.852ZM93.3719 636.967C90.0021 640.824 86.0715 643.801 81.5758 645.907L82.4242 647.718C87.1785 645.491 91.3312 642.343 94.8781 638.283L93.3719 636.967ZM81.5825 645.904C77.0937 647.966 72.2784 649 67.125 649V651C72.5549 651 77.6563 649.909 82.4175 647.721L81.5825 645.904ZM67.125 631.562C70.219 631.562 73.1681 630.952 75.9633 629.729L75.1617 627.896C72.6235 629.007 69.9477 629.562 67.125 629.562V631.562ZM75.9806 629.721C78.7342 628.453 81.1757 626.641 83.3031 624.297L81.8219 622.953C79.866 625.109 77.6408 626.755 75.1444 627.904L75.9806 629.721ZM83.3159 624.283C85.4057 621.888 87.0677 619.009 88.3123 615.661L86.4377 614.964C85.2656 618.116 83.7193 620.779 81.8091 622.967L83.3159 624.283ZM88.3175 615.647C89.5288 612.229 90.125 608.384 90.125 604.125H88.125C88.125 608.199 87.5546 611.812 86.4325 614.978L88.3175 615.647ZM90.125 604.125C90.125 599.866 89.5289 596.04 88.3162 592.662L86.4338 593.338C87.5545 596.46 88.125 600.05 88.125 604.125H90.125ZM88.3137 592.655C87.0692 589.265 85.4057 586.381 83.3099 584.023L81.8151 585.352C83.7193 587.494 85.2641 590.151 86.4363 593.345L88.3137 592.655ZM83.3092 584.022C81.1795 581.632 78.7323 579.814 75.9686 578.586L75.1564 580.414C77.6427 581.519 79.8621 583.16 81.8158 585.353L83.3092 584.022ZM75.9752 578.589C73.1775 577.321 70.2241 576.688 67.125 576.688V578.688C69.9425 578.688 72.6142 579.262 75.1498 580.411L75.9752 578.589ZM67.125 576.688C64.0259 576.688 61.0725 577.321 58.2748 578.589L59.1002 580.411C61.6358 579.262 64.3075 578.688 67.125 578.688V576.688ZM58.2867 578.584C55.4787 579.812 53.0266 581.632 50.9341 584.03L52.4409 585.345C54.3484 583.159 56.5629 581.521 59.0883 580.416L58.2867 578.584ZM50.9469 584.016C48.8039 586.377 47.1368 589.268 45.9325 592.666L47.8175 593.334C48.9465 590.149 50.4878 587.498 52.4281 585.359L50.9469 584.016ZM45.9377 592.652C44.6805 596.033 44.0625 599.863 44.0625 604.125H46.0625C46.0625 600.054 46.6529 596.467 47.8123 593.348L45.9377 592.652ZM44.0625 604.125C44.0625 608.388 44.6806 612.236 45.9363 615.657L47.8137 614.968C46.6528 611.805 46.0625 608.196 46.0625 604.125H44.0625ZM45.9338 615.65C47.1384 619.006 48.804 621.892 50.9408 624.29L52.4342 622.96C50.4877 620.775 48.945 618.119 47.8162 614.975L45.9338 615.65ZM50.9401 624.289C53.0305 626.641 55.4769 628.456 58.2748 629.723L59.1002 627.902C56.5648 626.753 54.3445 625.109 52.4349 622.961L50.9401 624.289ZM58.2867 629.729C61.0819 630.952 64.031 631.562 67.125 631.562V629.562C64.3023 629.562 61.6265 629.007 59.0883 627.896L58.2867 629.729ZM134.125 521.562H135.125V520.562H134.125V521.562ZM134.125 540.062V541.062H135.125V540.062H134.125ZM30.25 540.062H29.25V541.062H30.25V540.062ZM30.25 521.562V520.562H29.25V521.562H30.25ZM37.1875 521.562V522.562H39.0961L38.0097 520.993L37.1875 521.562ZM29.625 500.812L30.6134 500.66L30.6122 500.653L30.611 500.646L29.625 500.812ZM31.6875 475.5L32.6308 475.832L32.6316 475.83L31.6875 475.5ZM39.4375 462L38.6901 461.336L39.4375 462ZM51.4375 453.25L51.8452 454.163L51.855 454.159L51.4375 453.25ZM82.75 453.375L83.1746 452.47L83.1716 452.468L82.75 453.375ZM94.875 462.562L95.6331 461.91L95.6325 461.91L94.875 462.562ZM102.625 476.438L103.573 476.119L103.571 476.115L102.625 476.438ZM104.813 501.75L105.804 501.878L105.805 501.876L104.813 501.75ZM103.438 509.25L104.409 509.489L104.41 509.485L103.438 509.25ZM101.375 516L102.303 516.371L102.308 516.36L102.312 516.349L101.375 516ZM98.6875 521.562L97.8261 521.055L96.9368 522.562H98.6875V521.562ZM80.8125 521.562V522.562H81.2931L81.5934 522.187L80.8125 521.562ZM88.6875 502.688L89.6763 502.837L89.6777 502.828L89.6789 502.818L88.6875 502.688ZM87.4375 484.938L88.3838 484.614L88.3814 484.607L87.4375 484.938ZM82.6875 476.562L81.934 477.22L81.9401 477.227L82.6875 476.562ZM58.4375 471.312L58.8437 472.226L58.8556 472.221L58.4375 471.312ZM51.5625 476.438L52.3037 477.109L52.3103 477.101L52.3168 477.094L51.5625 476.438ZM46.875 484.5L47.8118 484.85L47.8146 484.842L47.8173 484.835L46.875 484.5ZM45.875 502.562L46.8586 502.382L46.8572 502.374L46.8556 502.366L45.875 502.562ZM47.875 509.812L46.9387 510.164L46.9408 510.169L47.875 509.812ZM51.0625 516.312L50.2096 516.835L50.2145 516.842L51.0625 516.312ZM55.25 521.562L54.5526 522.279L54.8438 522.562H55.25V521.562ZM133.125 521.562V540.062H135.125V521.562H133.125ZM134.125 539.062H30.25V541.062H134.125V539.062ZM31.25 540.062V521.562H29.25V540.062H31.25ZM30.25 522.562H37.1875V520.562H30.25V522.562ZM38.0097 520.993C36.9256 519.427 35.8915 517.565 34.911 515.4L33.089 516.225C34.1085 518.476 35.1994 520.448 36.3653 522.132L38.0097 520.993ZM34.911 515.4C33.9316 513.237 33.0723 510.906 32.3341 508.404L30.4159 508.971C31.1777 511.552 32.0684 513.971 33.089 516.225L34.911 515.4ZM32.3341 508.404C31.5972 505.907 31.0235 503.326 30.6134 500.66L28.6366 500.965C29.0599 503.716 29.6528 506.384 30.4159 508.971L32.3341 508.404ZM30.611 500.646C30.1618 497.992 29.9375 495.339 29.9375 492.688H27.9375C27.9375 495.453 28.1715 498.217 28.639 500.979L30.611 500.646ZM29.9375 492.688C29.9375 486.536 30.8396 480.921 32.6308 475.832L30.7442 475.168C28.8687 480.496 27.9375 486.339 27.9375 492.688H29.9375ZM32.6316 475.83C34.4265 470.69 36.9473 466.307 40.1849 462.664L38.6901 461.336C35.261 465.193 32.6151 469.81 30.7434 475.17L32.6316 475.83ZM40.1849 462.664C43.4221 459.022 47.3056 456.19 51.8452 454.163L51.0298 452.337C46.236 454.477 42.1195 457.478 38.6901 461.336L40.1849 462.664ZM51.855 454.159C56.3358 452.1 61.3163 451.062 66.8125 451.062V449.062C61.0587 449.062 55.7892 450.15 51.02 452.341L51.855 454.159ZM66.8125 451.062C72.5597 451.062 77.7257 452.142 82.3284 454.282L83.1716 452.468C78.2743 450.191 72.8153 449.062 66.8125 449.062V451.062ZM82.3254 454.28C86.9069 456.429 90.835 459.406 94.1175 463.215L95.6325 461.91C92.165 457.886 88.0097 454.737 83.1746 452.47L82.3254 454.28ZM94.1169 463.215C97.3582 466.983 99.8818 471.493 101.679 476.76L103.571 476.115C101.702 470.632 99.0584 465.892 95.6331 461.91L94.1169 463.215ZM101.677 476.756C103.431 481.976 104.313 487.659 104.313 493.812H106.313C106.313 487.466 105.403 481.566 103.573 476.119L101.677 476.756ZM104.313 493.812C104.313 496.437 104.148 499.041 103.82 501.624L105.805 501.876C106.143 499.209 106.313 496.521 106.313 493.812H104.313ZM103.821 501.622C103.492 504.171 103.04 506.635 102.465 509.015L104.41 509.485C105.002 507.031 105.467 504.495 105.804 501.878L103.821 501.622ZM102.466 509.011C101.892 511.352 101.215 513.565 100.438 515.651L102.312 516.349C103.118 514.185 103.817 511.898 104.409 509.489L102.466 509.011ZM100.447 515.629C99.6286 517.673 98.7544 519.481 97.8261 521.055L99.5489 522.07C100.537 520.394 101.455 518.493 102.303 516.371L100.447 515.629ZM98.6875 522.562H134.125V520.562H98.6875V522.562ZM81.5934 522.187C83.136 520.259 84.4453 518.22 85.5194 516.072L83.7306 515.178C82.7214 517.196 81.489 519.116 80.0316 520.938L81.5934 522.187ZM85.5194 516.072C86.5851 513.941 87.46 511.765 88.1433 509.544L86.2317 508.956C85.5817 511.069 84.7483 513.142 83.7306 515.178L85.5194 516.072ZM88.1433 509.544C88.8243 507.331 89.3355 505.095 89.6763 502.837L87.6987 502.538C87.3729 504.697 86.884 506.836 86.2317 508.956L88.1433 509.544ZM89.6789 502.818C89.9759 500.57 90.125 498.38 90.125 496.25H88.125C88.125 498.287 87.9824 500.389 87.6961 502.557L89.6789 502.818ZM90.125 496.25C90.125 491.914 89.5512 488.03 88.3838 484.614L86.4912 485.261C87.5738 488.428 88.125 492.086 88.125 496.25H90.125ZM88.3814 484.607C87.179 481.172 85.5352 478.261 83.4349 475.898L81.9401 477.227C83.8398 479.364 85.3627 482.037 86.4936 485.268L88.3814 484.607ZM83.4409 475.905C81.348 473.507 78.8767 471.668 76.0324 470.399L75.2176 472.226C77.7899 473.373 80.027 475.035 81.9341 477.22L83.4409 475.905ZM76.0324 470.399C73.1873 469.13 70.1099 468.5 66.8125 468.5V470.5C69.8484 470.5 72.646 471.078 75.2176 472.226L76.0324 470.399ZM66.8125 468.5C63.7133 468.5 60.7787 469.134 58.0194 470.404L58.8556 472.221C61.3463 471.074 63.995 470.5 66.8125 470.5V468.5ZM58.0314 470.399C55.2677 471.627 52.8586 473.425 50.8082 475.781L52.3168 477.094C54.183 474.95 56.3573 473.331 58.8436 472.226L58.0314 470.399ZM50.8213 475.766C48.7221 478.084 47.0962 480.89 45.9327 484.165L47.8173 484.835C48.9038 481.777 50.4029 479.208 52.3037 477.109L50.8213 475.766ZM45.9382 484.15C44.7231 487.405 44.125 491.047 44.125 495.062H46.125C46.125 491.245 46.6935 487.845 47.8118 484.85L45.9382 484.15ZM44.125 495.062C44.125 497.63 44.3818 500.195 44.8944 502.759L46.8556 502.366C46.3682 499.93 46.125 497.495 46.125 495.062H44.125ZM44.8914 502.743C45.3602 505.3 46.0425 507.774 46.9387 510.164L48.8113 509.461C47.9575 507.185 47.3065 504.825 46.8586 502.382L44.8914 502.743ZM46.9408 510.169C47.8372 512.517 48.9267 514.739 50.2096 516.835L51.9154 515.79C50.6983 513.802 49.6628 511.691 48.8092 509.456L46.9408 510.169ZM50.2145 516.842C51.503 518.904 52.9482 520.718 54.5526 522.279L55.9474 520.846C54.4684 519.407 53.122 517.721 51.9105 515.783L50.2145 516.842ZM55.25 522.562H80.8125V520.562H55.25V522.562ZM30.25 432.062H29.25V433.062H30.25V432.062ZM30.25 413.562V412.562H29.25V413.562H30.25ZM36.5 413.562V414.562H38.2853L37.3527 413.04L36.5 413.562ZM30.625 400.062L31.5957 399.822L31.5941 399.816L30.625 400.062ZM40.25 358.312L40.9283 359.047L41.5999 358.427L41.0426 357.703L40.25 358.312ZM35 350.312L35.8801 349.838L35.8742 349.827L35 350.312ZM31.5 342.438L32.4487 342.121L32.4464 342.115L32.4441 342.108L31.5 342.438ZM29.5625 334.438L30.553 334.3L30.552 334.293L30.5509 334.285L29.5625 334.438ZM31.4375 309.625L32.3846 309.946L32.387 309.939L31.4375 309.625ZM38.75 297.062L39.4787 297.747L39.4828 297.743L38.75 297.062ZM50.9375 289L51.2965 289.933L51.3061 289.93L50.9375 289ZM104 286.125H105V285.125H104V286.125ZM104 304.562V305.562H105V304.562H104ZM59.9375 306.312L60.2684 307.256L60.2758 307.254L60.2832 307.251L59.9375 306.312ZM51.875 311.125L52.5539 311.859L52.561 311.853L52.5681 311.846L51.875 311.125ZM46.875 318.5L47.7997 318.881L47.803 318.873L47.8062 318.864L46.875 318.5ZM45.6875 333.625L46.6733 333.457L46.6716 333.447L46.6697 333.437L45.6875 333.625ZM47.3125 339.375L46.384 339.746L46.387 339.754L47.3125 339.375ZM50.1875 344.562L51.0097 343.993L51.0048 343.986L50.9998 343.979L50.1875 344.562ZM54.1875 348.812L53.5706 349.6L53.8423 349.812H54.1875V348.812ZM104 348.812H105V347.812H104V348.812ZM104 367.25V368.25H105V367.25H104ZM59.9375 369L60.2684 369.944L60.2758 369.941L60.2832 369.938L59.9375 369ZM51.875 373.812L52.5539 374.547L52.561 374.54L52.5681 374.533L51.875 373.812ZM46.875 381.25L47.8016 381.626L47.8049 381.618L47.808 381.61L46.875 381.25ZM45.8125 397.188L46.7938 396.995L46.7924 396.988L46.7908 396.981L45.8125 397.188ZM47.625 403.375L46.6952 403.743L46.6979 403.75L47.625 403.375ZM50.5 408.938L49.6588 409.478L49.6648 409.487L50.5 408.938ZM54.3125 413.562L53.616 414.28L53.907 414.562H54.3125V413.562ZM104 413.562H105V412.562H104V413.562ZM104 432.062V433.062H105V432.062H104ZM31.25 432.062V413.562H29.25V432.062H31.25ZM30.25 414.562H36.5V412.562H30.25V414.562ZM37.3527 413.04C34.5624 408.485 32.65 404.08 31.5957 399.822L29.6543 400.303C30.7667 404.795 32.7709 409.39 35.6473 414.085L37.3527 413.04ZM31.5941 399.816C30.4879 395.473 29.9375 391.244 29.9375 387.125H27.9375C27.9375 391.423 28.5121 395.819 29.6559 400.309L31.5941 399.816ZM29.9375 387.125C29.9375 381.358 30.8575 376.084 32.6844 371.294L30.8156 370.581C28.8925 375.624 27.9375 381.142 27.9375 387.125H29.9375ZM32.6844 371.294C34.5055 366.518 37.2523 362.44 40.9283 359.047L39.5717 357.578C35.6643 361.185 32.7445 365.523 30.8156 370.581L32.6844 371.294ZM41.0426 357.703C38.9874 355.031 37.2679 352.409 35.88 349.838L34.12 350.787C35.5655 353.466 37.346 356.177 39.4574 358.922L41.0426 357.703ZM35.8742 349.827C34.4433 347.251 33.3026 344.683 32.4487 342.121L30.5513 342.754C31.4474 345.442 32.64 348.124 34.1258 350.798L35.8742 349.827ZM32.4441 342.108C31.5489 339.544 30.9188 336.942 30.553 334.3L28.572 334.575C28.9562 337.35 29.6178 340.081 30.5559 342.767L32.4441 342.108ZM30.5509 334.285C30.1423 331.63 29.9375 328.889 29.9375 326.062H27.9375C27.9375 328.986 28.1494 331.829 28.5741 334.59L30.5509 334.285ZM29.9375 326.062C29.9375 320.113 30.7582 314.744 32.3846 309.946L30.4904 309.304C28.7835 314.339 27.9375 319.929 27.9375 326.062H29.9375ZM32.387 309.939C33.9705 305.148 36.3373 301.09 39.4787 297.747L38.0213 296.378C34.6627 299.952 32.1545 304.269 30.488 309.311L32.387 309.939ZM39.4828 297.743C42.6197 294.365 46.5502 291.759 51.2965 289.933L50.5785 288.067C45.5748 289.991 41.3803 292.76 38.0172 296.382L39.4828 297.743ZM51.3061 289.93C55.9989 288.069 61.4735 287.125 67.75 287.125V285.125C61.2765 285.125 55.5428 286.098 50.5689 288.07L51.3061 289.93ZM67.75 287.125H104V285.125H67.75V287.125ZM103 286.125V304.562H105V286.125H103ZM104 303.562H70.75V305.562H104V303.562ZM70.75 303.562C66.6131 303.562 62.8886 304.16 59.5918 305.374L60.2832 307.251C63.3197 306.132 66.8036 305.562 70.75 305.562V303.562ZM59.6066 305.369C56.2807 306.535 53.4647 308.209 51.1819 310.404L52.5681 311.846C54.6186 309.874 57.1776 308.34 60.2684 307.256L59.6066 305.369ZM51.1961 310.391C48.8738 312.538 47.1223 315.124 45.9438 318.136L47.8062 318.864C48.8777 316.126 50.4595 313.796 52.5539 311.859L51.1961 310.391ZM45.9503 318.119C44.7285 321.087 44.125 324.343 44.125 327.875H46.125C46.125 324.574 46.6882 321.58 47.7997 318.881L45.9503 318.119ZM44.125 327.875C44.125 329.817 44.3192 331.797 44.7053 333.813L46.6697 333.437C46.3058 331.537 46.125 329.683 46.125 327.875H44.125ZM44.7017 333.793C45.0471 335.822 45.6082 337.807 46.384 339.746L48.241 339.004C47.5168 337.193 46.9946 335.345 46.6733 333.457L44.7017 333.793ZM46.387 339.754C47.1669 341.66 48.1634 343.458 49.3752 345.146L50.9998 343.979C49.8783 342.417 48.9581 340.757 48.238 338.996L46.387 339.754ZM49.3653 345.132C50.5469 346.838 51.9493 348.329 53.5706 349.6L54.8044 348.025C53.3424 346.88 52.0781 345.537 51.0097 343.993L49.3653 345.132ZM54.1875 349.812H104V347.812H54.1875V349.812ZM103 348.812V367.25H105V348.812H103ZM104 366.25H70.75V368.25H104V366.25ZM70.75 366.25C66.6131 366.25 62.8886 366.847 59.5918 368.062L60.2832 369.938C63.3197 368.82 66.8036 368.25 70.75 368.25V366.25ZM59.6066 368.056C56.2807 369.223 53.4647 370.897 51.1819 373.092L52.5681 374.533C54.6186 372.562 57.1776 371.027 60.2684 369.944L59.6066 368.056ZM51.1961 373.078C48.8711 375.228 47.1198 377.837 45.942 380.89L47.808 381.61C48.8802 378.83 50.4622 376.481 52.5539 374.547L51.1961 373.078ZM45.9484 380.874C44.728 383.881 44.125 387.178 44.125 390.75H46.125C46.125 387.406 46.6887 384.369 47.8016 381.626L45.9484 380.874ZM44.125 390.75C44.125 392.947 44.362 395.163 44.8342 397.394L46.7908 396.981C46.3463 394.879 46.125 392.803 46.125 390.75H44.125ZM44.8312 397.38C45.2595 399.565 45.8809 401.686 46.6952 403.743L48.5548 403.007C47.7858 401.064 47.1988 399.06 46.7938 396.995L44.8312 397.38ZM46.6979 403.75C47.5126 405.765 48.4995 407.675 49.6588 409.478L51.3412 408.397C50.2505 406.7 49.3207 404.902 48.5521 403L46.6979 403.75ZM49.6648 409.487C50.8284 411.254 52.1453 412.853 53.616 414.28L55.009 412.845C53.6463 411.522 52.4216 410.037 51.3352 408.388L49.6648 409.487ZM54.3125 414.562H104V412.562H54.3125V414.562ZM103 413.562V432.062H105L105 413.562H103ZM104 431.062H30.25V433.062H104V431.062ZM52.5625 263.25L52.9725 262.338L52.9694 262.337L52.5625 263.25ZM32.0625 240.375L31.1256 240.725L31.1265 240.727L32.0625 240.375ZM32.125 202.375L33.0605 202.728L33.0636 202.72L32.125 202.375ZM40.75 188L41.48 188.683L41.4836 188.68L40.75 188ZM53.6875 178.938L54.0749 179.859L54.0814 179.857L53.6875 178.938ZM71.9375 175.812L71.8876 176.811L71.9125 176.812H71.9375V175.812ZM74.125 175.938H75.125V175.055L74.249 174.945L74.125 175.938ZM74.125 245.688H73.125V247.108L74.4625 246.629L74.125 245.688ZM80.1875 241.875L80.878 242.598L80.8864 242.59L80.1875 241.875ZM88.0625 225.938L89.0404 226.147L89.0426 226.136L88.0625 225.938ZM87.8125 201.625L88.7916 201.421L88.7896 201.412L87.8125 201.625ZM84.375 189.562L83.9704 188.648L83.1196 189.024L83.4337 189.9L84.375 189.562ZM98.5 183.312L99.4066 182.89L98.9925 182.001L98.0954 182.398L98.5 183.312ZM101.5 190.688L102.447 190.366L102.444 190.357L101.5 190.688ZM103.625 198.438L104.605 198.238L104.603 198.227L103.625 198.438ZM104.875 206.875L103.88 206.973L103.88 206.975L104.875 206.875ZM94.125 253.625L94.8976 254.26L94.125 253.625ZM59.6875 195.375H60.6875V193.997L59.3771 194.424L59.6875 195.375ZM54 198.5L54.6088 199.293L54.6191 199.285L54.6292 199.277L54 198.5ZM49.375 203.688L50.2173 204.227L50.2211 204.221L50.2249 204.214L49.375 203.688ZM54.125 242.562L53.4848 243.331L53.4903 243.335L53.4958 243.34L54.125 242.562ZM59.6875 245.688L59.3652 246.634L60.6875 247.084V245.688H59.6875ZM66.875 265.312C62.0157 265.312 57.3847 264.321 52.9725 262.338L52.1525 264.162C56.8236 266.262 61.7343 267.312 66.875 267.312V265.312ZM52.9694 262.337C48.5163 260.353 44.5864 257.498 41.176 253.763L39.699 255.112C43.2886 259.043 47.4421 262.064 52.1556 264.163L52.9694 262.337ZM41.176 253.763C37.7729 250.036 35.0434 245.462 32.9985 240.023L31.1265 240.727C33.2483 246.371 36.1021 251.172 39.699 255.112L41.176 253.763ZM32.9994 240.025C30.9648 234.573 29.9375 228.361 29.9375 221.375H27.9375C27.9375 228.556 28.9935 235.011 31.1256 240.725L32.9994 240.025ZM29.9375 221.375C29.9375 214.434 30.9848 208.223 33.0605 202.728L31.1895 202.022C29.0152 207.777 27.9375 214.233 27.9375 221.375H29.9375ZM33.0636 202.72C35.1065 197.163 37.9156 192.491 41.48 188.683L40.02 187.317C36.2511 191.342 33.3102 196.253 31.1864 202.03L33.0636 202.72ZM41.4836 188.68C45.0538 184.825 49.2483 181.887 54.0749 179.859L53.3001 178.016C48.21 180.154 43.7796 183.258 40.0164 187.32L41.4836 188.68ZM54.0814 179.857C58.909 177.788 64.0868 176.75 69.625 176.75V174.75C63.8299 174.75 58.3826 175.837 53.2936 178.018L54.0814 179.857ZM69.625 176.75C70.3141 176.75 71.068 176.77 71.8876 176.811L71.9874 174.814C71.1403 174.771 70.3526 174.75 69.625 174.75V176.75ZM71.9375 176.812C72.6948 176.812 73.3819 176.852 74.001 176.93L74.249 174.945C73.5347 174.856 72.7635 174.812 71.9375 174.812V176.812ZM73.125 175.938V245.688H75.125V175.938H73.125ZM74.4625 246.629C76.8127 245.786 78.9517 244.437 80.878 242.598L79.497 241.152C77.7566 242.813 75.8539 244.005 73.7875 244.746L74.4625 246.629ZM80.8864 242.59C82.8112 240.709 84.4568 238.385 85.8319 235.635L84.0431 234.74C82.7516 237.323 81.2305 239.457 79.4886 241.16L80.8864 242.59ZM85.8319 235.635C87.2096 232.879 88.276 229.714 89.0403 226.147L87.0847 225.728C86.349 229.161 85.3321 232.162 84.0431 234.74L85.8319 235.635ZM89.0426 226.136C89.7664 222.56 90.125 218.617 90.125 214.312H88.125C88.125 218.508 87.7753 222.315 87.0824 225.739L89.0426 226.136ZM90.125 214.312C90.125 209.993 89.6803 205.696 88.7916 201.421L86.8334 201.829C87.6947 205.971 88.125 210.132 88.125 214.312H90.125ZM88.7896 201.412C87.8642 197.164 86.7067 193.101 85.3163 189.225L83.4337 189.9C84.7933 193.69 85.9274 197.669 86.8354 201.838L88.7896 201.412ZM84.7796 190.477L98.9046 184.227L98.0954 182.398L83.9704 188.648L84.7796 190.477ZM97.5934 183.735C98.7046 186.121 99.6921 188.549 100.556 191.018L102.444 190.357C101.558 187.826 100.545 185.337 99.4066 182.89L97.5934 183.735ZM100.553 191.009C101.373 193.428 102.072 195.975 102.647 198.648L104.603 198.227C104.012 195.484 103.293 192.863 102.447 190.366L100.553 191.009ZM102.645 198.637C103.179 201.267 103.591 204.046 103.88 206.973L105.87 206.777C105.575 203.788 105.154 200.941 104.605 198.238L102.645 198.637ZM103.88 206.975C104.168 209.855 104.313 212.905 104.313 216.125H106.313C106.313 212.845 106.165 209.729 105.87 206.775L103.88 206.975ZM104.313 216.125C104.313 224.339 103.322 231.503 101.36 237.633L103.265 238.242C105.303 231.872 106.313 224.494 106.313 216.125H104.313ZM101.36 237.633C99.3909 243.786 96.7159 248.897 93.3524 252.99L94.8976 254.26C98.4508 249.936 101.234 244.589 103.265 238.242L101.36 237.633ZM93.3524 252.99C89.9847 257.088 86.0423 260.157 81.5231 262.215L82.3519 264.035C87.166 261.843 91.3486 258.579 94.8976 254.26L93.3524 252.99ZM81.5231 262.215C76.9928 264.278 72.1141 265.312 66.875 265.312V267.312C72.3859 267.312 77.5489 266.222 82.3519 264.035L81.5231 262.215ZM59.3771 194.424C57.2139 195.131 55.211 196.233 53.3708 197.723L54.6292 199.277C56.289 197.934 58.0777 196.953 59.9979 196.326L59.3771 194.424ZM53.3912 197.707C51.4959 199.161 49.8749 200.983 48.5251 203.161L50.2249 204.214C51.4584 202.225 52.9208 200.589 54.6088 199.293L53.3912 197.707ZM48.5327 203.148C47.1373 205.329 46.0579 207.841 45.2852 210.674L47.2148 211.201C47.9421 208.534 48.9461 206.213 50.2173 204.227L48.5327 203.148ZM45.2852 210.674C44.5086 213.522 44.125 216.633 44.125 220H46.125C46.125 216.784 46.4914 213.853 47.2148 211.201L45.2852 210.674ZM44.125 220C44.125 223.575 44.5292 226.853 45.3484 229.828L47.2766 229.297C46.5125 226.522 46.125 223.425 46.125 220H44.125ZM45.3484 229.828C46.1609 232.779 47.2578 235.39 48.6483 237.649L50.3517 236.601C49.0755 234.527 48.0474 232.096 47.2766 229.297L45.3484 229.828ZM48.6483 237.649C50.0319 239.897 51.6424 241.795 53.4848 243.331L54.7652 241.794C53.1076 240.413 51.6348 238.686 50.3517 236.601L48.6483 237.649ZM53.4958 243.34C55.3292 244.824 57.286 245.926 59.3652 246.634L60.0098 244.741C58.1724 244.115 56.4208 243.134 54.7542 241.785L53.4958 243.34ZM60.6875 245.688V195.375H58.6875V245.688H60.6875ZM30.25 155.812H29.25V156.812H30.25V155.812ZM30.25 137.312V136.312H29.25V137.312H30.25ZM36.5 137.312V138.312H38.2178L37.3696 136.819L36.5 137.312ZM30.625 123.25L29.6549 123.493L29.6554 123.495L30.625 123.25ZM31.4375 94.4375L32.382 94.766L32.3845 94.7587L31.4375 94.4375ZM50.9375 73.8125L51.3103 74.7405L51.3199 74.7365L50.9375 73.8125ZM104 70.8125H105V69.8125H104V70.8125ZM104 89.25V90.25H105V89.25H104ZM59.9375 91L60.2684 91.9437L60.2758 91.9411L60.2832 91.9383L59.9375 91ZM51.875 95.9375L52.5684 96.6581L52.5753 96.6514L52.5821 96.6446L51.875 95.9375ZM46.875 103.75L47.8087 104.108L47.8116 104.1L47.8144 104.093L46.875 103.75ZM45.75 120.188L44.7687 120.38L44.7694 120.384L45.75 120.188ZM47.5625 126.375L48.4989 126.024L48.4949 126.013L47.5625 126.375ZM50.4375 132.188L51.295 131.673L51.2908 131.666L51.2866 131.659L50.4375 132.188ZM54.3125 137.312L53.586 138L53.8819 138.312H54.3125V137.312ZM104 137.312H105V136.312H104V137.312ZM104 155.812V156.812H105V155.812H104ZM31.25 155.812L31.25 137.312H29.25L29.25 155.812H31.25ZM30.25 138.312H36.5V136.312H30.25V138.312ZM37.3696 136.819C34.6126 131.963 32.6933 127.359 31.5946 123.005L29.6554 123.495C30.8067 128.057 32.8041 132.829 35.6304 137.806L37.3696 136.819ZM31.5951 123.007C30.4884 118.58 29.9375 114.266 29.9375 110.062H27.9375C27.9375 114.442 28.5116 118.92 29.6549 123.493L31.5951 123.007ZM29.9375 110.062C29.9375 104.537 30.7558 99.4412 32.382 94.766L30.493 94.109C28.7858 99.0171 27.9375 104.338 27.9375 110.062H29.9375ZM32.3845 94.7587C33.967 90.0924 36.3344 86.0711 39.4828 82.6805L38.0172 81.3195C34.6656 84.9289 32.158 89.1992 30.4905 94.1163L32.3845 94.7587ZM39.4828 82.6805C42.6228 79.2989 46.5582 76.6494 51.3103 74.7404L50.5647 72.8846C45.5668 74.8923 41.3772 77.7011 38.0172 81.3195L39.4828 82.6805ZM51.3199 74.7365C56.0086 72.7964 61.4783 71.8125 67.75 71.8125V69.8125C61.2717 69.8125 55.5331 70.8286 50.5551 72.8885L51.3199 74.7365ZM67.75 71.8125H104V69.8125H67.75V71.8125ZM103 70.8125L103 89.25H105V70.8125H103ZM104 88.25H70.75V90.25H104V88.25ZM70.75 88.25C66.6131 88.25 62.8886 88.847 59.5918 90.0617L60.2832 91.9383C63.3197 90.8196 66.8036 90.25 70.75 90.25V88.25ZM59.6066 90.0563C56.2724 91.2255 53.4518 92.9465 51.1679 95.2304L52.5821 96.6446C54.6316 94.5952 57.186 93.0245 60.2684 91.9437L59.6066 90.0563ZM51.1816 95.2169C48.8559 97.4549 47.109 100.191 45.9356 103.407L47.8144 104.093C48.891 101.142 50.4774 98.6701 52.5684 96.6581L51.1816 95.2169ZM45.9413 103.392C44.7243 106.565 44.125 110.106 44.125 114H46.125C46.125 110.311 46.6924 107.018 47.8087 104.108L45.9413 103.392ZM44.125 114C44.125 116.07 44.3406 118.197 44.7687 120.38L46.7313 119.995C46.3261 117.928 46.125 115.93 46.125 114H44.125ZM44.7694 120.384C45.1977 122.525 45.8183 124.643 46.6301 126.737L48.4949 126.013C47.7234 124.024 47.1356 122.017 46.7306 119.991L44.7694 120.384ZM46.6262 126.726C47.4001 128.79 48.3881 130.787 49.5884 132.716L51.2866 131.659C50.1536 129.838 49.2249 127.96 48.4988 126.024L46.6262 126.726ZM49.58 132.702C50.7412 134.637 52.0764 136.404 53.586 138L55.039 136.625C53.6319 135.138 52.3838 133.488 51.295 131.673L49.58 132.702ZM54.3125 138.312H104V136.312H54.3125V138.312ZM103 137.312V155.812H105V137.312H103ZM104 154.812H30.25V156.812H104V154.812ZM44.125 36.9375V35.9375H43.125V36.9375H44.125ZM44.125 54.75V55.75H45.125V54.75H44.125ZM30.25 54.75H29.25V55.75H30.25V54.75ZM30.25 36.9375H31.25V35.9375H30.25V36.9375ZM7.3125 36.9375H6.3125V37.9375H7.3125V36.9375ZM7.3125 18.4375V17.4375H6.3125V18.4375H7.3125ZM30.25 18.4375V19.4375H31.25V18.4375H30.25ZM30.25 0.625V-0.375H29.25V0.625H30.25ZM44.125 0.625H45.125V-0.375H44.125V0.625ZM44.125 18.4375H43.125V19.4375H44.125V18.4375ZM104 18.4375H105V17.4375H104V18.4375ZM104 36.9375V37.9375H105V36.9375H104ZM43.125 36.9375V54.75H45.125V36.9375H43.125ZM44.125 53.75H30.25V55.75H44.125V53.75ZM31.25 54.75V36.9375H29.25V54.75H31.25ZM30.25 35.9375H7.3125V37.9375H30.25V35.9375ZM8.3125 36.9375V18.4375H6.3125V36.9375H8.3125ZM7.3125 19.4375H30.25V17.4375H7.3125V19.4375ZM31.25 18.4375V0.625H29.25V18.4375H31.25ZM30.25 1.625H44.125V-0.375H30.25V1.625ZM43.125 0.625V18.4375H45.125V0.625H43.125ZM44.125 19.4375H104V17.4375H44.125V19.4375ZM103 18.4375V36.9375H105V18.4375H103ZM104 35.9375H44.125V37.9375H104V35.9375Z" fill="#464646"/>
</svg>
