<svg width="138" height="665" viewBox="0 0 138 665" fill="none" xmlns="http://www.w3.org/2000/svg">
<path d="M131.688 0.875H132.688V-0.125H131.688V0.875ZM129.312 70.0625L128.352 69.7858L128.35 69.7926L129.312 70.0625ZM111.75 91.8125L111.369 90.8878L111.362 90.891L111.75 91.8125ZM86.9375 93.1875L86.6775 94.1531L86.6806 94.1539L86.9375 93.1875ZM77.9375 89.125L78.4922 88.2929L78.4834 88.2871L77.9375 89.125ZM70.5625 82.3125L69.7712 82.924L69.777 82.9314L70.5625 82.3125ZM65.25 72.625L66.1842 72.2681L65.733 71.0872L64.6877 71.7981L65.25 72.625ZM34 93.875H33V95.7643L34.5623 94.7019L34 93.875ZM34 69.625L33.4479 68.7912L33 69.0878V69.625H34ZM61.75 51.25L62.3021 52.0838L62.75 51.7872V51.25H61.75ZM61.75 50.6875L60.75 50.6854V50.6875H61.75ZM61.8125 20.6875L62.8125 20.6896L62.8146 19.6875H61.8125V20.6875ZM34 20.6875H33V21.6875H34V20.6875ZM34 0.875V-0.125H33V0.875H34ZM80.25 60.875L81.2055 60.5799L81.2042 60.5759L80.25 60.875ZM83.9375 67.9375L84.7085 67.3006L84.7015 67.2923L83.9375 67.9375ZM89.6875 72.1875L90.0733 71.2649L90.0648 71.2614L89.6875 72.1875ZM109.938 68L109.157 67.3753L109.152 67.3806L109.938 68ZM114.438 20.6875H115.438V19.6875H114.438V20.6875ZM78.9375 20.6875V19.6875H77.9375V20.6875H78.9375ZM130.688 0.875V50.5625H132.688V0.875H130.688ZM130.688 50.5625C130.688 57.9961 129.902 64.3987 128.352 69.7859L130.273 70.3391C131.889 64.7263 132.688 58.1289 132.688 50.5625H130.688ZM128.35 69.7926C126.837 75.1887 124.642 79.6201 121.788 83.1177L123.337 84.3823C126.4 80.6299 128.705 75.9363 130.275 70.3324L128.35 69.7926ZM121.788 83.1177C118.932 86.6165 115.463 89.2022 111.369 90.8878L112.131 92.7372C116.537 90.9228 120.276 88.1335 123.337 84.3823L121.788 83.1177ZM111.362 90.891C107.253 92.623 102.576 93.5 97.3125 93.5V95.5C102.799 95.5 107.747 94.5853 112.138 92.734L111.362 90.891ZM97.3125 93.5C93.7687 93.5 90.397 93.0724 87.1944 92.2211L86.6806 94.1539C90.0613 95.0526 93.6063 95.5 97.3125 95.5V93.5ZM87.1975 92.2219C84.0504 91.3746 81.1502 90.0649 78.4922 88.2929L77.3828 89.9571C80.2248 91.8517 83.3246 93.2504 86.6775 94.1531L87.1975 92.2219ZM78.4834 88.2871C75.8306 86.5588 73.4518 84.3638 71.348 81.6936L69.777 82.9314C72.0066 85.7612 74.5444 88.1079 77.3916 89.9629L78.4834 88.2871ZM71.3538 81.7011C69.2964 79.0386 67.5708 75.8978 66.1842 72.2681L64.3158 72.9819C65.7626 76.7688 67.5786 80.0864 69.7712 82.9239L71.3538 81.7011ZM64.6877 71.7981L33.4377 93.0481L34.5623 94.7019L65.8123 73.4519L64.6877 71.7981ZM35 93.875V69.625H33V93.875H35ZM34.5521 70.4588L62.3021 52.0838L61.1979 50.4162L33.4479 68.7912L34.5521 70.4588ZM62.75 51.25V50.6875H60.75V51.25H62.75ZM62.75 50.6896L62.8125 20.6896L60.8125 20.6854L60.75 50.6854L62.75 50.6896ZM61.8125 19.6875H34V21.6875H61.8125V19.6875ZM35 20.6875V0.875H33V20.6875H35ZM34 1.875L131.688 1.875V-0.125L34 -0.125V1.875ZM77.9375 51.0625C77.9375 54.8869 78.3833 58.2628 79.2958 61.1741L81.2042 60.5759C80.3667 57.9039 79.9375 54.7381 79.9375 51.0625H77.9375ZM79.2945 61.1701C80.2011 64.1056 81.4874 66.586 83.1735 68.5827L84.7015 67.2923C83.2209 65.539 82.0489 63.311 81.2055 60.5799L79.2945 61.1701ZM83.1665 68.5744C84.8526 70.6154 86.9034 72.1331 89.3102 73.1136L90.0648 71.2614C87.9716 70.4086 86.189 69.0929 84.7085 67.3006L83.1665 68.5744ZM89.3017 73.1101C91.7298 74.1255 94.4048 74.625 97.3125 74.625V72.625C94.6369 72.625 92.2285 72.1662 90.0733 71.2649L89.3017 73.1101ZM97.3125 74.625C103.028 74.625 107.546 72.646 110.723 68.6194L109.152 67.3806C106.412 70.854 102.514 72.625 97.3125 72.625V74.625ZM110.718 68.6247C113.921 64.6212 115.438 58.7094 115.438 51.0625H113.438C113.438 58.4989 111.954 63.8788 109.157 67.3753L110.718 68.6247ZM115.438 51.0625V20.6875H113.438V51.0625H115.438ZM114.438 19.6875L78.9375 19.6875V21.6875L114.438 21.6875V19.6875ZM77.9375 20.6875V51.0625H79.9375V20.6875H77.9375ZM85.4375 115.25L85.0275 116.162L85.0306 116.163L85.4375 115.25ZM105.938 138.125L106.874 137.775L106.874 137.773L105.938 138.125ZM105.875 176.125L104.939 175.772L104.936 175.78L105.875 176.125ZM97.25 190.5L96.52 189.817L96.5164 189.82L97.25 190.5ZM84.3125 199.562L83.9251 198.641L83.9186 198.643L84.3125 199.562ZM66.0625 202.688L66.1124 201.689L66.0875 201.688H66.0625V202.688ZM63.875 202.562H62.875V203.445L63.751 203.555L63.875 202.562ZM63.875 132.812H64.875V131.392L63.5375 131.871L63.875 132.812ZM57.8125 136.625L57.122 135.902L57.1136 135.91L57.8125 136.625ZM49.9375 152.562L48.9596 152.353L48.9574 152.364L49.9375 152.562ZM50.1875 176.875L49.2084 177.079L49.2104 177.088L50.1875 176.875ZM53.625 188.938L54.0296 189.852L54.8804 189.476L54.5663 188.6L53.625 188.938ZM39.5 195.188L38.5934 195.61L39.0075 196.499L39.9046 196.102L39.5 195.188ZM36.5 187.812L35.5529 188.134L35.5561 188.143L36.5 187.812ZM34.375 180.062L33.3949 180.262L33.3974 180.273L34.375 180.062ZM33.125 171.625L34.1202 171.527L34.12 171.525L33.125 171.625ZM43.875 124.875L43.1024 124.24L43.875 124.875ZM78.3125 183.125H77.3125V184.503L78.6229 184.076L78.3125 183.125ZM84 180L83.3912 179.207L83.3809 179.215L83.3708 179.223L84 180ZM88.625 174.812L87.7827 174.273L87.7789 174.279L87.7751 174.286L88.625 174.812ZM83.875 135.938L84.5152 135.169L84.5097 135.165L84.5042 135.16L83.875 135.938ZM78.3125 132.812L78.6348 131.866L77.3125 131.416V132.812H78.3125ZM71.125 113.188C75.9843 113.188 80.6153 114.179 85.0275 116.162L85.8475 114.338C81.1764 112.238 76.2657 111.188 71.125 111.188V113.188ZM85.0306 116.163C89.4837 118.147 93.4136 121.002 96.824 124.737L98.301 123.388C94.7114 119.457 90.5579 116.436 85.8444 114.337L85.0306 116.163ZM96.824 124.737C100.227 128.464 102.957 133.038 105.001 138.477L106.874 137.773C104.752 132.129 101.898 127.328 98.301 123.388L96.824 124.737ZM105.001 138.475C107.035 143.927 108.062 150.139 108.062 157.125H110.062C110.062 149.944 109.007 143.489 106.874 137.775L105.001 138.475ZM108.062 157.125C108.063 164.066 107.015 170.277 104.94 175.772L106.81 176.478C108.985 170.723 110.063 164.267 110.062 157.125H108.062ZM104.936 175.78C102.893 181.337 100.084 186.009 96.52 189.817L97.98 191.183C101.749 187.158 104.69 182.247 106.814 176.47L104.936 175.78ZM96.5164 189.82C92.9462 193.675 88.7517 196.613 83.9251 198.641L84.6999 200.484C89.79 198.346 94.2204 195.242 97.9836 191.18L96.5164 189.82ZM83.9186 198.643C79.091 200.712 73.9132 201.75 68.375 201.75V203.75C74.1701 203.75 79.6174 202.663 84.7064 200.482L83.9186 198.643ZM68.375 201.75C67.6859 201.75 66.932 201.73 66.1124 201.689L66.0126 203.686C66.8597 203.729 67.6474 203.75 68.375 203.75V201.75ZM66.0625 201.688C65.3052 201.688 64.6181 201.648 63.999 201.57L63.751 203.555C64.4653 203.644 65.2365 203.688 66.0625 203.688V201.688ZM64.875 202.562V132.812H62.875V202.562H64.875ZM63.5375 131.871C61.1873 132.714 59.0483 134.063 57.122 135.902L58.503 137.348C60.2434 135.687 62.1461 134.495 64.2125 133.754L63.5375 131.871ZM57.1136 135.91C55.1888 137.791 53.5432 140.115 52.1681 142.865L53.9569 143.76C55.2484 141.177 56.7695 139.043 58.5114 137.34L57.1136 135.91ZM52.1681 142.865C50.7904 145.621 49.724 148.786 48.9597 152.353L50.9153 152.772C51.651 149.339 52.6679 146.338 53.9569 143.76L52.1681 142.865ZM48.9574 152.364C48.2336 155.94 47.875 159.883 47.875 164.188H49.875C49.875 159.992 50.2247 156.185 50.9176 152.761L48.9574 152.364ZM47.875 164.188C47.875 168.507 48.3197 172.804 49.2084 177.079L51.1666 176.671C50.3053 172.529 49.875 168.368 49.875 164.188H47.875ZM49.2104 177.088C50.1358 181.336 51.2933 185.399 52.6837 189.275L54.5663 188.6C53.2067 184.81 52.0726 180.831 51.1646 176.662L49.2104 177.088ZM53.2204 188.023L39.0954 194.273L39.9046 196.102L54.0296 189.852L53.2204 188.023ZM40.4066 194.765C39.2954 192.379 38.3079 189.951 37.4439 187.482L35.5561 188.143C36.4421 190.674 37.4546 193.163 38.5934 195.61L40.4066 194.765ZM37.4471 187.491C36.6268 185.072 35.9284 182.525 35.3526 179.852L33.3974 180.273C33.9883 183.016 34.7065 185.637 35.5529 188.134L37.4471 187.491ZM35.355 179.863C34.8207 177.233 34.4088 174.454 34.1202 171.527L32.1298 171.723C32.4245 174.712 32.846 177.559 33.395 180.262L35.355 179.863ZM34.12 171.525C33.832 168.645 33.6875 165.595 33.6875 162.375H31.6875C31.6875 165.655 31.8347 168.771 32.13 171.725L34.12 171.525ZM33.6875 162.375C33.6875 154.161 34.6785 146.997 36.6399 140.867L34.7351 140.258C32.6965 146.628 31.6875 154.006 31.6875 162.375H33.6875ZM36.6399 140.867C38.6091 134.714 41.2841 129.603 44.6476 125.51L43.1024 124.24C39.5492 128.564 36.7659 133.911 34.7351 140.258L36.6399 140.867ZM44.6476 125.51C48.0153 121.412 51.9577 118.343 56.4769 116.285L55.6481 114.465C50.834 116.657 46.6514 119.921 43.1024 124.24L44.6476 125.51ZM56.4769 116.285C61.0072 114.222 65.8859 113.188 71.125 113.188V111.188C65.6141 111.188 60.4511 112.278 55.6481 114.465L56.4769 116.285ZM78.6229 184.076C80.7861 183.369 82.789 182.267 84.6292 180.777L83.3708 179.223C81.711 180.566 79.9223 181.547 78.0021 182.174L78.6229 184.076ZM84.6088 180.793C86.5041 179.339 88.1251 177.517 89.4749 175.339L87.7751 174.286C86.5416 176.275 85.0792 177.911 83.3912 179.207L84.6088 180.793ZM89.4673 175.352C90.8627 173.171 91.9421 170.659 92.7148 167.826L90.7852 167.299C90.0579 169.966 89.0539 172.287 87.7827 174.273L89.4673 175.352ZM92.7148 167.826C93.4914 164.978 93.875 161.867 93.875 158.5H91.875C91.875 161.716 91.5086 164.647 90.7852 167.299L92.7148 167.826ZM93.875 158.5C93.875 154.925 93.4708 151.647 92.6516 148.672L90.7234 149.203C91.4875 151.978 91.875 155.075 91.875 158.5H93.875ZM92.6516 148.672C91.8391 145.721 90.7422 143.11 89.3517 140.851L87.6483 141.899C88.9245 143.973 89.9526 146.404 90.7234 149.203L92.6516 148.672ZM89.3517 140.851C87.9681 138.603 86.3576 136.705 84.5152 135.169L83.2348 136.706C84.8924 138.087 86.3652 139.814 87.6483 141.899L89.3517 140.851ZM84.5042 135.16C82.6708 133.676 80.714 132.574 78.6348 131.866L77.9902 133.759C79.8276 134.385 81.5792 135.366 83.2458 136.715L84.5042 135.16ZM77.3125 132.812V183.125H79.3125V132.812H77.3125ZM66.9375 221.5L67.4048 220.616L66.9375 221.5ZM74.4375 228.438L73.6089 228.997L73.6141 229.005L74.4375 228.438ZM79.3125 239.938L78.3413 240.176L78.3429 240.182L79.3125 239.938ZM80.0625 270.375L79.0713 270.243L79.0711 270.244L80.0625 270.375ZM77 285.938L76.0317 285.688L75.678 287.06L77.0889 286.934L77 285.938ZM83.4375 283.812L82.9204 282.957L82.9124 282.961L83.4375 283.812ZM88.5625 278.75L87.738 278.184L87.7317 278.193L87.7255 278.203L88.5625 278.75ZM91.9375 271L90.9706 270.745L90.9697 270.748L91.9375 271ZM89.75 238.188L90.7115 237.913L90.7103 237.909L89.75 238.188ZM87.0625 230.938L86.7152 230L85.7004 230.376L86.155 231.358L87.0625 230.938ZM102.25 225.312L103.191 224.975L102.851 224.024L101.903 224.375L102.25 225.312ZM105 234.25L105.968 233.999L105.967 233.996L105 234.25ZM107.125 244.062L106.14 244.235L106.142 244.247L107.125 244.062ZM98.5 294.5L97.8102 293.776L98.5 294.5ZM34 304.562H33V305.562H34V304.562ZM34 286.062V285.062H33V286.062H34ZM40.9375 286.062V287.062H42.684L41.7999 285.556L40.9375 286.062ZM37.75 279.75L38.6666 279.35L38.6638 279.344L37.75 279.75ZM33.375 263.75L34.366 263.616L34.365 263.609L34.3638 263.601L33.375 263.75ZM34.5625 238.875L33.6017 238.598L33.601 238.6L34.5625 238.875ZM47.5 221.375L47.0628 220.476L47.0553 220.479L47.0478 220.483L47.5 221.375ZM54.375 239.625L53.8894 238.751L53.8823 238.755L53.8753 238.759L54.375 239.625ZM51.4375 242.625L50.5938 242.088L50.588 242.097L50.5823 242.107L51.4375 242.625ZM49.375 247.875L48.406 247.628L48.4032 247.639L48.4006 247.65L49.375 247.875ZM49.5 265.125L50.4821 264.937L49.5 265.125ZM59 286.062L58.2718 286.748L58.5679 287.062H59V286.062ZM62.25 286.062V287.062H63.0089L63.2131 286.332L62.25 286.062ZM64.25 277.625L63.2688 277.432L63.2683 277.435L64.25 277.625ZM65.5 269.688L64.5088 269.555L64.5076 269.564L64.5065 269.573L65.5 269.688ZM66.1875 262.562L65.1891 262.506L65.189 262.507L66.1875 262.562ZM65.6875 248.125L64.7069 248.321L65.6875 248.125ZM63.8125 242.562L62.9287 243.03L62.934 243.04L62.9396 243.05L63.8125 242.562ZM57.25 220.188C60.6411 220.188 63.708 220.924 66.4702 222.384L67.4048 220.616C64.3336 218.993 60.9423 218.188 57.25 218.188V220.188ZM66.4702 222.384C69.2239 223.84 71.6056 226.032 73.6089 228.997L75.2661 227.878C73.1027 224.676 70.4844 222.244 67.4048 220.616L66.4702 222.384ZM73.6141 229.005C75.655 231.966 77.238 235.681 78.3413 240.176L80.2837 239.699C79.137 235.027 77.47 231.075 75.2609 227.87L73.6141 229.005ZM78.3429 240.182C79.4846 244.708 80.0625 249.998 80.0625 256.062H82.0625C82.0625 249.877 81.4737 244.417 80.2821 239.693L78.3429 240.182ZM80.0625 256.062C80.0625 260.555 79.7327 265.282 79.0713 270.243L81.0537 270.507C81.7256 265.468 82.0625 260.653 82.0625 256.062H80.0625ZM79.0711 270.244C78.4102 275.242 77.3974 280.39 76.0317 285.688L77.9683 286.187C79.3526 280.818 80.3815 275.591 81.0539 270.506L79.0711 270.244ZM77.0889 286.934C79.5741 286.712 81.8697 285.955 83.9626 284.664L82.9124 282.961C81.0887 284.087 79.0926 284.747 76.9111 284.941L77.0889 286.934ZM83.9546 284.668C86.0963 283.374 87.9096 281.576 89.3995 279.297L87.7255 278.203C86.382 280.258 84.7787 281.834 82.9204 282.957L83.9546 284.668ZM89.387 279.316C90.9235 277.077 92.0906 274.382 92.9053 271.252L90.9697 270.748C90.2011 273.701 89.1181 276.173 87.738 278.184L89.387 279.316ZM92.9044 271.255C93.7225 268.155 94.125 264.65 94.125 260.75H92.125C92.125 264.517 91.7359 267.845 90.9706 270.745L92.9044 271.255ZM94.125 260.75C94.125 258.628 93.9977 256.302 93.745 253.775L91.755 253.975C92.0023 256.448 92.125 258.706 92.125 260.75H94.125ZM93.745 253.775C93.492 251.245 93.1127 248.633 92.6079 245.941L90.6421 246.309C91.1373 248.95 91.508 251.505 91.755 253.975L93.745 253.775ZM92.6079 245.941C92.1021 243.243 91.47 240.567 90.7115 237.913L88.7885 238.462C89.53 241.058 90.1479 243.673 90.6421 246.309L92.6079 245.941ZM90.7103 237.909C89.9475 235.281 89.0345 232.817 87.97 230.517L86.155 231.358C87.1738 233.558 88.0525 235.927 88.7897 238.466L90.7103 237.909ZM87.4098 231.875L102.597 226.25L101.903 224.375L86.7152 230L87.4098 231.875ZM101.309 225.65C102.298 228.412 103.206 231.363 104.033 234.504L105.967 233.996C105.127 230.804 104.202 227.797 103.191 224.975L101.309 225.65ZM104.032 234.501C104.859 237.683 105.561 240.928 106.14 244.235L108.11 243.89C107.522 240.531 106.808 237.234 105.968 233.999L104.032 234.501ZM106.142 244.247C106.762 247.552 107.237 250.857 107.567 254.162L109.558 253.963C109.221 250.601 108.738 247.239 108.108 243.878L106.142 244.247ZM107.567 254.162C107.898 257.465 108.063 260.661 108.063 263.75H110.063C110.063 260.589 109.894 257.327 109.558 253.963L107.567 254.162ZM108.063 263.75C108.063 277.384 104.583 287.324 97.8102 293.776L99.1898 295.224C106.5 288.259 110.063 277.699 110.063 263.75H108.063ZM97.8102 293.776C91.0287 300.237 80.5348 303.562 66.125 303.562V305.562C80.7986 305.562 91.888 302.18 99.1898 295.224L97.8102 293.776ZM66.125 303.562H34V305.562H66.125V303.562ZM35 304.562V286.062H33V304.562H35ZM34 287.062H40.9375V285.062H34V287.062ZM41.7999 285.556C40.6974 283.678 39.6526 281.61 38.6665 279.35L36.8335 280.15C37.8474 282.474 38.9276 284.614 40.0751 286.569L41.7999 285.556ZM38.6638 279.344C37.6856 277.143 36.8262 274.73 36.0877 272.104L34.1623 272.646C34.9238 275.353 35.8144 277.857 36.8362 280.156L38.6638 279.344ZM36.0877 272.104C35.3517 269.488 34.7772 266.659 34.366 263.616L32.384 263.884C32.8062 267.008 33.3983 269.929 34.1623 272.646L36.0877 272.104ZM34.3638 263.601C33.9137 260.614 33.6875 257.435 33.6875 254.062H31.6875C31.6875 257.524 31.9196 260.803 32.3862 263.899L34.3638 263.601ZM33.6875 254.062C33.6875 248.382 34.3052 243.415 35.524 239.15L33.601 238.6C32.3198 243.085 31.6875 248.243 31.6875 254.062H33.6875ZM35.5233 239.152C36.747 234.91 38.428 231.403 40.5473 228.604L38.9527 227.396C36.6553 230.431 34.878 234.173 33.6017 238.598L35.5233 239.152ZM40.5473 228.604C42.6735 225.795 45.1427 223.691 47.9522 222.267L47.0478 220.483C43.9406 222.059 41.2432 224.371 38.9527 227.396L40.5473 228.604ZM47.9372 222.274C50.7942 220.886 53.8938 220.188 57.25 220.188V218.188C53.6062 218.188 50.2058 218.948 47.0628 220.476L47.9372 222.274ZM57.875 237.688C56.4857 237.688 55.1529 238.049 53.8894 238.751L54.8606 240.499C55.8471 239.951 56.8477 239.688 57.875 239.688V237.688ZM53.8753 238.759C52.6166 239.485 51.53 240.617 50.5938 242.088L52.2812 243.162C53.095 241.883 53.9667 241.015 54.8747 240.491L53.8753 238.759ZM50.5823 242.107C49.6831 243.59 48.9638 245.44 48.406 247.628L50.344 248.122C50.8695 246.06 51.5252 244.41 52.2927 243.143L50.5823 242.107ZM48.4006 247.65C47.8787 249.912 47.625 252.596 47.625 255.688H49.625C49.625 252.696 49.8713 250.171 50.3494 248.1L48.4006 247.65ZM47.625 255.688C47.625 258.998 47.9221 262.207 48.5179 265.313L50.4821 264.937C49.9112 261.96 49.625 258.877 49.625 255.688H47.625ZM48.5179 265.313C49.1102 268.402 49.8946 271.288 50.8731 273.968L52.7519 273.282C51.8137 270.712 51.0564 267.931 50.4821 264.937L48.5179 265.313ZM50.8731 273.968C51.8496 276.642 52.9786 279.073 54.2631 281.257L55.9869 280.243C54.7714 278.177 53.6921 275.858 52.7519 273.282L50.8731 273.968ZM54.2631 281.257C55.5413 283.43 56.8759 285.265 58.2718 286.748L59.7282 285.377C58.4574 284.027 57.2087 282.32 55.9869 280.243L54.2631 281.257ZM59 287.062H62.25V285.062H59V287.062ZM63.2131 286.332C64.0118 283.473 64.6847 280.634 65.2317 277.815L63.2683 277.435C62.7319 280.199 62.0716 282.985 61.2869 285.793L63.2131 286.332ZM65.2311 277.818C65.7775 275.044 66.1985 272.372 66.4935 269.802L64.5065 269.573C64.2182 272.086 63.8058 274.706 63.2689 277.432L65.2311 277.818ZM66.4912 269.82C66.8276 267.297 67.0594 264.896 67.186 262.618L65.189 262.507C65.0656 264.729 64.8391 267.078 64.5088 269.555L66.4912 269.82ZM67.1859 262.619C67.3116 260.398 67.375 258.44 67.375 256.75H65.375C65.375 258.393 65.3134 260.311 65.1891 262.506L67.1859 262.619ZM67.375 256.75C67.375 253.254 67.1439 250.308 66.6681 247.929L64.7069 248.321C65.1478 250.525 65.375 253.329 65.375 256.75H67.375ZM66.6681 247.929C66.1975 245.576 65.545 243.613 64.6854 242.075L62.9396 243.05C63.6634 244.346 64.2608 246.091 64.7069 248.321L66.6681 247.929ZM64.6963 242.095C63.8863 240.565 62.8716 239.394 61.6136 238.69L60.6364 240.435C61.4617 240.897 62.2387 241.727 62.9287 243.03L64.6963 242.095ZM61.6136 238.69C60.4321 238.028 59.1816 237.688 57.875 237.688V239.688C58.8184 239.688 59.7346 239.93 60.6364 240.435L61.6136 238.69ZM85.8125 327.562L86.2035 326.642L86.1995 326.64L85.8125 327.562ZM98 336.25L97.2571 336.919L97.2575 336.92L98 336.25ZM106.125 350.25L107.068 349.917L107.067 349.915L106.125 350.25ZM106.875 387.5L105.904 387.261L105.902 387.269L105.9 387.277L106.875 387.5ZM104.438 395.688L103.502 395.335L103.499 395.341L103.497 395.348L104.438 395.688ZM101.375 402.312L100.852 403.165L101.713 403.694L102.232 402.827L101.375 402.312ZM87.4375 393.75L86.5304 393.329L86.1559 394.136L86.914 394.602L87.4375 393.75ZM91.5625 382.25L90.591 382.013L90.5904 382.015L91.5625 382.25ZM91.1875 359.875L90.2353 360.181L90.2388 360.191L91.1875 359.875ZM86.5625 351.25L85.7965 351.893L85.7976 351.894L86.5625 351.25ZM79.5625 345.875L79.9816 344.967L79.9752 344.964L79.5625 345.875ZM62 346L61.5695 345.097L61.5611 345.101L61.5528 345.106L62 346ZM55.0625 351.562L54.291 350.926L54.2849 350.934L54.279 350.941L55.0625 351.562ZM50.5 360.25L49.5513 359.934L49.549 359.941L49.5468 359.948L50.5 360.25ZM50.8125 384.562L51.7659 384.261L51.765 384.258L50.8125 384.562ZM56 395.938L56.5235 396.79L57.3784 396.264L56.8503 395.411L56 395.938ZM42.0625 404.5L41.2064 405.017L41.7273 405.88L42.586 405.352L42.0625 404.5ZM38.3125 397.312L37.3956 397.712L37.4011 397.724L38.3125 397.312ZM35.375 389L36.3375 388.729L36.3365 388.725L35.375 389ZM33.4375 379.75L34.4277 379.61L34.4267 379.603L34.4256 379.596L33.4375 379.75ZM43.5 336.625L42.7499 335.964L42.7459 335.968L43.5 336.625ZM55.5625 327.688L55.1586 326.773L55.1518 326.776L55.5625 327.688ZM70.6875 325.625C75.9807 325.625 80.8898 326.581 85.4255 328.485L86.1995 326.64C81.4018 324.627 76.2276 323.625 70.6875 323.625V325.625ZM85.4215 328.483C89.996 330.426 93.9383 333.236 97.2571 336.919L98.7429 335.581C95.2284 331.68 91.0457 328.699 86.2035 326.642L85.4215 328.483ZM97.2575 336.92C100.617 340.644 103.263 345.193 105.183 350.585L107.067 349.915C105.07 344.307 102.299 339.523 98.7425 335.58L97.2575 336.92ZM105.182 350.583C107.096 355.998 108.063 362.195 108.063 369.188H110.063C110.063 362.013 109.071 355.585 107.068 349.917L105.182 350.583ZM108.063 369.188C108.063 372.23 107.877 375.295 107.507 378.381L109.493 378.619C109.873 375.455 110.063 372.311 110.063 369.188H108.063ZM107.507 378.381C107.137 381.468 106.602 384.428 105.904 387.261L107.846 387.739C108.565 384.822 109.113 381.782 109.493 378.619L107.507 378.381ZM105.9 387.277C105.243 390.154 104.443 392.839 103.502 395.335L105.373 396.04C106.349 393.452 107.174 390.679 107.85 387.723L105.9 387.277ZM103.497 395.348C102.597 397.843 101.602 399.99 100.518 401.798L102.232 402.827C103.398 400.885 104.444 398.616 105.378 396.027L103.497 395.348ZM101.898 401.46L87.961 392.898L86.914 394.602L100.852 403.165L101.898 401.46ZM88.3446 394.171C90.2422 390.081 91.6415 386.185 92.5346 382.485L90.5904 382.015C89.7335 385.565 88.3828 389.336 86.5304 393.329L88.3446 394.171ZM92.534 382.487C93.428 378.826 93.875 375.1 93.875 371.312H91.875C91.875 374.941 91.447 378.508 90.591 382.013L92.534 382.487ZM93.875 371.312C93.875 366.975 93.301 363.053 92.1362 359.559L90.2388 360.191C91.324 363.447 91.875 367.15 91.875 371.312H93.875ZM92.1397 359.569C91.0221 356.088 89.4223 353.094 87.3274 350.606L85.7976 351.894C87.7027 354.156 89.1862 356.912 90.2353 360.181L92.1397 359.569ZM87.3285 350.607C85.2775 348.163 82.8265 346.28 79.9816 344.967L79.1434 346.783C81.7151 347.97 83.9308 349.67 85.7965 351.893L87.3285 350.607ZM79.9752 344.964C77.1686 343.692 74.1097 343.062 70.8125 343.062V345.062C73.8486 345.062 76.6231 345.641 79.1498 346.786L79.9752 344.964ZM70.8125 343.062C67.5053 343.062 64.4197 343.738 61.5695 345.097L62.4305 346.903C64.9969 345.679 67.7863 345.062 70.8125 345.062V343.062ZM61.5528 345.106C58.7571 346.503 56.3352 348.447 54.291 350.926L55.834 352.199C57.7065 349.928 59.9096 348.163 62.4472 346.894L61.5528 345.106ZM54.279 350.941C52.2797 353.462 50.7076 356.465 49.5513 359.934L51.4487 360.566C52.5424 357.285 54.0119 354.496 55.846 352.184L54.279 350.941ZM49.5468 359.948C48.4279 363.477 47.875 367.372 47.875 371.625H49.875C49.875 367.545 50.4055 363.857 51.4532 360.552L49.5468 359.948ZM47.875 371.625C47.875 376.303 48.5344 380.719 49.86 384.867L51.765 384.258C50.5072 380.322 49.875 376.113 49.875 371.625H47.875ZM49.8591 384.864C51.1747 389.023 52.9378 392.891 55.1497 396.464L56.8503 395.411C54.7289 391.984 53.0337 388.269 51.7659 384.261L49.8591 384.864ZM55.4765 395.085L41.539 403.648L42.586 405.352L56.5235 396.79L55.4765 395.085ZM42.9186 403.983C41.6076 401.812 40.3758 399.452 39.2239 396.901L37.4011 397.724C38.5825 400.34 39.8507 402.771 41.2064 405.017L42.9186 403.983ZM39.2293 396.913C38.124 394.375 37.1597 391.647 36.3375 388.729L34.4125 389.271C35.257 392.269 36.251 395.083 37.3957 397.712L39.2293 396.913ZM36.3365 388.725C35.5168 385.856 34.8801 382.818 34.4277 379.61L32.4473 379.89C32.9115 383.182 33.5665 386.31 34.4135 389.275L36.3365 388.725ZM34.4256 379.596C33.934 376.442 33.6875 373.16 33.6875 369.75H31.6875C31.6875 373.257 31.941 376.642 32.4494 379.904L34.4256 379.596ZM33.6875 369.75C33.6875 362.798 34.6337 356.598 36.5083 351.137L34.6167 350.488C32.658 356.194 31.6875 362.619 31.6875 369.75H33.6875ZM36.5083 351.137C38.3893 345.658 40.9755 341.046 44.2541 337.282L42.7459 335.968C39.2745 339.954 36.5691 344.8 34.6167 350.488L36.5083 351.137ZM44.2501 337.286C47.5745 333.516 51.4803 330.623 55.9732 328.599L55.1518 326.776C50.3947 328.919 46.2588 331.984 42.7499 335.964L44.2501 337.286ZM55.9663 328.602C60.4542 326.621 65.357 325.625 70.6875 325.625V323.625C65.1013 323.625 59.9208 324.67 55.1587 326.773L55.9663 328.602ZM93.875 435.562V436.562H94.875V435.562H93.875ZM93.875 417.75V416.75H92.875V417.75H93.875ZM107.75 417.75H108.75V416.75H107.75V417.75ZM107.75 435.562H106.75V436.562H107.75V435.562ZM130.688 435.562H131.688V434.562H130.688V435.562ZM130.688 454.062V455.062H131.688V454.062H130.688ZM107.75 454.062V453.062H106.75V454.062H107.75ZM107.75 471.875V472.875H108.75V471.875H107.75ZM93.875 471.875H92.875V472.875H93.875V471.875ZM93.875 454.062H94.875V453.062H93.875V454.062ZM34 454.062H33V455.062H34V454.062ZM34 435.562V434.562H33V435.562H34ZM94.875 435.562V417.75H92.875V435.562H94.875ZM93.875 418.75H107.75V416.75H93.875V418.75ZM106.75 417.75V435.562H108.75V417.75H106.75ZM107.75 436.562H130.688V434.562H107.75V436.562ZM129.688 435.562V454.062H131.688V435.562H129.688ZM130.688 453.062H107.75V455.062H130.688V453.062ZM106.75 454.062V471.875H108.75V454.062H106.75ZM107.75 470.875H93.875V472.875H107.75V470.875ZM94.875 471.875V454.062H92.875V471.875H94.875ZM93.875 453.062H34V455.062H93.875V453.062ZM35 454.062V435.562H33V454.062H35ZM34 436.562H93.875V434.562H34V436.562ZM49.5 489.688L49.927 488.783L49.9158 488.778L49.5 489.688ZM53.375 492.688L52.6088 493.33L52.6148 493.337L52.6209 493.344L53.375 492.688ZM56 509.75L55.0535 509.427L56 509.75ZM53.375 514.375L52.6317 513.706L52.62 513.719L52.6088 513.732L53.375 514.375ZM49.5 517.312L49.0939 516.399L49.0784 516.406L49.0631 516.413L49.5 517.312ZM40.0625 517.312L40.4895 516.408L40.4783 516.403L40.0625 517.312ZM36.25 514.375L37.0162 513.732L37.011 513.726L37.0057 513.72L36.25 514.375ZM33.6875 509.75L34.634 509.427L34.6307 509.418L34.6273 509.408L33.6875 509.75ZM33.6875 497.375L34.6273 497.717L34.6307 497.707L34.634 497.698L33.6875 497.375ZM36.25 492.688L35.4838 492.045L36.25 492.688ZM40.0625 489.688L39.6564 488.774L39.6409 488.781L39.6256 488.788L40.0625 489.688ZM44.8125 489.688C46.3415 489.688 47.7616 489.992 49.0842 490.597L49.9158 488.778C48.3218 488.049 46.6168 487.688 44.8125 487.688V489.688ZM49.073 490.592C50.4402 491.237 51.6168 492.147 52.6088 493.33L54.1412 492.045C52.9666 490.644 51.5598 489.554 49.927 488.783L49.073 490.592ZM52.6209 493.344C53.6503 494.526 54.4649 495.971 55.0535 497.698L56.9465 497.052C56.2851 495.112 55.3497 493.432 54.1291 492.031L52.6209 493.344ZM55.0535 497.698C55.6373 499.41 55.9375 501.361 55.9375 503.562H57.9375C57.9375 501.181 57.6127 499.007 56.9465 497.052L55.0535 497.698ZM55.9375 503.562C55.9375 505.764 55.6373 507.715 55.0535 509.427L56.9465 510.073C57.6127 508.118 57.9375 505.944 57.9375 503.562H55.9375ZM55.0535 509.427C54.4655 511.152 53.6536 512.571 52.6317 513.706L54.1183 515.044C55.3464 513.679 56.2845 512.015 56.9465 510.073L55.0535 509.427ZM52.6088 513.732C51.6206 514.911 50.4509 515.796 49.0939 516.399L49.9061 518.226C51.5491 517.496 52.9628 516.423 54.1412 515.018L52.6088 513.732ZM49.0631 516.413C47.7448 517.053 46.3322 517.375 44.8125 517.375V519.375C46.6262 519.375 48.3385 518.988 49.9369 518.212L49.0631 516.413ZM44.8125 517.375C43.2928 517.375 41.8553 517.053 40.4895 516.408L39.6355 518.217C41.2697 518.988 42.9989 519.375 44.8125 519.375V517.375ZM40.4783 516.403C39.1621 515.801 38.009 514.916 37.0162 513.732L35.4838 515.018C36.6576 516.417 38.0463 517.49 39.6467 518.222L40.4783 516.403ZM37.0057 513.72C36.0199 512.583 35.2244 511.159 34.634 509.427L32.741 510.073C33.4006 512.007 34.3134 513.667 35.4943 515.03L37.0057 513.72ZM34.6273 509.408C34.0067 507.702 33.6875 505.758 33.6875 503.562H31.6875C31.6875 505.951 32.0349 508.132 32.7477 510.092L34.6273 509.408ZM33.6875 503.562C33.6875 501.367 34.0067 499.423 34.6273 497.717L32.7477 497.033C32.0349 498.993 31.6875 501.174 31.6875 503.562H33.6875ZM34.634 497.698C35.225 495.964 36.0231 494.514 37.0162 493.33L35.4838 492.045C34.3102 493.444 33.4 495.119 32.741 497.052L34.634 497.698ZM37.0162 493.33C38.0128 492.142 39.1728 491.231 40.4994 490.587L39.6256 488.788C38.0356 489.56 36.6539 490.65 35.4838 492.045L37.0162 493.33ZM40.4686 490.601C41.8388 489.992 43.2835 489.688 44.8125 489.688V487.688C43.0081 487.688 41.2862 488.049 39.6564 488.774L40.4686 490.601ZM118.563 546.688L117.625 546.339L117.619 546.355L117.614 546.371L118.563 546.688ZM120.688 542.938L119.937 542.277L119.929 542.286L119.922 542.294L120.688 542.938ZM123.813 540.5L123.403 539.587L123.384 539.596L123.365 539.606L123.813 540.5ZM131.438 540.5L131.872 539.599L131.865 539.596L131.859 539.593L131.438 540.5ZM136.625 546.688L135.679 547.012L135.682 547.02L135.684 547.027L136.625 546.688ZM136.625 556.688L135.688 556.339L135.682 556.355L135.676 556.371L136.625 556.688ZM131.438 562.875L131.028 561.962L131.009 561.971L130.99 561.981L131.438 562.875ZM123.813 562.875L124.247 561.974L124.24 561.971L124.234 561.968L123.813 562.875ZM120.688 560.5L119.922 561.143L119.929 561.152L119.937 561.161L120.688 560.5ZM118.563 556.688L117.617 557.012L117.619 557.02L117.622 557.027L118.563 556.688ZM107.75 542.438H108.75V541.438H107.75V542.438ZM107.75 560.938V561.938H108.75V560.938H107.75ZM35.0625 560.438L35.1729 559.444L35.1606 559.442L35.0625 560.438ZM26.8125 558.875L27.0955 557.916L27.0883 557.914L27.081 557.912L26.8125 558.875ZM19.6875 555.938L20.1801 555.067L20.1738 555.064L20.1675 555.06L19.6875 555.938ZM7.25 544.812L8.03591 544.194L8.02962 544.186L7.25 544.812ZM0.875 536L0.476675 535.083L-0.617442 535.558L0.04135 536.552L0.875 536ZM16.5625 529.188L17.3656 528.592L16.8925 527.954L16.1642 528.27L16.5625 529.188ZM118.813 551.688C118.813 549.945 119.05 548.387 119.511 547.004L117.614 546.371C117.075 547.988 116.813 549.763 116.813 551.688H118.813ZM119.5 547.036C120.007 545.67 120.662 544.523 121.453 543.581L119.922 542.294C118.963 543.435 118.201 544.789 117.625 546.339L119.5 547.036ZM121.438 543.598C122.275 542.647 123.216 541.917 124.26 541.394L123.365 539.606C122.076 540.25 120.933 541.145 119.937 542.277L121.438 543.598ZM124.222 541.413C125.3 540.929 126.432 540.688 127.625 540.688V538.688C126.152 538.688 124.741 538.988 123.403 539.587L124.222 541.413ZM127.625 540.688C128.865 540.688 129.991 540.931 131.016 541.407L131.859 539.593C130.551 538.986 129.135 538.688 127.625 538.688V540.688ZM131.003 541.401C132.082 541.922 133.011 542.646 133.797 543.581L135.328 542.294C134.364 541.146 133.21 540.245 131.872 539.599L131.003 541.401ZM133.797 543.581C134.583 544.516 135.214 545.655 135.679 547.012L137.571 546.363C137.036 544.804 136.292 543.442 135.328 542.294L133.797 543.581ZM135.684 547.027C136.181 548.403 136.438 549.953 136.438 551.688H138.438C138.438 549.755 138.152 547.972 137.566 546.348L135.684 547.027ZM136.438 551.688C136.438 553.467 136.18 555.013 135.688 556.339L137.562 557.036C138.153 555.446 138.438 553.658 138.438 551.688H136.438ZM135.676 556.371C135.21 557.771 134.579 558.926 133.797 559.857L135.328 561.143C136.296 559.991 137.04 558.604 137.574 557.004L135.676 556.371ZM133.797 559.857C133.016 560.786 132.095 561.484 131.028 561.962L131.847 563.788C133.196 563.182 134.359 562.297 135.328 561.143L133.797 559.857ZM130.99 561.981C129.97 562.491 128.853 562.75 127.625 562.75V564.75C129.147 564.75 130.572 564.426 131.885 563.769L130.99 561.981ZM127.625 562.75C126.443 562.75 125.321 562.493 124.247 561.974L123.378 563.776C124.721 564.424 126.14 564.75 127.625 564.75V562.75ZM124.234 561.968C123.202 561.489 122.271 560.785 121.438 559.839L119.937 561.161C120.938 562.298 122.089 563.177 123.391 563.782L124.234 561.968ZM121.453 559.857C120.666 558.919 120.011 557.756 119.503 556.348L117.622 557.027C118.197 558.619 118.959 559.997 119.922 561.143L121.453 559.857ZM119.508 556.363C119.051 555.029 118.813 553.475 118.813 551.688H116.813C116.813 553.65 117.074 555.429 117.617 557.012L119.508 556.363ZM106.75 542.438V560.938H108.75V542.438H106.75ZM107.75 559.938H45.0625V561.938H107.75V559.938ZM45.0625 559.938C41.4252 559.938 38.1295 559.772 35.1729 559.444L34.9521 561.431C37.9955 561.77 41.3665 561.938 45.0625 561.938V559.938ZM35.1606 559.442C32.2575 559.156 29.57 558.646 27.0955 557.916L26.5295 559.834C29.1383 560.604 31.9509 561.136 34.9644 561.433L35.1606 559.442ZM27.081 557.912C24.6144 557.224 22.315 556.276 20.1801 555.067L19.1949 556.808C21.4767 558.099 23.9273 559.109 26.544 559.838L27.081 557.912ZM20.1675 555.06C18.0326 553.892 15.97 552.417 13.9806 550.631L12.6444 552.119C14.7383 553.999 16.9258 555.566 19.2075 556.815L20.1675 555.06ZM13.9806 550.631C11.9885 548.842 10.0064 546.698 8.03587 544.194L6.46413 545.431C8.49359 548.01 10.5532 550.241 12.6444 552.119L13.9806 550.631ZM8.02962 544.186C6.01078 541.673 3.90372 538.761 1.70865 535.448L0.04135 536.552C2.26294 539.906 4.40588 542.869 6.47038 545.439L8.02962 544.186ZM1.27333 536.917L16.9608 530.105L16.1642 528.27L0.476675 535.083L1.27333 536.917ZM15.7594 529.783C17.7048 532.405 19.6431 534.603 21.5765 536.364L22.9235 534.886C21.1069 533.231 19.2535 531.136 17.3656 528.592L15.7594 529.783ZM21.5765 536.364C23.5135 538.129 25.5493 539.539 27.6851 540.586L28.5649 538.789C26.6174 537.836 24.7365 536.538 22.9235 534.886L21.5765 536.364ZM27.6851 540.586C29.8139 541.628 32.0907 542.365 34.5117 542.797L34.8633 540.828C32.6177 540.427 30.5195 539.747 28.5649 538.789L27.6851 540.586ZM34.5117 542.797C36.9122 543.226 39.5345 543.438 42.375 543.438V541.438C39.6322 541.438 37.1295 541.233 34.8633 540.828L34.5117 542.797ZM42.375 543.438H107.75V541.438H42.375V543.438ZM56.625 587.625L57.4825 588.139L58.0081 587.264L57.1211 586.757L56.625 587.625ZM50 604.125L49.0268 603.895L50 604.125ZM62.1875 642.375L61.4192 641.735L61.4107 641.745L62.1875 642.375ZM63.0625 623.688L62.0677 623.789L62.0686 623.798L62.0696 623.807L63.0625 623.688ZM62.4375 617.25L63.4332 617.158L63.4331 617.156L62.4375 617.25ZM63.75 597.688L62.7947 597.392L62.7937 597.395L63.75 597.688ZM74.8125 584.312L74.4515 583.38L74.4464 583.382L74.8125 584.312ZM101.688 592.938L100.87 593.514L100.875 593.521L101.688 592.938ZM107.125 604.688L108.088 604.419L108.088 604.416L107.125 604.688ZM108.5 629.375L107.507 629.259L107.506 629.266L107.505 629.273L108.5 629.375ZM105.063 647.938L104.098 647.672L104.095 647.685L105.063 647.938ZM102.625 655.562L102.25 656.49L103.184 656.867L103.555 655.931L102.625 655.562ZM88.25 649.75L87.3127 649.402L86.974 650.313L87.8751 650.677L88.25 649.75ZM92.375 635.625L91.399 635.407L91.3968 635.417L92.375 635.625ZM93.125 612.375L92.1464 612.581L92.1492 612.594L93.125 612.375ZM91.0625 606.562L90.1883 607.048L90.1934 607.057L90.1987 607.066L91.0625 606.562ZM88.125 603.25L88.6578 602.404L88.6491 602.398L88.125 603.25ZM82.3125 602.75L81.8867 601.845L81.8654 601.855L81.8446 601.866L82.3125 602.75ZM80.4375 604.5L79.6122 603.935L79.5954 603.96L79.58 603.986L80.4375 604.5ZM79.25 607.688L78.2746 607.467L78.2705 607.485L78.2671 607.503L79.25 607.688ZM79.8125 624.25L78.8173 624.348L78.8182 624.357L78.8193 624.367L79.8125 624.25ZM80.5 630.812L81.4959 630.722L81.4957 630.72L80.5 630.812ZM79.25 649.375L78.2966 649.073L78.2955 649.077L79.25 649.375ZM40.4375 653.438L39.6115 654.001L39.616 654.008L40.4375 653.438ZM34.75 640.188L35.7179 639.936L35.7174 639.934L34.75 640.188ZM33.5 609.625L34.4908 609.761L34.4921 609.75L33.5 609.625ZM35.5625 598.312L34.5936 598.065L34.591 598.075L35.5625 598.312ZM38.75 588.188L37.8173 587.827L37.8157 587.831L38.75 588.188ZM42.625 579.625L43.1211 578.757L42.2264 578.245L41.7423 579.155L42.625 579.625ZM55.7675 587.111C52.7115 592.204 50.4657 597.801 49.0268 603.895L50.9732 604.355C52.3676 598.449 54.5385 593.046 57.4825 588.139L55.7675 587.111ZM49.0268 603.895C47.592 609.972 46.875 616.195 46.875 622.562H48.875C48.875 616.347 49.5747 610.278 50.9732 604.355L49.0268 603.895ZM46.875 622.562C46.875 626.852 47.1688 630.466 47.7705 633.389L49.7295 632.986C49.1645 630.242 48.875 626.773 48.875 622.562H46.875ZM47.7705 633.389C48.3648 636.275 49.14 638.649 50.1188 640.473L51.8812 639.527C51.0267 637.935 50.3019 635.766 49.7295 632.986L47.7705 633.389ZM50.1188 640.473C51.0863 642.276 52.2356 643.648 53.606 644.48L54.644 642.77C53.6811 642.186 52.747 641.141 51.8812 639.527L50.1188 640.473ZM53.606 644.48C54.9084 645.271 56.2733 645.688 57.6875 645.688V643.688C56.685 643.688 55.675 643.396 54.644 642.77L53.606 644.48ZM57.6875 645.688C59.7818 645.688 61.5531 644.745 62.9643 643.005L61.4107 641.745C60.3219 643.088 59.0932 643.688 57.6875 643.688V645.688ZM62.9557 643.015C64.4351 641.24 65.0625 638.443 65.0625 634.875H63.0625C63.0625 638.307 62.4399 640.51 61.4193 641.735L62.9557 643.015ZM65.0625 634.875C65.0625 633.208 64.9557 631.421 64.7439 629.515L62.7561 629.735C62.961 631.579 63.0625 633.292 63.0625 634.875H65.0625ZM64.7439 629.515C64.5352 627.636 64.3057 625.654 64.0554 623.568L62.0696 623.807C62.3193 625.887 62.5481 627.864 62.7561 629.735L64.7439 629.515ZM64.0573 623.586C63.8493 621.548 63.6413 619.405 63.4332 617.158L61.4418 617.342C61.6504 619.595 61.859 621.744 62.0677 623.789L64.0573 623.586ZM63.4331 617.156C63.2278 614.98 63.125 612.761 63.125 610.5H61.125C61.125 612.822 61.2305 615.103 61.4419 617.344L63.4331 617.156ZM63.125 610.5C63.125 605.567 63.6601 601.4 64.7063 597.98L62.7937 597.395C61.6733 601.058 61.125 605.433 61.125 610.5H63.125ZM64.7053 597.983C65.7589 594.579 67.182 591.854 68.9498 589.772L67.4252 588.478C65.443 590.812 63.9078 593.796 62.7947 597.392L64.7053 597.983ZM68.9498 589.772C70.7248 587.682 72.7997 586.179 75.1786 585.243L74.4464 583.382C71.742 584.446 69.4002 586.152 67.4252 588.478L68.9498 589.772ZM75.1735 585.245C77.6341 584.293 80.2817 583.812 83.125 583.812V581.812C80.0517 581.812 77.1576 582.332 74.4515 583.38L75.1735 585.245ZM83.125 583.812C86.7122 583.812 90.0032 584.648 93.0163 586.313L93.9837 584.562C90.6634 582.727 87.0378 581.812 83.125 581.812V583.812ZM93.0163 586.313C96.0379 587.983 98.657 590.375 100.87 593.514L102.505 592.361C100.135 589 97.2954 586.392 93.9837 584.562L93.0163 586.313ZM100.875 593.521C103.129 596.66 104.897 600.467 106.162 604.959L108.088 604.416C106.77 599.742 104.913 595.715 102.5 592.354L100.875 593.521ZM106.162 604.956C107.425 609.48 108.063 614.533 108.063 620.125H110.063C110.063 614.383 109.408 609.145 108.088 604.419L106.162 604.956ZM108.063 620.125C108.063 623.041 107.878 626.086 107.507 629.259L109.493 629.491C109.872 626.248 110.063 623.125 110.063 620.125H108.063ZM107.505 629.273C107.175 632.496 106.72 635.657 106.142 638.754L108.108 639.121C108.697 635.968 109.159 632.754 109.495 629.477L107.505 629.273ZM106.142 638.754C105.563 641.853 104.882 644.826 104.098 647.672L106.027 648.203C106.826 645.299 107.52 642.272 108.108 639.121L106.142 638.754ZM104.095 647.685C103.353 650.53 102.552 653.032 101.695 655.194L103.555 655.931C104.448 653.677 105.272 651.095 106.03 648.19L104.095 647.685ZM103 654.635L88.6249 648.823L87.8751 650.677L102.25 656.49L103 654.635ZM89.1873 650.098C90.9536 645.346 92.3426 640.591 93.3532 635.833L91.3968 635.417C90.4074 640.076 89.0464 644.737 87.3127 649.402L89.1873 650.098ZM93.351 635.843C94.4092 631.102 94.9375 626.216 94.9375 621.188H92.9375C92.9375 626.075 92.4241 630.815 91.399 635.407L93.351 635.843ZM94.9375 621.188C94.9375 617.682 94.6635 614.667 94.1008 612.156L92.1492 612.594C92.6699 614.917 92.9375 617.776 92.9375 621.188H94.9375ZM94.1035 612.169C93.5896 609.728 92.872 607.68 91.9263 606.059L90.1987 607.066C91.003 608.445 91.6604 610.272 92.1465 612.581L94.1035 612.169ZM91.9367 606.077C91.0448 604.471 89.9606 603.224 88.6578 602.404L87.5922 604.096C88.5394 604.693 89.4136 605.654 90.1883 607.048L91.9367 606.077ZM88.6491 602.398C87.4168 601.64 86.0908 601.25 84.6875 601.25V603.25C85.7008 603.25 86.6665 603.527 87.6009 604.102L88.6491 602.398ZM84.6875 601.25C83.6827 601.25 82.7432 601.442 81.8867 601.845L82.7383 603.655C83.2985 603.391 83.9423 603.25 84.6875 603.25V601.25ZM81.8446 601.866C80.9674 602.331 80.2275 603.036 79.6122 603.935L81.2628 605.065C81.7309 604.381 82.2409 603.919 82.7804 603.634L81.8446 601.866ZM79.58 603.986C79.0095 604.936 78.5818 606.107 78.2746 607.467L80.2254 607.908C80.5016 606.685 80.8655 605.73 81.295 605.014L79.58 603.986ZM78.2671 607.503C78.0021 608.916 77.875 610.607 77.875 612.562H79.875C79.875 610.685 79.9979 609.125 80.2329 607.872L78.2671 607.503ZM77.875 612.562C77.875 614.352 77.9815 616.242 78.1931 618.231L80.1819 618.019C79.9768 616.092 79.875 614.273 79.875 612.562H77.875ZM78.1931 618.231C78.4011 620.186 78.6092 622.225 78.8173 624.348L80.8077 624.152C80.5991 622.025 80.3905 619.981 80.1819 618.019L78.1931 618.231ZM78.8193 624.367C79.0683 626.483 79.2966 628.662 79.5043 630.905L81.4957 630.72C81.2867 628.463 81.0567 626.267 80.8057 624.133L78.8193 624.367ZM79.5041 630.903C79.7096 633.164 79.8125 635.467 79.8125 637.812H81.8125C81.8125 635.408 81.707 633.045 81.4959 630.722L79.5041 630.903ZM79.8125 637.812C79.8125 642.154 79.3002 645.902 78.2966 649.073L80.2034 649.677C81.2832 646.265 81.8125 642.304 81.8125 637.812H79.8125ZM78.2955 649.077C77.2861 652.307 75.8866 654.928 74.1188 656.971L75.6312 658.279C77.6134 655.989 79.1306 653.11 80.2045 649.673L78.2955 649.077ZM74.1188 656.971C72.3396 659.027 70.2543 660.559 67.8579 661.58L68.6421 663.42C71.329 662.275 73.6604 660.557 75.6312 658.279L74.1188 656.971ZM67.8579 661.58C65.4505 662.606 62.8144 663.125 59.9375 663.125V665.125C63.0606 665.125 65.9662 664.56 68.6421 663.42L67.8579 661.58ZM59.9375 663.125C56.2236 663.125 52.7826 662.268 49.5984 660.557L48.6516 662.318C52.134 664.19 55.9014 665.125 59.9375 665.125V663.125ZM49.5984 660.557C46.4222 658.849 43.64 656.298 41.259 652.867L39.616 654.008C42.1516 657.661 45.1611 660.442 48.6516 662.318L49.5984 660.557ZM41.2635 652.874C38.9268 649.449 37.0715 645.145 35.7179 639.936L33.7821 640.439C35.1785 645.813 37.1148 650.342 39.6115 654.001L41.2635 652.874ZM35.7174 639.934C34.369 634.786 33.6875 628.791 33.6875 621.938H31.6875C31.6875 628.918 32.381 635.089 33.7826 640.441L35.7174 639.934ZM33.6875 621.938C33.6875 617.73 33.9556 613.671 34.4908 609.761L32.5092 609.489C31.961 613.495 31.6875 617.645 31.6875 621.938H33.6875ZM34.4921 609.75C34.9877 605.827 35.6687 602.093 36.534 598.55L34.591 598.075C33.7063 601.698 33.0123 605.507 32.5079 609.5L34.4921 609.75ZM36.5313 598.56C37.4394 595.011 38.4907 591.672 39.6843 588.544L37.8157 587.831C36.5927 591.036 35.5189 594.448 34.5937 598.065L36.5313 598.56ZM39.6827 588.548C40.8786 585.455 42.154 582.638 43.5077 580.095L41.7423 579.155C40.346 581.778 39.0381 584.67 37.8173 587.827L39.6827 588.548ZM42.1289 580.493L56.1289 588.493L57.1211 586.757L43.1211 578.757L42.1289 580.493Z" fill="#464646"/>
</svg>
