<svg width="100" height="373" viewBox="0 0 100 373" fill="none" xmlns="http://www.w3.org/2000/svg">
<path d="M99.6875 0.1875H100.688V-0.8125H99.6875V0.1875ZM99.6875 20V21L100.688 21V20L99.6875 20ZM34.0625 21.8125L33.7327 20.8685L33.7291 20.8697L34.0625 21.8125ZM25.375 27.1875L24.6679 26.4804L24.6618 26.4866L25.375 27.1875ZM19.9375 36.125L18.9945 35.7922L18.9911 35.8021L19.9375 36.125ZM19.9375 60.8125L18.991 61.1354L18.9933 61.1419L19.9375 60.8125ZM25.375 69.75L26.0883 69.049L26.0821 69.0429L25.375 69.75ZM34.0625 75.1875L33.7291 76.1303L33.7327 76.1315L34.0625 75.1875ZM99.6875 77H100.688V76H99.6875V77ZM99.6875 96.8125V97.8125H100.688V96.8125H99.6875ZM3.8125 68.9375L4.75919 68.6154L4.7585 68.6133L3.8125 68.9375ZM3.8125 28L2.86649 27.6758L2.86581 27.6779L3.8125 28ZM98.6875 0.1875V20L100.688 20V0.1875H98.6875ZM99.6875 19H45.875V21H99.6875V19ZM45.875 19C41.3684 19 37.3163 19.6164 33.7327 20.8685L34.3923 22.7565C37.7254 21.592 41.5483 21 45.875 21V19ZM33.7291 20.8697C30.1831 22.1238 27.1565 23.9918 24.6679 26.4804L26.0821 27.8946C28.3435 25.6332 31.1085 23.9179 34.3959 22.7553L33.7291 20.8697ZM24.6618 26.4866C22.1735 29.0185 20.2879 32.1276 18.9945 35.7922L20.8805 36.4578C22.0871 33.0391 23.8265 30.1898 26.0882 27.8884L24.6618 26.4866ZM18.9911 35.8021C17.7395 39.4706 17.125 43.7089 17.125 48.5H19.125C19.125 43.8744 19.7189 39.8627 20.8839 36.4479L18.9911 35.8021ZM17.125 48.5C17.125 53.2505 17.7397 57.4677 18.9911 61.1354L20.8839 60.4896C19.7186 57.0739 19.125 53.0828 19.125 48.5H17.125ZM18.9933 61.1419C20.2864 64.8488 22.1734 67.9626 24.6679 70.4571L26.0821 69.0429C23.8266 66.7874 22.0886 63.9429 20.8817 60.4831L18.9933 61.1419ZM24.6618 70.4509C27.1507 72.9835 30.1793 74.8749 33.7291 76.1303L34.3959 74.2447C31.1124 73.0835 28.3493 71.3498 26.0882 69.0491L24.6618 70.4509ZM33.7327 76.1315C37.3163 77.3836 41.3684 78 45.875 78V76C41.5483 76 37.7254 75.408 34.3923 74.2435L33.7327 76.1315ZM45.875 78H99.6875V76H45.875V78ZM98.6875 77V96.8125H100.688V77H98.6875ZM99.6875 95.8125H43.5V97.8125H99.6875V95.8125ZM43.5 95.8125C37.1973 95.8125 31.4958 94.7488 26.3815 92.6381L25.6185 94.4869C31.0042 96.7095 36.9694 97.8125 43.5 97.8125V95.8125ZM26.3815 92.6381C21.2655 90.5267 16.8886 87.4659 13.2399 83.4523L11.7601 84.7977C15.6114 89.0341 20.2345 92.2649 25.6185 94.4869L26.3815 92.6381ZM13.2399 83.4523C9.59396 79.4417 6.76272 74.5033 4.75919 68.6154L2.86581 69.2596C4.94561 75.3717 7.90604 80.5583 11.7601 84.7977L13.2399 83.4523ZM4.7585 68.6133C2.75939 62.7792 1.75 56.0795 1.75 48.5H-0.25C-0.25 56.2538 0.782279 63.1791 2.8665 69.2617L4.7585 68.6133ZM1.75 48.5C1.75 40.9207 2.75933 34.1993 4.75919 28.3221L2.86581 27.6779C0.782332 33.8007 -0.25 40.746 -0.25 48.5H1.75ZM4.7585 28.3242C6.76169 22.4781 9.59286 17.5595 13.2399 13.5477L11.7601 12.2023C7.90714 16.4405 4.94664 21.6052 2.8665 27.6758L4.7585 28.3242ZM13.2399 13.5477C16.8886 9.53413 21.2655 6.47325 26.3815 4.36187L25.6185 2.51313C20.2345 4.73508 15.6114 7.96587 11.7601 12.2023L13.2399 13.5477ZM26.3815 4.36187C31.4958 2.25121 37.1973 1.1875 43.5 1.1875V-0.8125C36.9694 -0.8125 31.0042 0.290455 25.6185 2.51313L26.3815 4.36187ZM43.5 1.1875L99.6875 1.1875V-0.8125L43.5 -0.8125V1.1875ZM24.625 121.625L25.4825 122.139L26.0081 121.264L25.1211 120.757L24.625 121.625ZM18 138.125L17.0268 137.895L18 138.125ZM30.1875 176.375L29.4192 175.735L29.4107 175.745L30.1875 176.375ZM31.0625 157.688L30.0677 157.789L30.0686 157.798L30.0696 157.807L31.0625 157.688ZM30.4375 151.25L31.4332 151.158L31.4331 151.156L30.4375 151.25ZM31.75 131.688L30.7947 131.392L30.7937 131.395L31.75 131.688ZM42.8125 118.312L42.4515 117.38L42.4464 117.382L42.8125 118.312ZM69.6875 126.938L68.8702 127.514L68.8752 127.521L69.6875 126.938ZM75.125 138.688L76.0881 138.419L76.0875 138.416L75.125 138.688ZM76.5 163.375L75.5068 163.259L75.5059 163.266L75.5052 163.273L76.5 163.375ZM73.0625 181.938L72.0983 181.672L72.0949 181.685L73.0625 181.938ZM70.625 189.562L70.2501 190.49L71.1837 190.867L71.5547 189.931L70.625 189.562ZM56.25 183.75L55.3127 183.402L54.974 184.313L55.8751 184.677L56.25 183.75ZM60.375 169.625L59.399 169.407L59.3968 169.417L60.375 169.625ZM61.125 146.375L60.1464 146.581L60.1492 146.594L61.125 146.375ZM59.0625 140.562L58.1883 141.048L58.1934 141.057L58.1987 141.066L59.0625 140.562ZM56.125 137.25L56.6578 136.404L56.6491 136.398L56.125 137.25ZM50.3125 136.75L49.8867 135.845L49.8654 135.855L49.8446 135.866L50.3125 136.75ZM48.4375 138.5L47.6122 137.935L47.5954 137.96L47.58 137.986L48.4375 138.5ZM47.25 141.688L46.2746 141.467L46.2705 141.485L46.2671 141.503L47.25 141.688ZM47.8125 158.25L46.8173 158.348L46.8182 158.357L46.8193 158.367L47.8125 158.25ZM48.5 164.812L49.4959 164.722L49.4957 164.72L48.5 164.812ZM47.25 183.375L46.2966 183.073L46.2955 183.077L47.25 183.375ZM8.4375 187.438L7.61145 188.001L7.616 188.008L8.4375 187.438ZM2.75 174.188L3.71786 173.936L3.71737 173.934L2.75 174.188ZM1.5 143.625L2.49082 143.761L2.49212 143.75L1.5 143.625ZM3.5625 132.312L2.59364 132.065L2.59104 132.075L3.5625 132.312ZM6.75 122.188L5.81729 121.827L5.81571 121.831L6.75 122.188ZM10.625 113.625L11.1211 112.757L10.2264 112.245L9.74225 113.155L10.625 113.625ZM23.7675 121.111C20.7115 126.204 18.4657 131.801 17.0268 137.895L18.9732 138.355C20.3676 132.449 22.5385 127.046 25.4825 122.139L23.7675 121.111ZM17.0268 137.895C15.592 143.972 14.875 150.195 14.875 156.562H16.875C16.875 150.347 17.5747 144.278 18.9732 138.355L17.0268 137.895ZM14.875 156.562C14.875 160.852 15.1688 164.466 15.7705 167.389L17.7295 166.986C17.1645 164.242 16.875 160.773 16.875 156.562H14.875ZM15.7705 167.389C16.3648 170.275 17.14 172.649 18.1188 174.473L19.8812 173.527C19.0267 171.935 18.3019 169.766 17.7295 166.986L15.7705 167.389ZM18.1188 174.473C19.0863 176.276 20.2356 177.648 21.606 178.48L22.644 176.77C21.6811 176.186 20.747 175.141 19.8812 173.527L18.1188 174.473ZM21.606 178.48C22.9084 179.271 24.2733 179.688 25.6875 179.688V177.688C24.685 177.688 23.675 177.396 22.644 176.77L21.606 178.48ZM25.6875 179.688C27.7818 179.688 29.5531 178.745 30.9643 177.005L29.4107 175.745C28.3219 177.088 27.0932 177.688 25.6875 177.688V179.688ZM30.9557 177.015C32.4351 175.24 33.0625 172.443 33.0625 168.875H31.0625C31.0625 172.307 30.4399 174.51 29.4193 175.735L30.9557 177.015ZM33.0625 168.875C33.0625 167.208 32.9557 165.421 32.7439 163.515L30.7561 163.735C30.961 165.579 31.0625 167.292 31.0625 168.875H33.0625ZM32.7439 163.515C32.5352 161.636 32.3057 159.654 32.0554 157.568L30.0696 157.807C30.3193 159.887 30.5481 161.864 30.7561 163.735L32.7439 163.515ZM32.0573 157.586C31.8493 155.548 31.6413 153.405 31.4332 151.158L29.4418 151.342C29.6504 153.595 29.859 155.744 30.0677 157.789L32.0573 157.586ZM31.4331 151.156C31.2278 148.98 31.125 146.761 31.125 144.5H29.125C29.125 146.822 29.2305 149.103 29.4419 151.344L31.4331 151.156ZM31.125 144.5C31.125 139.567 31.6601 135.4 32.7063 131.98L30.7937 131.395C29.6733 135.058 29.125 139.433 29.125 144.5H31.125ZM32.7053 131.983C33.7589 128.579 35.182 125.854 36.9498 123.772L35.4252 122.478C33.443 124.812 31.9078 127.796 30.7947 131.392L32.7053 131.983ZM36.9498 123.772C38.7248 121.682 40.7997 120.179 43.1786 119.243L42.4464 117.382C39.742 118.446 37.4002 120.152 35.4252 122.478L36.9498 123.772ZM43.1735 119.245C45.6341 118.293 48.2817 117.812 51.125 117.812V115.812C48.0517 115.812 45.1576 116.332 42.4515 117.38L43.1735 119.245ZM51.125 117.812C54.7122 117.812 58.0032 118.648 61.0163 120.313L61.9837 118.562C58.6634 116.727 55.0378 115.812 51.125 115.812V117.812ZM61.0163 120.313C64.0379 121.983 66.657 124.375 68.8702 127.514L70.5048 126.361C68.1347 123 65.2954 120.392 61.9837 118.562L61.0163 120.313ZM68.8752 127.521C71.1292 130.66 72.8965 134.467 74.1625 138.959L76.0875 138.416C74.7701 133.742 72.9125 129.715 70.4998 126.354L68.8752 127.521ZM74.1619 138.956C75.4251 143.48 76.0625 148.533 76.0625 154.125H78.0625C78.0625 148.383 77.4082 143.145 76.0881 138.419L74.1619 138.956ZM76.0625 154.125C76.0625 157.041 75.8777 160.086 75.5068 163.259L77.4932 163.491C77.8723 160.248 78.0625 157.125 78.0625 154.125H76.0625ZM75.5052 163.273C75.1746 166.496 74.7201 169.657 74.142 172.754L76.108 173.121C76.6965 169.968 77.1587 166.754 77.4948 163.477L75.5052 163.273ZM74.142 172.754C73.5635 175.853 72.8821 178.826 72.0984 181.672L74.0266 182.203C74.8262 179.299 75.5199 176.272 76.108 173.121L74.142 172.754ZM72.0949 181.685C71.3527 184.53 70.5522 187.032 69.6953 189.194L71.5547 189.931C72.4478 187.677 73.2723 185.095 74.0301 182.19L72.0949 181.685ZM70.9999 188.635L56.6249 182.823L55.8751 184.677L70.2501 190.49L70.9999 188.635ZM57.1873 184.098C58.9536 179.346 60.3426 174.591 61.3532 169.833L59.3968 169.417C58.4074 174.076 57.0464 178.737 55.3127 183.402L57.1873 184.098ZM61.351 169.843C62.4092 165.102 62.9375 160.216 62.9375 155.188H60.9375C60.9375 160.075 60.4241 164.815 59.399 169.407L61.351 169.843ZM62.9375 155.188C62.9375 151.682 62.6635 148.667 62.1008 146.156L60.1492 146.594C60.6699 148.917 60.9375 151.776 60.9375 155.188H62.9375ZM62.1035 146.169C61.5896 143.728 60.872 141.68 59.9263 140.059L58.1987 141.066C59.003 142.445 59.6604 144.272 60.1465 146.581L62.1035 146.169ZM59.9367 140.077C59.0448 138.471 57.9606 137.224 56.6578 136.404L55.5922 138.096C56.5394 138.693 57.4136 139.654 58.1883 141.048L59.9367 140.077ZM56.6491 136.398C55.4168 135.64 54.0908 135.25 52.6875 135.25V137.25C53.7008 137.25 54.6665 137.527 55.6009 138.102L56.6491 136.398ZM52.6875 135.25C51.6827 135.25 50.7432 135.442 49.8867 135.845L50.7383 137.655C51.2985 137.391 51.9423 137.25 52.6875 137.25V135.25ZM49.8446 135.866C48.9674 136.331 48.2275 137.036 47.6122 137.935L49.2628 139.065C49.7309 138.381 50.2409 137.919 50.7804 137.634L49.8446 135.866ZM47.58 137.986C47.0095 138.936 46.5818 140.107 46.2746 141.467L48.2254 141.908C48.5016 140.685 48.8655 139.73 49.295 139.014L47.58 137.986ZM46.2671 141.503C46.0021 142.916 45.875 144.607 45.875 146.562H47.875C47.875 144.685 47.9979 143.125 48.2329 141.872L46.2671 141.503ZM45.875 146.562C45.875 148.352 45.9815 150.242 46.1931 152.231L48.1819 152.019C47.9768 150.092 47.875 148.273 47.875 146.562H45.875ZM46.1931 152.231C46.4011 154.186 46.6092 156.225 46.8173 158.348L48.8077 158.152C48.5991 156.025 48.3905 153.981 48.1819 152.019L46.1931 152.231ZM46.8193 158.367C47.0683 160.483 47.2966 162.662 47.5043 164.905L49.4957 164.72C49.2867 162.463 49.0567 160.267 48.8057 158.133L46.8193 158.367ZM47.5041 164.903C47.7096 167.164 47.8125 169.467 47.8125 171.812H49.8125C49.8125 169.408 49.707 167.045 49.4959 164.722L47.5041 164.903ZM47.8125 171.812C47.8125 176.154 47.3002 179.902 46.2966 183.073L48.2034 183.677C49.2832 180.265 49.8125 176.304 49.8125 171.812H47.8125ZM46.2955 183.077C45.2861 186.307 43.8866 188.928 42.1188 190.971L43.6312 192.279C45.6134 189.989 47.1306 187.11 48.2045 183.673L46.2955 183.077ZM42.1188 190.971C40.3396 193.027 38.2543 194.559 35.8579 195.58L36.6421 197.42C39.329 196.275 41.6604 194.557 43.6312 192.279L42.1188 190.971ZM35.8579 195.58C33.4505 196.606 30.8144 197.125 27.9375 197.125V199.125C31.0606 199.125 33.9662 198.56 36.6421 197.42L35.8579 195.58ZM27.9375 197.125C24.2236 197.125 20.7826 196.268 17.5984 194.557L16.6516 196.318C20.134 198.19 23.9014 199.125 27.9375 199.125V197.125ZM17.5984 194.557C14.4222 192.849 11.64 190.298 9.259 186.867L7.616 188.008C10.1516 191.661 13.1611 194.442 16.6516 196.318L17.5984 194.557ZM9.26352 186.874C6.92683 183.449 5.0715 179.145 3.71786 173.936L1.78214 174.439C3.1785 179.813 5.11484 184.342 7.61148 188.001L9.26352 186.874ZM3.71737 173.934C2.36901 168.786 1.6875 162.791 1.6875 155.938H-0.3125C-0.3125 162.918 0.380992 169.089 1.78263 174.441L3.71737 173.934ZM1.6875 155.938C1.6875 151.73 1.95562 147.671 2.49077 143.761L0.509233 143.489C-0.0389571 147.495 -0.3125 151.645 -0.3125 155.938H1.6875ZM2.49212 143.75C2.98774 139.827 3.66866 136.093 4.53396 132.55L2.59104 132.075C1.70634 135.698 1.01226 139.507 0.507884 143.5L2.49212 143.75ZM4.5313 132.56C5.43939 129.011 6.49068 125.672 7.68429 122.544L5.81571 121.831C4.59265 125.036 3.51895 128.448 2.5937 132.065L4.5313 132.56ZM7.6827 122.548C8.87861 119.455 10.154 116.638 11.5077 114.095L9.74225 113.155C8.34596 115.778 7.03806 118.67 5.8173 121.827L7.6827 122.548ZM10.1289 114.493L24.1289 122.493L25.1211 120.757L11.1211 112.757L10.1289 114.493ZM53.4375 214.375L53.0275 215.287L53.0306 215.288L53.4375 214.375ZM73.9375 237.25L74.8744 236.9L74.8735 236.898L73.9375 237.25ZM73.875 275.25L72.9395 274.897L72.9364 274.905L73.875 275.25ZM65.25 289.625L64.52 288.942L64.5164 288.945L65.25 289.625ZM52.3125 298.688L51.9251 297.766L51.9186 297.768L52.3125 298.688ZM34.0625 301.812L34.1124 300.814L34.0875 300.812H34.0625V301.812ZM31.875 301.688H30.875V302.57L31.751 302.68L31.875 301.688ZM31.875 231.938H32.875V230.517L31.5375 230.996L31.875 231.938ZM25.8125 235.75L25.122 235.027L25.1136 235.035L25.8125 235.75ZM17.9375 251.688L16.9596 251.478L16.9574 251.489L17.9375 251.688ZM18.1875 276L17.2084 276.204L17.2104 276.213L18.1875 276ZM21.625 288.062L22.0296 288.977L22.8804 288.601L22.5663 287.725L21.625 288.062ZM7.5 294.312L6.59342 294.735L7.00746 295.624L7.90464 295.227L7.5 294.312ZM4.5 286.938L3.55289 287.259L3.55614 287.268L4.5 286.938ZM2.375 279.188L1.39495 279.387L1.39742 279.398L2.375 279.188ZM1.125 270.75L2.12018 270.652L2.12004 270.65L1.125 270.75ZM11.875 224L11.1024 223.365L11.875 224ZM46.3125 282.25H45.3125V283.628L46.6229 283.201L46.3125 282.25ZM52 279.125L51.3912 278.332L51.3809 278.34L51.3708 278.348L52 279.125ZM56.625 273.938L55.7827 273.398L55.7789 273.404L55.7751 273.411L56.625 273.938ZM51.875 235.062L52.5152 234.294L52.5097 234.29L52.5042 234.285L51.875 235.062ZM46.3125 231.938L46.6348 230.991L45.3125 230.541V231.938H46.3125ZM39.125 212.312C43.9843 212.312 48.6153 213.304 53.0275 215.287L53.8475 213.463C49.1764 211.363 44.2657 210.312 39.125 210.312V212.312ZM53.0306 215.288C57.4837 217.272 61.4136 220.127 64.824 223.862L66.301 222.513C62.7114 218.582 58.5579 215.561 53.8444 213.462L53.0306 215.288ZM64.824 223.862C68.2271 227.589 70.9566 232.163 73.0015 237.602L74.8735 236.898C72.7517 231.254 69.8979 226.453 66.301 222.513L64.824 223.862ZM73.0006 237.6C75.0352 243.052 76.0625 249.264 76.0625 256.25H78.0625C78.0625 249.069 77.0065 242.614 74.8744 236.9L73.0006 237.6ZM76.0625 256.25C76.0625 263.191 75.0152 269.402 72.9395 274.897L74.8105 275.603C76.9848 269.848 78.0625 263.392 78.0625 256.25H76.0625ZM72.9364 274.905C70.8935 280.462 68.0844 285.134 64.52 288.942L65.98 290.308C69.7489 286.283 72.6898 281.372 74.8136 275.595L72.9364 274.905ZM64.5164 288.945C60.9462 292.8 56.7517 295.738 51.9251 297.766L52.6999 299.609C57.79 297.471 62.2204 294.367 65.9836 290.305L64.5164 288.945ZM51.9186 297.768C47.091 299.837 41.9132 300.875 36.375 300.875V302.875C42.1701 302.875 47.6174 301.788 52.7064 299.607L51.9186 297.768ZM36.375 300.875C35.6859 300.875 34.932 300.855 34.1124 300.814L34.0126 302.811C34.8597 302.854 35.6474 302.875 36.375 302.875V300.875ZM34.0625 300.812C33.3052 300.812 32.6181 300.773 31.999 300.695L31.751 302.68C32.4653 302.769 33.2365 302.812 34.0625 302.812V300.812ZM32.875 301.688V231.938H30.875V301.688H32.875ZM31.5375 230.996C29.1873 231.839 27.0483 233.188 25.122 235.027L26.503 236.473C28.2434 234.812 30.1461 233.62 32.2125 232.879L31.5375 230.996ZM25.1136 235.035C23.1888 236.916 21.5432 239.24 20.1681 241.99L21.9569 242.885C23.2484 240.302 24.7695 238.168 26.5114 236.465L25.1136 235.035ZM20.1681 241.99C18.7904 244.746 17.724 247.911 16.9597 251.478L18.9153 251.897C19.651 248.464 20.6679 245.463 21.9569 242.885L20.1681 241.99ZM16.9574 251.489C16.2336 255.065 15.875 259.008 15.875 263.312H17.875C17.875 259.117 18.2247 255.31 18.9176 251.886L16.9574 251.489ZM15.875 263.312C15.875 267.632 16.3197 271.929 17.2084 276.204L19.1666 275.796C18.3053 271.654 17.875 267.493 17.875 263.312H15.875ZM17.2104 276.213C18.1358 280.461 19.2933 284.524 20.6837 288.4L22.5663 287.725C21.2067 283.935 20.0726 279.956 19.1646 275.787L17.2104 276.213ZM21.2204 287.148L7.09536 293.398L7.90464 295.227L22.0296 288.977L21.2204 287.148ZM8.40658 293.89C7.29542 291.504 6.30788 289.076 5.44386 286.607L3.55614 287.268C4.44212 289.799 5.45458 292.288 6.59342 294.735L8.40658 293.89ZM5.44707 286.616C4.6268 284.197 3.9284 281.65 3.35258 278.977L1.39742 279.398C1.98827 282.141 2.70654 284.762 3.55293 287.259L5.44707 286.616ZM3.35499 278.988C2.82069 276.358 2.4088 273.579 2.12018 270.652L0.129825 270.848C0.42453 273.837 0.845981 276.684 1.39501 279.387L3.35499 278.988ZM2.12004 270.65C1.83201 267.77 1.6875 264.72 1.6875 261.5H-0.3125C-0.3125 264.78 -0.165343 267.896 0.129963 270.85L2.12004 270.65ZM1.6875 261.5C1.6875 253.286 2.67849 246.122 4.63992 239.992L2.73508 239.383C0.696511 245.753 -0.3125 253.131 -0.3125 261.5H1.6875ZM4.63992 239.992C6.60908 233.839 9.28414 228.728 12.6476 224.635L11.1024 223.365C7.5492 227.689 4.76592 233.036 2.73508 239.383L4.63992 239.992ZM12.6476 224.635C16.0153 220.537 19.9577 217.468 24.4769 215.41L23.6481 213.59C18.834 215.782 14.6514 219.046 11.1024 223.365L12.6476 224.635ZM24.4769 215.41C29.0072 213.347 33.8859 212.312 39.125 212.312V210.312C33.6141 210.312 28.4511 211.403 23.6481 213.59L24.4769 215.41ZM46.6229 283.201C48.7861 282.494 50.789 281.392 52.6292 279.902L51.3708 278.348C49.711 279.691 47.9223 280.672 46.0021 281.299L46.6229 283.201ZM52.6088 279.918C54.5041 278.464 56.1251 276.642 57.4749 274.464L55.7751 273.411C54.5416 275.4 53.0792 277.036 51.3912 278.332L52.6088 279.918ZM57.4673 274.477C58.8627 272.296 59.9421 269.784 60.7148 266.951L58.7852 266.424C58.0579 269.091 57.0539 271.412 55.7827 273.398L57.4673 274.477ZM60.7148 266.951C61.4914 264.103 61.875 260.992 61.875 257.625H59.875C59.875 260.841 59.5086 263.772 58.7852 266.424L60.7148 266.951ZM61.875 257.625C61.875 254.05 61.4708 250.772 60.6516 247.797L58.7234 248.328C59.4875 251.103 59.875 254.2 59.875 257.625H61.875ZM60.6516 247.797C59.8391 244.846 58.7422 242.235 57.3517 239.976L55.6483 241.024C56.9245 243.098 57.9526 245.529 58.7234 248.328L60.6516 247.797ZM57.3517 239.976C55.9681 237.728 54.3576 235.83 52.5152 234.294L51.2348 235.831C52.8924 237.212 54.3652 238.939 55.6483 241.024L57.3517 239.976ZM52.5042 234.285C50.6708 232.801 48.714 231.699 46.6348 230.991L45.9902 232.884C47.8276 233.51 49.5792 234.491 51.2458 235.84L52.5042 234.285ZM45.3125 231.938V282.25H47.3125V231.938H45.3125ZM75.75 321.812H76.75V320.812H75.75V321.812ZM75.75 340.312V341.312H76.75V340.312H75.75ZM65.125 340.312V339.312H63.1332L64.323 340.91L65.125 340.312ZM78.0625 366.812L78.3682 367.765L79.2676 367.476L79.0305 366.562L78.0625 366.812ZM61.125 372.25L60.1299 372.349L60.2523 373.58L61.4307 373.202L61.125 372.25ZM56.3125 353.438L55.4031 353.853L55.4045 353.857L56.3125 353.438ZM45.875 340.312L46.475 339.512L46.2083 339.312H45.875V340.312ZM2 340.312H1V341.312H2V340.312ZM2 321.812V320.812H1V321.812H2ZM74.75 321.812V340.312H76.75V321.812H74.75ZM75.75 339.312H65.125V341.312H75.75V339.312ZM64.323 340.91C67.3276 344.943 69.9199 349.202 72.1007 353.687L73.8993 352.813C71.6634 348.214 69.0057 343.848 65.927 339.715L64.323 340.91ZM72.1007 353.687C74.2825 358.174 75.9458 362.633 77.0945 367.063L79.0305 366.562C77.8458 361.992 76.1342 357.409 73.8993 352.813L72.1007 353.687ZM77.7568 365.86L60.8193 371.298L61.4307 373.202L78.3682 367.765L77.7568 365.86ZM62.1201 372.151C61.4029 364.937 59.7754 358.554 57.2205 353.018L55.4045 353.857C57.8496 359.154 59.4304 365.313 60.1299 372.349L62.1201 372.151ZM57.2219 353.022C54.6978 347.503 51.1154 342.993 46.475 339.512L45.275 341.113C49.6346 344.382 53.0106 348.622 55.4031 353.853L57.2219 353.022ZM45.875 339.312H2V341.312H45.875V339.312ZM3 340.312L3 321.812H1L1 340.312H3ZM2 322.812H75.75V320.812H2V322.812Z" fill="#464646"/>
</svg>
