<svg width="942" height="101" viewBox="0 0 942 101" fill="none" xmlns="http://www.w3.org/2000/svg">
<path d="M35.3906 4.73438V4.23438H35.073L34.938 4.52184L35.3906 4.73438ZM51.1406 4.73438L51.5907 4.51666L51.4542 4.23438H51.1406V4.73438ZM86.5781 78V78.5H87.3754L87.0282 77.7823L86.5781 78ZM70.9688 78L70.5172 78.2146L70.6528 78.5H70.9688V78ZM65.1094 65.6719L65.561 65.4572L65.4253 65.1719H65.1094V65.6719ZM22.3125 65.6719V65.1719H21.9922L21.8583 65.4629L22.3125 65.6719ZM16.6406 78V78.5H16.961L17.0949 78.209L16.6406 78ZM0.984375 78L0.531795 77.7875L0.197181 78.5H0.984375V78ZM59.25 53.4375V53.9375H60.0418L59.7015 53.2226L59.25 53.4375ZM43.4062 20.1562L43.8577 19.9413L43.4001 18.9802L42.9526 19.946L43.4062 20.1562ZM27.9844 53.4375L27.5307 53.2273L27.2016 53.9375H27.9844V53.4375ZM35.3906 5.23438H51.1406V4.23438H35.3906V5.23438ZM50.6905 4.95209L86.128 78.2177L87.0282 77.7823L51.5907 4.51666L50.6905 4.95209ZM86.5781 77.5H70.9688V78.5H86.5781V77.5ZM71.4203 77.7854L65.561 65.4572L64.6578 65.8865L70.5172 78.2146L71.4203 77.7854ZM65.1094 65.1719H22.3125V66.1719H65.1094V65.1719ZM21.8583 65.4629L16.1864 77.791L17.0949 78.209L22.7667 65.8809L21.8583 65.4629ZM16.6406 77.5H0.984375V78.5H16.6406V77.5ZM1.43695 78.2125L35.8432 4.94691L34.938 4.52184L0.531795 77.7875L1.43695 78.2125ZM59.7015 53.2226L43.8577 19.9413L42.9548 20.3712L58.7985 53.6524L59.7015 53.2226ZM42.9526 19.946L27.5307 53.2273L28.438 53.6477L43.8599 20.3665L42.9526 19.946ZM27.9844 53.9375H59.25V52.9375H27.9844V53.9375ZM109.734 100.594V101.094H110.234V100.594H109.734ZM95.8594 100.594H95.3594V101.094H95.8594V100.594ZM95.8594 22.6875V22.1875H95.3594V22.6875H95.8594ZM109.734 22.6875H110.234V22.1875H109.734V22.6875ZM109.734 27.8906H109.234V28.8449L110.019 28.3017L109.734 27.8906ZM125.297 22.2188L125.373 22.713L125.38 22.7117L125.297 22.2188ZM144.281 23.7656L144.115 24.2373L144.116 24.2377L144.281 23.7656ZM160.969 38.5781L160.512 38.782L160.514 38.7869L160.969 38.5781ZM160.875 62.0625L161.328 62.2748L161.328 62.2733L160.875 62.0625ZM153.984 71.1562L154.31 71.5353L154.311 71.535L153.984 71.1562ZM143.578 76.9688L143.737 77.4427L143.74 77.442L143.578 76.9688ZM124.594 78.6094L124.53 79.1053L124.531 79.1054L124.594 78.6094ZM118.969 77.5781L118.849 78.0637L118.851 78.0642L118.969 77.5781ZM113.906 76.0312L113.721 76.4956L113.732 76.4998L113.906 76.0312ZM109.734 74.0156L109.988 73.5849L109.234 73.1403V74.0156H109.734ZM109.734 60.6094H109.234V60.8497L109.422 60.9998L109.734 60.6094ZM123.891 66.5156L123.816 67.0101L123.825 67.0113L123.891 66.5156ZM137.203 65.5781L137.365 66.0513L137.368 66.0501L137.203 65.5781ZM143.484 62.0156L143.156 61.6389L143.152 61.6419L143.484 62.0156ZM147.422 43.8281L146.965 44.0312L146.968 44.0372L147.422 43.8281ZM143.578 38.6719L143.242 39.0425L143.25 39.049L143.578 38.6719ZM137.531 35.1562L137.356 35.6247L137.364 35.6274L137.531 35.1562ZM123.984 34.4062L124.075 34.8981L124.082 34.8965L123.984 34.4062ZM118.547 35.9062L118.371 35.4381L118.369 35.4391L118.547 35.9062ZM113.672 38.2969L113.411 37.8704L113.407 37.8729L113.672 38.2969ZM109.734 41.4375L109.376 41.0888L109.234 41.2344V41.4375H109.734ZM109.734 100.094H95.8594V101.094H109.734V100.094ZM96.3594 100.594V22.6875H95.3594V100.594H96.3594ZM95.8594 23.1875H109.734V22.1875H95.8594V23.1875ZM109.234 22.6875V27.8906H110.234V22.6875H109.234ZM110.019 28.3017C111.208 27.4784 112.618 26.6957 114.253 25.9555L113.841 25.0445C112.163 25.8043 110.698 26.6153 109.45 27.4795L110.019 28.3017ZM114.253 25.9555C115.887 25.2158 117.646 24.5674 119.532 24.0108L119.249 23.0517C117.323 23.6201 115.52 24.2842 113.841 25.0445L114.253 25.9555ZM119.532 24.0108C121.416 23.4549 123.363 23.0221 125.373 22.7129L125.221 21.7246C123.168 22.0404 121.178 22.4826 119.249 23.0517L119.532 24.0108ZM125.38 22.7117C127.384 22.3726 129.388 22.2031 131.391 22.2031V21.2031C129.331 21.2031 127.272 21.3774 125.213 21.7258L125.38 22.7117ZM131.391 22.2031C136.029 22.2031 140.269 22.8833 144.115 24.2373L144.447 23.294C140.481 21.8979 136.127 21.2031 131.391 21.2031V22.2031ZM144.116 24.2377C147.999 25.5935 151.315 27.4997 154.074 29.9518L154.738 29.2044C151.872 26.6566 148.439 24.6878 144.446 23.2936L144.116 24.2377ZM154.074 29.9518C156.833 32.4038 158.978 35.3455 160.512 38.782L161.425 38.3743C159.834 34.8107 157.605 31.7525 154.738 29.2044L154.074 29.9518ZM160.514 38.7869C162.075 42.1835 162.859 45.955 162.859 50.1094H163.859C163.859 45.8262 163.05 41.9102 161.423 38.3694L160.514 38.7869ZM162.859 50.1094C162.859 54.4517 162.044 58.3629 160.422 61.8517L161.328 62.2733C163.019 58.6371 163.859 54.5795 163.859 50.1094H162.859ZM160.422 61.8502C158.796 65.3181 156.542 68.2925 153.658 70.7775L154.311 71.535C157.302 68.9575 159.642 65.8694 161.328 62.2748L160.422 61.8502ZM153.658 70.7772C150.806 73.2312 147.394 75.1388 143.417 76.4955L143.74 77.442C147.824 76.0487 151.351 74.0813 154.31 71.5353L153.658 70.7772ZM143.419 76.4948C139.476 77.8195 135.186 78.4844 130.547 78.4844V79.4844C135.283 79.4844 139.681 78.8055 143.737 77.4427L143.419 76.4948ZM130.547 78.4844C128.568 78.4844 126.604 78.3607 124.657 78.1134L124.531 79.1054C126.521 79.3581 128.526 79.4844 130.547 79.4844V78.4844ZM124.658 78.1135C122.737 77.8657 120.88 77.5251 119.086 77.0921L118.851 78.0642C120.682 78.5061 122.575 78.8531 124.53 79.1053L124.658 78.1135ZM119.088 77.0926C117.324 76.6593 115.655 76.1492 114.081 75.5627L113.732 76.4998C115.345 77.1008 117.051 77.6219 118.849 78.0637L119.088 77.0926ZM114.092 75.567C112.549 74.9497 111.182 74.2886 109.988 73.5849L109.48 74.4463C110.725 75.1801 112.139 75.8628 113.721 76.4955L114.092 75.567ZM109.234 74.0156V100.594H110.234V74.0156H109.234ZM109.422 60.9998C110.855 62.1461 112.369 63.1185 113.964 63.916L114.411 63.0215C112.881 62.2565 111.426 61.3226 110.047 60.2189L109.422 60.9998ZM113.964 63.916C115.55 64.7092 117.17 65.3602 118.822 65.8685L119.116 64.9127C117.518 64.4211 115.95 63.7908 114.411 63.0215L113.964 63.916ZM118.822 65.8685C120.47 66.3757 122.135 66.7563 123.816 67.01L123.965 66.0212C122.334 65.775 120.717 65.4056 119.116 64.9127L118.822 65.8685ZM123.825 67.0113C125.502 67.2327 127.133 67.3438 128.719 67.3438V66.3438C127.18 66.3438 125.592 66.236 123.956 66.0199L123.825 67.0113ZM128.719 67.3438C131.949 67.3438 134.834 66.9162 137.365 66.0513L137.041 65.105C134.635 65.9275 131.863 66.3438 128.719 66.3438V67.3438ZM137.368 66.0501C139.919 65.1572 142.073 63.9395 143.817 62.3893L143.152 61.6419C141.521 63.0918 139.487 64.2491 137.038 65.1062L137.368 66.0501ZM143.813 62.3923C145.585 60.8459 146.942 59.0217 147.878 56.9225L146.965 56.515C146.089 58.4783 144.821 60.1854 143.156 61.6389L143.813 62.3923ZM147.878 56.9225C148.815 54.8228 149.281 52.5497 149.281 50.1094H148.281C148.281 52.419 147.841 54.5522 146.965 56.515L147.878 56.9225ZM149.281 50.1094C149.281 47.8202 148.813 45.655 147.876 43.6191L146.968 44.0372C147.843 45.9388 148.281 47.961 148.281 50.1094H149.281ZM147.879 43.6251C146.973 41.587 145.647 39.8095 143.906 38.2947L143.25 39.049C144.884 40.4717 146.121 42.1318 146.965 44.0312L147.879 43.6251ZM143.914 38.3013C142.203 36.7517 140.128 35.5481 137.699 34.6851L137.364 35.6274C139.685 36.4519 141.641 37.5921 143.242 39.0425L143.914 38.3013ZM137.706 34.6878C135.298 33.7887 132.596 33.3438 129.609 33.3438V34.3438C132.497 34.3438 135.077 34.7738 137.356 35.6247L137.706 34.6878ZM129.609 33.3438C127.701 33.3438 125.793 33.5346 123.886 33.916L124.082 34.8965C125.926 34.5279 127.768 34.3438 129.609 34.3438V33.3438ZM123.894 33.9144C121.991 34.2634 120.15 34.7712 118.371 35.4381L118.722 36.3744C120.444 35.7288 122.228 35.2366 124.075 34.8981L123.894 33.9144ZM118.369 35.4391C116.622 36.1061 114.969 36.9165 113.411 37.8704L113.933 38.7233C115.437 37.8023 117.035 37.0189 118.725 36.3734L118.369 35.4391ZM113.407 37.8729C111.876 38.8296 110.532 39.9012 109.376 41.0888L110.093 41.7862C111.187 40.6613 112.468 39.6391 113.937 38.7209L113.407 37.8729ZM109.234 41.4375V60.6094H110.234V41.4375H109.234ZM189.984 100.594V101.094H190.484V100.594H189.984ZM176.109 100.594H175.609V101.094H176.109V100.594ZM176.109 22.6875V22.1875H175.609V22.6875H176.109ZM189.984 22.6875H190.484V22.1875H189.984V22.6875ZM189.984 27.8906H189.484V28.8449L190.269 28.3017L189.984 27.8906ZM205.547 22.2188L205.623 22.713L205.63 22.7117L205.547 22.2188ZM224.531 23.7656L224.365 24.2373L224.366 24.2377L224.531 23.7656ZM241.219 38.5781L240.762 38.782L240.764 38.7869L241.219 38.5781ZM241.125 62.0625L241.578 62.2748L241.578 62.2733L241.125 62.0625ZM234.234 71.1562L234.56 71.5353L234.561 71.535L234.234 71.1562ZM223.828 76.9688L223.987 77.4427L223.99 77.442L223.828 76.9688ZM204.844 78.6094L204.78 79.1053L204.781 79.1054L204.844 78.6094ZM199.219 77.5781L199.099 78.0637L199.101 78.0642L199.219 77.5781ZM194.156 76.0312L193.971 76.4956L193.982 76.4998L194.156 76.0312ZM189.984 74.0156L190.238 73.5849L189.484 73.1403V74.0156H189.984ZM189.984 60.6094H189.484V60.8497L189.672 60.9998L189.984 60.6094ZM204.141 66.5156L204.066 67.0101L204.075 67.0113L204.141 66.5156ZM217.453 65.5781L217.615 66.0513L217.618 66.0501L217.453 65.5781ZM223.734 62.0156L223.406 61.6389L223.402 61.6419L223.734 62.0156ZM227.672 43.8281L227.215 44.0312L227.218 44.0372L227.672 43.8281ZM223.828 38.6719L223.492 39.0425L223.5 39.049L223.828 38.6719ZM217.781 35.1562L217.606 35.6247L217.614 35.6274L217.781 35.1562ZM204.234 34.4062L204.325 34.8981L204.332 34.8965L204.234 34.4062ZM198.797 35.9062L198.621 35.4381L198.619 35.4391L198.797 35.9062ZM193.922 38.2969L193.661 37.8704L193.657 37.8729L193.922 38.2969ZM189.984 41.4375L189.626 41.0888L189.484 41.2344V41.4375H189.984ZM189.984 100.094H176.109V101.094H189.984V100.094ZM176.609 100.594V22.6875H175.609V100.594H176.609ZM176.109 23.1875H189.984V22.1875H176.109V23.1875ZM189.484 22.6875V27.8906H190.484V22.6875H189.484ZM190.269 28.3017C191.458 27.4784 192.868 26.6957 194.503 25.9555L194.091 25.0445C192.413 25.8043 190.948 26.6153 189.7 27.4795L190.269 28.3017ZM194.503 25.9555C196.137 25.2158 197.896 24.5674 199.782 24.0108L199.499 23.0517C197.573 23.6201 195.77 24.2842 194.091 25.0445L194.503 25.9555ZM199.782 24.0108C201.666 23.4549 203.613 23.0221 205.623 22.7129L205.471 21.7246C203.418 22.0404 201.428 22.4826 199.499 23.0517L199.782 24.0108ZM205.63 22.7117C207.634 22.3726 209.638 22.2031 211.641 22.2031V21.2031C209.581 21.2031 207.522 21.3774 205.463 21.7258L205.63 22.7117ZM211.641 22.2031C216.279 22.2031 220.519 22.8833 224.365 24.2373L224.697 23.294C220.731 21.8979 216.377 21.2031 211.641 21.2031V22.2031ZM224.366 24.2377C228.249 25.5935 231.565 27.4997 234.324 29.9518L234.988 29.2044C232.122 26.6566 228.689 24.6878 224.696 23.2936L224.366 24.2377ZM234.324 29.9518C237.083 32.4038 239.228 35.3455 240.762 38.782L241.675 38.3743C240.084 34.8107 237.855 31.7525 234.988 29.2044L234.324 29.9518ZM240.764 38.7869C242.325 42.1835 243.109 45.955 243.109 50.1094H244.109C244.109 45.8262 243.3 41.9102 241.673 38.3694L240.764 38.7869ZM243.109 50.1094C243.109 54.4517 242.294 58.3629 240.672 61.8517L241.578 62.2733C243.269 58.6371 244.109 54.5795 244.109 50.1094H243.109ZM240.672 61.8502C239.046 65.3181 236.792 68.2925 233.908 70.7775L234.561 71.535C237.552 68.9575 239.892 65.8694 241.578 62.2748L240.672 61.8502ZM233.908 70.7772C231.056 73.2312 227.644 75.1388 223.667 76.4955L223.99 77.442C228.074 76.0487 231.601 74.0813 234.56 71.5353L233.908 70.7772ZM223.669 76.4948C219.726 77.8195 215.436 78.4844 210.797 78.4844V79.4844C215.533 79.4844 219.931 78.8055 223.987 77.4427L223.669 76.4948ZM210.797 78.4844C208.818 78.4844 206.854 78.3607 204.907 78.1134L204.781 79.1054C206.771 79.3581 208.776 79.4844 210.797 79.4844V78.4844ZM204.908 78.1135C202.987 77.8657 201.13 77.5251 199.336 77.0921L199.101 78.0642C200.932 78.5061 202.825 78.8531 204.78 79.1053L204.908 78.1135ZM199.338 77.0926C197.574 76.6593 195.905 76.1492 194.331 75.5627L193.982 76.4998C195.595 77.1008 197.301 77.6219 199.099 78.0637L199.338 77.0926ZM194.342 75.567C192.799 74.9497 191.432 74.2886 190.238 73.5849L189.73 74.4463C190.975 75.1801 192.389 75.8628 193.971 76.4955L194.342 75.567ZM189.484 74.0156V100.594H190.484V74.0156H189.484ZM189.672 60.9998C191.105 62.1461 192.619 63.1185 194.214 63.916L194.661 63.0215C193.131 62.2565 191.676 61.3226 190.297 60.2189L189.672 60.9998ZM194.214 63.916C195.8 64.7092 197.42 65.3602 199.072 65.8685L199.366 64.9127C197.768 64.4211 196.2 63.7908 194.661 63.0215L194.214 63.916ZM199.072 65.8685C200.72 66.3757 202.385 66.7563 204.066 67.01L204.215 66.0212C202.584 65.775 200.967 65.4056 199.366 64.9127L199.072 65.8685ZM204.075 67.0113C205.752 67.2327 207.383 67.3438 208.969 67.3438V66.3438C207.43 66.3438 205.842 66.236 204.206 66.0199L204.075 67.0113ZM208.969 67.3438C212.199 67.3438 215.084 66.9162 217.615 66.0513L217.291 65.105C214.885 65.9275 212.113 66.3438 208.969 66.3438V67.3438ZM217.618 66.0501C220.169 65.1572 222.323 63.9395 224.067 62.3893L223.402 61.6419C221.771 63.0918 219.737 64.2491 217.288 65.1062L217.618 66.0501ZM224.063 62.3923C225.835 60.8459 227.192 59.0217 228.128 56.9225L227.215 56.515C226.339 58.4783 225.071 60.1854 223.406 61.6389L224.063 62.3923ZM228.128 56.9225C229.065 54.8228 229.531 52.5497 229.531 50.1094H228.531C228.531 52.419 228.091 54.5522 227.215 56.515L228.128 56.9225ZM229.531 50.1094C229.531 47.8202 229.063 45.655 228.126 43.6191L227.218 44.0372C228.093 45.9388 228.531 47.961 228.531 50.1094H229.531ZM228.129 43.6251C227.223 41.587 225.897 39.8095 224.156 38.2947L223.5 39.049C225.134 40.4717 226.371 42.1318 227.215 44.0312L228.129 43.6251ZM224.164 38.3013C222.453 36.7517 220.378 35.5481 217.949 34.6851L217.614 35.6274C219.935 36.4519 221.891 37.5921 223.492 39.0425L224.164 38.3013ZM217.956 34.6878C215.548 33.7887 212.846 33.3438 209.859 33.3438V34.3438C212.747 34.3438 215.327 34.7738 217.606 35.6247L217.956 34.6878ZM209.859 33.3438C207.951 33.3438 206.043 33.5346 204.136 33.916L204.332 34.8965C206.176 34.5279 208.018 34.3438 209.859 34.3438V33.3438ZM204.144 33.9144C202.241 34.2634 200.4 34.7712 198.621 35.4381L198.972 36.3744C200.694 35.7288 202.478 35.2366 204.325 34.8981L204.144 33.9144ZM198.619 35.4391C196.872 36.1061 195.219 36.9165 193.661 37.8704L194.183 38.7233C195.687 37.8023 197.285 37.0189 198.975 36.3734L198.619 35.4391ZM193.657 37.8729C192.126 38.8296 190.782 39.9012 189.626 41.0888L190.343 41.7862C191.437 40.6613 192.718 39.6391 194.187 38.7209L193.657 37.8729ZM189.484 41.4375V60.6094H190.484V41.4375H189.484ZM254.484 35.5312V35.0312H253.984V35.5312H254.484ZM297.469 35.5312H297.969V35.0312H297.469V35.5312ZM297.469 45.9375V46.4375H297.969V45.9375H297.469ZM254.484 45.9375H253.984V46.4375H254.484V45.9375ZM254.484 36.0312H297.469V35.0312H254.484V36.0312ZM296.969 35.5312V45.9375H297.969V35.5312H296.969ZM297.469 45.4375H254.484V46.4375H297.469V45.4375ZM254.984 45.9375V35.5312H253.984V45.9375H254.984ZM314.344 4.73438V4.23438H313.844V4.73438H314.344ZM375.984 14.5312L375.664 14.9151L375.667 14.9179L375.984 14.5312ZM384.469 25.9688L384.006 26.1583L384.008 26.1622L384.469 25.9688ZM384.516 55.8281L384.978 56.0177L384.979 56.0166L384.516 55.8281ZM376.078 67.5469L376.406 67.9245L376.408 67.923L376.078 67.5469ZM361.734 75.2812L361.886 75.7576L361.889 75.7569L361.734 75.2812ZM341.297 78.0469L341.296 78.5469H341.297V78.0469ZM314.344 78H313.844V78.4991L314.343 78.5L314.344 78ZM356.531 63.4688L356.691 63.9427L356.695 63.9413L356.531 63.4688ZM364.875 58.5938L364.534 58.2277L364.532 58.2301L364.875 58.5938ZM369.938 31.3594L369.471 31.5399L369.472 31.5416L369.938 31.3594ZM364.875 24L364.537 24.3688L364.543 24.3737L364.875 24ZM329.203 17.6719V17.1719H328.703V17.6719H329.203ZM329.203 65.1562H328.703V65.6562H329.203V65.1562ZM314.344 5.23438H341.203V4.23438H314.344V5.23438ZM341.203 5.23438C349.013 5.23438 355.776 6.07469 361.501 7.7456L361.781 6.78565C355.943 5.08156 349.081 4.23438 341.203 4.23438V5.23438ZM361.501 7.7456C367.23 9.418 371.946 11.8116 375.664 14.9151L376.305 14.1474C372.46 10.9384 367.614 8.48825 361.781 6.78565L361.501 7.7456ZM375.667 14.9179C379.417 17.9911 382.194 21.7362 384.006 26.1583L384.931 25.7792C383.056 21.2013 380.177 17.3214 376.301 14.1446L375.667 14.9179ZM384.008 26.1622C385.853 30.561 386.781 35.525 386.781 41.0625H387.781C387.781 35.4125 386.834 30.314 384.93 25.7753L384.008 26.1622ZM386.781 41.0625C386.781 46.316 385.87 51.1732 384.052 55.6397L384.979 56.0166C386.849 51.4205 387.781 46.434 387.781 41.0625H386.781ZM384.053 55.6386C382.24 60.0645 379.474 63.9075 375.749 67.1708L376.408 67.923C380.245 64.5612 383.104 60.5918 384.978 56.0177L384.053 55.6386ZM375.75 67.1692C372.029 70.3982 367.311 72.947 361.58 74.8056L361.889 75.7569C367.72 73.8655 372.564 71.2581 376.406 67.9245L375.75 67.1692ZM361.582 74.8049C355.862 76.6292 349.103 77.5469 341.297 77.5469V78.5469C349.178 78.5469 356.044 77.6208 361.886 75.7576L361.582 74.8049ZM341.298 77.5469L314.345 77.5L314.343 78.5L341.296 78.5469L341.298 77.5469ZM314.844 78V4.73438H313.844V78H314.844ZM344.859 65.6562C349.338 65.6562 353.284 65.0887 356.691 63.9426L356.372 62.9949C353.091 64.0988 349.256 64.6562 344.859 64.6562V65.6562ZM356.695 63.9413C360.095 62.7656 362.94 61.1069 365.218 58.9574L364.532 58.2301C362.372 60.2681 359.655 61.8594 356.368 62.9962L356.695 63.9413ZM365.216 58.9598C367.524 56.8119 369.254 54.2154 370.405 51.1772L369.47 50.8228C368.371 53.7221 366.726 56.1881 364.534 58.2277L365.216 58.9598ZM370.405 51.1772C371.554 48.1439 372.125 44.7702 372.125 41.0625H371.125C371.125 44.6673 370.571 47.9186 369.47 50.8228L370.405 51.1772ZM372.125 41.0625C372.125 37.4165 371.554 34.1189 370.403 31.1772L369.472 31.5416C370.571 34.3498 371.125 37.521 371.125 41.0625H372.125ZM370.404 31.1789C369.251 28.2012 367.519 25.681 365.207 23.6263L364.543 24.3737C366.731 26.319 368.374 28.7051 369.471 31.5399L370.404 31.1789ZM365.213 23.6312C362.933 21.5445 360.087 19.9494 356.687 18.8373L356.376 19.7877C359.663 20.8631 362.379 22.393 364.537 24.3688L365.213 23.6312ZM356.687 18.8373C353.282 17.7235 349.337 17.1719 344.859 17.1719V18.1719C349.257 18.1719 353.093 18.714 356.376 19.7877L356.687 18.8373ZM344.859 17.1719H329.203V18.1719H344.859V17.1719ZM328.703 17.6719V65.1562H329.703V17.6719H328.703ZM329.203 65.6562H344.859V64.6562H329.203V65.6562ZM400.125 39.4219L400.581 39.6269L400.582 39.6253L400.125 39.4219ZM417.281 24.0469L417.106 23.5784L417.105 23.5789L417.281 24.0469ZM445.781 24.0938L445.605 24.5615L445.609 24.563L445.781 24.0938ZM456.562 30.5625L456.221 30.9275L456.223 30.9293L456.562 30.5625ZM463.359 40.2656L462.898 40.4593L462.9 40.4626L463.359 40.2656ZM465.703 53.9531L465.204 53.9282L465.203 53.9406V53.9531H465.703ZM465.609 55.5938V56.0938H466.051L466.106 55.6558L465.609 55.5938ZM413.297 55.5938V55.0938H412.586L412.826 55.7625L413.297 55.5938ZM416.156 60.1406L415.795 60.4859L415.799 60.4901L416.156 60.1406ZM428.109 66.0469L428.005 66.5358L428.01 66.5369L428.109 66.0469ZM446.344 65.8594L446.446 66.3489L446.45 66.3479L446.344 65.8594ZM455.391 63.2812L455.848 63.0789L455.66 62.6536L455.222 62.8106L455.391 63.2812ZM460.078 73.875L460.289 74.3283L460.734 74.1213L460.535 73.6727L460.078 73.875ZM454.547 76.125L454.707 76.5986L454.712 76.5969L454.547 76.125ZM448.734 77.7188L448.834 78.2088L448.84 78.2075L448.734 77.7188ZM442.406 78.6562L442.357 78.1587L442.356 78.1587L442.406 78.6562ZM451.031 44.7656V45.2656H451.72L451.507 44.6104L451.031 44.7656ZM448.688 40.5L448.291 40.8045L448.299 40.8146L448.688 40.5ZM444.797 37.0312L444.527 37.4524L444.533 37.4562L444.797 37.0312ZM415.641 40.5938L415.256 40.2736L415.252 40.2792L415.641 40.5938ZM413.297 44.7656L412.824 44.6045L412.598 45.2656H413.297V44.7656ZM398.328 50.1562C398.328 46.4766 399.079 42.9684 400.581 39.6269L399.669 39.2169C398.109 42.6879 397.328 46.3359 397.328 50.1562H398.328ZM400.582 39.6253C402.084 36.2529 404.246 33.2776 407.072 30.6974L406.397 29.9589C403.473 32.6287 401.229 35.7158 399.668 39.2184L400.582 39.6253ZM407.072 30.6974C409.893 28.1208 413.352 26.0581 417.457 24.5149L417.105 23.5789C412.898 25.1606 409.325 27.2854 406.397 29.9589L407.072 30.6974ZM417.456 24.5153C421.578 22.9772 426.267 22.2031 431.531 22.2031V21.2031C426.17 21.2031 421.359 21.9915 417.106 23.5784L417.456 24.5153ZM431.531 22.2031C436.762 22.2031 441.451 22.9924 445.605 24.5615L445.958 23.626C441.674 22.0076 436.863 21.2031 431.531 21.2031V22.2031ZM445.609 24.563C449.804 26.1053 453.338 28.2286 456.221 30.9275L456.904 30.1975C453.912 27.3964 450.259 25.2072 445.954 23.6245L445.609 24.563ZM456.223 30.9293C459.139 33.6311 461.364 36.8065 462.898 40.4593L463.82 40.0719C462.23 36.2873 459.923 32.9939 456.902 30.1957L456.223 30.9293ZM462.9 40.4626C464.466 44.116 465.25 48.033 465.25 52.2188H466.25C466.25 47.9045 465.441 43.8528 463.819 40.0687L462.9 40.4626ZM465.25 52.2188C465.25 52.7404 465.235 53.3101 465.204 53.9282L466.203 53.9781C466.234 53.3462 466.25 52.7596 466.25 52.2188H465.25ZM465.203 53.9531C465.203 54.5297 465.173 55.0555 465.113 55.5317L466.106 55.6558C466.171 55.132 466.203 54.5641 466.203 53.9531H465.203ZM465.609 55.0938H413.297V56.0938H465.609V55.0938ZM412.826 55.7625C413.445 57.4897 414.438 59.0644 415.795 60.4859L416.518 59.7954C415.25 58.4668 414.336 57.0103 413.768 55.425L412.826 55.7625ZM415.799 60.4901C417.187 61.9108 418.906 63.1294 420.948 64.1503L421.395 63.2559C419.437 62.2768 417.813 61.1204 416.514 59.7912L415.799 60.4901ZM420.948 64.1503C422.993 65.1725 425.346 65.9661 428.005 66.5358L428.214 65.558C425.622 65.0026 423.351 64.2337 421.395 63.2559L420.948 64.1503ZM428.01 66.5369C430.673 67.0759 433.613 67.3438 436.828 67.3438V66.3438C433.668 66.3438 430.795 66.0803 428.209 65.5568L428.01 66.5369ZM436.828 67.3438C440.05 67.3438 443.256 67.012 446.446 66.3489L446.242 65.3698C443.119 66.0192 439.981 66.3438 436.828 66.3438V67.3438ZM446.45 66.3479C449.626 65.6561 452.663 64.7909 455.559 63.7519L455.222 62.8106C452.368 63.8341 449.374 64.6877 446.237 65.3708L446.45 66.3479ZM454.933 63.4836L459.621 74.0773L460.535 73.6727L455.848 63.0789L454.933 63.4836ZM459.867 73.4217C458.069 74.2585 456.241 75.0023 454.382 75.6531L454.712 76.5969C456.603 75.9352 458.462 75.179 460.289 74.3283L459.867 73.4217ZM454.386 75.6515C452.562 76.2699 450.643 76.7962 448.629 77.23L448.84 78.2075C450.888 77.7663 452.844 77.2301 454.707 76.5985L454.386 75.6515ZM448.635 77.2288C446.653 77.6313 444.561 77.9414 442.357 78.1587L442.455 79.1538C444.689 78.9336 446.816 78.6187 448.834 78.2087L448.635 77.2288ZM442.356 78.1587C440.187 78.3757 437.891 78.4844 435.469 78.4844V79.4844C437.921 79.4844 440.25 79.3743 442.456 79.1538L442.356 78.1587ZM435.469 78.4844C429.289 78.4844 423.889 77.7389 419.262 76.2582L418.957 77.2106C423.705 78.7299 429.211 79.4844 435.469 79.4844V78.4844ZM419.262 76.2582C414.622 74.7736 410.76 72.7538 407.661 70.2075L407.026 70.98C410.24 73.6212 414.221 75.6952 418.957 77.2106L419.262 76.2582ZM407.661 70.2075C404.56 67.659 402.234 64.6722 400.674 61.2459L399.764 61.6603C401.391 65.234 403.815 68.341 407.026 70.98L407.661 70.2075ZM400.674 61.2459C399.111 57.8141 398.328 54.1195 398.328 50.1562H397.328C397.328 54.2555 398.139 58.0921 399.764 61.6603L400.674 61.2459ZM451.507 44.6104C450.987 43.0184 450.175 41.543 449.076 40.1854L448.299 40.8146C449.325 42.082 450.076 43.4503 450.556 44.9208L451.507 44.6104ZM449.084 40.1956C448.013 38.8 446.67 37.6041 445.06 36.6063L444.533 37.4562C446.049 38.3959 447.299 39.5125 448.291 40.8044L449.084 40.1956ZM445.066 36.6101C443.455 35.579 441.595 34.7789 439.491 34.2051L439.228 35.1699C441.249 35.7211 443.013 36.4835 444.527 37.4524L445.066 36.6101ZM439.491 34.2051C437.38 33.6293 435.069 33.3438 432.562 33.3438V34.3438C434.994 34.3438 437.214 34.6207 439.228 35.1699L439.491 34.2051ZM432.562 33.3438C429.9 33.3438 427.464 33.6448 425.258 34.2523L425.523 35.2164C427.63 34.6364 429.975 34.3438 432.562 34.3438V33.3438ZM425.258 34.2523C423.064 34.8565 421.128 35.6706 419.457 36.6992L419.981 37.5508C421.559 36.5794 423.405 35.7997 425.523 35.2164L425.258 34.2523ZM419.457 36.6992C417.791 37.7243 416.389 38.915 415.257 40.2737L416.025 40.9138C417.08 39.6475 418.397 38.5257 419.981 37.5508L419.457 36.6992ZM415.252 40.2792C414.156 41.6334 413.344 43.0753 412.824 44.6045L413.77 44.9268C414.25 43.5185 415.001 42.1791 416.029 40.9083L415.252 40.2792ZM413.297 45.2656H451.031V44.2656H413.297V45.2656ZM473.062 22.6406V22.1406H472.273L472.611 22.8545L473.062 22.6406ZM489.141 22.6406L489.6 22.4422L489.469 22.1406H489.141V22.6406ZM503.531 55.9219L503.995 55.7353L503.99 55.7234L503.531 55.9219ZM507.281 65.25L506.817 65.4365L507.281 66.5905L507.745 65.4365L507.281 65.25ZM511.031 55.9219L510.572 55.7234L510.567 55.7354L511.031 55.9219ZM525.422 22.6406V22.1406H525.093L524.963 22.4422L525.422 22.6406ZM541.5 22.6406L541.952 22.8545L542.29 22.1406H541.5V22.6406ZM515.297 78V78.5H515.613L515.749 78.2139L515.297 78ZM499.266 78L498.814 78.2139L498.949 78.5H499.266V78ZM473.062 23.1406H489.141V22.1406H473.062V23.1406ZM488.682 22.8391L503.072 56.1203L503.99 55.7234L489.6 22.4422L488.682 22.8391ZM503.067 56.1084L506.817 65.4365L507.745 65.0635L503.995 55.7354L503.067 56.1084ZM507.745 65.4365L511.495 56.1084L510.567 55.7354L506.817 65.0635L507.745 65.4365ZM511.49 56.1203L525.881 22.8391L524.963 22.4422L510.572 55.7234L511.49 56.1203ZM525.422 23.1406H541.5V22.1406H525.422V23.1406ZM541.048 22.4267L514.845 77.7861L515.749 78.2139L541.952 22.8545L541.048 22.4267ZM515.297 77.5H499.266V78.5H515.297V77.5ZM499.718 77.7861L473.514 22.4267L472.611 22.8545L498.814 78.2139L499.718 77.7861ZM550.875 39.4219L551.331 39.6269L551.332 39.6253L550.875 39.4219ZM568.031 24.0469L567.856 23.5784L567.855 23.5789L568.031 24.0469ZM596.531 24.0938L596.355 24.5615L596.359 24.563L596.531 24.0938ZM607.312 30.5625L606.971 30.9275L606.973 30.9293L607.312 30.5625ZM614.109 40.2656L613.648 40.4593L613.65 40.4626L614.109 40.2656ZM616.453 53.9531L615.954 53.9282L615.953 53.9406V53.9531H616.453ZM616.359 55.5938V56.0938H616.801L616.856 55.6558L616.359 55.5938ZM564.047 55.5938V55.0938H563.336L563.576 55.7625L564.047 55.5938ZM566.906 60.1406L566.545 60.4859L566.549 60.4901L566.906 60.1406ZM578.859 66.0469L578.755 66.5358L578.76 66.5369L578.859 66.0469ZM597.094 65.8594L597.196 66.3489L597.2 66.3479L597.094 65.8594ZM606.141 63.2812L606.598 63.0789L606.41 62.6536L605.972 62.8106L606.141 63.2812ZM610.828 73.875L611.039 74.3283L611.484 74.1213L611.285 73.6727L610.828 73.875ZM605.297 76.125L605.457 76.5986L605.462 76.5969L605.297 76.125ZM599.484 77.7188L599.584 78.2088L599.59 78.2075L599.484 77.7188ZM593.156 78.6562L593.107 78.1587L593.106 78.1587L593.156 78.6562ZM601.781 44.7656V45.2656H602.47L602.257 44.6104L601.781 44.7656ZM599.438 40.5L599.041 40.8045L599.049 40.8146L599.438 40.5ZM595.547 37.0312L595.277 37.4524L595.283 37.4562L595.547 37.0312ZM566.391 40.5938L566.006 40.2736L566.002 40.2792L566.391 40.5938ZM564.047 44.7656L563.574 44.6045L563.348 45.2656H564.047V44.7656ZM549.078 50.1562C549.078 46.4766 549.829 42.9684 551.331 39.6269L550.419 39.2169C548.859 42.6879 548.078 46.3359 548.078 50.1562H549.078ZM551.332 39.6253C552.834 36.2529 554.996 33.2776 557.822 30.6974L557.147 29.9589C554.223 32.6287 551.979 35.7158 550.418 39.2184L551.332 39.6253ZM557.822 30.6974C560.643 28.1208 564.102 26.0581 568.207 24.5149L567.855 23.5789C563.648 25.1606 560.075 27.2854 557.147 29.9589L557.822 30.6974ZM568.206 24.5153C572.328 22.9772 577.017 22.2031 582.281 22.2031V21.2031C576.92 21.2031 572.109 21.9915 567.856 23.5784L568.206 24.5153ZM582.281 22.2031C587.512 22.2031 592.201 22.9924 596.355 24.5615L596.708 23.626C592.424 22.0076 587.613 21.2031 582.281 21.2031V22.2031ZM596.359 24.563C600.554 26.1053 604.088 28.2286 606.971 30.9275L607.654 30.1975C604.662 27.3964 601.009 25.2072 596.704 23.6245L596.359 24.563ZM606.973 30.9293C609.889 33.6311 612.114 36.8065 613.648 40.4593L614.57 40.0719C612.98 36.2873 610.673 32.9939 607.652 30.1957L606.973 30.9293ZM613.65 40.4626C615.216 44.116 616 48.033 616 52.2188H617C617 47.9045 616.191 43.8528 614.569 40.0687L613.65 40.4626ZM616 52.2188C616 52.7404 615.985 53.3101 615.954 53.9282L616.953 53.9781C616.984 53.3462 617 52.7596 617 52.2188H616ZM615.953 53.9531C615.953 54.5297 615.923 55.0555 615.863 55.5317L616.856 55.6558C616.921 55.132 616.953 54.5641 616.953 53.9531H615.953ZM616.359 55.0938H564.047V56.0938H616.359V55.0938ZM563.576 55.7625C564.195 57.4897 565.188 59.0644 566.545 60.4859L567.268 59.7954C566 58.4668 565.086 57.0103 564.518 55.425L563.576 55.7625ZM566.549 60.4901C567.937 61.9108 569.656 63.1294 571.698 64.1503L572.145 63.2559C570.187 62.2768 568.563 61.1204 567.264 59.7912L566.549 60.4901ZM571.698 64.1503C573.743 65.1725 576.096 65.9661 578.755 66.5358L578.964 65.558C576.372 65.0026 574.101 64.2337 572.145 63.2559L571.698 64.1503ZM578.76 66.5369C581.423 67.0759 584.363 67.3438 587.578 67.3438V66.3438C584.418 66.3438 581.545 66.0803 578.959 65.5568L578.76 66.5369ZM587.578 67.3438C590.8 67.3438 594.006 67.012 597.196 66.3489L596.992 65.3698C593.869 66.0192 590.731 66.3438 587.578 66.3438V67.3438ZM597.2 66.3479C600.376 65.6561 603.413 64.7909 606.309 63.7519L605.972 62.8106C603.118 63.8341 600.124 64.6877 596.987 65.3708L597.2 66.3479ZM605.683 63.4836L610.371 74.0773L611.285 73.6727L606.598 63.0789L605.683 63.4836ZM610.617 73.4217C608.819 74.2585 606.991 75.0023 605.132 75.6531L605.462 76.5969C607.353 75.9352 609.212 75.179 611.039 74.3283L610.617 73.4217ZM605.136 75.6515C603.312 76.2699 601.393 76.7962 599.379 77.23L599.59 78.2075C601.638 77.7663 603.594 77.2301 605.457 76.5985L605.136 75.6515ZM599.385 77.2288C597.403 77.6313 595.311 77.9414 593.107 78.1587L593.205 79.1538C595.439 78.9336 597.566 78.6187 599.584 78.2087L599.385 77.2288ZM593.106 78.1587C590.937 78.3757 588.641 78.4844 586.219 78.4844V79.4844C588.671 79.4844 591 79.3743 593.206 79.1538L593.106 78.1587ZM586.219 78.4844C580.039 78.4844 574.639 77.7389 570.012 76.2582L569.707 77.2106C574.455 78.7299 579.961 79.4844 586.219 79.4844V78.4844ZM570.012 76.2582C565.372 74.7736 561.51 72.7538 558.411 70.2075L557.776 70.98C560.99 73.6212 564.971 75.6952 569.707 77.2106L570.012 76.2582ZM558.411 70.2075C555.31 67.659 552.984 64.6722 551.424 61.2459L550.514 61.6603C552.141 65.234 554.565 68.341 557.776 70.98L558.411 70.2075ZM551.424 61.2459C549.861 57.8141 549.078 54.1195 549.078 50.1562H548.078C548.078 54.2555 548.889 58.0921 550.514 61.6603L551.424 61.2459ZM602.257 44.6104C601.737 43.0184 600.925 41.543 599.826 40.1854L599.049 40.8146C600.075 42.082 600.826 43.4503 601.306 44.9208L602.257 44.6104ZM599.834 40.1956C598.763 38.8 597.42 37.6041 595.81 36.6063L595.283 37.4562C596.799 38.3959 598.049 39.5125 599.041 40.8044L599.834 40.1956ZM595.816 36.6101C594.205 35.579 592.345 34.7789 590.241 34.2051L589.978 35.1699C591.999 35.7211 593.763 36.4835 595.277 37.4524L595.816 36.6101ZM590.241 34.2051C588.13 33.6293 585.819 33.3438 583.312 33.3438V34.3438C585.744 34.3438 587.964 34.6207 589.978 35.1699L590.241 34.2051ZM583.312 33.3438C580.65 33.3438 578.214 33.6448 576.008 34.2523L576.273 35.2164C578.38 34.6364 580.725 34.3438 583.312 34.3438V33.3438ZM576.008 34.2523C573.814 34.8565 571.878 35.6706 570.207 36.6992L570.731 37.5508C572.309 36.5794 574.155 35.7997 576.273 35.2164L576.008 34.2523ZM570.207 36.6992C568.541 37.7243 567.139 38.915 566.007 40.2737L566.775 40.9138C567.83 39.6475 569.147 38.5257 570.731 37.5508L570.207 36.6992ZM566.002 40.2792C564.906 41.6334 564.094 43.0753 563.574 44.6045L564.52 44.9268C565 43.5185 565.751 42.1791 566.779 40.9083L566.002 40.2792ZM564.047 45.2656H601.781V44.2656H564.047V45.2656ZM631.828 0.234375V-0.265625H631.328V0.234375H631.828ZM645.703 0.234375H646.203V-0.265625H645.703V0.234375ZM645.703 78V78.5H646.203V78H645.703ZM631.828 78H631.328V78.5H631.828V78ZM631.828 0.734375H645.703V-0.265625H631.828V0.734375ZM645.203 0.234375V78H646.203V0.234375H645.203ZM645.703 77.5H631.828V78.5H645.703V77.5ZM632.328 78V0.234375H631.328V78H632.328ZM662.578 39.1875L662.125 38.9754L662.124 38.9787L662.578 39.1875ZM669.469 30.0938L669.142 29.7155L669.14 29.7172L669.469 30.0938ZM680.297 23.9531L680.13 23.4816L680.129 23.482L680.297 23.9531ZM708.844 23.9531L708.676 24.4242L708.677 24.4246L708.844 23.9531ZM719.672 30.0938L719.343 30.4703L719.345 30.472L719.672 30.0938ZM726.562 39.1875L726.108 39.3963L726.11 39.3996L726.562 39.1875ZM726.562 61.5L726.11 61.2879L726.108 61.2912L726.562 61.5ZM719.672 70.5938L719.345 70.2155L719.343 70.2172L719.672 70.5938ZM708.844 76.7344L708.677 76.2629L708.676 76.2633L708.844 76.7344ZM680.297 76.7344L680.129 77.2055L680.13 77.2059L680.297 76.7344ZM669.469 70.5938L669.14 70.9703L669.142 70.972L669.469 70.5938ZM662.578 61.5L662.124 61.7088L662.125 61.7121L662.578 61.5ZM676.078 56.6719L675.62 56.8723L675.624 56.8809L676.078 56.6719ZM679.969 61.9219L679.633 62.2922L679.64 62.2986L679.969 61.9219ZM686.203 65.5312L686.029 66L686.036 66.0025L686.203 65.5312ZM702.938 65.5312L703.106 66.0019L703.11 66.0006L702.938 65.5312ZM709.172 61.9219L709.504 62.2956L709.504 62.2952L709.172 61.9219ZM713.062 56.6719L712.607 56.4655L712.606 56.4688L713.062 56.6719ZM713.062 44.0156L712.604 44.2161L712.607 44.222L713.062 44.0156ZM709.172 38.7656L708.836 39.136L708.843 39.1423L709.172 38.7656ZM702.938 35.1562L702.763 35.625L702.77 35.6275L702.938 35.1562ZM686.203 35.1562L686.372 35.6269L686.375 35.6256L686.203 35.1562ZM679.969 38.7656L680.301 39.1393L680.301 39.139L679.969 38.7656ZM676.078 44.0156L675.623 43.8092L675.62 43.8152L676.078 44.0156ZM660.688 50.3438C660.688 46.4441 661.47 42.7969 663.032 39.3963L662.124 38.9787C660.499 42.5156 659.688 46.3059 659.688 50.3438H660.688ZM663.031 39.3996C664.626 35.9955 666.88 33.0198 669.798 30.4703L669.14 29.7172C666.12 32.3552 663.781 35.442 662.125 38.9754L663.031 39.3996ZM669.796 30.472C672.743 27.9237 676.297 25.9061 680.464 24.4242L680.129 23.482C675.86 25.0001 672.194 27.0763 669.142 29.7155L669.796 30.472ZM680.463 24.4246C684.652 22.9464 689.36 22.2031 694.594 22.2031V21.2031C689.265 21.2031 684.442 21.9598 680.13 23.4816L680.463 24.4246ZM694.594 22.2031C699.828 22.2031 704.52 22.9464 708.676 24.4242L709.011 23.482C704.73 21.9598 699.922 21.2031 694.594 21.2031V22.2031ZM708.677 24.4246C712.876 25.9065 716.428 27.9237 719.343 30.4703L720.001 29.7172C716.978 27.0763 713.311 24.9997 709.01 23.4816L708.677 24.4246ZM719.345 30.472C722.293 33.0209 724.545 35.995 726.108 39.3963L727.017 38.9787C725.392 35.4425 723.051 32.3541 719.999 29.7155L719.345 30.472ZM726.11 39.3996C727.702 42.7996 728.5 46.4456 728.5 50.3438H729.5C729.5 46.3044 728.673 42.5129 727.015 38.9754L726.11 39.3996ZM728.5 50.3438C728.5 54.2419 727.702 57.8879 726.11 61.2879L727.015 61.7121C728.673 58.1746 729.5 54.3831 729.5 50.3438H728.5ZM726.108 61.2912C724.545 64.6925 722.293 67.6666 719.345 70.2155L719.999 70.972C723.051 68.3334 725.392 65.245 727.017 61.7088L726.108 61.2912ZM719.343 70.2172C716.428 72.7638 712.876 74.781 708.677 76.2629L709.01 77.2059C713.311 75.6878 716.978 73.6112 720.001 70.9703L719.343 70.2172ZM708.676 76.2633C704.52 77.7411 699.828 78.4844 694.594 78.4844V79.4844C699.922 79.4844 704.73 78.7277 709.011 77.2055L708.676 76.2633ZM694.594 78.4844C689.36 78.4844 684.652 77.7411 680.463 76.2629L680.13 77.2059C684.442 78.7277 689.265 79.4844 694.594 79.4844V78.4844ZM680.464 76.2633C676.297 74.7814 672.743 72.7638 669.796 70.2155L669.142 70.972C672.194 73.6112 675.86 75.6874 680.129 77.2055L680.464 76.2633ZM669.798 70.2172C666.88 67.6677 664.626 64.692 663.031 61.2879L662.125 61.7121C663.781 65.2455 666.12 68.3323 669.14 70.9703L669.798 70.2172ZM663.032 61.2912C661.47 57.8906 660.688 54.2434 660.688 50.3438H659.688C659.688 54.3816 660.499 58.1719 662.124 61.7088L663.032 61.2912ZM674.266 50.3438C674.266 52.6303 674.717 54.808 675.62 56.8723L676.536 56.4715C675.689 54.5357 675.266 52.4947 675.266 50.3438H674.266ZM675.624 56.8809C676.56 58.914 677.898 60.718 679.633 62.2922L680.305 61.5516C678.664 60.0632 677.409 58.3673 676.532 56.4628L675.624 56.8809ZM679.64 62.2986C681.41 63.8435 683.543 65.0755 686.029 65.9999L686.377 65.0626C683.989 64.1745 681.965 63.0003 680.298 61.5452L679.64 62.2986ZM686.036 66.0025C688.568 66.8998 691.423 67.3438 694.594 67.3438V66.3438C691.515 66.3438 688.776 65.9127 686.37 65.06L686.036 66.0025ZM694.594 67.3438C697.765 67.3438 700.605 66.8999 703.106 66.0018L702.769 65.0607C700.395 65.9126 697.673 66.3438 694.594 66.3438V67.3438ZM703.11 66.0006C705.628 65.0763 707.763 63.8435 709.504 62.2956L708.84 61.5482C707.206 63.0003 705.185 64.1737 702.765 65.0619L703.11 66.0006ZM709.504 62.2952C711.273 60.72 712.614 58.913 713.519 56.8749L712.606 56.4688C711.761 58.3682 710.509 60.0613 708.839 61.5485L709.504 62.2952ZM713.518 56.8782C714.454 54.8127 714.922 52.6329 714.922 50.3438H713.922C713.922 52.4921 713.484 54.531 712.607 56.4655L713.518 56.8782ZM714.922 50.3438C714.922 48.0546 714.454 45.8748 713.518 43.8093L712.607 44.222C713.484 46.1565 713.922 48.1954 713.922 50.3438H714.922ZM713.521 43.8152C712.615 41.7446 711.272 39.9352 709.501 38.3889L708.843 39.1423C710.509 40.5961 711.76 42.2867 712.604 44.216L713.521 43.8152ZM709.508 38.3953C707.765 36.8134 705.626 35.5788 703.105 34.685L702.77 35.6275C705.186 36.4837 707.204 37.6553 708.836 39.1359L709.508 38.3953ZM703.112 34.6876C700.609 33.7569 697.767 33.2969 694.594 33.2969V34.2969C697.671 34.2969 700.391 34.7431 702.763 35.6249L703.112 34.6876ZM694.594 33.2969C691.421 33.2969 688.564 33.757 686.031 34.6869L686.375 35.6256C688.78 34.743 691.517 34.2969 694.594 34.2969V33.2969ZM686.034 34.6857C683.544 35.5796 681.408 36.8134 679.636 38.3923L680.301 39.139C681.967 37.6553 683.987 36.4829 686.372 35.6268L686.034 34.6857ZM679.637 38.3919C677.898 39.9371 676.559 41.7436 675.623 43.8093L676.534 44.222C677.41 42.2876 678.664 40.5941 680.301 39.1393L679.637 38.3919ZM675.62 43.8152C674.717 45.8795 674.266 48.0572 674.266 50.3438H675.266C675.266 48.1928 675.689 46.1518 676.536 44.216L675.62 43.8152ZM756.516 100.594V101.094H757.016V100.594H756.516ZM742.641 100.594H742.141V101.094H742.641V100.594ZM742.641 22.6875V22.1875H742.141V22.6875H742.641ZM756.516 22.6875H757.016V22.1875H756.516V22.6875ZM756.516 27.8906H756.016V28.8449L756.8 28.3017L756.516 27.8906ZM772.078 22.2188L772.154 22.713L772.162 22.7117L772.078 22.2188ZM791.062 23.7656L790.896 24.2373L790.898 24.2377L791.062 23.7656ZM807.75 38.5781L807.293 38.782L807.296 38.7869L807.75 38.5781ZM807.656 62.0625L808.109 62.2748L808.11 62.2733L807.656 62.0625ZM800.766 71.1562L801.092 71.5353L801.092 71.535L800.766 71.1562ZM790.359 76.9688L790.519 77.4427L790.521 77.442L790.359 76.9688ZM771.375 78.6094L771.311 79.1053L771.312 79.1054L771.375 78.6094ZM765.75 77.5781L765.631 78.0637L765.633 78.0642L765.75 77.5781ZM760.688 76.0312L760.502 76.4956L760.513 76.4998L760.688 76.0312ZM756.516 74.0156L756.77 73.5849L756.016 73.1403V74.0156H756.516ZM756.516 60.6094H756.016V60.8497L756.203 60.9998L756.516 60.6094ZM770.672 66.5156L770.597 67.0101L770.606 67.0113L770.672 66.5156ZM783.984 65.5781L784.146 66.0513L784.15 66.0501L783.984 65.5781ZM790.266 62.0156L789.937 61.6389L789.933 61.6419L790.266 62.0156ZM794.203 43.8281L793.746 44.0312L793.749 44.0372L794.203 43.8281ZM790.359 38.6719L790.024 39.0425L790.031 39.049L790.359 38.6719ZM784.312 35.1562L784.138 35.6247L784.145 35.6274L784.312 35.1562ZM770.766 34.4062L770.856 34.8981L770.864 34.8965L770.766 34.4062ZM765.328 35.9062L765.153 35.4381L765.15 35.4391L765.328 35.9062ZM760.453 38.2969L760.192 37.8704L760.188 37.8729L760.453 38.2969ZM756.516 41.4375L756.157 41.0888L756.016 41.2344V41.4375H756.516ZM756.516 100.094H742.641V101.094H756.516V100.094ZM743.141 100.594V22.6875H742.141V100.594H743.141ZM742.641 23.1875H756.516V22.1875H742.641V23.1875ZM756.016 22.6875V27.8906H757.016V22.6875H756.016ZM756.8 28.3017C757.989 27.4784 759.4 26.6957 761.034 25.9555L760.622 25.0445C758.944 25.8043 757.479 26.6153 756.231 27.4795L756.8 28.3017ZM761.034 25.9555C762.668 25.2158 764.427 24.5674 766.313 24.0108L766.03 23.0517C764.104 23.6201 762.301 24.2842 760.622 25.0445L761.034 25.9555ZM766.313 24.0108C768.197 23.4549 770.144 23.0221 772.154 22.7129L772.002 21.7246C769.949 22.0404 767.959 22.4826 766.03 23.0517L766.313 24.0108ZM772.162 22.7117C774.166 22.3726 776.169 22.2031 778.172 22.2031V21.2031C776.112 21.2031 774.053 21.3774 771.995 21.7258L772.162 22.7117ZM778.172 22.2031C782.81 22.2031 787.05 22.8833 790.896 24.2373L791.229 23.294C787.262 21.8979 782.909 21.2031 778.172 21.2031V22.2031ZM790.898 24.2377C794.78 25.5935 798.097 27.4997 800.855 29.9518L801.52 29.2044C798.653 26.6566 795.22 24.6878 791.227 23.2936L790.898 24.2377ZM800.855 29.9518C803.614 32.4038 805.759 35.3455 807.293 38.782L808.207 38.3743C806.616 34.8107 804.386 31.7525 801.52 29.2044L800.855 29.9518ZM807.296 38.7869C808.856 42.1835 809.641 45.955 809.641 50.1094H810.641C810.641 45.8262 809.831 41.9102 808.204 38.3694L807.296 38.7869ZM809.641 50.1094C809.641 54.4517 808.825 58.3629 807.203 61.8517L808.11 62.2733C809.8 58.6371 810.641 54.5795 810.641 50.1094H809.641ZM807.204 61.8502C805.577 65.3181 803.323 68.2925 800.439 70.7775L801.092 71.535C804.083 68.9575 806.423 65.8694 808.109 62.2748L807.204 61.8502ZM800.44 70.7772C797.587 73.2312 794.176 75.1388 790.198 76.4955L790.521 77.442C794.606 76.0487 798.132 74.0813 801.092 71.5353L800.44 70.7772ZM790.2 76.4948C786.257 77.8195 781.967 78.4844 777.328 78.4844V79.4844C782.064 79.4844 786.462 78.8055 790.519 77.4427L790.2 76.4948ZM777.328 78.4844C775.349 78.4844 773.386 78.3607 771.438 78.1134L771.312 79.1054C773.302 79.3581 775.307 79.4844 777.328 79.4844V78.4844ZM771.439 78.1135C769.519 77.8657 767.661 77.5251 765.867 77.0921L765.633 78.0642C767.464 78.5061 769.356 78.8531 771.311 79.1053L771.439 78.1135ZM765.869 77.0926C764.105 76.6593 762.436 76.1492 760.862 75.5627L760.513 76.4998C762.126 77.1008 763.832 77.6219 765.631 78.0637L765.869 77.0926ZM760.873 75.567C759.33 74.9497 757.963 74.2886 756.77 73.5849L756.262 74.4463C757.506 75.1801 758.92 75.8628 760.502 76.4955L760.873 75.567ZM756.016 74.0156V100.594H757.016V74.0156H756.016ZM756.203 60.9998C757.636 62.1461 759.15 63.1185 760.745 63.916L761.192 63.0215C759.662 62.2565 758.208 61.3226 756.828 60.2189L756.203 60.9998ZM760.745 63.916C762.332 64.7092 763.951 65.3602 765.603 65.8685L765.897 64.9127C764.299 64.4211 762.731 63.7908 761.192 63.0215L760.745 63.916ZM765.603 65.8685C767.251 66.3757 768.916 66.7563 770.597 67.01L770.747 66.0212C769.115 65.775 767.499 65.4056 765.897 64.9127L765.603 65.8685ZM770.606 67.0113C772.283 67.2327 773.914 67.3438 775.5 67.3438V66.3438C773.961 66.3438 772.373 66.236 770.737 66.0199L770.606 67.0113ZM775.5 67.3438C778.731 67.3438 781.615 66.9162 784.146 66.0513L783.823 65.105C781.416 65.9275 778.644 66.3438 775.5 66.3438V67.3438ZM784.15 66.0501C786.701 65.1572 788.854 63.9395 790.598 62.3893L789.933 61.6419C788.302 63.0918 786.268 64.2491 783.819 65.1062L784.15 66.0501ZM790.594 62.3923C792.366 60.8459 793.723 59.0217 794.66 56.9225L793.747 56.515C792.871 58.4783 791.602 60.1854 789.937 61.6389L790.594 62.3923ZM794.66 56.9225C795.596 54.8228 796.062 52.5497 796.062 50.1094H795.062C795.062 52.419 794.622 54.5522 793.747 56.515L794.66 56.9225ZM796.062 50.1094C796.062 47.8202 795.594 45.655 794.657 43.6191L793.749 44.0372C794.624 45.9388 795.062 47.961 795.062 50.1094H796.062ZM794.66 43.6251C793.754 41.587 792.428 39.8095 790.688 38.2947L790.031 39.049C791.666 40.4717 792.902 42.1318 793.746 44.0312L794.66 43.6251ZM790.695 38.3013C788.984 36.7517 786.909 35.5481 784.48 34.6851L784.145 35.6274C786.466 36.4519 788.422 37.5921 790.024 39.0425L790.695 38.3013ZM784.487 34.6878C782.079 33.7887 779.378 33.3438 776.391 33.3438V34.3438C779.279 34.3438 781.859 34.7738 784.138 35.6247L784.487 34.6878ZM776.391 33.3438C774.482 33.3438 772.574 33.5346 770.668 33.916L770.864 34.8965C772.707 34.5279 774.549 34.3438 776.391 34.3438V33.3438ZM770.675 33.9144C768.772 34.2634 766.931 34.7712 765.153 35.4381L765.504 36.3744C767.225 35.7288 769.009 35.2366 770.856 34.8981L770.675 33.9144ZM765.15 35.4391C763.403 36.1061 761.75 36.9165 760.192 37.8704L760.714 38.7233C762.219 37.8023 763.816 37.0189 765.506 36.3734L765.15 35.4391ZM760.188 37.8729C758.657 38.8296 757.313 39.9012 756.157 41.0888L756.874 41.7862C757.968 40.6613 759.249 39.6391 760.718 38.7209L760.188 37.8729ZM756.016 41.4375V60.6094H757.016V41.4375H756.016ZM822.938 39.4219L823.394 39.6269L823.394 39.6253L822.938 39.4219ZM840.094 24.0469L839.919 23.5784L839.918 23.5789L840.094 24.0469ZM868.594 24.0938L868.417 24.5615L868.421 24.563L868.594 24.0938ZM879.375 30.5625L879.033 30.9275L879.035 30.9293L879.375 30.5625ZM886.172 40.2656L885.711 40.4593L885.712 40.4626L886.172 40.2656ZM888.516 53.9531L888.016 53.9282L888.016 53.9406V53.9531H888.516ZM888.422 55.5938V56.0938H888.863L888.918 55.6558L888.422 55.5938ZM836.109 55.5938V55.0938H835.399L835.639 55.7625L836.109 55.5938ZM838.969 60.1406L838.607 60.4859L838.611 60.4901L838.969 60.1406ZM850.922 66.0469L850.817 66.5358L850.823 66.5369L850.922 66.0469ZM869.156 65.8594L869.258 66.3489L869.263 66.3479L869.156 65.8594ZM878.203 63.2812L878.66 63.0789L878.472 62.6536L878.034 62.8106L878.203 63.2812ZM882.891 73.875L883.102 74.3283L883.546 74.1213L883.348 73.6727L882.891 73.875ZM877.359 76.125L877.52 76.5986L877.525 76.5969L877.359 76.125ZM871.547 77.7188L871.646 78.2088L871.652 78.2075L871.547 77.7188ZM865.219 78.6562L865.17 78.1587L865.169 78.1587L865.219 78.6562ZM873.844 44.7656V45.2656H874.533L874.319 44.6104L873.844 44.7656ZM871.5 40.5L871.103 40.8045L871.111 40.8146L871.5 40.5ZM867.609 37.0312L867.34 37.4524L867.346 37.4562L867.609 37.0312ZM838.453 40.5938L838.069 40.2736L838.065 40.2792L838.453 40.5938ZM836.109 44.7656L835.636 44.6045L835.411 45.2656H836.109V44.7656ZM821.141 50.1562C821.141 46.4766 821.891 42.9684 823.394 39.6269L822.481 39.2169C820.921 42.6879 820.141 46.3359 820.141 50.1562H821.141ZM823.394 39.6253C824.896 36.2529 827.058 33.2776 829.884 30.6974L829.21 29.9589C826.286 32.6287 824.041 35.7158 822.481 39.2184L823.394 39.6253ZM829.884 30.6974C832.706 28.1208 836.165 26.0581 840.27 24.5149L839.918 23.5789C835.71 25.1606 832.138 27.2854 829.21 29.9589L829.884 30.6974ZM840.269 24.5153C844.391 22.9772 849.08 22.2031 854.344 22.2031V21.2031C848.983 21.2031 844.172 21.9915 839.919 23.5784L840.269 24.5153ZM854.344 22.2031C859.575 22.2031 864.264 22.9924 868.417 24.5615L868.77 23.626C864.486 22.0076 859.675 21.2031 854.344 21.2031V22.2031ZM868.421 24.563C872.616 26.1053 876.15 28.2286 879.033 30.9275L879.717 30.1975C876.725 27.3964 873.071 25.2072 868.766 23.6245L868.421 24.563ZM879.035 30.9293C881.952 33.6311 884.176 36.8065 885.711 40.4593L886.633 40.0719C885.043 36.2873 882.736 32.9939 879.715 30.1957L879.035 30.9293ZM885.712 40.4626C887.278 44.116 888.062 48.033 888.062 52.2188H889.062C889.062 47.9045 888.253 43.8528 886.631 40.0687L885.712 40.4626ZM888.062 52.2188C888.062 52.7404 888.047 53.3101 888.016 53.9282L889.015 53.9781C889.047 53.3462 889.062 52.7596 889.062 52.2188H888.062ZM888.016 53.9531C888.016 54.5297 887.985 55.0555 887.926 55.5317L888.918 55.6558C888.983 55.132 889.016 54.5641 889.016 53.9531H888.016ZM888.422 55.0938H836.109V56.0938H888.422V55.0938ZM835.639 55.7625C836.258 57.4897 837.25 59.0644 838.607 60.4859L839.33 59.7954C838.062 58.4668 837.148 57.0103 836.58 55.425L835.639 55.7625ZM838.611 60.4901C840 61.9108 841.719 63.1294 843.761 64.1503L844.208 63.2559C842.25 62.2768 840.625 61.1204 839.326 59.7912L838.611 60.4901ZM843.761 64.1503C845.805 65.1725 848.159 65.9661 850.817 66.5358L851.027 65.558C848.435 65.0026 846.164 64.2337 844.208 63.2559L843.761 64.1503ZM850.823 66.5369C853.486 67.0759 856.426 67.3438 859.641 67.3438V66.3438C856.48 66.3438 853.608 66.0803 851.021 65.5568L850.823 66.5369ZM859.641 67.3438C862.863 67.3438 866.069 67.012 869.258 66.3489L869.054 65.3698C865.931 66.0192 862.794 66.3438 859.641 66.3438V67.3438ZM869.263 66.3479C872.439 65.6561 875.475 64.7909 878.372 63.7519L878.034 62.8106C875.181 63.8341 872.186 64.6877 869.05 65.3708L869.263 66.3479ZM877.746 63.4836L882.433 74.0773L883.348 73.6727L878.66 63.0789L877.746 63.4836ZM882.68 73.4217C880.882 74.2585 879.054 75.0023 877.194 75.6531L877.525 76.5969C879.415 75.9352 881.274 75.179 883.102 74.3283L882.68 73.4217ZM877.199 75.6515C875.374 76.2699 873.455 76.7962 871.442 77.23L871.652 78.2075C873.701 77.7663 875.657 77.2301 877.52 76.5985L877.199 75.6515ZM871.447 77.2288C869.465 77.6313 867.373 77.9414 865.17 78.1587L865.268 79.1538C867.502 78.9336 869.628 78.6187 871.646 78.2087L871.447 77.2288ZM865.169 78.1587C863 78.3757 860.704 78.4844 858.281 78.4844V79.4844C860.734 79.4844 863.063 79.3743 865.269 79.1538L865.169 78.1587ZM858.281 78.4844C852.101 78.4844 846.702 77.7389 842.074 76.2582L841.769 77.2106C846.517 78.7299 852.024 79.4844 858.281 79.4844V78.4844ZM842.074 76.2582C837.435 74.7736 833.572 72.7538 830.474 70.2075L829.839 70.98C833.053 73.6212 837.034 75.6952 841.769 77.2106L842.074 76.2582ZM830.474 70.2075C827.373 67.659 825.046 64.6722 823.486 61.2459L822.576 61.6603C824.204 65.234 826.627 68.341 829.839 70.98L830.474 70.2075ZM823.486 61.2459C821.924 57.8141 821.141 54.1195 821.141 50.1562H820.141C820.141 54.2555 820.951 58.0921 822.576 61.6603L823.486 61.2459ZM874.319 44.6104C873.799 43.0184 872.988 41.543 871.889 40.1854L871.111 40.8146C872.137 42.082 872.888 43.4503 873.368 44.9208L874.319 44.6104ZM871.897 40.1956C870.826 38.8 869.482 37.6041 867.873 36.6063L867.346 37.4562C868.861 38.3959 870.112 39.5125 871.103 40.8044L871.897 40.1956ZM867.879 36.6101C866.268 35.579 864.407 34.7789 862.303 34.2051L862.04 35.1699C864.061 35.7211 865.826 36.4835 867.34 37.4524L867.879 36.6101ZM862.303 34.2051C860.192 33.6293 857.881 33.3438 855.375 33.3438V34.3438C857.806 34.3438 860.027 34.6207 862.04 35.1699L862.303 34.2051ZM855.375 33.3438C852.713 33.3438 850.277 33.6448 848.07 34.2523L848.336 35.2164C850.442 34.6364 852.787 34.3438 855.375 34.3438V33.3438ZM848.07 34.2523C845.876 34.8565 843.941 35.6706 842.269 36.6992L842.793 37.5508C844.372 36.5794 846.218 35.7997 848.336 35.2164L848.07 34.2523ZM842.269 36.6992C840.603 37.7243 839.201 38.915 838.069 40.2737L838.837 40.9138C839.892 39.6475 841.209 38.5257 842.793 37.5508L842.269 36.6992ZM838.065 40.2792C836.968 41.6334 836.157 43.0753 835.636 44.6045L836.583 44.9268C837.062 43.5185 837.813 42.1791 838.842 40.9083L838.065 40.2792ZM836.109 45.2656H873.844V44.2656H836.109V45.2656ZM903.516 22.6875V22.1875H903.016V22.6875H903.516ZM917.391 22.6875H917.891V22.1875H917.391V22.6875ZM917.391 30.6562H916.891V31.6522L917.689 31.0572L917.391 30.6562ZM937.266 20.9531L937.742 20.8003L937.597 20.3506L937.14 20.4691L937.266 20.9531ZM941.344 33.6562L941.393 34.1538L942.009 34.0926L941.82 33.5034L941.344 33.6562ZM927.234 37.2656L927.442 37.7203L927.444 37.7196L927.234 37.2656ZM917.391 45.0938L916.991 44.7938L916.891 44.9271V45.0938H917.391ZM917.391 78V78.5H917.891V78H917.391ZM903.516 78H903.016V78.5H903.516V78ZM903.516 23.1875H917.391V22.1875H903.516V23.1875ZM916.891 22.6875V30.6562H917.891V22.6875H916.891ZM917.689 31.0572C920.727 28.7945 923.935 26.8421 927.312 25.1997L926.875 24.3003C923.44 25.9704 920.179 27.9555 917.092 30.2553L917.689 31.0572ZM927.312 25.1997C930.691 23.5567 934.051 22.3031 937.391 21.4371L937.14 20.4691C933.73 21.3531 930.309 22.6308 926.875 24.3003L927.312 25.1997ZM936.79 21.106L940.868 33.8091L941.82 33.5034L937.742 20.8003L936.79 21.106ZM941.294 33.1587C935.906 33.6944 931.147 34.9092 927.025 36.8116L927.444 37.7196C931.447 35.8721 936.094 34.6806 941.393 34.1538L941.294 33.1587ZM927.026 36.8109C922.923 38.6876 919.575 41.3485 916.991 44.7938L917.791 45.3937C920.269 42.089 923.483 39.5312 927.442 37.7203L927.026 36.8109ZM916.891 45.0938V78H917.891V45.0938H916.891ZM917.391 77.5H903.516V78.5H917.391V77.5ZM904.016 78V22.6875H903.016V78H904.016Z" fill="white"/>
</svg>
