<svg width="454" height="79" viewBox="0 0 454 79" fill="none" xmlns="http://www.w3.org/2000/svg">
<path d="M0.40625 4.73438H65.9375V17.7656H15.2656V36.9375H58.2969V49.1719H15.2656V78H0.40625V4.73438ZM78.9219 0.234375H92.7969V78H78.9219V0.234375ZM107.281 50.3438C107.281 46.375 108.078 42.6562 109.672 39.1875C111.297 35.7188 113.594 32.6875 116.562 30.0938C119.562 27.5 123.172 25.4531 127.391 23.9531C131.641 22.4531 136.406 21.7031 141.688 21.7031C146.969 21.7031 151.719 22.4531 155.938 23.9531C160.188 25.4531 163.797 27.5 166.766 30.0938C169.766 32.6875 172.062 35.7188 173.656 39.1875C175.281 42.6562 176.094 46.375 176.094 50.3438C176.094 54.3125 175.281 58.0312 173.656 61.5C172.062 64.9688 169.766 68 166.766 70.5938C163.797 73.1875 160.188 75.2344 155.938 76.7344C151.719 78.2344 146.969 78.9844 141.688 78.9844C136.406 78.9844 131.641 78.2344 127.391 76.7344C123.172 75.2344 119.562 73.1875 116.562 70.5938C113.594 68 111.297 64.9688 109.672 61.5C108.078 58.0312 107.281 54.3125 107.281 50.3438ZM121.859 50.3438C121.859 52.5625 122.297 54.6719 123.172 56.6719C124.078 58.6406 125.375 60.3906 127.062 61.9219C128.781 63.4219 130.859 64.625 133.297 65.5312C135.766 66.4062 138.562 66.8438 141.688 66.8438C144.812 66.8438 147.594 66.4062 150.031 65.5312C152.5 64.625 154.578 63.4219 156.266 61.9219C157.984 60.3906 159.281 58.6406 160.156 56.6719C161.062 54.6719 161.516 52.5625 161.516 50.3438C161.516 48.125 161.062 46.0156 160.156 44.0156C159.281 42.0156 157.984 40.2656 156.266 38.7656C154.578 37.2344 152.5 36.0312 150.031 35.1562C147.594 34.25 144.812 33.7969 141.688 33.7969C138.562 33.7969 135.766 34.25 133.297 35.1562C130.859 36.0312 128.781 37.2344 127.062 38.7656C125.375 40.2656 124.078 42.0156 123.172 44.0156C122.297 46.0156 121.859 48.125 121.859 50.3438ZM190.109 22.6875H203.984V30.6562C207.047 28.375 210.281 26.4062 213.688 24.75C217.094 23.0938 220.484 21.8281 223.859 20.9531L227.938 33.6562C222.594 34.1875 217.891 35.3906 213.828 37.2656C209.797 39.1094 206.516 41.7188 203.984 45.0938V78H190.109V22.6875ZM245.609 15.1406C244.234 15.1406 242.984 14.9531 241.859 14.5781C240.766 14.1719 239.828 13.6406 239.047 12.9844C238.266 12.2969 237.656 11.5156 237.219 10.6406C236.812 9.73438 236.609 8.78125 236.609 7.78125C236.609 6.75 236.812 5.79688 237.219 4.92188C237.656 4.01563 238.266 3.23438 239.047 2.57812C239.828 1.92188 240.766 1.40625 241.859 1.03125C242.984 0.625 244.234 0.421875 245.609 0.421875C247.016 0.421875 248.266 0.625 249.359 1.03125C250.484 1.40625 251.438 1.92188 252.219 2.57812C253 3.23438 253.594 4.01563 254 4.92188C254.438 5.79688 254.656 6.75 254.656 7.78125C254.656 8.78125 254.438 9.73438 254 10.6406C253.594 11.5156 253 12.2969 252.219 12.9844C251.438 13.6406 250.484 14.1719 249.359 14.5781C248.266 14.9531 247.016 15.1406 245.609 15.1406ZM238.672 22.6875H252.547V78H238.672V22.6875ZM267.734 60.5625C267.734 57.9062 268.312 55.4844 269.469 53.2969C270.625 51.1094 272.359 49.2344 274.672 47.6719C276.984 46.0781 279.859 44.8594 283.297 44.0156C286.766 43.1406 290.797 42.7031 295.391 42.7031C298.797 42.7031 302.375 42.9531 306.125 43.4531C309.906 43.9531 313.797 44.7188 317.797 45.75C317.641 44 317.109 42.3906 316.203 40.9219C315.297 39.4219 314.031 38.1406 312.406 37.0781C310.812 35.9844 308.875 35.1406 306.594 34.5469C304.344 33.9531 301.781 33.6562 298.906 33.6562C297.344 33.6562 295.625 33.75 293.75 33.9375C291.875 34.125 289.938 34.4062 287.938 34.7812C285.938 35.1562 283.953 35.625 281.984 36.1875C280.047 36.75 278.234 37.4219 276.547 38.2031L272.328 26.8125C274.422 26.0625 276.656 25.375 279.031 24.75C281.438 24.125 283.891 23.5938 286.391 23.1562C288.891 22.6875 291.391 22.3281 293.891 22.0781C296.391 21.8281 298.812 21.7031 301.156 21.7031C311.5 21.7031 319.188 24.3438 324.219 29.625C329.25 34.9062 331.766 43 331.766 53.9062V78H317.891V72.7969C316.453 73.6406 314.875 74.4375 313.156 75.1875C311.469 75.9375 309.625 76.5938 307.625 77.1562C305.625 77.7188 303.469 78.1562 301.156 78.4688C298.875 78.8125 296.453 78.9844 293.891 78.9844C289.578 78.9844 285.781 78.5156 282.5 77.5781C279.25 76.6406 276.531 75.3438 274.344 73.6875C272.156 72.0312 270.5 70.0938 269.375 67.875C268.281 65.625 267.734 63.1875 267.734 60.5625ZM282.359 60.0938C282.359 61 282.594 61.875 283.062 62.7188C283.531 63.5312 284.281 64.2656 285.312 64.9219C286.344 65.5469 287.656 66.0625 289.25 66.4688C290.875 66.8438 292.828 67.0312 295.109 67.0312C297.547 67.0312 299.906 66.8125 302.188 66.375C304.469 65.9375 306.594 65.3594 308.562 64.6406C310.531 63.9219 312.312 63.0938 313.906 62.1562C315.5 61.2188 316.828 60.25 317.891 59.25V56.8125C315.766 56.2188 313.656 55.7188 311.562 55.3125C309.5 54.9062 307.516 54.5938 305.609 54.375C303.734 54.125 301.953 53.9531 300.266 53.8594C298.609 53.7656 297.156 53.7188 295.906 53.7188C293.312 53.7188 291.156 53.8906 289.438 54.2344C287.719 54.5781 286.328 55.0469 285.266 55.6406C284.203 56.2031 283.453 56.875 283.016 57.6562C282.578 58.4375 282.359 59.25 282.359 60.0938ZM350.141 22.6875H364.016V27.375C367.703 25.2812 371.219 23.8125 374.562 22.9688C377.938 22.125 381.234 21.7031 384.453 21.7031C388.672 21.7031 392.578 22.3281 396.172 23.5781C399.766 24.7969 402.875 26.625 405.5 29.0625C408.125 31.5 410.172 34.5469 411.641 38.2031C413.141 41.8281 413.891 46.0312 413.891 50.8125V78H400.062V53.0625C400.062 50.0312 399.625 47.3281 398.75 44.9531C397.906 42.5469 396.672 40.5312 395.047 38.9062C393.453 37.25 391.5 36 389.188 35.1562C386.906 34.2812 384.344 33.8438 381.5 33.8438C380 33.8438 378.453 34 376.859 34.3125C375.297 34.625 373.75 35.0781 372.219 35.6719C370.719 36.2344 369.266 36.9531 367.859 37.8281C366.453 38.6719 365.172 39.6406 364.016 40.7344V78H350.141V22.6875ZM431.234 69.8906C431.234 68.6406 431.484 67.4688 431.984 66.375C432.516 65.25 433.266 64.2812 434.234 63.4688C435.203 62.625 436.375 61.9688 437.75 61.5C439.125 61.0312 440.672 60.7969 442.391 60.7969C444.109 60.7969 445.656 61.0312 447.031 61.5C448.406 61.9688 449.562 62.625 450.5 63.4688C451.469 64.2812 452.203 65.25 452.703 66.375C453.234 67.4688 453.5 68.6406 453.5 69.8906C453.5 71.1406 453.234 72.3281 452.703 73.4531C452.203 74.5469 451.469 75.5 450.5 76.3125C449.562 77.125 448.406 77.7656 447.031 78.2344C445.656 78.7344 444.109 78.9844 442.391 78.9844C440.672 78.9844 439.125 78.7344 437.75 78.2344C436.375 77.7656 435.203 77.125 434.234 76.3125C433.266 75.5 432.516 74.5469 431.984 73.4531C431.484 72.3281 431.234 71.1406 431.234 69.8906Z" fill="white"/>
<path d="M0.40625 4.73438V2.73438H-1.59375V4.73438H0.40625ZM65.9375 4.73438H67.9375V2.73438H65.9375V4.73438ZM65.9375 17.7656V19.7656H67.9375V17.7656H65.9375ZM15.2656 17.7656V15.7656H13.2656V17.7656H15.2656ZM15.2656 36.9375H13.2656V38.9375H15.2656V36.9375ZM58.2969 36.9375H60.2969V34.9375H58.2969V36.9375ZM58.2969 49.1719V51.1719H60.2969V49.1719H58.2969ZM15.2656 49.1719V47.1719H13.2656V49.1719H15.2656ZM15.2656 78V80H17.2656V78H15.2656ZM0.40625 78H-1.59375V80H0.40625V78ZM0.40625 6.73438H65.9375V2.73438H0.40625V6.73438ZM63.9375 4.73438V17.7656H67.9375V4.73438H63.9375ZM65.9375 15.7656H15.2656V19.7656H65.9375V15.7656ZM13.2656 17.7656V36.9375H17.2656V17.7656H13.2656ZM15.2656 38.9375H58.2969V34.9375H15.2656V38.9375ZM56.2969 36.9375V49.1719H60.2969V36.9375H56.2969ZM58.2969 47.1719H15.2656V51.1719H58.2969V47.1719ZM13.2656 49.1719V78H17.2656V49.1719H13.2656ZM15.2656 76H0.40625V80H15.2656V76ZM2.40625 78V4.73438H-1.59375V78H2.40625ZM78.9219 0.234375V-1.76562H76.9219V0.234375H78.9219ZM92.7969 0.234375H94.7969V-1.76562H92.7969V0.234375ZM92.7969 78V80H94.7969V78H92.7969ZM78.9219 78H76.9219V80H78.9219V78ZM78.9219 2.23438H92.7969V-1.76562H78.9219V2.23438ZM90.7969 0.234375V78H94.7969V0.234375H90.7969ZM92.7969 76H78.9219V80H92.7969V76ZM80.9219 78V0.234375H76.9219V78H80.9219ZM109.672 39.1875L107.861 38.3391L107.858 38.3458L107.855 38.3525L109.672 39.1875ZM116.562 30.0938L115.254 28.5808L115.247 28.5876L116.562 30.0938ZM127.391 23.9531L126.725 22.0671L126.721 22.0687L127.391 23.9531ZM155.938 23.9531L155.267 25.8376L155.272 25.8391L155.938 23.9531ZM166.766 30.0938L165.45 31.5999L165.458 31.6067L166.766 30.0938ZM173.656 39.1875L171.839 40.0225L171.842 40.0292L171.845 40.0359L173.656 39.1875ZM173.656 61.5L171.845 60.6516L171.842 60.6583L171.839 60.665L173.656 61.5ZM166.766 70.5938L165.458 69.0808L165.45 69.0876L166.766 70.5938ZM155.938 76.7344L155.272 74.8484L155.267 74.8499L155.938 76.7344ZM127.391 76.7344L126.721 78.6188L126.725 78.6204L127.391 76.7344ZM116.562 70.5938L115.247 72.0999L115.254 72.1067L116.562 70.5938ZM109.672 61.5L107.855 62.335L107.858 62.3417L107.861 62.3484L109.672 61.5ZM123.172 56.6719L121.34 57.4735L121.347 57.4909L121.355 57.5082L123.172 56.6719ZM127.062 61.9219L125.719 63.403L125.733 63.416L125.747 63.4287L127.062 61.9219ZM133.297 65.5312L132.6 67.4059L132.614 67.4112L132.629 67.4163L133.297 65.5312ZM150.031 65.5312L150.707 67.4136L150.714 67.4112L150.72 67.4087L150.031 65.5312ZM156.266 61.9219L157.594 63.4167L157.596 63.4152L156.266 61.9219ZM160.156 56.6719L158.335 55.8464L158.332 55.853L158.329 55.8596L160.156 56.6719ZM160.156 44.0156L158.324 44.8173L158.329 44.8292L158.335 44.8411L160.156 44.0156ZM156.266 38.7656L154.922 40.2467L154.936 40.2597L154.951 40.2725L156.266 38.7656ZM150.031 35.1562L149.334 37.0309L149.349 37.0362L149.363 37.0413L150.031 35.1562ZM133.297 35.1562L133.973 37.0386L133.979 37.0362L133.986 37.0337L133.297 35.1562ZM127.062 38.7656L128.391 40.2604L128.393 40.2589L127.062 38.7656ZM123.172 44.0156L121.35 43.1902L121.345 43.202L121.34 43.214L123.172 44.0156ZM109.281 50.3438C109.281 46.6515 110.021 43.2189 111.489 40.0225L107.855 38.3525C106.136 42.0936 105.281 46.0985 105.281 50.3438H109.281ZM111.483 40.0359C112.987 36.8258 115.112 34.0166 117.878 31.5999L115.247 28.5876C112.075 31.3584 109.607 34.6117 107.861 38.3391L111.483 40.0359ZM117.871 31.6067C120.66 29.1949 124.046 27.2651 128.061 25.8376L126.721 22.0687C122.298 23.6412 118.465 25.8051 115.254 28.5808L117.871 31.6067ZM128.056 25.8391C132.059 24.4263 136.595 23.7031 141.688 23.7031V19.7031C136.218 19.7031 131.222 20.48 126.725 22.0671L128.056 25.8391ZM141.688 23.7031C146.78 23.7031 151.299 24.4264 155.267 25.8376L156.608 22.0687C152.139 20.4799 147.157 19.7031 141.688 19.7031V23.7031ZM155.272 25.8391C159.317 27.2668 162.697 29.1949 165.45 31.5999L168.082 28.5876C164.897 25.8051 161.058 23.6395 156.603 22.0671L155.272 25.8391ZM165.458 31.6067C168.25 34.0209 170.369 36.8237 171.839 40.0225L175.474 38.3525C173.756 34.6138 171.281 31.3541 168.074 28.5808L165.458 31.6067ZM171.845 40.0359C173.341 43.2295 174.094 46.6574 174.094 50.3438H178.094C178.094 46.0926 177.221 42.083 175.467 38.3391L171.845 40.0359ZM174.094 50.3438C174.094 54.0301 173.341 57.458 171.845 60.6516L175.467 62.3484C177.221 58.6045 178.094 54.5949 178.094 50.3438H174.094ZM171.839 60.665C170.369 63.8638 168.25 66.6666 165.458 69.0808L168.074 72.1067C171.281 69.3334 173.756 66.0737 175.474 62.335L171.839 60.665ZM165.45 69.0876C162.697 71.4926 159.317 73.4207 155.272 74.8484L156.603 78.6204C161.058 77.048 164.897 74.8824 168.082 72.0999L165.45 69.0876ZM155.267 74.8499C151.299 76.2611 146.78 76.9844 141.688 76.9844V80.9844C147.157 80.9844 152.139 80.2076 156.608 78.6188L155.267 74.8499ZM141.688 76.9844C136.595 76.9844 132.059 76.2612 128.056 74.8484L126.725 78.6204C131.222 80.2075 136.218 80.9844 141.688 80.9844V76.9844ZM128.061 74.8499C124.046 73.4224 120.66 71.4926 117.871 69.0808L115.254 72.1067C118.465 74.8824 122.298 77.0463 126.721 78.6188L128.061 74.8499ZM117.878 69.0876C115.112 66.6709 112.987 63.8617 111.483 60.6516L107.861 62.3484C109.607 66.0758 112.075 69.3291 115.247 72.0999L117.878 69.0876ZM111.489 60.665C110.021 57.4686 109.281 54.036 109.281 50.3438H105.281C105.281 54.589 106.136 58.5939 107.855 62.335L111.489 60.665ZM119.859 50.3438C119.859 52.8338 120.352 55.2165 121.34 57.4735L125.004 55.8702C124.242 54.1272 123.859 52.2912 123.859 50.3438H119.859ZM121.355 57.5082C122.38 59.734 123.842 61.7003 125.719 63.403L128.406 60.4408C126.908 59.081 125.777 57.5473 124.989 55.8356L121.355 57.5082ZM125.747 63.4287C127.672 65.1083 129.967 66.4271 132.6 67.4059L133.994 63.6566C131.752 62.8229 129.891 61.7355 128.378 60.415L125.747 63.4287ZM132.629 67.4163C135.349 68.3805 138.378 68.8438 141.688 68.8438V64.8438C138.747 64.8438 136.182 64.432 133.965 63.6462L132.629 67.4163ZM141.688 68.8438C144.997 68.8438 148.013 68.3807 150.707 67.4136L149.356 63.6489C147.174 64.4318 144.628 64.8438 141.688 64.8438V68.8438ZM150.72 67.4087C153.386 66.4301 155.691 65.1082 157.594 63.4167L154.937 60.4271C153.465 61.7355 151.614 62.8199 149.342 63.6538L150.72 67.4087ZM157.596 63.4152C159.512 61.708 160.986 59.7302 161.984 57.4842L158.329 55.8596C157.577 57.5511 156.456 59.0732 154.935 60.4286L157.596 63.4152ZM161.978 57.4973C163.003 55.2352 163.516 52.8441 163.516 50.3438H159.516C159.516 52.2809 159.122 54.1085 158.335 55.8464L161.978 57.4973ZM163.516 50.3438C163.516 47.8434 163.003 45.4523 161.978 43.1902L158.335 44.8411C159.122 46.579 159.516 48.4066 159.516 50.3438H163.516ZM161.989 43.214C160.99 40.9314 159.512 38.9439 157.581 37.2588L154.951 40.2725C156.457 41.5874 157.573 43.0998 158.324 44.8173L161.989 43.214ZM157.61 37.2845C155.699 35.5505 153.381 34.2216 150.699 33.2712L149.363 37.0413C151.619 37.8409 153.458 38.9182 154.922 40.2467L157.61 37.2845ZM150.728 33.2816C148.028 32.2776 145.004 31.7969 141.688 31.7969V35.7969C144.621 35.7969 147.16 36.2224 149.334 37.0309L150.728 33.2816ZM141.688 31.7969C138.371 31.7969 135.334 32.2778 132.608 33.2788L133.986 37.0337C136.197 36.2222 138.754 35.7969 141.688 35.7969V31.7969ZM132.621 33.2739C129.973 34.2246 127.665 35.5506 125.732 37.2723L128.393 40.2589C129.898 38.9181 131.746 37.8379 133.973 37.0386L132.621 33.2739ZM125.734 37.2708C123.843 38.9515 122.375 40.9277 121.35 43.1902L124.994 44.8411C125.781 43.1036 126.907 41.5797 128.391 40.2604L125.734 37.2708ZM121.34 43.214C120.352 45.471 119.859 47.8537 119.859 50.3438H123.859C123.859 48.3963 124.242 46.5603 125.004 44.8173L121.34 43.214ZM190.109 22.6875V20.6875H188.109V22.6875H190.109ZM203.984 22.6875H205.984V20.6875H203.984V22.6875ZM203.984 30.6562H201.984V34.6399L205.179 32.2602L203.984 30.6562ZM223.859 20.9531L225.764 20.3418L225.186 18.543L223.357 19.0171L223.859 20.9531ZM227.938 33.6562L228.135 35.6464L230.598 35.4016L229.842 33.0449L227.938 33.6562ZM213.828 37.2656L214.66 39.0844L214.666 39.0815L213.828 37.2656ZM203.984 45.0938L202.384 43.8937L201.984 44.4271V45.0938H203.984ZM203.984 78V80H205.984V78H203.984ZM190.109 78H188.109V80H190.109V78ZM190.109 24.6875H203.984V20.6875H190.109V24.6875ZM201.984 22.6875V30.6562H205.984V22.6875H201.984ZM205.179 32.2602C208.142 30.0531 211.269 28.1497 214.562 26.5486L212.813 22.9514C209.293 24.6628 205.952 26.6969 202.79 29.0523L205.179 32.2602ZM214.562 26.5486C217.859 24.9455 221.125 23.7281 224.361 22.8891L223.357 19.0171C219.843 19.9282 216.328 21.242 212.813 22.9514L214.562 26.5486ZM221.955 21.5645L226.033 34.2676L229.842 33.0449L225.764 20.3418L221.955 21.5645ZM227.74 31.6661C222.217 32.2151 217.291 33.4648 212.99 35.4497L214.666 39.0815C218.491 37.3164 222.97 36.1599 228.135 35.6464L227.74 31.6661ZM212.996 35.4468C208.677 37.4222 205.126 40.2379 202.384 43.8937L205.584 46.2938C207.905 43.1996 210.916 40.7966 214.66 39.0844L212.996 35.4468ZM201.984 45.0938V78H205.984V45.0938H201.984ZM203.984 76H190.109V80H203.984V76ZM192.109 78V22.6875H188.109V78H192.109ZM241.859 14.5781L241.163 16.453L241.195 16.4648L241.227 16.4755L241.859 14.5781ZM239.047 12.9844L237.726 14.4858L237.743 14.501L237.76 14.5158L239.047 12.9844ZM237.219 10.6406L235.394 11.4587L235.411 11.4973L235.43 11.5351L237.219 10.6406ZM237.219 4.92188L235.418 4.05238L235.411 4.06597L235.405 4.07965L237.219 4.92188ZM241.859 1.03125L242.508 2.92314L242.523 2.91787L242.539 2.91236L241.859 1.03125ZM249.359 1.03125L248.663 2.9061L248.695 2.9179L248.727 2.92862L249.359 1.03125ZM254 4.92188L252.175 5.73999L252.192 5.77853L252.211 5.8163L254 4.92188ZM254 10.6406L252.199 9.77113L252.192 9.78472L252.186 9.7984L254 10.6406ZM252.219 12.9844L253.505 14.5158L253.523 14.501L253.54 14.4858L252.219 12.9844ZM249.359 14.5781L250.008 16.47L250.023 16.4647L250.039 16.4592L249.359 14.5781ZM238.672 22.6875V20.6875H236.672V22.6875H238.672ZM252.547 22.6875H254.547V20.6875H252.547V22.6875ZM252.547 78V80H254.547V78H252.547ZM238.672 78H236.672V80H238.672V78ZM245.609 13.1406C244.416 13.1406 243.383 12.9779 242.492 12.6808L241.227 16.4755C242.585 16.9283 244.053 17.1406 245.609 17.1406V13.1406ZM242.556 12.7033C241.646 12.3655 240.916 11.9423 240.333 11.453L237.76 14.5158C238.741 15.339 239.885 15.9782 241.163 16.453L242.556 12.7033ZM240.368 11.4829C239.768 10.9548 239.323 10.3762 239.008 9.7462L235.43 11.5351C235.99 12.6551 236.763 13.639 237.726 14.4858L240.368 11.4829ZM239.044 9.82251C238.754 9.17541 238.609 8.50127 238.609 7.78125H234.609C234.609 9.06123 234.871 10.2933 235.394 11.4587L239.044 9.82251ZM238.609 7.78125C238.609 7.02049 238.757 6.35729 239.033 5.7641L235.405 4.07965C234.868 5.23646 234.609 6.47951 234.609 7.78125H238.609ZM239.02 5.79137C239.333 5.14327 239.765 4.5866 240.333 4.10953L237.76 1.04672C236.766 1.88215 235.98 2.88798 235.418 4.05238L239.02 5.79137ZM240.333 4.10953C240.903 3.63135 241.616 3.22883 242.508 2.92314L241.211 -0.860642C239.915 -0.416326 238.754 0.2124 237.76 1.04672L240.333 4.10953ZM242.539 2.91236C243.416 2.59558 244.432 2.42188 245.609 2.42188V-1.57812C244.037 -1.57812 242.553 -1.34558 241.18 -0.849858L242.539 2.91236ZM245.609 2.42188C246.825 2.42188 247.833 2.59766 248.663 2.9061L250.056 -0.843601C248.699 -1.34766 247.206 -1.57812 245.609 -1.57812V2.42188ZM248.727 2.92862C249.651 3.23667 250.373 3.63943 250.932 4.10953L253.505 1.04672C252.502 0.204319 251.318 -0.424167 249.992 -0.866117L248.727 2.92862ZM250.932 4.10953C251.489 4.57718 251.896 5.11676 252.175 5.73999L255.825 4.10376C255.292 2.91449 254.511 1.89157 253.505 1.04672L250.932 4.10953ZM252.211 5.8163C252.502 6.39854 252.656 7.04322 252.656 7.78125H256.656C256.656 6.45678 256.373 5.19521 255.789 4.02745L252.211 5.8163ZM252.656 7.78125C252.656 8.47817 252.506 9.13426 252.199 9.77113L255.801 11.5101C256.369 10.3345 256.656 9.08433 256.656 7.78125H252.656ZM252.186 9.7984C251.905 10.4026 251.487 10.964 250.897 11.4829L253.54 14.4858C254.513 13.6297 255.282 12.6287 255.814 11.4828L252.186 9.7984ZM250.932 11.453C250.359 11.9342 249.621 12.3572 248.68 12.697L250.039 16.4592C251.348 15.9865 252.516 15.347 253.505 14.5158L250.932 11.453ZM248.711 12.6862C247.865 12.9761 246.841 13.1406 245.609 13.1406V17.1406C247.19 17.1406 248.666 16.9302 250.008 16.47L248.711 12.6862ZM238.672 24.6875H252.547V20.6875H238.672V24.6875ZM250.547 22.6875V78H254.547V22.6875H250.547ZM252.547 76H238.672V80H252.547V76ZM240.672 78V22.6875H236.672V78H240.672ZM274.672 47.6719L275.792 49.3291L275.799 49.3239L275.807 49.3187L274.672 47.6719ZM283.297 44.0156L283.774 45.958L283.786 45.9549L283.297 44.0156ZM306.125 43.4531L305.861 45.4356L305.863 45.4359L306.125 43.4531ZM317.797 45.75L317.298 47.6867L320.041 48.3939L319.789 45.5721L317.797 45.75ZM316.203 40.9219L314.491 41.9561L314.496 41.9641L314.501 41.9721L316.203 40.9219ZM312.406 37.0781L311.275 38.7272L311.293 38.7398L311.312 38.7521L312.406 37.0781ZM306.594 34.5469L306.083 36.4807L306.09 36.4824L306.594 34.5469ZM281.984 36.1875L281.435 34.2644L281.427 34.2668L281.984 36.1875ZM276.547 38.2031L274.671 38.8978L275.423 40.9273L277.387 40.0181L276.547 38.2031ZM272.328 26.8125L271.654 24.9297L269.751 25.6114L270.453 27.5071L272.328 26.8125ZM279.031 24.75L278.528 22.8142L278.522 22.8159L279.031 24.75ZM286.391 23.1562L286.735 25.1263L286.747 25.1242L286.759 25.122L286.391 23.1562ZM331.766 78V80H333.766V78H331.766ZM317.891 78H315.891V80H317.891V78ZM317.891 72.7969H319.891V69.3039L316.878 71.072L317.891 72.7969ZM313.156 75.1875L312.356 73.3544L312.344 73.3599L313.156 75.1875ZM301.156 78.4688L300.888 76.4868L300.873 76.4888L300.858 76.4911L301.156 78.4688ZM282.5 77.5781L281.946 79.4998L281.951 79.5012L282.5 77.5781ZM269.375 67.875L267.576 68.7494L267.584 68.7645L267.591 68.7795L269.375 67.875ZM283.062 62.7188L281.314 63.69L281.322 63.7042L281.33 63.7182L283.062 62.7188ZM285.312 64.9219L284.239 66.6092L284.257 66.6209L284.276 66.6323L285.312 64.9219ZM289.25 66.4688L288.756 68.4068L288.778 68.4124L288.8 68.4175L289.25 66.4688ZM317.891 59.25L319.261 60.7064L319.891 60.1141V59.25H317.891ZM317.891 56.8125H319.891V55.2947L318.429 54.8863L317.891 56.8125ZM311.562 55.3125L311.176 57.2748L311.182 57.2759L311.562 55.3125ZM305.609 54.375L305.345 56.3575L305.363 56.3599L305.381 56.362L305.609 54.375ZM300.266 53.8594L300.153 55.8562L300.155 55.8563L300.266 53.8594ZM285.266 55.6406L286.201 57.4082L286.221 57.3976L286.241 57.3865L285.266 55.6406ZM269.734 60.5625C269.734 58.2074 270.244 56.11 271.237 54.2315L267.701 52.3623C266.381 54.8588 265.734 57.6051 265.734 60.5625H269.734ZM271.237 54.2315C272.221 52.3699 273.716 50.7315 275.792 49.3291L273.552 46.0147C271.003 47.7373 269.029 49.8488 267.701 52.3623L271.237 54.2315ZM275.807 49.3187C277.875 47.8931 280.513 46.7583 283.774 45.958L282.82 42.0733C279.206 42.9604 276.094 44.2631 273.537 46.0251L275.807 49.3187ZM283.786 45.9549C287.057 45.1297 290.918 44.7031 295.391 44.7031V40.7031C290.676 40.7031 286.474 41.1515 282.808 42.0764L283.786 45.9549ZM295.391 44.7031C298.699 44.7031 302.189 44.946 305.861 45.4356L306.389 41.4707C302.561 40.9602 298.894 40.7031 295.391 40.7031V44.7031ZM305.863 45.4359C309.558 45.9245 313.369 46.6739 317.298 47.6867L318.296 43.8133C314.224 42.7636 310.255 41.9818 306.387 41.4704L305.863 45.4359ZM319.789 45.5721C319.606 43.5186 318.978 41.6096 317.905 39.8717L314.501 41.9721C315.241 43.1716 315.676 44.4814 315.805 45.9279L319.789 45.5721ZM317.915 39.8876C316.837 38.1042 315.35 36.613 313.501 35.4042L311.312 38.7521C312.713 39.6682 313.756 40.7396 314.491 41.9561L317.915 39.8876ZM313.538 35.4291C311.716 34.179 309.555 33.2511 307.098 32.6114L306.09 36.4824C308.195 37.0302 309.909 37.7898 311.275 38.7272L313.538 35.4291ZM307.104 32.6131C304.654 31.9665 301.915 31.6562 298.906 31.6562V35.6562C301.648 35.6562 304.034 35.9398 306.083 36.4807L307.104 32.6131ZM298.906 31.6562C297.265 31.6562 295.479 31.7546 293.551 31.9474L293.949 35.9276C295.771 35.7454 297.422 35.6562 298.906 35.6562V31.6562ZM293.551 31.9474C291.615 32.141 289.621 32.4308 287.569 32.8155L288.306 36.747C290.254 36.3817 292.135 36.109 293.949 35.9276L293.551 31.9474ZM287.569 32.8155C285.508 33.202 283.463 33.685 281.435 34.2645L282.534 38.1105C284.443 37.565 286.367 37.1105 288.306 36.747L287.569 32.8155ZM281.427 34.2668C279.401 34.855 277.493 35.5612 275.707 36.3882L277.387 40.0181C278.976 39.2825 280.693 38.645 282.542 38.1082L281.427 34.2668ZM278.422 37.5085L274.204 26.1179L270.453 27.5071L274.671 38.8978L278.422 37.5085ZM273.003 28.6953C275.037 27.9667 277.215 27.2959 279.54 26.6841L278.522 22.8159C276.097 23.4541 273.807 24.1583 271.654 24.9297L273.003 28.6953ZM279.534 26.6858C281.887 26.0746 284.287 25.5547 286.735 25.1263L286.046 21.1862C283.494 21.6328 280.988 22.1754 278.528 22.8142L279.534 26.6858ZM286.759 25.122C289.204 24.6636 291.647 24.3124 294.09 24.0682L293.692 20.0881C291.134 20.3438 288.578 20.7114 286.022 21.1905L286.759 25.122ZM294.09 24.0682C296.528 23.8243 298.884 23.7031 301.156 23.7031V19.7031C298.741 19.7031 296.253 19.8319 293.692 20.0881L294.09 24.0682ZM301.156 23.7031C311.186 23.7031 318.252 26.2613 322.771 31.0045L325.667 28.2455C320.123 22.4262 311.814 19.7031 301.156 19.7031V23.7031ZM322.771 31.0045C327.306 35.7656 329.766 43.2638 329.766 53.9062H333.766C333.766 42.7362 331.194 34.0469 325.667 28.2455L322.771 31.0045ZM329.766 53.9062V78H333.766V53.9062H329.766ZM331.766 76H317.891V80H331.766V76ZM319.891 78V72.7969H315.891V78H319.891ZM316.878 71.072C315.517 71.8709 314.011 72.6324 312.356 73.3544L313.956 77.0206C315.739 76.2426 317.389 75.4103 318.903 74.5217L316.878 71.072ZM312.344 73.3599C310.754 74.0664 309.002 74.6913 307.084 75.2309L308.166 79.0816C310.248 78.4962 312.183 77.8086 313.969 77.0151L312.344 73.3599ZM307.084 75.2309C305.183 75.7653 303.12 76.1853 300.888 76.4868L301.424 80.4507C303.818 80.1272 306.067 79.6722 308.166 79.0816L307.084 75.2309ZM300.858 76.4911C298.686 76.8184 296.364 76.9844 293.891 76.9844V80.9844C296.542 80.9844 299.064 80.8066 301.454 80.4464L300.858 76.4911ZM293.891 76.9844C289.717 76.9844 286.112 76.5302 283.049 75.6551L281.951 79.5012C285.45 80.5011 289.439 80.9844 293.891 80.9844V76.9844ZM283.054 75.6565C279.987 74.7717 277.503 73.571 275.551 72.093L273.136 75.282C275.559 77.1165 278.513 78.5095 281.946 79.4998L283.054 75.6565ZM275.551 72.093C273.58 70.6009 272.133 68.8916 271.159 66.9705L267.591 68.7795C268.867 71.2959 270.732 73.4616 273.136 75.282L275.551 72.093ZM271.174 67.0006C270.219 65.0365 269.734 62.8999 269.734 60.5625H265.734C265.734 63.4751 266.344 66.2135 267.576 68.7494L271.174 67.0006ZM280.359 60.0938C280.359 61.362 280.691 62.5691 281.314 63.69L284.811 61.7475C284.496 61.1809 284.359 60.638 284.359 60.0938H280.359ZM281.33 63.7182C282.001 64.8813 283.015 65.8307 284.239 66.6092L286.386 63.2346C285.547 62.7006 285.061 62.1812 284.795 61.7193L281.33 63.7182ZM284.276 66.6323C285.525 67.389 287.036 67.9682 288.756 68.4068L289.744 64.5307C288.277 64.1568 287.163 63.7047 286.349 63.2115L284.276 66.6323ZM288.8 68.4175C290.615 68.8364 292.728 69.0312 295.109 69.0312V65.0312C292.928 65.0312 291.135 64.8511 289.7 64.52L288.8 68.4175ZM295.109 69.0312C297.667 69.0312 300.153 68.8017 302.564 68.3392L301.811 64.4108C299.66 64.8233 297.427 65.0312 295.109 65.0312V69.0312ZM302.564 68.3392C304.939 67.8837 307.169 67.2785 309.248 66.5193L307.877 62.7619C306.019 63.4402 303.998 63.9913 301.811 64.4108L302.564 68.3392ZM309.248 66.5193C311.316 65.7644 313.209 64.8866 314.92 63.8801L312.892 60.4324C311.416 61.3009 309.746 62.0793 307.877 62.7619L309.248 66.5193ZM314.92 63.8801C316.61 62.8861 318.066 61.8315 319.261 60.7064L316.52 57.7936C315.59 58.6685 314.39 59.5514 312.892 60.4324L314.92 63.8801ZM319.891 59.25V56.8125H315.891V59.25H319.891ZM318.429 54.8863C316.254 54.2785 314.092 53.766 311.943 53.3491L311.182 57.2759C313.221 57.6715 315.278 58.159 317.352 58.7387L318.429 54.8863ZM311.949 53.3502C309.839 52.9346 307.802 52.6134 305.837 52.388L305.381 56.362C307.23 56.5741 309.161 56.8779 311.176 57.2748L311.949 53.3502ZM305.874 52.3925C303.954 52.1365 302.121 51.9594 300.377 51.8625L300.155 55.8563C301.785 55.9469 303.515 56.1135 305.345 56.3575L305.874 52.3925ZM300.379 51.8626C298.696 51.7673 297.204 51.7188 295.906 51.7188V55.7188C297.109 55.7188 298.523 55.7639 300.153 55.8562L300.379 51.8626ZM295.906 51.7188C293.237 51.7188 290.939 51.8945 289.045 52.2732L289.83 56.1955C291.374 55.8867 293.388 55.7188 295.906 55.7188V51.7188ZM289.045 52.2732C287.204 52.6415 285.595 53.1653 284.29 53.8947L286.241 57.3865C287.061 56.9285 288.234 56.5148 289.83 56.1955L289.045 52.2732ZM284.33 53.873C283.041 54.5555 281.95 55.4651 281.271 56.679L284.761 58.6335C284.956 58.2849 285.365 57.8507 286.201 57.4082L284.33 53.873ZM281.271 56.679C280.677 57.7399 280.359 58.8868 280.359 60.0938H284.359C284.359 59.6132 284.48 59.1351 284.761 58.6335L281.271 56.679ZM350.141 22.6875V20.6875H348.141V22.6875H350.141ZM364.016 22.6875H366.016V20.6875H364.016V22.6875ZM364.016 27.375H362.016V30.8105L365.003 29.1142L364.016 27.375ZM374.562 22.9688L374.077 21.0285L374.073 21.0295L374.562 22.9688ZM396.172 23.5781L395.515 25.4671L395.522 25.4697L395.53 25.4722L396.172 23.5781ZM411.641 38.2031L409.785 38.9486L409.789 38.9583L409.793 38.9678L411.641 38.2031ZM413.891 78V80H415.891V78H413.891ZM400.062 78H398.062V80H400.062V78ZM398.75 44.9531L396.863 45.6149L396.868 45.6298L396.873 45.6445L398.75 44.9531ZM395.047 38.9062L393.606 40.293L393.619 40.3069L393.633 40.3205L395.047 38.9062ZM389.188 35.1562L388.471 37.0236L388.487 37.0295L388.502 37.0351L389.188 35.1562ZM376.859 34.3125L376.475 32.3499L376.467 32.3513L376.859 34.3125ZM372.219 35.6719L372.921 37.5445L372.931 37.5406L372.942 37.5366L372.219 35.6719ZM367.859 37.8281L368.888 39.5431L368.902 39.5348L368.916 39.5262L367.859 37.8281ZM364.016 40.7344L362.641 39.2814L362.016 39.8732V40.7344H364.016ZM364.016 78V80H366.016V78H364.016ZM350.141 78H348.141V80H350.141V78ZM350.141 24.6875H364.016V20.6875H350.141V24.6875ZM362.016 22.6875V27.375H366.016V22.6875H362.016ZM365.003 29.1142C368.569 27.0897 371.917 25.699 375.052 24.908L374.073 21.0295C370.521 21.926 366.838 23.4728 363.028 25.6358L365.003 29.1142ZM375.048 24.909C378.277 24.1018 381.41 23.7031 384.453 23.7031V19.7031C381.058 19.7031 377.598 20.1482 374.077 21.0285L375.048 24.909ZM384.453 23.7031C388.472 23.7031 392.154 24.2981 395.515 25.4671L396.829 21.6891C393.002 20.3581 388.871 19.7031 384.453 19.7031V23.7031ZM395.53 25.4722C398.872 26.6058 401.733 28.2937 404.139 30.5281L406.861 27.5969C404.017 24.9563 400.659 22.9879 396.814 21.6841L395.53 25.4722ZM404.139 30.5281C406.527 32.7456 408.415 35.5383 409.785 38.9486L413.496 37.4576C411.929 33.5554 409.723 30.2544 406.861 27.5969L404.139 30.5281ZM409.793 38.9678C411.173 42.3036 411.891 46.2378 411.891 50.8125H415.891C415.891 45.8247 415.108 41.3527 413.489 37.4384L409.793 38.9678ZM411.891 50.8125V78H415.891V50.8125H411.891ZM413.891 76H400.062V80H413.891V76ZM402.062 78V53.0625H398.062V78H402.062ZM402.062 53.0625C402.062 49.8407 401.598 46.897 400.627 44.2617L396.873 45.6445C397.652 47.7592 398.062 50.2218 398.062 53.0625H402.062ZM400.637 44.2913C399.705 41.6333 398.321 39.3515 396.461 37.492L393.633 40.3205C395.023 41.711 396.107 43.4604 396.863 45.6149L400.637 44.2913ZM396.488 37.5195C394.668 35.6285 392.451 34.218 389.873 33.2774L388.502 37.0351C390.549 37.782 392.238 38.8715 393.606 40.293L396.488 37.5195ZM389.904 33.2889C387.36 32.3131 384.549 31.8438 381.5 31.8438V35.8438C384.138 35.8438 386.453 36.2494 388.471 37.0236L389.904 33.2889ZM381.5 31.8438C379.861 31.8438 378.185 32.0145 376.475 32.3499L377.244 36.2751C378.722 35.9855 380.139 35.8438 381.5 35.8438V31.8438ZM376.467 32.3513C374.788 32.6871 373.131 33.1731 371.496 33.8072L372.942 37.5366C374.369 36.9832 375.805 36.5629 377.252 36.2737L376.467 32.3513ZM371.517 33.7992C369.889 34.4096 368.317 35.1876 366.803 36.13L368.916 39.5262C370.214 38.7186 371.549 38.0591 372.921 37.5445L371.517 33.7992ZM366.83 36.1131C365.304 37.0292 363.906 38.0851 362.641 39.2814L365.39 42.1873C366.438 41.1962 367.603 40.3146 368.888 39.5431L366.83 36.1131ZM362.016 40.7344V78H366.016V40.7344H362.016ZM364.016 76H350.141V80H364.016V76ZM352.141 78V22.6875H348.141V78H352.141ZM431.984 66.375L430.176 65.521L430.171 65.5322L430.165 65.5435L431.984 66.375ZM434.234 63.4688L435.52 65.0011L435.534 64.9892L435.548 64.9769L434.234 63.4688ZM450.5 63.4688L449.162 64.9553L449.188 64.9787L449.215 65.0011L450.5 63.4688ZM452.703 66.375L450.876 67.1873L450.889 67.2183L450.904 67.2488L452.703 66.375ZM452.703 73.4531L450.895 72.5991L450.889 72.6103L450.884 72.6216L452.703 73.4531ZM450.5 76.3125L449.215 74.7801L449.202 74.7905L449.19 74.8011L450.5 76.3125ZM447.031 78.2344L446.386 76.3414L446.367 76.3479L446.348 76.3548L447.031 78.2344ZM437.75 78.2344L438.433 76.3548L438.414 76.3479L438.395 76.3414L437.75 78.2344ZM431.984 73.4531L430.157 74.2654L430.171 74.2964L430.185 74.3269L431.984 73.4531ZM433.234 69.8906C433.234 68.916 433.427 68.029 433.803 67.2065L430.165 65.5435C429.541 66.9085 429.234 68.3653 429.234 69.8906H433.234ZM433.793 67.229C434.199 66.3696 434.769 65.6311 435.52 65.0011L432.949 61.9364C431.763 62.9314 430.833 64.1304 430.176 65.521L433.793 67.229ZM435.548 64.9769C436.297 64.3244 437.234 63.7889 438.395 63.393L437.105 59.607C435.516 60.1486 434.109 60.9256 432.921 61.9606L435.548 64.9769ZM438.395 63.393C439.528 63.0067 440.852 62.7969 442.391 62.7969V58.7969C440.492 58.7969 438.722 59.0558 437.105 59.607L438.395 63.393ZM442.391 62.7969C443.929 62.7969 445.253 63.0067 446.386 63.393L447.677 59.607C446.06 59.0558 444.29 58.7969 442.391 58.7969V62.7969ZM446.386 63.393C447.543 63.7877 448.454 64.3179 449.162 64.9553L451.838 61.9822C450.671 60.9321 449.269 60.1498 447.677 59.607L446.386 63.393ZM449.215 65.0011C449.957 65.6235 450.503 66.3481 450.876 67.1873L454.531 65.5627C453.904 64.1519 452.981 62.939 451.785 61.9364L449.215 65.0011ZM450.904 67.2488C451.299 68.0625 451.5 68.9346 451.5 69.8906H455.5C455.5 68.3467 455.169 66.875 454.502 65.5012L450.904 67.2488ZM451.5 69.8906C451.5 70.8468 451.299 71.7425 450.895 72.5991L454.512 74.3071C455.17 72.9138 455.5 71.4345 455.5 69.8906H451.5ZM450.884 72.6216C450.514 73.4311 449.968 74.1486 449.215 74.7801L451.785 77.8449C452.97 76.8514 453.892 75.6627 454.522 74.2846L450.884 72.6216ZM449.19 74.8011C448.478 75.4185 447.558 75.9418 446.386 76.3414L447.677 80.1274C449.255 79.5895 450.647 78.8315 451.81 77.8239L449.19 74.8011ZM446.348 76.3548C445.226 76.7626 443.916 76.9844 442.391 76.9844V80.9844C444.303 80.9844 446.086 80.7062 447.715 80.114L446.348 76.3548ZM442.391 76.9844C440.865 76.9844 439.555 76.7626 438.433 76.3548L437.067 80.114C438.695 80.7062 440.479 80.9844 442.391 80.9844V76.9844ZM438.395 76.3414C437.22 75.9406 436.273 75.4121 435.52 74.7801L432.949 77.8449C434.133 78.8379 435.53 79.5907 437.105 80.1274L438.395 76.3414ZM435.52 74.7801C434.758 74.1412 434.187 73.4097 433.783 72.5793L430.185 74.3269C430.845 75.684 431.773 76.8588 432.949 77.8449L435.52 74.7801ZM433.812 72.6408C433.427 71.7756 433.234 70.8652 433.234 69.8906H429.234C429.234 71.416 429.541 72.8807 430.157 74.2654L433.812 72.6408Z" fill="white"/>
</svg>
