<svg width="135" height="909" viewBox="0 0 135 909" fill="none" xmlns="http://www.w3.org/2000/svg">
<path d="M128.688 0.875H129.688V-0.125H128.688V0.875ZM128.688 84.0625V85.0625H129.688V84.0625H128.688ZM111.312 84.0625H110.312V85.0625H111.312V84.0625ZM111.312 20.6875H112.312V19.6875H111.312V20.6875ZM91.8125 20.6875V19.6875H90.8125V20.6875H91.8125ZM91.8125 76.8125V77.8125H92.8125V76.8125H91.8125ZM75.5 76.8125H74.5V77.8125H75.5V76.8125ZM75.5 20.6875H76.5V19.6875H75.5V20.6875ZM48.3125 20.6875V19.6875H47.3125V20.6875H48.3125ZM48.3125 85.375V86.375H49.3125V85.375H48.3125ZM31 85.375H30V86.375H31V85.375ZM31 0.875V-0.125H30V0.875H31ZM127.688 0.875V84.0625H129.688V0.875H127.688ZM128.688 83.0625H111.312V85.0625H128.688V83.0625ZM112.312 84.0625V20.6875H110.312V84.0625H112.312ZM111.312 19.6875L91.8125 19.6875V21.6875L111.312 21.6875V19.6875ZM90.8125 20.6875V76.8125H92.8125V20.6875H90.8125ZM91.8125 75.8125H75.5V77.8125H91.8125V75.8125ZM76.5 76.8125V20.6875H74.5V76.8125H76.5ZM75.5 19.6875H48.3125V21.6875H75.5V19.6875ZM47.3125 20.6875V85.375H49.3125V20.6875H47.3125ZM48.3125 84.375L31 84.375V86.375L48.3125 86.375V84.375ZM32 85.375V0.875H30V85.375H32ZM31 1.875L128.688 1.875V-0.125L31 -0.125V1.875ZM67.875 124.188L67.2519 124.97L67.8863 125.475L68.5117 124.959L67.875 124.188ZM104.812 93.6875H105.812V91.5649L104.176 92.9164L104.812 93.6875ZM104.812 117.312L105.448 118.085L105.812 117.785V117.312H104.812ZM82.3125 135.812L81.6774 135.04L80.7133 135.833L81.6972 136.601L82.3125 135.812ZM104.812 153.375H105.812V152.887L105.428 152.587L104.812 153.375ZM104.813 176.438L104.198 177.227L105.813 178.482V176.438H104.813ZM67.9375 147.75L68.5515 146.961L67.9189 146.469L67.3008 146.979L67.9375 147.75ZM31 178.25H30V180.373L31.6367 179.021L31 178.25ZM31 154.625L30.3629 153.854L30 154.154V154.625H31ZM54.0625 135.562L54.6996 136.333L55.6675 135.533L54.6711 134.769L54.0625 135.562ZM31 117.875H30V118.368L30.3914 118.669L31 117.875ZM31 94.8125L31.6231 94.0303L30 92.7374V94.8125H31ZM68.5117 124.959L105.449 94.4586L104.176 92.9164L67.2383 123.416L68.5117 124.959ZM103.812 93.6875V117.312H105.812V93.6875H103.812ZM104.177 116.54L81.6774 135.04L82.9476 136.585L105.448 118.085L104.177 116.54ZM81.6972 136.601L104.197 154.163L105.428 152.587L82.9278 135.024L81.6972 136.601ZM103.812 153.375L103.813 176.438H105.813L105.812 153.375H103.812ZM105.427 175.648L68.5515 146.961L67.3235 148.539L104.198 177.227L105.427 175.648ZM67.3008 146.979L30.3633 177.479L31.6367 179.021L68.5742 148.521L67.3008 146.979ZM32 178.25V154.625H30V178.25H32ZM31.6371 155.396L54.6996 136.333L53.4254 134.792L30.3629 153.854L31.6371 155.396ZM54.6711 134.769L31.6086 117.081L30.3914 118.669L53.4539 136.356L54.6711 134.769ZM32 117.875L32 94.8125H30L30 117.875H32ZM30.3769 95.5947L67.2519 124.97L68.4981 123.405L31.6231 94.0303L30.3769 95.5947ZM0.875 208.062H-0.125V209.062H0.875V208.062ZM0.875 189.562V188.562H-0.125V189.562H0.875ZM104.75 189.562H105.75V188.562H104.75V189.562ZM104.75 208.062V209.062H105.75V208.062H104.75ZM97.8125 208.062V207.062H95.9039L96.9903 208.632L97.8125 208.062ZM105.375 228.812L104.387 228.965L104.388 228.972L104.389 228.979L105.375 228.812ZM103.313 254.125L102.369 253.793L102.368 253.795L103.313 254.125ZM95.5625 267.625L96.3099 268.289L95.5625 267.625ZM83.5625 276.375L83.1548 275.462L83.145 275.466L83.5625 276.375ZM52.25 276.25L51.8254 277.155L51.8284 277.157L52.25 276.25ZM40.125 267.062L39.3669 267.715L39.3675 267.715L40.125 267.062ZM32.375 253.188L31.427 253.506L31.4285 253.51L32.375 253.188ZM30.1875 227.875L29.1957 227.747L29.1955 227.749L30.1875 227.875ZM31.5625 220.375L30.5914 220.136L30.5904 220.14L31.5625 220.375ZM33.625 213.625L32.6965 213.254L32.6921 213.265L32.6879 213.276L33.625 213.625ZM36.3125 208.062L37.1739 208.57L38.0632 207.062H36.3125V208.062ZM54.1875 208.062V207.062H53.7069L53.4066 207.438L54.1875 208.062ZM46.3125 226.938L45.3237 226.788L45.3223 226.797L45.3211 226.807L46.3125 226.938ZM47.5625 244.688L46.6162 245.011L46.6186 245.018L47.5625 244.688ZM52.3125 253.062L53.066 252.405L53.0599 252.398L52.3125 253.062ZM76.5625 258.312L76.1563 257.399L76.1444 257.404L76.5625 258.312ZM83.4375 253.188L82.6963 252.516L82.6897 252.524L82.6832 252.531L83.4375 253.188ZM88.125 245.125L87.1882 244.775L87.1854 244.783L87.1827 244.79L88.125 245.125ZM89.125 227.062L88.1414 227.243L88.1428 227.251L88.1444 227.259L89.125 227.062ZM87.125 219.812L88.0613 219.461L88.0592 219.456L87.125 219.812ZM83.9375 213.312L84.7904 212.79L84.7855 212.783L83.9375 213.312ZM79.75 208.062L80.4474 207.346L80.1562 207.062H79.75V208.062ZM1.875 208.062V189.562H-0.125V208.062H1.875ZM0.875 190.562H104.75V188.562H0.875V190.562ZM103.75 189.562V208.062H105.75V189.562H103.75ZM104.75 207.062H97.8125V209.062H104.75V207.062ZM96.9903 208.632C98.0744 210.198 99.1085 212.06 100.089 214.225L101.911 213.4C100.891 211.149 99.8006 209.177 98.6347 207.493L96.9903 208.632ZM100.089 214.225C101.068 216.388 101.928 218.719 102.666 221.221L104.584 220.654C103.822 218.073 102.932 215.654 101.911 213.4L100.089 214.225ZM102.666 221.221C103.403 223.718 103.977 226.299 104.387 228.965L106.363 228.66C105.94 225.909 105.347 223.241 104.584 220.654L102.666 221.221ZM104.389 228.979C104.838 231.633 105.063 234.286 105.063 236.938H107.063C107.063 234.172 106.829 231.408 106.361 228.646L104.389 228.979ZM105.063 236.938C105.063 243.089 104.16 248.704 102.369 253.793L104.256 254.457C106.131 249.129 107.063 243.286 107.063 236.938H105.063ZM102.368 253.795C100.573 258.935 98.0527 263.318 94.8151 266.961L96.3099 268.289C99.739 264.432 102.385 259.815 104.257 254.455L102.368 253.795ZM94.8151 266.961C91.5779 270.603 87.6944 273.435 83.1548 275.462L83.9702 277.288C88.764 275.148 92.8805 272.147 96.3099 268.289L94.8151 266.961ZM83.145 275.466C78.6642 277.525 73.6837 278.562 68.1875 278.562V280.562C73.9413 280.562 79.2108 279.475 83.98 277.284L83.145 275.466ZM68.1875 278.562C62.4403 278.562 57.2743 277.483 52.6716 275.343L51.8284 277.157C56.7257 279.434 62.1847 280.562 68.1875 280.562V278.562ZM52.6746 275.345C48.0931 273.196 44.165 270.219 40.8825 266.41L39.3675 267.715C42.835 271.739 46.9903 274.888 51.8254 277.155L52.6746 275.345ZM40.8831 266.41C37.6418 262.642 35.1182 258.132 33.3215 252.865L31.4285 253.51C33.2985 258.993 35.9416 263.733 39.3669 267.715L40.8831 266.41ZM33.3229 252.869C31.5693 247.649 30.6875 241.966 30.6875 235.812H28.6875C28.6875 242.159 29.5973 248.059 31.4271 253.506L33.3229 252.869ZM30.6875 235.812C30.6875 233.188 30.8515 230.584 31.1795 228.001L29.1955 227.749C28.8568 230.416 28.6875 233.104 28.6875 235.812H30.6875ZM31.1793 228.003C31.5082 225.454 31.9601 222.99 32.5346 220.61L30.5904 220.14C29.9982 222.594 29.5335 225.13 29.1957 227.747L31.1793 228.003ZM32.5336 220.614C33.1085 218.273 33.7849 216.06 34.5621 213.974L32.6879 213.276C31.8818 215.44 31.1832 217.727 30.5914 220.136L32.5336 220.614ZM34.5535 213.996C35.3714 211.952 36.2456 210.144 37.1739 208.57L35.4511 207.555C34.4627 209.231 33.5453 211.132 32.6965 213.254L34.5535 213.996ZM36.3125 207.062H0.875V209.062H36.3125V207.062ZM53.4066 207.438C51.864 209.366 50.5547 211.405 49.4806 213.553L51.2694 214.447C52.2786 212.429 53.511 210.509 54.9684 208.687L53.4066 207.438ZM49.4806 213.553C48.4149 215.684 47.54 217.86 46.8567 220.081L48.7683 220.669C49.4183 218.556 50.2517 216.483 51.2694 214.447L49.4806 213.553ZM46.8567 220.081C46.1757 222.294 45.6645 224.53 45.3237 226.788L47.3013 227.087C47.6271 224.928 48.116 222.789 48.7683 220.669L46.8567 220.081ZM45.3211 226.807C45.0241 229.055 44.875 231.245 44.875 233.375H46.875C46.875 231.338 47.0176 229.236 47.3039 227.068L45.3211 226.807ZM44.875 233.375C44.875 237.711 45.4488 241.595 46.6162 245.011L48.5088 244.364C47.4262 241.197 46.875 237.539 46.875 233.375H44.875ZM46.6186 245.018C47.821 248.453 49.4648 251.364 51.5651 253.727L53.0599 252.398C51.1602 250.261 49.6373 247.588 48.5064 244.357L46.6186 245.018ZM51.5591 253.72C53.652 256.118 56.1233 257.957 58.9676 259.226L59.7824 257.399C57.2101 256.252 54.973 254.59 53.0659 252.405L51.5591 253.72ZM58.9676 259.226C61.8127 260.495 64.8901 261.125 68.1875 261.125V259.125C65.1516 259.125 62.354 258.547 59.7824 257.399L58.9676 259.226ZM68.1875 261.125C71.2867 261.125 74.2213 260.491 76.9806 259.221L76.1444 257.404C73.6537 258.551 71.005 259.125 68.1875 259.125V261.125ZM76.9686 259.226C79.7323 257.998 82.1414 256.2 84.1918 253.844L82.6832 252.531C80.817 254.675 78.6427 256.294 76.1564 257.399L76.9686 259.226ZM84.1787 253.859C86.2779 251.541 87.9038 248.735 89.0673 245.46L87.1827 244.79C86.0962 247.848 84.5971 250.417 82.6963 252.516L84.1787 253.859ZM89.0618 245.475C90.2769 242.22 90.875 238.578 90.875 234.562H88.875C88.875 238.38 88.3065 241.78 87.1882 244.775L89.0618 245.475ZM90.875 234.562C90.875 231.995 90.6182 229.43 90.1056 226.866L88.1444 227.259C88.6318 229.695 88.875 232.13 88.875 234.562H90.875ZM90.1086 226.882C89.6398 224.325 88.9575 221.851 88.0613 219.461L86.1887 220.164C87.0425 222.44 87.6935 224.8 88.1414 227.243L90.1086 226.882ZM88.0592 219.456C87.1628 217.108 86.0733 214.886 84.7904 212.79L83.0846 213.835C84.3017 215.823 85.3372 217.934 86.1908 220.169L88.0592 219.456ZM84.7855 212.783C83.497 210.721 82.0518 208.907 80.4474 207.346L79.0526 208.779C80.5316 210.218 81.878 211.904 83.0895 213.842L84.7855 212.783ZM79.75 207.062H54.1875V209.062H79.75V207.062ZM82.4375 296.625L82.0275 297.537L82.0306 297.538L82.4375 296.625ZM102.938 319.5L103.874 319.15L103.874 319.148L102.938 319.5ZM102.875 357.5L101.939 357.147L101.936 357.155L102.875 357.5ZM94.25 371.875L93.52 371.192L93.5164 371.195L94.25 371.875ZM81.3125 380.938L80.9251 380.016L80.9186 380.018L81.3125 380.938ZM63.0625 384.062L63.1124 383.064L63.0875 383.062H63.0625V384.062ZM60.875 383.938H59.875V384.82L60.751 384.93L60.875 383.938ZM60.875 314.188H61.875V312.767L60.5375 313.246L60.875 314.188ZM54.8125 318L54.122 317.277L54.1136 317.285L54.8125 318ZM46.9375 333.938L45.9596 333.728L45.9574 333.739L46.9375 333.938ZM47.1875 358.25L46.2084 358.454L46.2104 358.463L47.1875 358.25ZM50.625 370.312L51.0296 371.227L51.8804 370.851L51.5663 369.975L50.625 370.312ZM36.5 376.562L35.5934 376.985L36.0075 377.874L36.9046 377.477L36.5 376.562ZM33.5 369.188L32.5529 369.509L32.5561 369.518L33.5 369.188ZM31.375 361.438L30.3949 361.637L30.3974 361.648L31.375 361.438ZM30.125 353L31.1202 352.902L31.12 352.9L30.125 353ZM40.875 306.25L40.1024 305.615L40.875 306.25ZM75.3125 364.5H74.3125V365.878L75.6229 365.451L75.3125 364.5ZM81 361.375L80.3912 360.582L80.3809 360.59L80.3708 360.598L81 361.375ZM85.625 356.188L84.7827 355.648L84.7789 355.654L84.7751 355.661L85.625 356.188ZM80.875 317.312L81.5152 316.544L81.5097 316.54L81.5042 316.535L80.875 317.312ZM75.3125 314.188L75.6348 313.241L74.3125 312.791V314.188H75.3125ZM68.125 294.562C72.9843 294.562 77.6153 295.554 82.0275 297.537L82.8475 295.713C78.1764 293.613 73.2657 292.562 68.125 292.562V294.562ZM82.0306 297.538C86.4837 299.522 90.4136 302.377 93.824 306.112L95.301 304.763C91.7114 300.832 87.5579 297.811 82.8444 295.712L82.0306 297.538ZM93.824 306.112C97.2271 309.839 99.9566 314.413 102.001 319.852L103.874 319.148C101.752 313.504 98.8979 308.703 95.301 304.763L93.824 306.112ZM102.001 319.85C104.035 325.302 105.063 331.514 105.063 338.5H107.063C107.063 331.319 106.007 324.864 103.874 319.15L102.001 319.85ZM105.063 338.5C105.063 345.441 104.015 351.652 101.94 357.147L103.81 357.853C105.985 352.098 107.063 345.642 107.063 338.5H105.063ZM101.936 357.155C99.8935 362.712 97.0844 367.384 93.52 371.192L94.98 372.558C98.7489 368.533 101.69 363.622 103.814 357.845L101.936 357.155ZM93.5164 371.195C89.9462 375.05 85.7517 377.988 80.9251 380.016L81.6999 381.859C86.79 379.721 91.2204 376.617 94.9836 372.555L93.5164 371.195ZM80.9186 380.018C76.091 382.087 70.9132 383.125 65.375 383.125V385.125C71.1701 385.125 76.6174 384.038 81.7064 381.857L80.9186 380.018ZM65.375 383.125C64.6859 383.125 63.932 383.105 63.1124 383.064L63.0126 385.061C63.8597 385.104 64.6474 385.125 65.375 385.125V383.125ZM63.0625 383.062C62.3052 383.062 61.6181 383.023 60.999 382.945L60.751 384.93C61.4653 385.019 62.2365 385.062 63.0625 385.062V383.062ZM61.875 383.938L61.875 314.188H59.875L59.875 383.938H61.875ZM60.5375 313.246C58.1873 314.089 56.0483 315.438 54.122 317.277L55.503 318.723C57.2434 317.062 59.1461 315.87 61.2125 315.129L60.5375 313.246ZM54.1136 317.285C52.1888 319.166 50.5432 321.49 49.1681 324.24L50.9569 325.135C52.2484 322.552 53.7695 320.418 55.5114 318.715L54.1136 317.285ZM49.1681 324.24C47.7904 326.996 46.724 330.161 45.9597 333.728L47.9153 334.147C48.651 330.714 49.6679 327.713 50.9569 325.135L49.1681 324.24ZM45.9574 333.739C45.2336 337.315 44.875 341.258 44.875 345.562H46.875C46.875 341.367 47.2247 337.56 47.9176 334.136L45.9574 333.739ZM44.875 345.562C44.875 349.882 45.3197 354.179 46.2084 358.454L48.1666 358.046C47.3053 353.904 46.875 349.743 46.875 345.562H44.875ZM46.2104 358.463C47.1358 362.711 48.2933 366.774 49.6837 370.65L51.5663 369.975C50.2067 366.185 49.0726 362.206 48.1646 358.037L46.2104 358.463ZM50.2204 369.398L36.0954 375.648L36.9046 377.477L51.0296 371.227L50.2204 369.398ZM37.4066 376.14C36.2954 373.754 35.3079 371.326 34.4439 368.857L32.5561 369.518C33.4421 372.049 34.4546 374.538 35.5934 376.985L37.4066 376.14ZM34.4471 368.866C33.6268 366.447 32.9284 363.9 32.3526 361.227L30.3974 361.648C30.9883 364.391 31.7065 367.012 32.5529 369.509L34.4471 368.866ZM32.355 361.238C31.8207 358.608 31.4088 355.829 31.1202 352.902L29.1298 353.098C29.4245 356.087 29.846 358.934 30.395 361.637L32.355 361.238ZM31.12 352.9C30.832 350.02 30.6875 346.97 30.6875 343.75H28.6875C28.6875 347.03 28.8347 350.146 29.13 353.1L31.12 352.9ZM30.6875 343.75C30.6875 335.536 31.6785 328.372 33.6399 322.242L31.7351 321.633C29.6965 328.003 28.6875 335.381 28.6875 343.75H30.6875ZM33.6399 322.242C35.6091 316.089 38.2841 310.978 41.6476 306.885L40.1024 305.615C36.5492 309.939 33.7659 315.286 31.7351 321.633L33.6399 322.242ZM41.6476 306.885C45.0153 302.787 48.9577 299.718 53.4769 297.66L52.6481 295.84C47.834 298.032 43.6514 301.296 40.1024 305.615L41.6476 306.885ZM53.4769 297.66C58.0072 295.597 62.8859 294.562 68.125 294.562V292.562C62.6141 292.562 57.4511 293.653 52.6481 295.84L53.4769 297.66ZM75.6229 365.451C77.7861 364.744 79.789 363.642 81.6292 362.152L80.3708 360.598C78.711 361.941 76.9223 362.922 75.0021 363.549L75.6229 365.451ZM81.6088 362.168C83.5041 360.714 85.1251 358.892 86.4749 356.714L84.7751 355.661C83.5416 357.65 82.0792 359.286 80.3912 360.582L81.6088 362.168ZM86.4673 356.727C87.8627 354.546 88.9421 352.034 89.7148 349.201L87.7852 348.674C87.0579 351.341 86.0539 353.662 84.7827 355.648L86.4673 356.727ZM89.7148 349.201C90.4914 346.353 90.875 343.242 90.875 339.875H88.875C88.875 343.091 88.5086 346.022 87.7852 348.674L89.7148 349.201ZM90.875 339.875C90.875 336.3 90.4708 333.022 89.6516 330.047L87.7234 330.578C88.4875 333.353 88.875 336.45 88.875 339.875H90.875ZM89.6516 330.047C88.8391 327.096 87.7422 324.485 86.3517 322.226L84.6483 323.274C85.9245 325.348 86.9526 327.779 87.7234 330.578L89.6516 330.047ZM86.3517 322.226C84.9681 319.978 83.3576 318.08 81.5152 316.544L80.2348 318.081C81.8924 319.462 83.3652 321.189 84.6483 323.274L86.3517 322.226ZM81.5042 316.535C79.6708 315.051 77.714 313.949 75.6348 313.241L74.9902 315.134C76.8276 315.76 78.5792 316.741 80.2458 318.09L81.5042 316.535ZM74.3125 314.188L74.3125 364.5H76.3125L76.3125 314.188H74.3125ZM104.75 404.062H105.75V403.062H104.75V404.062ZM104.75 422.562V423.562H105.75V422.562H104.75ZM94.125 422.562V421.562H92.1332L93.323 423.16L94.125 422.562ZM107.063 449.062L107.368 450.015L108.268 449.726L108.03 448.812L107.063 449.062ZM90.125 454.5L89.1299 454.599L89.2523 455.83L90.4307 455.452L90.125 454.5ZM85.3125 435.688L84.4031 436.103L84.4045 436.107L85.3125 435.688ZM74.875 422.562L75.475 421.762L75.2083 421.562H74.875V422.562ZM31 422.562H30V423.562H31V422.562ZM31 404.062V403.062H30V404.062H31ZM103.75 404.062V422.562H105.75V404.062H103.75ZM104.75 421.562H94.125V423.562H104.75V421.562ZM93.323 423.16C96.3276 427.193 98.9199 431.452 101.101 435.937L102.899 435.063C100.663 430.464 98.0057 426.098 94.927 421.965L93.323 423.16ZM101.101 435.937C103.282 440.424 104.946 444.883 106.095 449.313L108.03 448.812C106.846 444.242 105.134 439.659 102.899 435.063L101.101 435.937ZM106.757 448.11L89.8193 453.548L90.4307 455.452L107.368 450.015L106.757 448.11ZM91.1201 454.401C90.4029 447.187 88.7754 440.804 86.2205 435.268L84.4045 436.107C86.8496 441.404 88.4304 447.563 89.1299 454.599L91.1201 454.401ZM86.2219 435.272C83.6978 429.753 80.1154 425.243 75.475 421.762L74.275 423.363C78.6346 426.632 82.0106 430.872 84.4031 436.103L86.2219 435.272ZM74.875 421.562H31V423.562H74.875V421.562ZM32 422.562V404.062H30V422.562H32ZM31 405.062H104.75V403.062H31V405.062ZM115.563 473.062L114.625 472.714L114.619 472.73L114.614 472.746L115.563 473.062ZM117.688 469.312L116.937 468.652L116.929 468.661L116.922 468.669L117.688 469.312ZM120.813 466.875L120.403 465.962L120.384 465.971L120.365 465.981L120.813 466.875ZM128.438 466.875L128.872 465.974L128.865 465.971L128.859 465.968L128.438 466.875ZM133.625 473.062L132.679 473.387L132.682 473.395L132.684 473.402L133.625 473.062ZM133.625 483.062L132.688 482.714L132.682 482.73L132.676 482.746L133.625 483.062ZM128.438 489.25L128.028 488.337L128.009 488.346L127.99 488.356L128.438 489.25ZM120.813 489.25L121.247 488.349L121.24 488.346L121.234 488.343L120.813 489.25ZM117.688 486.875L116.922 487.518L116.929 487.527L116.937 487.536L117.688 486.875ZM115.563 483.062L114.617 483.387L114.619 483.395L114.622 483.402L115.563 483.062ZM104.75 468.812H105.75V467.812H104.75V468.812ZM104.75 487.312V488.312H105.75V487.312H104.75ZM31 487.312H30V488.312H31V487.312ZM31 468.812V467.812H30V468.812H31ZM115.813 478.062C115.813 476.32 116.05 474.762 116.511 473.379L114.614 472.746C114.075 474.363 113.813 476.138 113.813 478.062H115.813ZM116.5 473.411C117.007 472.045 117.662 470.898 118.453 469.956L116.922 468.669C115.963 469.81 115.201 471.164 114.625 472.714L116.5 473.411ZM118.438 469.973C119.275 469.022 120.216 468.292 121.26 467.769L120.365 465.981C119.076 466.625 117.933 467.52 116.937 468.652L118.438 469.973ZM121.222 467.788C122.3 467.304 123.432 467.062 124.625 467.062V465.062C123.152 465.062 121.741 465.363 120.403 465.962L121.222 467.788ZM124.625 467.062C125.865 467.062 126.991 467.306 128.016 467.782L128.859 465.968C127.551 465.361 126.135 465.062 124.625 465.062V467.062ZM128.003 467.776C129.082 468.297 130.011 469.021 130.797 469.956L132.328 468.669C131.364 467.521 130.21 466.62 128.872 465.974L128.003 467.776ZM130.797 469.956C131.583 470.891 132.214 472.03 132.679 473.387L134.571 472.738C134.036 471.179 133.292 469.817 132.328 468.669L130.797 469.956ZM132.684 473.402C133.181 474.778 133.438 476.328 133.438 478.062H135.438C135.438 476.13 135.152 474.347 134.566 472.723L132.684 473.402ZM133.438 478.062C133.438 479.842 133.18 481.388 132.688 482.714L134.562 483.411C135.153 481.821 135.438 480.033 135.438 478.062H133.438ZM132.676 482.746C132.21 484.146 131.579 485.301 130.797 486.232L132.328 487.518C133.296 486.366 134.04 484.979 134.574 483.379L132.676 482.746ZM130.797 486.232C130.016 487.161 129.095 487.859 128.028 488.337L128.847 490.163C130.196 489.557 131.359 488.672 132.328 487.518L130.797 486.232ZM127.99 488.356C126.97 488.866 125.853 489.125 124.625 489.125V491.125C126.147 491.125 127.572 490.801 128.885 490.144L127.99 488.356ZM124.625 489.125C123.443 489.125 122.321 488.868 121.247 488.349L120.378 490.151C121.721 490.799 123.14 491.125 124.625 491.125V489.125ZM121.234 488.343C120.202 487.864 119.271 487.16 118.438 486.214L116.937 487.536C117.938 488.673 119.089 489.552 120.391 490.157L121.234 488.343ZM118.453 486.232C117.666 485.294 117.011 484.131 116.503 482.723L114.622 483.402C115.197 484.994 115.959 486.372 116.922 487.518L118.453 486.232ZM116.508 482.738C116.051 481.404 115.813 479.85 115.813 478.062H113.813C113.813 480.025 114.074 481.804 114.617 483.387L116.508 482.738ZM103.75 468.812V487.312H105.75V468.812H103.75ZM104.75 486.312H31V488.312H104.75V486.312ZM32 487.312V468.812H30V487.312H32ZM31 469.812H104.75V467.812H31V469.812ZM82.4375 510.625L82.0275 511.537L82.0306 511.538L82.4375 510.625ZM102.938 533.5L103.874 533.15L103.874 533.148L102.938 533.5ZM102.875 571.5L101.939 571.147L101.936 571.155L102.875 571.5ZM94.25 585.875L93.52 585.192L93.5164 585.195L94.25 585.875ZM81.3125 594.938L80.9251 594.016L80.9186 594.018L81.3125 594.938ZM63.0625 598.062L63.1124 597.064L63.0875 597.062H63.0625V598.062ZM60.875 597.938H59.875V598.82L60.751 598.93L60.875 597.938ZM60.875 528.188H61.875V526.767L60.5375 527.246L60.875 528.188ZM54.8125 532L54.122 531.277L54.1136 531.285L54.8125 532ZM46.9375 547.938L45.9596 547.728L45.9574 547.739L46.9375 547.938ZM47.1875 572.25L46.2084 572.454L46.2104 572.463L47.1875 572.25ZM50.625 584.312L51.0296 585.227L51.8804 584.851L51.5663 583.975L50.625 584.312ZM36.5 590.562L35.5934 590.985L36.0075 591.874L36.9046 591.477L36.5 590.562ZM33.5 583.188L32.5529 583.509L32.5561 583.518L33.5 583.188ZM31.375 575.438L30.3949 575.637L30.3974 575.648L31.375 575.438ZM30.125 567L31.1202 566.902L31.12 566.9L30.125 567ZM40.875 520.25L40.1024 519.615L40.875 520.25ZM75.3125 578.5H74.3125V579.878L75.6229 579.451L75.3125 578.5ZM81 575.375L80.3912 574.582L80.3809 574.59L80.3708 574.598L81 575.375ZM85.625 570.188L84.7827 569.648L84.7789 569.654L84.7751 569.661L85.625 570.188ZM80.875 531.312L81.5152 530.544L81.5097 530.54L81.5042 530.535L80.875 531.312ZM75.3125 528.188L75.6348 527.241L74.3125 526.791V528.188H75.3125ZM68.125 508.562C72.9843 508.562 77.6153 509.554 82.0275 511.537L82.8475 509.713C78.1764 507.613 73.2657 506.562 68.125 506.562V508.562ZM82.0306 511.538C86.4837 513.522 90.4136 516.377 93.824 520.112L95.301 518.763C91.7114 514.832 87.5579 511.811 82.8444 509.712L82.0306 511.538ZM93.824 520.112C97.2271 523.839 99.9566 528.413 102.001 533.852L103.874 533.148C101.752 527.504 98.8979 522.703 95.301 518.763L93.824 520.112ZM102.001 533.85C104.035 539.302 105.063 545.514 105.063 552.5H107.063C107.063 545.319 106.007 538.864 103.874 533.15L102.001 533.85ZM105.063 552.5C105.063 559.441 104.015 565.652 101.94 571.147L103.81 571.853C105.985 566.098 107.063 559.642 107.063 552.5H105.063ZM101.936 571.155C99.8935 576.712 97.0844 581.384 93.52 585.192L94.98 586.558C98.7489 582.533 101.69 577.622 103.814 571.845L101.936 571.155ZM93.5164 585.195C89.9462 589.05 85.7517 591.988 80.9251 594.016L81.6999 595.859C86.79 593.721 91.2204 590.617 94.9836 586.555L93.5164 585.195ZM80.9186 594.018C76.091 596.087 70.9132 597.125 65.375 597.125V599.125C71.1701 599.125 76.6174 598.038 81.7064 595.857L80.9186 594.018ZM65.375 597.125C64.6859 597.125 63.932 597.105 63.1124 597.064L63.0126 599.061C63.8597 599.104 64.6474 599.125 65.375 599.125V597.125ZM63.0625 597.062C62.3052 597.062 61.6181 597.023 60.999 596.945L60.751 598.93C61.4653 599.019 62.2365 599.062 63.0625 599.062V597.062ZM61.875 597.938L61.875 528.188H59.875L59.875 597.938H61.875ZM60.5375 527.246C58.1873 528.089 56.0483 529.438 54.122 531.277L55.503 532.723C57.2434 531.062 59.1461 529.87 61.2125 529.129L60.5375 527.246ZM54.1136 531.285C52.1888 533.166 50.5432 535.49 49.1681 538.24L50.9569 539.135C52.2484 536.552 53.7695 534.418 55.5114 532.715L54.1136 531.285ZM49.1681 538.24C47.7904 540.996 46.724 544.161 45.9597 547.728L47.9153 548.147C48.651 544.714 49.6679 541.713 50.9569 539.135L49.1681 538.24ZM45.9574 547.739C45.2336 551.315 44.875 555.258 44.875 559.562H46.875C46.875 555.367 47.2247 551.56 47.9176 548.136L45.9574 547.739ZM44.875 559.562C44.875 563.882 45.3197 568.179 46.2084 572.454L48.1666 572.046C47.3053 567.904 46.875 563.743 46.875 559.562H44.875ZM46.2104 572.463C47.1358 576.711 48.2933 580.774 49.6837 584.65L51.5663 583.975C50.2067 580.185 49.0726 576.206 48.1646 572.037L46.2104 572.463ZM50.2204 583.398L36.0954 589.648L36.9046 591.477L51.0296 585.227L50.2204 583.398ZM37.4066 590.14C36.2954 587.754 35.3079 585.326 34.4439 582.857L32.5561 583.518C33.4421 586.049 34.4546 588.538 35.5934 590.985L37.4066 590.14ZM34.4471 582.866C33.6268 580.447 32.9284 577.9 32.3526 575.227L30.3974 575.648C30.9883 578.391 31.7065 581.012 32.5529 583.509L34.4471 582.866ZM32.355 575.238C31.8207 572.608 31.4088 569.829 31.1202 566.902L29.1298 567.098C29.4245 570.087 29.846 572.934 30.395 575.637L32.355 575.238ZM31.12 566.9C30.832 564.02 30.6875 560.97 30.6875 557.75H28.6875C28.6875 561.03 28.8347 564.146 29.13 567.1L31.12 566.9ZM30.6875 557.75C30.6875 549.536 31.6785 542.372 33.6399 536.242L31.7351 535.633C29.6965 542.003 28.6875 549.381 28.6875 557.75H30.6875ZM33.6399 536.242C35.6091 530.089 38.2841 524.978 41.6476 520.885L40.1024 519.615C36.5492 523.939 33.7659 529.286 31.7351 535.633L33.6399 536.242ZM41.6476 520.885C45.0153 516.787 48.9577 513.718 53.4769 511.66L52.6481 509.84C47.834 512.032 43.6514 515.296 40.1024 519.615L41.6476 520.885ZM53.4769 511.66C58.0072 509.597 62.8859 508.562 68.125 508.562V506.562C62.6141 506.562 57.4511 507.653 52.6481 509.84L53.4769 511.66ZM75.6229 579.451C77.7861 578.744 79.789 577.642 81.6292 576.152L80.3708 574.598C78.711 575.941 76.9223 576.922 75.0021 577.549L75.6229 579.451ZM81.6088 576.168C83.5041 574.714 85.1251 572.892 86.4749 570.714L84.7751 569.661C83.5416 571.65 82.0792 573.286 80.3912 574.582L81.6088 576.168ZM86.4673 570.727C87.8627 568.546 88.9421 566.034 89.7148 563.201L87.7852 562.674C87.0579 565.341 86.0539 567.662 84.7827 569.648L86.4673 570.727ZM89.7148 563.201C90.4914 560.353 90.875 557.242 90.875 553.875H88.875C88.875 557.091 88.5086 560.022 87.7852 562.674L89.7148 563.201ZM90.875 553.875C90.875 550.3 90.4708 547.022 89.6516 544.047L87.7234 544.578C88.4875 547.353 88.875 550.45 88.875 553.875H90.875ZM89.6516 544.047C88.8391 541.096 87.7422 538.485 86.3517 536.226L84.6483 537.274C85.9245 539.348 86.9526 541.779 87.7234 544.578L89.6516 544.047ZM86.3517 536.226C84.9681 533.978 83.3576 532.08 81.5152 530.544L80.2348 532.081C81.8924 533.462 83.3652 535.189 84.6483 537.274L86.3517 536.226ZM81.5042 530.535C79.6708 529.051 77.714 527.949 75.6348 527.241L74.9902 529.134C76.8276 529.76 78.5792 530.741 80.2458 532.09L81.5042 530.535ZM74.3125 528.188L74.3125 578.5H76.3125L76.3125 528.188H74.3125ZM104.75 618.062H105.75V617.062H104.75V618.062ZM104.75 636.562V637.562H105.75V636.562H104.75ZM98.5 636.562V635.562H96.7822L97.6304 637.056L98.5 636.562ZM104.375 650.625L105.345 650.382L105.345 650.38L104.375 650.625ZM103.563 679.438L102.618 679.109L102.615 679.116L103.563 679.438ZM84.0625 700.062L83.6897 699.135L83.6801 699.138L84.0625 700.062ZM31 703.062H30V704.062H31V703.062ZM31 684.625V683.625H30V684.625H31ZM75.0625 682.875L74.7316 681.931L74.7242 681.934L74.7168 681.937L75.0625 682.875ZM83.125 677.938L82.4316 677.217L82.4247 677.224L82.4179 677.23L83.125 677.938ZM88.125 670.125L87.1913 669.767L87.1884 669.775L87.1856 669.782L88.125 670.125ZM89.25 653.688L90.2313 653.495L90.2306 653.491L89.25 653.688ZM87.4375 647.5L86.5011 647.851L86.5051 647.862L87.4375 647.5ZM84.5625 641.688L83.705 642.202L83.7092 642.209L83.7134 642.216L84.5625 641.688ZM80.6875 636.562L81.414 635.875L81.1181 635.562H80.6875V636.562ZM31 636.562H30V637.562H31V636.562ZM31 618.062V617.062H30V618.062H31ZM103.75 618.062L103.75 636.562H105.75L105.75 618.062H103.75ZM104.75 635.562H98.5V637.562H104.75V635.562ZM97.6304 637.056C100.387 641.912 102.307 646.516 103.405 650.87L105.345 650.38C104.193 645.818 102.196 641.046 99.3696 636.069L97.6304 637.056ZM103.405 650.868C104.512 655.295 105.063 659.609 105.063 663.812H107.063C107.063 659.433 106.488 654.955 105.345 650.382L103.405 650.868ZM105.063 663.812C105.063 669.338 104.244 674.434 102.618 679.109L104.507 679.766C106.214 674.858 107.063 669.537 107.063 663.812H105.063ZM102.615 679.116C101.033 683.783 98.6656 687.804 95.5172 691.195L96.9828 692.555C100.334 688.946 102.842 684.676 104.51 679.759L102.615 679.116ZM95.5172 691.195C92.3772 694.576 88.4418 697.226 83.6897 699.135L84.4353 700.99C89.4332 698.983 93.6228 696.174 96.9828 692.555L95.5172 691.195ZM83.6801 699.138C78.9914 701.079 73.5217 702.062 67.25 702.062V704.062C73.7283 704.062 79.4669 703.046 84.4449 700.987L83.6801 699.138ZM67.25 702.062H31V704.062H67.25V702.062ZM32 703.062V684.625H30V703.062H32ZM31 685.625H64.25V683.625H31V685.625ZM64.25 685.625C68.3869 685.625 72.1114 685.028 75.4082 683.813L74.7168 681.937C71.6803 683.055 68.1964 683.625 64.25 683.625V685.625ZM75.3934 683.819C78.7276 682.65 81.5482 680.928 83.8321 678.645L82.4179 677.23C80.3684 679.28 77.814 680.85 74.7316 681.931L75.3934 683.819ZM83.8184 678.658C86.1441 676.42 87.891 673.684 89.0644 670.468L87.1856 669.782C86.109 672.733 84.5226 675.205 82.4316 677.217L83.8184 678.658ZM89.0587 670.483C90.2757 667.31 90.875 663.769 90.875 659.875H88.875C88.875 663.564 88.3076 666.857 87.1913 669.767L89.0587 670.483ZM90.875 659.875C90.875 657.805 90.6594 655.678 90.2313 653.495L88.2687 653.88C88.6739 655.947 88.875 657.945 88.875 659.875H90.875ZM90.2306 653.491C89.8023 651.35 89.1817 649.232 88.3699 647.138L86.5051 647.862C87.2766 649.851 87.8644 651.858 88.2694 653.884L90.2306 653.491ZM88.3738 647.149C87.5999 645.085 86.6119 643.088 85.4116 641.159L83.7134 642.216C84.8464 644.037 85.7751 645.915 86.5012 647.851L88.3738 647.149ZM85.42 641.173C84.2588 639.238 82.9236 637.471 81.414 635.875L79.961 637.25C81.3681 638.737 82.6162 640.387 83.705 642.202L85.42 641.173ZM80.6875 635.562H31V637.562H80.6875V635.562ZM32 636.562V618.062H30V636.562H32ZM31 619.062H104.75V617.062H31V619.062ZM82.8125 724.312L83.2035 723.392L83.1995 723.39L82.8125 724.312ZM95 733L94.2571 733.669L94.2575 733.67L95 733ZM103.125 747L104.068 746.667L104.067 746.665L103.125 747ZM103.875 784.25L102.904 784.011L102.902 784.019L102.9 784.027L103.875 784.25ZM101.438 792.438L100.502 792.085L100.499 792.091L100.497 792.098L101.438 792.438ZM98.375 799.062L97.8515 799.915L98.7126 800.444L99.2325 799.577L98.375 799.062ZM84.4375 790.5L83.5304 790.079L83.1559 790.886L83.914 791.352L84.4375 790.5ZM88.5625 779L87.591 778.763L87.5904 778.765L88.5625 779ZM88.1875 756.625L87.2353 756.931L87.2388 756.941L88.1875 756.625ZM83.5625 748L82.7965 748.643L82.7976 748.644L83.5625 748ZM76.5625 742.625L76.9816 741.717L76.9752 741.714L76.5625 742.625ZM59 742.75L58.5695 741.847L58.5611 741.851L58.5528 741.856L59 742.75ZM52.0625 748.312L51.291 747.676L51.2849 747.684L51.279 747.691L52.0625 748.312ZM47.5 757L46.5513 756.684L46.549 756.691L46.5468 756.698L47.5 757ZM47.8125 781.312L48.7659 781.011L48.765 781.008L47.8125 781.312ZM53 792.688L53.5235 793.54L54.3784 793.014L53.8503 792.161L53 792.688ZM39.0625 801.25L38.2064 801.767L38.7273 802.63L39.586 802.102L39.0625 801.25ZM35.3125 794.062L34.3956 794.462L34.4011 794.474L35.3125 794.062ZM32.375 785.75L33.3375 785.479L33.3365 785.475L32.375 785.75ZM30.4375 776.5L31.4277 776.36L31.4267 776.353L31.4256 776.346L30.4375 776.5ZM40.5 733.375L39.7499 732.714L39.7459 732.718L40.5 733.375ZM52.5625 724.438L52.1586 723.523L52.1518 723.526L52.5625 724.438ZM67.6875 722.375C72.9807 722.375 77.8898 723.331 82.4255 725.235L83.1995 723.39C78.4018 721.377 73.2276 720.375 67.6875 720.375V722.375ZM82.4215 725.233C86.996 727.176 90.9383 729.986 94.2571 733.669L95.7429 732.331C92.2284 728.43 88.0457 725.449 83.2035 723.392L82.4215 725.233ZM94.2575 733.67C97.6173 737.394 100.263 741.943 102.183 747.335L104.067 746.665C102.07 741.057 99.2994 736.273 95.7425 732.33L94.2575 733.67ZM102.182 747.333C104.096 752.748 105.063 758.945 105.063 765.938H107.063C107.063 758.763 106.071 752.335 104.068 746.667L102.182 747.333ZM105.063 765.938C105.063 768.98 104.877 772.045 104.507 775.131L106.493 775.369C106.873 772.205 107.063 769.061 107.063 765.938H105.063ZM104.507 775.131C104.137 778.218 103.602 781.178 102.904 784.011L104.846 784.489C105.565 781.572 106.113 778.532 106.493 775.369L104.507 775.131ZM102.9 784.027C102.243 786.904 101.443 789.589 100.502 792.085L102.373 792.79C103.349 790.202 104.174 787.429 104.85 784.473L102.9 784.027ZM100.497 792.098C99.5972 794.593 98.6025 796.74 97.5175 798.548L99.2325 799.577C100.398 797.635 101.444 795.366 102.378 792.777L100.497 792.098ZM98.8985 798.21L84.961 789.648L83.914 791.352L97.8515 799.915L98.8985 798.21ZM85.3446 790.921C87.2422 786.831 88.6415 782.935 89.5346 779.235L87.5904 778.765C86.7335 782.315 85.3828 786.086 83.5304 790.079L85.3446 790.921ZM89.534 779.237C90.428 775.576 90.875 771.85 90.875 768.062H88.875C88.875 771.691 88.447 775.258 87.591 778.763L89.534 779.237ZM90.875 768.062C90.875 763.725 90.301 759.803 89.1362 756.309L87.2388 756.941C88.324 760.197 88.875 763.9 88.875 768.062H90.875ZM89.1397 756.319C88.0221 752.838 86.4223 749.844 84.3274 747.356L82.7976 748.644C84.7027 750.906 86.1862 753.662 87.2353 756.931L89.1397 756.319ZM84.3285 747.357C82.2775 744.913 79.8265 743.03 76.9816 741.717L76.1434 743.533C78.7151 744.72 80.9308 746.42 82.7965 748.643L84.3285 747.357ZM76.9752 741.714C74.1686 740.442 71.1097 739.812 67.8125 739.812V741.812C70.8486 741.812 73.6231 742.391 76.1498 743.536L76.9752 741.714ZM67.8125 739.812C64.5053 739.812 61.4197 740.488 58.5695 741.847L59.4305 743.653C61.9969 742.429 64.7863 741.812 67.8125 741.812V739.812ZM58.5528 741.856C55.7571 743.253 53.3352 745.197 51.291 747.676L52.834 748.949C54.7065 746.678 56.9096 744.913 59.4472 743.644L58.5528 741.856ZM51.279 747.691C49.2797 750.212 47.7076 753.215 46.5513 756.684L48.4487 757.316C49.5424 754.035 51.0119 751.246 52.846 748.934L51.279 747.691ZM46.5468 756.698C45.4279 760.227 44.875 764.122 44.875 768.375H46.875C46.875 764.295 47.4055 760.607 48.4532 757.302L46.5468 756.698ZM44.875 768.375C44.875 773.053 45.5344 777.469 46.86 781.617L48.765 781.008C47.5072 777.072 46.875 772.863 46.875 768.375H44.875ZM46.8591 781.614C48.1747 785.773 49.9378 789.641 52.1497 793.214L53.8503 792.161C51.7289 788.734 50.0337 785.019 48.7659 781.011L46.8591 781.614ZM52.4765 791.835L38.539 800.398L39.586 802.102L53.5235 793.54L52.4765 791.835ZM39.9186 800.733C38.6076 798.562 37.3758 796.202 36.2239 793.651L34.4011 794.474C35.5825 797.09 36.8507 799.521 38.2064 801.767L39.9186 800.733ZM36.2293 793.663C35.124 791.125 34.1597 788.397 33.3375 785.479L31.4125 786.021C32.257 789.019 33.251 791.833 34.3957 794.462L36.2293 793.663ZM33.3365 785.475C32.5168 782.606 31.8801 779.568 31.4277 776.36L29.4473 776.64C29.9115 779.932 30.5665 783.06 31.4135 786.025L33.3365 785.475ZM31.4256 776.346C30.934 773.192 30.6875 769.91 30.6875 766.5H28.6875C28.6875 770.007 28.941 773.392 29.4494 776.654L31.4256 776.346ZM30.6875 766.5C30.6875 759.548 31.6337 753.348 33.5083 747.887L31.6167 747.238C29.658 752.944 28.6875 759.369 28.6875 766.5H30.6875ZM33.5083 747.887C35.3893 742.408 37.9755 737.796 41.2541 734.032L39.7459 732.718C36.2745 736.704 33.5691 741.55 31.6167 747.238L33.5083 747.887ZM41.2501 734.036C44.5745 730.266 48.4803 727.373 52.9732 725.349L52.1518 723.526C47.3947 725.669 43.2588 728.734 39.7499 732.714L41.2501 734.036ZM52.9663 725.352C57.4542 723.371 62.357 722.375 67.6875 722.375V720.375C62.1013 720.375 56.9208 721.42 52.1587 723.523L52.9663 725.352ZM82.4375 820.75L82.0275 821.662L82.0306 821.663L82.4375 820.75ZM102.938 843.625L103.874 843.275L103.874 843.273L102.938 843.625ZM102.875 881.625L101.939 881.272L101.936 881.28L102.875 881.625ZM94.25 896L93.52 895.317L93.5164 895.32L94.25 896ZM81.3125 905.062L80.9251 904.141L80.9186 904.143L81.3125 905.062ZM63.0625 908.188L63.1124 907.189L63.0875 907.188H63.0625V908.188ZM60.875 908.062H59.875V908.945L60.751 909.055L60.875 908.062ZM60.875 838.312H61.875V836.892L60.5375 837.371L60.875 838.312ZM54.8125 842.125L54.122 841.402L54.1136 841.41L54.8125 842.125ZM46.9375 858.062L45.9596 857.853L45.9574 857.864L46.9375 858.062ZM47.1875 882.375L46.2084 882.579L46.2104 882.588L47.1875 882.375ZM50.625 894.438L51.0296 895.352L51.8804 894.976L51.5663 894.1L50.625 894.438ZM36.5 900.688L35.5934 901.11L36.0075 901.999L36.9046 901.602L36.5 900.688ZM33.5 893.312L32.5529 893.634L32.5561 893.643L33.5 893.312ZM31.375 885.562L30.3949 885.762L30.3974 885.773L31.375 885.562ZM30.125 877.125L31.1202 877.027L31.12 877.025L30.125 877.125ZM40.875 830.375L40.1024 829.74L40.875 830.375ZM75.3125 888.625H74.3125V890.003L75.6229 889.576L75.3125 888.625ZM81 885.5L80.3912 884.707L80.3809 884.715L80.3708 884.723L81 885.5ZM85.625 880.312L84.7827 879.773L84.7789 879.779L84.7751 879.786L85.625 880.312ZM80.875 841.438L81.5152 840.669L81.5097 840.665L81.5042 840.66L80.875 841.438ZM75.3125 838.312L75.6348 837.366L74.3125 836.916V838.312H75.3125ZM68.125 818.688C72.9843 818.688 77.6153 819.679 82.0275 821.662L82.8475 819.838C78.1764 817.738 73.2657 816.688 68.125 816.688V818.688ZM82.0306 821.663C86.4837 823.647 90.4136 826.502 93.824 830.237L95.301 828.888C91.7114 824.957 87.5579 821.936 82.8444 819.837L82.0306 821.663ZM93.824 830.237C97.2271 833.964 99.9566 838.538 102.001 843.977L103.874 843.273C101.752 837.629 98.8979 832.828 95.301 828.888L93.824 830.237ZM102.001 843.975C104.035 849.427 105.063 855.639 105.063 862.625H107.063C107.063 855.444 106.007 848.989 103.874 843.275L102.001 843.975ZM105.063 862.625C105.063 869.566 104.015 875.777 101.94 881.272L103.81 881.978C105.985 876.223 107.063 869.767 107.063 862.625H105.063ZM101.936 881.28C99.8935 886.837 97.0844 891.509 93.52 895.317L94.98 896.683C98.7489 892.658 101.69 887.747 103.814 881.97L101.936 881.28ZM93.5164 895.32C89.9462 899.175 85.7517 902.113 80.9251 904.141L81.6999 905.984C86.79 903.846 91.2204 900.742 94.9836 896.68L93.5164 895.32ZM80.9186 904.143C76.091 906.212 70.9132 907.25 65.375 907.25V909.25C71.1701 909.25 76.6174 908.163 81.7064 905.982L80.9186 904.143ZM65.375 907.25C64.6859 907.25 63.932 907.23 63.1124 907.189L63.0126 909.186C63.8597 909.229 64.6474 909.25 65.375 909.25V907.25ZM63.0625 907.188C62.3052 907.188 61.6181 907.148 60.999 907.07L60.751 909.055C61.4653 909.144 62.2365 909.188 63.0625 909.188V907.188ZM61.875 908.062V838.312H59.875V908.062H61.875ZM60.5375 837.371C58.1873 838.214 56.0483 839.563 54.122 841.402L55.503 842.848C57.2434 841.187 59.1461 839.995 61.2125 839.254L60.5375 837.371ZM54.1136 841.41C52.1888 843.291 50.5432 845.615 49.1681 848.365L50.9569 849.26C52.2484 846.677 53.7695 844.543 55.5114 842.84L54.1136 841.41ZM49.1681 848.365C47.7904 851.121 46.724 854.286 45.9597 857.853L47.9153 858.272C48.651 854.839 49.6679 851.838 50.9569 849.26L49.1681 848.365ZM45.9574 857.864C45.2336 861.44 44.875 865.383 44.875 869.688H46.875C46.875 865.492 47.2247 861.685 47.9176 858.261L45.9574 857.864ZM44.875 869.688C44.875 874.007 45.3197 878.304 46.2084 882.579L48.1666 882.171C47.3053 878.029 46.875 873.868 46.875 869.688H44.875ZM46.2104 882.588C47.1358 886.836 48.2933 890.899 49.6837 894.775L51.5663 894.1C50.2067 890.31 49.0726 886.331 48.1646 882.162L46.2104 882.588ZM50.2204 893.523L36.0954 899.773L36.9046 901.602L51.0296 895.352L50.2204 893.523ZM37.4066 900.265C36.2954 897.879 35.3079 895.451 34.4439 892.982L32.5561 893.643C33.4421 896.174 34.4546 898.663 35.5934 901.11L37.4066 900.265ZM34.4471 892.991C33.6268 890.572 32.9284 888.025 32.3526 885.352L30.3974 885.773C30.9883 888.516 31.7065 891.137 32.5529 893.634L34.4471 892.991ZM32.355 885.363C31.8207 882.733 31.4088 879.954 31.1202 877.027L29.1298 877.223C29.4245 880.212 29.846 883.059 30.395 885.762L32.355 885.363ZM31.12 877.025C30.832 874.145 30.6875 871.095 30.6875 867.875H28.6875C28.6875 871.155 28.8347 874.271 29.13 877.225L31.12 877.025ZM30.6875 867.875C30.6875 859.661 31.6785 852.497 33.6399 846.367L31.7351 845.758C29.6965 852.128 28.6875 859.506 28.6875 867.875H30.6875ZM33.6399 846.367C35.6091 840.214 38.2841 835.103 41.6476 831.01L40.1024 829.74C36.5492 834.064 33.7659 839.411 31.7351 845.758L33.6399 846.367ZM41.6476 831.01C45.0153 826.912 48.9577 823.843 53.4769 821.785L52.6481 819.965C47.834 822.157 43.6514 825.421 40.1024 829.74L41.6476 831.01ZM53.4769 821.785C58.0072 819.722 62.8859 818.688 68.125 818.688V816.688C62.6141 816.688 57.4511 817.778 52.6481 819.965L53.4769 821.785ZM75.6229 889.576C77.7861 888.869 79.789 887.767 81.6292 886.277L80.3708 884.723C78.711 886.066 76.9223 887.047 75.0021 887.674L75.6229 889.576ZM81.6088 886.293C83.5041 884.839 85.1251 883.017 86.4749 880.839L84.7751 879.786C83.5416 881.775 82.0792 883.411 80.3912 884.707L81.6088 886.293ZM86.4673 880.852C87.8627 878.671 88.9421 876.159 89.7148 873.326L87.7852 872.799C87.0579 875.466 86.0539 877.787 84.7827 879.773L86.4673 880.852ZM89.7148 873.326C90.4914 870.478 90.875 867.367 90.875 864H88.875C88.875 867.216 88.5086 870.147 87.7852 872.799L89.7148 873.326ZM90.875 864C90.875 860.425 90.4708 857.147 89.6516 854.172L87.7234 854.703C88.4875 857.478 88.875 860.575 88.875 864H90.875ZM89.6516 854.172C88.8391 851.221 87.7422 848.61 86.3517 846.351L84.6483 847.399C85.9245 849.473 86.9526 851.904 87.7234 854.703L89.6516 854.172ZM86.3517 846.351C84.9681 844.103 83.3576 842.205 81.5152 840.669L80.2348 842.206C81.8924 843.587 83.3652 845.314 84.6483 847.399L86.3517 846.351ZM81.5042 840.66C79.6708 839.176 77.714 838.074 75.6348 837.366L74.9902 839.259C76.8276 839.885 78.5792 840.866 80.2458 842.215L81.5042 840.66ZM74.3125 838.312V888.625H76.3125V838.312H74.3125Z" fill="#464646"/>
</svg>
