<svg width="106" height="1053" viewBox="0 0 106 1053" fill="none" xmlns="http://www.w3.org/2000/svg">
<path d="M6.3125 1052.12H5.3125V1053.12H6.3125V1052.12ZM8.6875 982.938L9.6485 983.214L9.65039 983.207L8.6875 982.938ZM26.25 961.188L26.6308 962.112L26.6385 962.109L26.25 961.188ZM51.0625 959.812L51.3225 958.847L51.3194 958.846L51.0625 959.812ZM60.0625 963.875L59.5078 964.707L59.5166 964.713L60.0625 963.875ZM67.4375 970.688L68.2288 970.076L68.223 970.069L67.4375 970.688ZM72.75 980.375L71.8158 980.732L72.267 981.913L73.3123 981.202L72.75 980.375ZM104 959.125H105V957.236L103.438 958.298L104 959.125ZM104 983.375L104.552 984.209L105 983.912V983.375H104ZM76.25 1001.75L75.6979 1000.92L75.25 1001.21V1001.75H76.25ZM76.25 1002.31L77.25 1002.31V1002.31H76.25ZM76.1875 1032.31L75.1875 1032.31L75.1854 1033.31H76.1875V1032.31ZM104 1032.31H105V1031.31H104V1032.31ZM104 1052.12V1053.12H105V1052.12H104ZM57.75 992.125L56.7945 992.42L56.7958 992.424L57.75 992.125ZM54.0625 985.062L53.2915 985.699L53.2985 985.708L54.0625 985.062ZM48.3125 980.812L47.9267 981.735L47.9352 981.739L48.3125 980.812ZM28.0625 985L28.8434 985.625L28.8476 985.619L28.0625 985ZM23.5625 1032.31H22.5625V1033.31H23.5625V1032.31ZM59.0625 1032.31V1033.31H60.0625V1032.31H59.0625ZM7.3125 1052.12L7.3125 1002.44H5.3125L5.3125 1052.12H7.3125ZM7.3125 1002.44C7.3125 995.004 8.09761 988.601 9.64847 983.214L7.72653 982.661C6.11072 988.274 5.3125 994.871 5.3125 1002.44H7.3125ZM9.65039 983.207C11.1629 977.811 13.3578 973.38 16.2123 969.882L14.6627 968.618C11.6005 972.37 9.2954 977.064 7.72461 982.668L9.65039 983.207ZM16.2123 969.882C19.0675 966.384 22.5372 963.798 26.6307 962.112L25.8693 960.263C21.4628 962.077 17.7241 964.866 14.6627 968.618L16.2123 969.882ZM26.6385 962.109C30.7469 960.377 35.4241 959.5 40.6875 959.5V957.5C35.2009 957.5 30.2531 958.415 25.8615 960.266L26.6385 962.109ZM40.6875 959.5C44.2313 959.5 47.603 959.928 50.8056 960.779L51.3194 958.846C47.9387 957.947 44.3937 957.5 40.6875 957.5V959.5ZM50.8025 960.778C53.9496 961.625 56.8498 962.935 59.5078 964.707L60.6172 963.043C57.7752 961.148 54.6754 959.75 51.3225 958.847L50.8025 960.778ZM59.5166 964.713C62.1694 966.441 64.5482 968.636 66.652 971.306L68.223 970.069C65.9934 967.239 63.4556 964.892 60.6084 963.037L59.5166 964.713ZM66.6462 971.299C68.7036 973.961 70.4292 977.102 71.8158 980.732L73.6842 980.018C72.2374 976.231 70.4214 972.914 68.2288 970.076L66.6462 971.299ZM73.3123 981.202L104.562 959.952L103.438 958.298L72.1877 979.548L73.3123 981.202ZM103 959.125V983.375H105V959.125H103ZM103.448 982.541L75.6979 1000.92L76.8021 1002.58L104.552 984.209L103.448 982.541ZM75.25 1001.75V1002.31H77.25V1001.75H75.25ZM75.25 1002.31L75.1875 1032.31L77.1875 1032.31L77.25 1002.31L75.25 1002.31ZM76.1875 1033.31H104V1031.31H76.1875V1033.31ZM103 1032.31V1052.12H105V1032.31H103ZM104 1051.12H6.3125V1053.12H104V1051.12ZM60.0625 1001.94C60.0625 998.113 59.6167 994.737 58.7042 991.826L56.7958 992.424C57.6333 995.096 58.0625 998.262 58.0625 1001.94H60.0625ZM58.7055 991.83C57.7989 988.894 56.5126 986.414 54.8265 984.417L53.2985 985.708C54.7791 987.461 55.9511 989.689 56.7945 992.42L58.7055 991.83ZM54.8335 984.426C53.1474 982.385 51.0966 980.867 48.6898 979.886L47.9352 981.739C50.0284 982.591 51.811 983.907 53.2915 985.699L54.8335 984.426ZM48.6983 979.89C46.2702 978.875 43.5952 978.375 40.6875 978.375V980.375C43.3631 980.375 45.7715 980.834 47.9267 981.735L48.6983 979.89ZM40.6875 978.375C34.9724 978.375 30.454 980.354 27.2774 984.381L28.8476 985.619C31.5877 982.146 35.4859 980.375 40.6875 980.375V978.375ZM27.2816 984.375C24.0789 988.379 22.5625 994.291 22.5625 1001.94H24.5625C24.5625 994.501 26.0461 989.121 28.8434 985.625L27.2816 984.375ZM22.5625 1001.94L22.5625 1032.31H24.5625L24.5625 1001.94H22.5625ZM23.5625 1033.31H59.0625V1031.31H23.5625V1033.31ZM60.0625 1032.31V1001.94H58.0625V1032.31H60.0625ZM52.5625 937.75L52.9725 936.838L52.9694 936.837L52.5625 937.75ZM32.0625 914.875L31.1256 915.225L31.1265 915.227L32.0625 914.875ZM32.125 876.875L33.0605 877.228L33.0636 877.22L32.125 876.875ZM40.75 862.5L41.48 863.183L41.4836 863.18L40.75 862.5ZM53.6875 853.438L54.0749 854.359L54.0814 854.357L53.6875 853.438ZM71.9375 850.312L71.8876 851.311L71.9125 851.312H71.9375V850.312ZM74.125 850.438H75.125V849.555L74.249 849.445L74.125 850.438ZM74.125 920.188H73.125V921.608L74.4625 921.129L74.125 920.188ZM80.1875 916.375L80.878 917.098L80.8864 917.09L80.1875 916.375ZM88.0625 900.438L89.0404 900.647L89.0426 900.636L88.0625 900.438ZM87.8125 876.125L88.7916 875.921L88.7896 875.912L87.8125 876.125ZM84.375 864.062L83.9704 863.148L83.1196 863.524L83.4337 864.4L84.375 864.062ZM98.5 857.812L99.4066 857.39L98.9925 856.501L98.0954 856.898L98.5 857.812ZM101.5 865.188L102.447 864.866L102.444 864.857L101.5 865.188ZM103.625 872.938L104.605 872.738L104.603 872.727L103.625 872.938ZM104.875 881.375L103.88 881.473L103.88 881.475L104.875 881.375ZM94.125 928.125L94.8976 928.76L94.125 928.125ZM59.6875 869.875H60.6875V868.497L59.3771 868.924L59.6875 869.875ZM54 873L54.6088 873.793L54.6191 873.785L54.6292 873.777L54 873ZM49.375 878.188L50.2173 878.727L50.2211 878.721L50.2249 878.714L49.375 878.188ZM54.125 917.062L53.4848 917.831L53.4903 917.835L53.4958 917.84L54.125 917.062ZM59.6875 920.188L59.3652 921.134L60.6875 921.584V920.188H59.6875ZM66.875 939.812C62.0157 939.812 57.3847 938.821 52.9725 936.838L52.1525 938.662C56.8236 940.762 61.7343 941.812 66.875 941.812V939.812ZM52.9694 936.837C48.5163 934.853 44.5864 931.998 41.176 928.263L39.699 929.612C43.2886 933.543 47.4421 936.564 52.1556 938.663L52.9694 936.837ZM41.176 928.263C37.7729 924.536 35.0434 919.962 32.9985 914.523L31.1265 915.227C33.2483 920.871 36.1021 925.672 39.699 929.612L41.176 928.263ZM32.9994 914.525C30.9648 909.073 29.9375 902.861 29.9375 895.875H27.9375C27.9375 903.056 28.9935 909.511 31.1256 915.225L32.9994 914.525ZM29.9375 895.875C29.9375 888.934 30.9848 882.723 33.0605 877.228L31.1895 876.522C29.0152 882.277 27.9375 888.733 27.9375 895.875H29.9375ZM33.0636 877.22C35.1065 871.663 37.9156 866.991 41.48 863.183L40.02 861.817C36.2511 865.842 33.3102 870.753 31.1864 876.53L33.0636 877.22ZM41.4836 863.18C45.0538 859.325 49.2483 856.387 54.0749 854.359L53.3001 852.516C48.21 854.654 43.7796 857.758 40.0164 861.82L41.4836 863.18ZM54.0814 854.357C58.909 852.288 64.0868 851.25 69.625 851.25V849.25C63.8299 849.25 58.3826 850.337 53.2936 852.518L54.0814 854.357ZM69.625 851.25C70.3141 851.25 71.068 851.27 71.8876 851.311L71.9874 849.314C71.1403 849.271 70.3526 849.25 69.625 849.25V851.25ZM71.9375 851.312C72.6948 851.312 73.3819 851.352 74.001 851.43L74.249 849.445C73.5347 849.356 72.7635 849.312 71.9375 849.312V851.312ZM73.125 850.438V920.188H75.125V850.438H73.125ZM74.4625 921.129C76.8127 920.286 78.9517 918.937 80.878 917.098L79.497 915.652C77.7566 917.313 75.8539 918.505 73.7875 919.246L74.4625 921.129ZM80.8864 917.09C82.8112 915.209 84.4568 912.885 85.8319 910.135L84.0431 909.24C82.7516 911.823 81.2305 913.957 79.4886 915.66L80.8864 917.09ZM85.8319 910.135C87.2096 907.379 88.276 904.214 89.0403 900.647L87.0847 900.228C86.349 903.661 85.3321 906.662 84.0431 909.24L85.8319 910.135ZM89.0426 900.636C89.7664 897.06 90.125 893.117 90.125 888.812H88.125C88.125 893.008 87.7753 896.815 87.0824 900.239L89.0426 900.636ZM90.125 888.812C90.125 884.493 89.6803 880.196 88.7916 875.921L86.8334 876.329C87.6947 880.471 88.125 884.632 88.125 888.812H90.125ZM88.7896 875.912C87.8642 871.664 86.7067 867.601 85.3163 863.725L83.4337 864.4C84.7933 868.19 85.9274 872.169 86.8354 876.338L88.7896 875.912ZM84.7796 864.977L98.9046 858.727L98.0954 856.898L83.9704 863.148L84.7796 864.977ZM97.5934 858.235C98.7046 860.621 99.6921 863.049 100.556 865.518L102.444 864.857C101.558 862.326 100.545 859.837 99.4066 857.39L97.5934 858.235ZM100.553 865.509C101.373 867.928 102.072 870.475 102.647 873.148L104.603 872.727C104.012 869.984 103.293 867.363 102.447 864.866L100.553 865.509ZM102.645 873.137C103.179 875.767 103.591 878.546 103.88 881.473L105.87 881.277C105.575 878.288 105.154 875.441 104.605 872.738L102.645 873.137ZM103.88 881.475C104.168 884.355 104.313 887.405 104.313 890.625H106.312C106.312 887.345 106.165 884.229 105.87 881.275L103.88 881.475ZM104.313 890.625C104.313 898.839 103.322 906.003 101.36 912.133L103.265 912.742C105.303 906.372 106.312 898.994 106.312 890.625H104.313ZM101.36 912.133C99.3909 918.286 96.7159 923.397 93.3524 927.49L94.8976 928.76C98.4508 924.436 101.234 919.089 103.265 912.742L101.36 912.133ZM93.3524 927.49C89.9847 931.588 86.0423 934.657 81.5231 936.715L82.3519 938.535C87.166 936.343 91.3486 933.079 94.8976 928.76L93.3524 927.49ZM81.5231 936.715C76.9928 938.778 72.1141 939.812 66.875 939.812V941.812C72.3859 941.812 77.5489 940.722 82.3519 938.535L81.5231 936.715ZM59.3771 868.924C57.2139 869.631 55.211 870.733 53.3708 872.223L54.6292 873.777C56.289 872.434 58.0777 871.453 59.9979 870.826L59.3771 868.924ZM53.3912 872.207C51.4959 873.661 49.8749 875.483 48.5251 877.661L50.2249 878.714C51.4584 876.725 52.9208 875.089 54.6088 873.793L53.3912 872.207ZM48.5327 877.648C47.1373 879.829 46.0579 882.341 45.2852 885.174L47.2148 885.701C47.9421 883.034 48.9461 880.713 50.2173 878.727L48.5327 877.648ZM45.2852 885.174C44.5086 888.022 44.125 891.133 44.125 894.5H46.125C46.125 891.284 46.4914 888.353 47.2148 885.701L45.2852 885.174ZM44.125 894.5C44.125 898.075 44.5292 901.353 45.3484 904.328L47.2766 903.797C46.5125 901.022 46.125 897.925 46.125 894.5H44.125ZM45.3484 904.328C46.1609 907.279 47.2578 909.89 48.6483 912.149L50.3517 911.101C49.0755 909.027 48.0474 906.596 47.2766 903.797L45.3484 904.328ZM48.6483 912.149C50.0319 914.397 51.6424 916.295 53.4848 917.831L54.7652 916.294C53.1076 914.913 51.6348 913.186 50.3517 911.101L48.6483 912.149ZM53.4958 917.84C55.3292 919.324 57.286 920.426 59.3652 921.134L60.0098 919.241C58.1724 918.615 56.4208 917.634 54.7542 916.285L53.4958 917.84ZM60.6875 920.188V869.875H58.6875V920.188H60.6875ZM71.0625 831.5L70.5952 832.384L71.0625 831.5ZM63.5625 824.562L64.3911 824.003L64.3859 823.995L63.5625 824.562ZM58.6875 813.062L59.6587 812.824L59.6571 812.818L58.6875 813.062ZM57.9375 782.625L58.9287 782.757L58.9289 782.756L57.9375 782.625ZM61 767.062L61.9683 767.312L62.322 765.94L60.9111 766.066L61 767.062ZM54.5625 769.188L55.0796 770.043L55.0876 770.039L54.5625 769.188ZM49.4375 774.25L50.262 774.816L50.2683 774.807L50.2745 774.797L49.4375 774.25ZM46.0625 782L47.0294 782.255L47.0303 782.252L46.0625 782ZM48.25 814.812L47.2885 815.087L47.2897 815.091L48.25 814.812ZM50.9375 822.062L51.2848 823L52.2996 822.624L51.845 821.642L50.9375 822.062ZM35.75 827.688L34.8086 828.025L35.1494 828.976L36.0973 828.625L35.75 827.688ZM33 818.75L32.0321 819.001L32.0329 819.004L33 818.75ZM30.875 808.938L31.8601 808.765L31.8579 808.753L30.875 808.938ZM39.5 758.5L40.1898 759.224L39.5 758.5ZM104 748.438H105V747.438H104V748.438ZM104 766.938V767.938H105V766.938H104ZM97.0625 766.938V765.938H95.316L96.2001 767.444L97.0625 766.938ZM100.25 773.25L99.3334 773.65L99.3362 773.656L100.25 773.25ZM104.625 789.25L103.634 789.384L103.635 789.391L103.636 789.399L104.625 789.25ZM103.438 814.125L104.398 814.402L104.399 814.4L103.438 814.125ZM90.5 831.625L90.9372 832.524L90.9447 832.521L90.9522 832.517L90.5 831.625ZM83.625 813.375L84.1106 814.249L84.1177 814.245L84.1247 814.241L83.625 813.375ZM86.5625 810.375L87.4062 810.912L87.412 810.903L87.4177 810.893L86.5625 810.375ZM88.625 805.125L89.594 805.372L89.5968 805.361L89.5994 805.35L88.625 805.125ZM88.5 787.875L87.5179 788.063L88.5 787.875ZM79 766.938L79.7282 766.252L79.4321 765.938H79V766.938ZM75.75 766.938V765.938H74.9911L74.7869 766.668L75.75 766.938ZM73.75 775.375L74.7312 775.568L74.7317 775.565L73.75 775.375ZM72.5 783.312L73.4912 783.445L73.4924 783.436L73.4935 783.427L72.5 783.312ZM71.8125 790.438L72.8109 790.494L72.811 790.493L71.8125 790.438ZM72.3125 804.875L73.2931 804.679L72.3125 804.875ZM74.1875 810.438L75.0713 809.97L75.066 809.96L75.0604 809.95L74.1875 810.438ZM80.75 832.812C77.3589 832.812 74.292 832.076 71.5298 830.616L70.5952 832.384C73.6664 834.007 77.0577 834.812 80.75 834.812V832.812ZM71.5298 830.616C68.7761 829.16 66.3944 826.968 64.3911 824.003L62.7339 825.122C64.8973 828.324 67.5156 830.756 70.5952 832.384L71.5298 830.616ZM64.3859 823.995C62.345 821.034 60.762 817.319 59.6587 812.824L57.7163 813.301C58.863 817.973 60.53 821.925 62.7391 825.13L64.3859 823.995ZM59.6571 812.818C58.5154 808.292 57.9375 803.002 57.9375 796.938H55.9375C55.9375 803.123 56.5263 808.583 57.7179 813.307L59.6571 812.818ZM57.9375 796.938C57.9375 792.445 58.2673 787.718 58.9287 782.757L56.9463 782.493C56.2744 787.532 55.9375 792.347 55.9375 796.938H57.9375ZM58.9289 782.756C59.5898 777.758 60.6026 772.61 61.9683 767.312L60.0317 766.813C58.6474 772.182 57.6185 777.409 56.9461 782.494L58.9289 782.756ZM60.9111 766.066C58.4259 766.288 56.1303 767.045 54.0374 768.336L55.0876 770.039C56.9113 768.913 58.9074 768.253 61.0889 768.059L60.9111 766.066ZM54.0454 768.332C51.9037 769.626 50.0904 771.424 48.6005 773.703L50.2745 774.797C51.618 772.742 53.2213 771.166 55.0796 770.043L54.0454 768.332ZM48.613 773.684C47.0765 775.923 45.9094 778.618 45.0947 781.748L47.0303 782.252C47.7989 779.299 48.8819 776.827 50.262 774.816L48.613 773.684ZM45.0956 781.745C44.2775 784.845 43.875 788.35 43.875 792.25H45.875C45.875 788.483 46.2641 785.155 47.0294 782.255L45.0956 781.745ZM43.875 792.25C43.875 794.372 44.0023 796.698 44.255 799.225L46.245 799.025C45.9977 796.552 45.875 794.294 45.875 792.25H43.875ZM44.255 799.225C44.508 801.755 44.8873 804.367 45.3921 807.059L47.3579 806.691C46.8627 804.05 46.492 801.495 46.245 799.025L44.255 799.225ZM45.3921 807.059C45.8979 809.757 46.53 812.433 47.2885 815.087L49.2115 814.538C48.47 811.942 47.8521 809.327 47.3579 806.691L45.3921 807.059ZM47.2897 815.091C48.0525 817.719 48.9655 820.183 50.03 822.483L51.845 821.642C50.8262 819.442 49.9475 817.073 49.2103 814.534L47.2897 815.091ZM50.5902 821.125L35.4027 826.75L36.0973 828.625L51.2848 823L50.5902 821.125ZM36.6914 827.35C35.7021 824.588 34.7938 821.637 33.9671 818.496L32.0329 819.004C32.8729 822.196 33.7979 825.203 34.8086 828.025L36.6914 827.35ZM33.9679 818.499C33.1415 815.317 32.4388 812.072 31.86 808.765L29.89 809.11C30.4779 812.469 31.1919 815.766 32.0321 819.001L33.9679 818.499ZM31.8579 808.753C31.2381 805.448 30.763 802.143 30.4325 798.838L28.4425 799.037C28.7787 802.399 29.2619 805.761 29.8921 809.122L31.8579 808.753ZM30.4325 798.838C30.1023 795.535 29.9375 792.339 29.9375 789.25H27.9375C27.9375 792.411 28.1061 795.673 28.4425 799.037L30.4325 798.838ZM29.9375 789.25C29.9375 775.616 33.4171 765.676 40.1898 759.224L38.8102 757.776C31.4996 764.741 27.9375 775.301 27.9375 789.25H29.9375ZM40.1898 759.224C46.9713 752.763 57.4652 749.438 71.875 749.438V747.438C57.2014 747.438 46.112 750.82 38.8102 757.776L40.1898 759.224ZM71.875 749.438H104V747.438H71.875V749.438ZM103 748.438V766.938H105V748.438H103ZM104 765.938H97.0625V767.938H104V765.938ZM96.2001 767.444C97.3026 769.322 98.3474 771.39 99.3335 773.65L101.167 772.85C100.153 770.526 99.0724 768.386 97.9249 766.431L96.2001 767.444ZM99.3362 773.656C100.314 775.857 101.174 778.27 101.912 780.896L103.838 780.354C103.076 777.647 102.186 775.143 101.164 772.844L99.3362 773.656ZM101.912 780.896C102.648 783.512 103.223 786.341 103.634 789.384L105.616 789.116C105.194 785.992 104.602 783.071 103.838 780.354L101.912 780.896ZM103.636 789.399C104.086 792.386 104.313 795.565 104.313 798.938H106.313C106.313 795.476 106.08 792.197 105.614 789.101L103.636 789.399ZM104.313 798.938C104.313 804.618 103.695 809.585 102.476 813.85L104.399 814.4C105.68 809.915 106.313 804.757 106.313 798.938H104.313ZM102.477 813.848C101.253 818.09 99.572 821.597 97.4527 824.396L99.0473 825.604C101.345 822.569 103.122 818.827 104.398 814.402L102.477 813.848ZM97.4527 824.396C95.3265 827.205 92.8573 829.309 90.0478 830.733L90.9522 832.517C94.0594 830.941 96.7568 828.629 99.0473 825.604L97.4527 824.396ZM90.0628 830.726C87.2058 832.114 84.1062 832.812 80.75 832.812V834.812C84.3938 834.812 87.7942 834.052 90.9372 832.524L90.0628 830.726ZM80.125 815.312C81.5143 815.312 82.8471 814.951 84.1106 814.249L83.1394 812.501C82.1529 813.049 81.1523 813.312 80.125 813.312V815.312ZM84.1247 814.241C85.3834 813.515 86.47 812.383 87.4062 810.912L85.7188 809.838C84.905 811.117 84.0333 811.985 83.1253 812.509L84.1247 814.241ZM87.4177 810.893C88.3169 809.41 89.0362 807.56 89.594 805.372L87.656 804.878C87.1305 806.94 86.4748 808.59 85.7073 809.857L87.4177 810.893ZM89.5994 805.35C90.1213 803.088 90.375 800.404 90.375 797.312H88.375C88.375 800.304 88.1287 802.829 87.6506 804.9L89.5994 805.35ZM90.375 797.312C90.375 794.002 90.0779 790.793 89.4821 787.687L87.5179 788.063C88.0888 791.04 88.375 794.123 88.375 797.312H90.375ZM89.4821 787.687C88.8898 784.598 88.1054 781.712 87.1269 779.032L85.2481 779.718C86.1863 782.288 86.9436 785.069 87.5179 788.063L89.4821 787.687ZM87.1269 779.032C86.1504 776.358 85.0214 773.927 83.7369 771.743L82.0131 772.757C83.2286 774.823 84.3079 777.142 85.2481 779.718L87.1269 779.032ZM83.7369 771.743C82.4587 769.57 81.1241 767.735 79.7282 766.252L78.2718 767.623C79.5426 768.973 80.7913 770.68 82.0131 772.757L83.7369 771.743ZM79 765.938H75.75V767.938H79V765.938ZM74.7869 766.668C73.9882 769.527 73.3153 772.366 72.7683 775.185L74.7317 775.565C75.2681 772.801 75.9284 770.015 76.7131 767.207L74.7869 766.668ZM72.7689 775.182C72.2225 777.956 71.8015 780.628 71.5065 783.198L73.4935 783.427C73.7818 780.914 74.1942 778.294 74.7311 775.568L72.7689 775.182ZM71.5088 783.18C71.1724 785.703 70.9406 788.104 70.814 790.382L72.811 790.493C72.9344 788.271 73.1609 785.922 73.4912 783.445L71.5088 783.18ZM70.8141 790.381C70.6884 792.602 70.625 794.56 70.625 796.25H72.625C72.625 794.607 72.6866 792.689 72.8109 790.494L70.8141 790.381ZM70.625 796.25C70.625 799.746 70.8561 802.692 71.3319 805.071L73.2931 804.679C72.8522 802.475 72.625 799.671 72.625 796.25H70.625ZM71.3319 805.071C71.8025 807.424 72.455 809.387 73.3146 810.925L75.0604 809.95C74.3366 808.654 73.7392 806.909 73.2931 804.679L71.3319 805.071ZM73.3037 810.905C74.1137 812.435 75.1284 813.606 76.3864 814.31L77.3636 812.565C76.5383 812.103 75.7613 811.273 75.0713 809.97L73.3037 810.905ZM76.3864 814.31C77.5679 814.972 78.8184 815.312 80.125 815.312V813.312C79.1816 813.312 78.2654 813.07 77.3636 812.565L76.3864 814.31ZM52.1875 725.438L51.7965 726.358L51.8005 726.36L52.1875 725.438ZM40 716.75L40.7429 716.081L40.7425 716.08L40 716.75ZM31.875 702.75L30.9321 703.083L30.9329 703.085L31.875 702.75ZM31.125 665.5L32.096 665.739L32.098 665.731L32.0999 665.723L31.125 665.5ZM33.5625 657.312L34.4982 657.665L34.5007 657.659L34.5032 657.652L33.5625 657.312ZM36.625 650.688L37.1485 649.835L36.2874 649.306L35.7675 650.173L36.625 650.688ZM50.5625 659.25L51.4696 659.671L51.8441 658.864L51.086 658.398L50.5625 659.25ZM46.4375 670.75L47.409 670.987L47.4096 670.985L46.4375 670.75ZM46.8125 693.125L47.7647 692.819L47.7612 692.809L46.8125 693.125ZM51.4375 701.75L52.2035 701.107L52.2024 701.106L51.4375 701.75ZM58.4375 707.125L58.0184 708.033L58.0248 708.036L58.4375 707.125ZM76 707L76.4305 707.903L76.4389 707.899L76.4472 707.894L76 707ZM82.9375 701.438L83.709 702.074L83.7151 702.066L83.721 702.059L82.9375 701.438ZM87.5 692.75L88.4487 693.066L88.451 693.059L88.4532 693.052L87.5 692.75ZM87.1875 668.438L86.2341 668.739L86.235 668.742L87.1875 668.438ZM82 657.062L81.4765 656.21L80.6216 656.736L81.1497 657.589L82 657.062ZM95.9375 648.5L96.7936 647.983L96.2727 647.12L95.414 647.648L95.9375 648.5ZM99.6875 655.688L100.604 655.288L100.599 655.276L99.6875 655.688ZM102.625 664L101.662 664.271L101.663 664.275L102.625 664ZM104.563 673.25L103.572 673.39L103.573 673.397L103.574 673.404L104.563 673.25ZM94.5 716.375L95.2501 717.036L95.2541 717.032L94.5 716.375ZM82.4375 725.312L82.8414 726.227L82.8482 726.224L82.4375 725.312ZM67.3125 727.375C62.0193 727.375 57.1102 726.419 52.5745 724.515L51.8005 726.36C56.5982 728.373 61.7724 729.375 67.3125 729.375V727.375ZM52.5785 724.517C48.004 722.574 44.0617 719.764 40.7429 716.081L39.2571 717.419C42.7716 721.32 46.9543 724.301 51.7965 726.358L52.5785 724.517ZM40.7425 716.08C37.3827 712.356 34.7372 707.807 32.8171 702.415L30.9329 703.085C32.9295 708.693 35.7006 713.477 39.2575 717.42L40.7425 716.08ZM32.8179 702.417C30.9042 697.002 29.9375 690.805 29.9375 683.812H27.9375C27.9375 690.987 28.9291 697.415 30.9321 703.083L32.8179 702.417ZM29.9375 683.812C29.9375 680.77 30.1225 677.705 30.4929 674.619L28.5071 674.381C28.1275 677.545 27.9375 680.689 27.9375 683.812H29.9375ZM30.4929 674.619C30.8633 671.532 31.398 668.572 32.096 665.739L30.154 665.261C29.4354 668.178 28.8867 671.218 28.5071 674.381L30.4929 674.619ZM32.0999 665.723C32.7574 662.846 33.5574 660.161 34.4982 657.665L32.6268 656.96C31.651 659.548 30.8259 662.321 30.1501 665.277L32.0999 665.723ZM34.5032 657.652C35.4028 655.157 36.3975 653.01 37.4825 651.202L35.7675 650.173C34.6025 652.115 33.5556 654.384 32.6218 656.973L34.5032 657.652ZM36.1015 651.54L50.039 660.102L51.086 658.398L37.1485 649.835L36.1015 651.54ZM49.6554 658.829C47.7578 662.919 46.3585 666.815 45.4654 670.515L47.4096 670.985C48.2665 667.435 49.6172 663.664 51.4696 659.671L49.6554 658.829ZM45.466 670.513C44.572 674.174 44.125 677.9 44.125 681.688H46.125C46.125 678.059 46.553 674.492 47.409 670.987L45.466 670.513ZM44.125 681.688C44.125 686.025 44.699 689.947 45.8638 693.441L47.7612 692.809C46.676 689.553 46.125 685.85 46.125 681.688H44.125ZM45.8603 693.431C46.9779 696.912 48.5777 699.906 50.6726 702.394L52.2024 701.106C50.2973 698.844 48.8138 696.088 47.7647 692.819L45.8603 693.431ZM50.6715 702.393C52.7225 704.837 55.1735 706.72 58.0184 708.033L58.8566 706.217C56.2849 705.03 54.0692 703.33 52.2035 701.107L50.6715 702.393ZM58.0248 708.036C60.8314 709.308 63.8903 709.938 67.1875 709.938V707.938C64.1514 707.938 61.3769 707.359 58.8502 706.214L58.0248 708.036ZM67.1875 709.938C70.4947 709.938 73.5803 709.262 76.4305 707.903L75.5695 706.097C73.0031 707.321 70.2137 707.938 67.1875 707.938V709.938ZM76.4472 707.894C79.2429 706.497 81.6648 704.553 83.709 702.074L82.166 700.801C80.2935 703.072 78.0904 704.837 75.5528 706.106L76.4472 707.894ZM83.721 702.059C85.7203 699.538 87.2924 696.535 88.4487 693.066L86.5513 692.434C85.4576 695.715 83.9881 698.504 82.154 700.816L83.721 702.059ZM88.4532 693.052C89.5721 689.523 90.125 685.628 90.125 681.375H88.125C88.125 685.455 87.5945 689.143 86.5468 692.448L88.4532 693.052ZM90.125 681.375C90.125 676.697 89.4656 672.281 88.14 668.133L86.235 668.742C87.4928 672.678 88.125 676.887 88.125 681.375H90.125ZM88.1409 668.136C86.8253 663.977 85.0622 660.109 82.8503 656.536L81.1497 657.589C83.2711 661.016 84.9663 664.731 86.2341 668.739L88.1409 668.136ZM82.5235 657.915L96.461 649.352L95.414 647.648L81.4765 656.21L82.5235 657.915ZM95.0814 649.017C96.3924 651.188 97.6242 653.548 98.7761 656.099L100.599 655.276C99.4175 652.66 98.1493 650.229 96.7936 647.983L95.0814 649.017ZM98.7707 656.087C99.876 658.625 100.84 661.353 101.662 664.271L103.588 663.729C102.743 660.731 101.749 657.917 100.604 655.288L98.7707 656.087ZM101.663 664.275C102.483 667.144 103.12 670.182 103.572 673.39L105.553 673.11C105.088 669.818 104.433 666.69 103.587 663.725L101.663 664.275ZM103.574 673.404C104.066 676.558 104.313 679.84 104.313 683.25H106.313C106.313 679.743 106.059 676.358 105.551 673.096L103.574 673.404ZM104.313 683.25C104.313 690.202 103.366 696.402 101.492 701.863L103.383 702.512C105.342 696.806 106.313 690.381 106.313 683.25H104.313ZM101.492 701.863C99.6107 707.342 97.0245 711.954 93.7459 715.718L95.2541 717.032C98.7255 713.046 101.431 708.2 103.383 702.512L101.492 701.863ZM93.7499 715.714C90.4255 719.484 86.5197 722.377 82.0268 724.401L82.8482 726.224C87.6053 724.081 91.7412 721.016 95.2501 717.036L93.7499 715.714ZM82.0337 724.398C77.5458 726.379 72.643 727.375 67.3125 727.375V729.375C72.8987 729.375 78.0792 728.33 82.8413 726.227L82.0337 724.398ZM44.125 617.438V616.438H43.125V617.438H44.125ZM44.125 635.25V636.25H45.125V635.25H44.125ZM30.25 635.25H29.25V636.25H30.25V635.25ZM30.25 617.438H31.25V616.438H30.25V617.438ZM7.3125 617.438H6.3125V618.438H7.3125V617.438ZM7.3125 598.938V597.938H6.3125V598.938H7.3125ZM30.25 598.938V599.938H31.25V598.938H30.25ZM30.25 581.125V580.125H29.25V581.125H30.25ZM44.125 581.125H45.125V580.125H44.125V581.125ZM44.125 598.938H43.125V599.938H44.125V598.938ZM104 598.938H105V597.938H104V598.938ZM104 617.438V618.438H105V617.438H104ZM43.125 617.438V635.25H45.125V617.438H43.125ZM44.125 634.25H30.25V636.25H44.125V634.25ZM31.25 635.25V617.438H29.25V635.25H31.25ZM30.25 616.438H7.3125V618.438H30.25V616.438ZM8.3125 617.438V598.938H6.3125V617.438H8.3125ZM7.3125 599.938H30.25V597.938H7.3125V599.938ZM31.25 598.938V581.125H29.25V598.938H31.25ZM30.25 582.125H44.125V580.125H30.25V582.125ZM43.125 581.125V598.938H45.125V581.125H43.125ZM44.125 599.938H104V597.938H44.125V599.938ZM103 598.938V617.438H105V598.938H103ZM104 616.438H44.125V618.438H104V616.438ZM6.3125 520H5.3125V521H6.3125V520ZM6.3125 500.188L5.4266 499.724L5.3125 499.942V500.188H6.3125ZM38.1875 439.312L39.0734 439.776L39.8399 438.312H38.1875V439.312ZM6.3125 439.312H5.3125V440.312H6.3125V439.312ZM6.3125 419.5V418.5H5.3125V419.5H6.3125ZM104 419.5H105V418.5H104V419.5ZM104 439.312V440.312H105V439.312H104ZM59.1875 439.312V438.312H58.5807L58.3005 438.851L59.1875 439.312ZM27.5 500.188L26.613 499.726L25.8521 501.188H27.5V500.188ZM104 500.188H105V499.188H104V500.188ZM104 520V521H105V520H104ZM7.3125 520L7.3125 500.188H5.3125L5.3125 520H7.3125ZM7.1984 500.651L39.0734 439.776L37.3016 438.849L5.4266 499.724L7.1984 500.651ZM38.1875 438.312H6.3125V440.312H38.1875V438.312ZM7.3125 439.312V419.5H5.3125V439.312H7.3125ZM6.3125 420.5H104V418.5H6.3125V420.5ZM103 419.5V439.312H105V419.5H103ZM104 438.312H59.1875V440.312H104V438.312ZM58.3005 438.851L26.613 499.726L28.387 500.649L60.0745 439.774L58.3005 438.851ZM27.5 501.188H104V499.188H27.5V501.188ZM103 500.188V520H105V500.188H103ZM104 519H6.3125V521H104V519ZM71.0625 395.375L70.5952 396.259L71.0625 395.375ZM63.5625 388.438L64.3911 387.878L64.3859 387.87L63.5625 388.438ZM58.6875 376.938L59.6587 376.699L59.6571 376.693L58.6875 376.938ZM57.9375 346.5L58.9287 346.632L58.9289 346.631L57.9375 346.5ZM61 330.938L61.9683 331.187L62.322 329.815L60.9111 329.941L61 330.938ZM54.5625 333.062L55.0796 333.918L55.0876 333.914L54.5625 333.062ZM49.4375 338.125L50.262 338.691L50.2683 338.682L50.2745 338.672L49.4375 338.125ZM46.0625 345.875L47.0294 346.13L47.0303 346.127L46.0625 345.875ZM48.25 378.688L47.2885 378.962L47.2897 378.966L48.25 378.688ZM50.9375 385.938L51.2848 386.875L52.2996 386.499L51.845 385.517L50.9375 385.938ZM35.75 391.562L34.8086 391.9L35.1494 392.851L36.0973 392.5L35.75 391.562ZM33 382.625L32.0321 382.876L32.0329 382.879L33 382.625ZM30.875 372.812L31.8601 372.64L31.8579 372.628L30.875 372.812ZM39.5 322.375L40.1898 323.099L39.5 322.375ZM104 312.312H105V311.312H104V312.312ZM104 330.812V331.812H105V330.812H104ZM97.0625 330.812V329.812H95.316L96.2001 331.319L97.0625 330.812ZM100.25 337.125L99.3334 337.525L99.3362 337.531L100.25 337.125ZM104.625 353.125L103.634 353.259L103.635 353.266L103.636 353.274L104.625 353.125ZM103.438 378L104.398 378.277L104.399 378.275L103.438 378ZM90.5 395.5L90.9372 396.399L90.9447 396.396L90.9522 396.392L90.5 395.5ZM83.625 377.25L84.1106 378.124L84.1177 378.12L84.1247 378.116L83.625 377.25ZM86.5625 374.25L87.4062 374.787L87.412 374.778L87.4177 374.768L86.5625 374.25ZM88.625 369L89.594 369.247L89.5968 369.236L89.5994 369.225L88.625 369ZM88.5 351.75L87.5179 351.938L88.5 351.75ZM79 330.812L79.7282 330.127L79.4321 329.812H79V330.812ZM75.75 330.812V329.812H74.9911L74.7869 330.543L75.75 330.812ZM73.75 339.25L74.7312 339.443L74.7317 339.44L73.75 339.25ZM72.5 347.188L73.4912 347.32L73.4924 347.311L73.4935 347.302L72.5 347.188ZM71.8125 354.312L72.8109 354.369L72.811 354.368L71.8125 354.312ZM72.3125 368.75L73.2931 368.554L72.3125 368.75ZM74.1875 374.312L75.0713 373.845L75.066 373.835L75.0604 373.825L74.1875 374.312ZM80.75 396.688C77.3589 396.688 74.292 395.951 71.5298 394.491L70.5952 396.259C73.6664 397.882 77.0577 398.688 80.75 398.688V396.688ZM71.5298 394.491C68.7761 393.035 66.3944 390.843 64.3911 387.878L62.7339 388.997C64.8973 392.199 67.5156 394.631 70.5952 396.259L71.5298 394.491ZM64.3859 387.87C62.345 384.909 60.762 381.194 59.6587 376.699L57.7163 377.176C58.863 381.848 60.53 385.8 62.7391 389.005L64.3859 387.87ZM59.6571 376.693C58.5154 372.167 57.9375 366.877 57.9375 360.812H55.9375C55.9375 366.998 56.5263 372.458 57.7179 377.182L59.6571 376.693ZM57.9375 360.812C57.9375 356.32 58.2673 351.593 58.9287 346.632L56.9463 346.368C56.2744 351.407 55.9375 356.222 55.9375 360.812H57.9375ZM58.9289 346.631C59.5898 341.633 60.6026 336.485 61.9683 331.187L60.0317 330.688C58.6474 336.057 57.6185 341.284 56.9461 346.369L58.9289 346.631ZM60.9111 329.941C58.4259 330.163 56.1303 330.92 54.0374 332.211L55.0876 333.914C56.9113 332.788 58.9074 332.128 61.0889 331.934L60.9111 329.941ZM54.0454 332.207C51.9037 333.501 50.0904 335.299 48.6005 337.578L50.2745 338.672C51.618 336.617 53.2213 335.041 55.0796 333.918L54.0454 332.207ZM48.613 337.559C47.0765 339.798 45.9094 342.493 45.0947 345.623L47.0303 346.127C47.7989 343.174 48.8819 340.702 50.262 338.691L48.613 337.559ZM45.0956 345.62C44.2775 348.72 43.875 352.225 43.875 356.125H45.875C45.875 352.358 46.2641 349.03 47.0294 346.13L45.0956 345.62ZM43.875 356.125C43.875 358.247 44.0023 360.573 44.255 363.1L46.245 362.9C45.9977 360.427 45.875 358.169 45.875 356.125H43.875ZM44.255 363.1C44.508 365.63 44.8873 368.242 45.3921 370.934L47.3579 370.566C46.8627 367.925 46.492 365.37 46.245 362.9L44.255 363.1ZM45.3921 370.934C45.8979 373.632 46.53 376.308 47.2885 378.962L49.2115 378.413C48.47 375.817 47.8521 373.202 47.3579 370.566L45.3921 370.934ZM47.2897 378.966C48.0525 381.594 48.9655 384.058 50.03 386.358L51.845 385.517C50.8262 383.317 49.9475 380.948 49.2103 378.409L47.2897 378.966ZM50.5902 385L35.4027 390.625L36.0973 392.5L51.2848 386.875L50.5902 385ZM36.6914 391.225C35.7021 388.463 34.7938 385.512 33.9671 382.371L32.0329 382.879C32.8729 386.071 33.7979 389.078 34.8086 391.9L36.6914 391.225ZM33.9679 382.374C33.1415 379.192 32.4388 375.947 31.86 372.64L29.89 372.985C30.4779 376.344 31.1919 379.641 32.0321 382.876L33.9679 382.374ZM31.8579 372.628C31.2381 369.323 30.763 366.018 30.4325 362.713L28.4425 362.912C28.7787 366.274 29.2619 369.636 29.8921 372.997L31.8579 372.628ZM30.4325 362.713C30.1023 359.41 29.9375 356.214 29.9375 353.125H27.9375C27.9375 356.286 28.1061 359.548 28.4425 362.912L30.4325 362.713ZM29.9375 353.125C29.9375 339.491 33.4171 329.551 40.1898 323.099L38.8102 321.651C31.4996 328.616 27.9375 339.176 27.9375 353.125H29.9375ZM40.1898 323.099C46.9713 316.638 57.4652 313.312 71.875 313.312V311.312C57.2014 311.312 46.112 314.695 38.8102 321.651L40.1898 323.099ZM71.875 313.312H104V311.312H71.875V313.312ZM103 312.312V330.812H105V312.312H103ZM104 329.812H97.0625V331.812H104V329.812ZM96.2001 331.319C97.3026 333.197 98.3474 335.265 99.3335 337.525L101.167 336.725C100.153 334.401 99.0724 332.261 97.9249 330.306L96.2001 331.319ZM99.3362 337.531C100.314 339.732 101.174 342.145 101.912 344.771L103.838 344.229C103.076 341.522 102.186 339.018 101.164 336.719L99.3362 337.531ZM101.912 344.771C102.648 347.387 103.223 350.216 103.634 353.259L105.616 352.991C105.194 349.867 104.602 346.946 103.838 344.229L101.912 344.771ZM103.636 353.274C104.086 356.261 104.313 359.44 104.313 362.812H106.313C106.313 359.351 106.08 356.072 105.614 352.976L103.636 353.274ZM104.313 362.812C104.313 368.493 103.695 373.46 102.476 377.725L104.399 378.275C105.68 373.79 106.313 368.632 106.313 362.812H104.313ZM102.477 377.723C101.253 381.965 99.572 385.472 97.4527 388.271L99.0473 389.479C101.345 386.444 103.122 382.702 104.398 378.277L102.477 377.723ZM97.4527 388.271C95.3265 391.08 92.8573 393.184 90.0478 394.608L90.9522 396.392C94.0594 394.816 96.7568 392.504 99.0473 389.479L97.4527 388.271ZM90.0628 394.601C87.2058 395.989 84.1062 396.688 80.75 396.688V398.688C84.3938 398.688 87.7942 397.927 90.9372 396.399L90.0628 394.601ZM80.125 379.188C81.5143 379.188 82.8471 378.826 84.1106 378.124L83.1394 376.376C82.1529 376.924 81.1523 377.188 80.125 377.188V379.188ZM84.1247 378.116C85.3834 377.39 86.47 376.258 87.4062 374.787L85.7188 373.713C84.905 374.992 84.0333 375.86 83.1253 376.384L84.1247 378.116ZM87.4177 374.768C88.3169 373.285 89.0362 371.435 89.594 369.247L87.656 368.753C87.1305 370.815 86.4748 372.465 85.7073 373.732L87.4177 374.768ZM89.5994 369.225C90.1213 366.963 90.375 364.279 90.375 361.188H88.375C88.375 364.179 88.1287 366.704 87.6506 368.775L89.5994 369.225ZM90.375 361.188C90.375 357.877 90.0779 354.668 89.4821 351.562L87.5179 351.938C88.0888 354.915 88.375 357.998 88.375 361.188H90.375ZM89.4821 351.562C88.8898 348.473 88.1054 345.587 87.1269 342.907L85.2481 343.593C86.1863 346.163 86.9436 348.944 87.5179 351.938L89.4821 351.562ZM87.1269 342.907C86.1504 340.233 85.0214 337.802 83.7369 335.618L82.0131 336.632C83.2286 338.698 84.3079 341.017 85.2481 343.593L87.1269 342.907ZM83.7369 335.618C82.4587 333.445 81.1241 331.61 79.7282 330.127L78.2718 331.498C79.5426 332.848 80.7913 334.555 82.0131 336.632L83.7369 335.618ZM79 329.812H75.75V331.812H79V329.812ZM74.7869 330.543C73.9882 333.402 73.3153 336.241 72.7683 339.06L74.7317 339.44C75.2681 336.676 75.9284 333.89 76.7131 331.082L74.7869 330.543ZM72.7689 339.057C72.2225 341.831 71.8015 344.503 71.5065 347.073L73.4935 347.302C73.7818 344.789 74.1942 342.169 74.7311 339.443L72.7689 339.057ZM71.5088 347.055C71.1724 349.578 70.9406 351.979 70.814 354.257L72.811 354.368C72.9344 352.146 73.1609 349.797 73.4912 347.32L71.5088 347.055ZM70.8141 354.256C70.6884 356.477 70.625 358.435 70.625 360.125H72.625C72.625 358.482 72.6866 356.564 72.8109 354.369L70.8141 354.256ZM70.625 360.125C70.625 363.621 70.8561 366.567 71.3319 368.946L73.2931 368.554C72.8522 366.35 72.625 363.546 72.625 360.125H70.625ZM71.3319 368.946C71.8025 371.299 72.455 373.262 73.3146 374.8L75.0604 373.825C74.3366 372.529 73.7392 370.784 73.2931 368.554L71.3319 368.946ZM73.3037 374.78C74.1137 376.31 75.1284 377.481 76.3864 378.185L77.3636 376.44C76.5383 375.978 75.7613 375.148 75.0713 373.845L73.3037 374.78ZM76.3864 378.185C77.5679 378.847 78.8184 379.188 80.125 379.188V377.188C79.1816 377.188 78.2654 376.945 77.3636 376.44L76.3864 378.185ZM44.125 276.688V275.688H43.125V276.688H44.125ZM44.125 294.5V295.5H45.125V294.5H44.125ZM30.25 294.5H29.25V295.5H30.25V294.5ZM30.25 276.688H31.25V275.688H30.25V276.688ZM7.3125 276.688H6.3125V277.688H7.3125V276.688ZM7.3125 258.188V257.188H6.3125V258.188H7.3125ZM30.25 258.188V259.188H31.25V258.188H30.25ZM30.25 240.375V239.375H29.25V240.375H30.25ZM44.125 240.375H45.125V239.375H44.125V240.375ZM44.125 258.188H43.125V259.188H44.125V258.188ZM104 258.188H105V257.188H104V258.188ZM104 276.688V277.688H105V276.688H104ZM43.125 276.688V294.5H45.125V276.688H43.125ZM44.125 293.5H30.25V295.5H44.125V293.5ZM31.25 294.5V276.688H29.25V294.5H31.25ZM30.25 275.688H7.3125V277.688H30.25V275.688ZM8.3125 276.688V258.188H6.3125V276.688H8.3125ZM7.3125 259.188H30.25V257.188H7.3125V259.188ZM31.25 258.188V240.375H29.25V258.188H31.25ZM30.25 241.375H44.125V239.375H30.25V241.375ZM43.125 240.375L43.125 258.188H45.125L45.125 240.375H43.125ZM44.125 259.188H104V257.188H44.125V259.188ZM103 258.188V276.688H105V258.188H103ZM104 275.688H44.125V277.688H104V275.688ZM19.4375 219.188L20.3749 219.536L20.3808 219.52L20.3862 219.504L19.4375 219.188ZM17.3125 222.938L18.0632 223.598L18.0708 223.589L18.0782 223.581L17.3125 222.938ZM14.1875 225.375L14.5966 226.288L14.6158 226.279L14.6347 226.269L14.1875 225.375ZM6.5625 225.375L6.12775 226.276L6.13455 226.279L6.14139 226.282L6.5625 225.375ZM1.375 219.188L2.32095 218.863L2.31831 218.855L2.31555 218.848L1.375 219.188ZM1.375 209.188L2.31243 209.536L2.31833 209.52L2.32368 209.504L1.375 209.188ZM6.5625 203L6.97156 203.913L6.99083 203.904L7.00971 203.894L6.5625 203ZM14.1875 203L13.7528 203.901L13.7595 203.904L13.7664 203.907L14.1875 203ZM17.3125 205.375L18.0782 204.732L18.0708 204.723L18.0632 204.714L17.3125 205.375ZM19.4375 209.188L20.3834 208.863L20.3808 208.855L20.3781 208.848L19.4375 209.188ZM30.25 223.438H29.25V224.438H30.25V223.438ZM30.25 204.938V203.938H29.25V204.938H30.25ZM104 204.938H105V203.938H104V204.938ZM104 223.438V224.438H105V223.438H104ZM19.1875 214.188C19.1875 215.93 18.9499 217.488 18.4888 218.871L20.3862 219.504C20.9251 217.887 21.1875 216.112 21.1875 214.188H19.1875ZM18.5001 218.839C17.9927 220.205 17.3383 221.352 16.5468 222.294L18.0782 223.581C19.0367 222.44 19.799 221.086 20.3749 219.536L18.5001 218.839ZM16.5618 222.277C15.7248 223.228 14.7844 223.958 13.7403 224.481L14.6347 226.269C15.9239 225.625 17.0669 224.73 18.0632 223.598L16.5618 222.277ZM13.7784 224.462C12.6997 224.946 11.5683 225.188 10.375 225.188V227.188C11.8483 227.188 13.2586 226.887 14.5966 226.288L13.7784 224.462ZM10.375 225.188C9.13524 225.188 8.00938 224.944 6.98361 224.468L6.14139 226.282C7.44896 226.889 8.86476 227.188 10.375 227.188V225.188ZM6.99725 224.474C5.91799 223.953 4.98861 223.229 4.2032 222.294L2.6718 223.581C3.63639 224.729 4.79034 225.63 6.12775 226.276L6.99725 224.474ZM4.2032 222.294C3.41724 221.359 2.78629 220.22 2.32095 218.863L0.429054 219.512C0.963712 221.071 1.70776 222.433 2.6718 223.581L4.2032 222.294ZM2.31555 218.848C1.81862 217.472 1.5625 215.922 1.5625 214.188H-0.4375C-0.4375 216.12 -0.151956 217.903 0.434446 219.527L2.31555 218.848ZM1.5625 214.188C1.5625 212.408 1.81967 210.862 2.31243 209.536L0.437575 208.839C-0.152999 210.429 -0.4375 212.217 -0.4375 214.188H1.5625ZM2.32368 209.504C2.79021 208.104 3.42128 206.949 4.2032 206.018L2.6718 204.732C1.70372 205.884 0.959792 207.271 0.426317 208.871L2.32368 209.504ZM4.2032 206.018C4.9839 205.089 5.90473 204.391 6.97156 203.913L6.15344 202.087C4.8036 202.693 3.6411 203.578 2.6718 204.732L4.2032 206.018ZM7.00971 203.894C8.03 203.384 9.14661 203.125 10.375 203.125V201.125C8.85339 201.125 7.42833 201.449 6.11529 202.106L7.00971 203.894ZM10.375 203.125C11.5568 203.125 12.6791 203.382 13.7528 203.901L14.6222 202.099C13.2792 201.451 11.8599 201.125 10.375 201.125V203.125ZM13.7664 203.907C14.7976 204.386 15.7294 205.09 16.5618 206.036L18.0632 204.714C17.0623 203.577 15.9107 202.698 14.6086 202.093L13.7664 203.907ZM16.5468 206.018C17.3343 206.956 17.9885 208.119 18.4969 209.527L20.3781 208.848C19.8032 207.256 19.0407 205.878 18.0782 204.732L16.5468 206.018ZM18.4916 209.512C18.949 210.846 19.1875 212.4 19.1875 214.188H21.1875C21.1875 212.225 20.926 210.446 20.3834 208.863L18.4916 209.512ZM31.25 223.438V204.938H29.25V223.438H31.25ZM30.25 205.938H104V203.938H30.25V205.938ZM103 204.938V223.438H105V204.938H103ZM104 222.438H30.25V224.438H104V222.438ZM30.1875 191.375H29.1875V192.955L30.6153 192.279L30.1875 191.375ZM30.1875 169.938L29.7906 169.02L29.1875 169.28V169.938H30.1875ZM74.5625 150.75L74.1895 149.822L74.1775 149.827L74.1656 149.832L74.5625 150.75ZM87 145.75L87.373 146.678L89.681 145.75L87.373 144.822L87 145.75ZM74.5625 140.75L74.1656 141.668L74.1775 141.673L74.1895 141.678L74.5625 140.75ZM30.1875 121.562H29.1875V122.22L29.7906 122.48L30.1875 121.562ZM30.1875 100.125L30.6153 99.2211L29.1875 98.5453V100.125H30.1875ZM104 135.062H105V134.429L104.428 134.159L104 135.062ZM104 156.438L104.428 157.341L105 157.071V156.438H104ZM31.1875 191.375V169.938H29.1875V191.375H31.1875ZM30.5844 170.855L74.9594 151.668L74.1656 149.832L29.7906 169.02L30.5844 170.855ZM74.9355 151.678L87.373 146.678L86.627 144.822L74.1895 149.822L74.9355 151.678ZM87.373 144.822L74.9355 139.822L74.1895 141.678L86.627 146.678L87.373 144.822ZM74.9594 139.832L30.5844 120.645L29.7906 122.48L74.1656 141.668L74.9594 139.832ZM31.1875 121.562V100.125H29.1875V121.562H31.1875ZM29.7597 101.029L103.572 135.966L104.428 134.159L30.6153 99.2211L29.7597 101.029ZM103 135.062V156.438H105V135.062H103ZM103.572 155.534L29.7597 190.471L30.6153 192.279L104.428 157.341L103.572 155.534ZM52.5625 87.625L52.9725 86.7129L52.9694 86.7115L52.5625 87.625ZM32.0625 64.75L31.1256 65.0996L31.1265 65.1019L32.0625 64.75ZM32.125 26.75L33.0605 27.1034L33.0636 27.0951L32.125 26.75ZM40.75 12.375L41.48 13.0584L41.4836 13.0546L40.75 12.375ZM53.6875 3.3125L54.0749 4.23445L54.0814 4.23165L53.6875 3.3125ZM71.9375 0.1875L71.8876 1.18625L71.9125 1.1875H71.9375V0.1875ZM74.125 0.3125H75.125V-0.570282L74.249 -0.679778L74.125 0.3125ZM74.125 70.0625H73.125V71.4833L74.4625 71.0038L74.125 70.0625ZM80.1875 66.25L80.878 66.9734L80.8864 66.9652L80.1875 66.25ZM88.0625 50.3125L89.0404 50.522L89.0426 50.5109L88.0625 50.3125ZM87.8125 26L88.7916 25.7964L88.7896 25.7872L87.8125 26ZM84.375 13.9375L83.9704 13.023L83.1196 13.3995L83.4337 14.2751L84.375 13.9375ZM98.5 7.6875L99.4066 7.26547L98.9925 6.37604L98.0954 6.77302L98.5 7.6875ZM101.5 15.0625L102.447 14.7414L102.444 14.7321L101.5 15.0625ZM103.625 22.8125L104.605 22.6134L104.603 22.6019L103.625 22.8125ZM104.875 31.25L103.88 31.3481L103.88 31.3495L104.875 31.25ZM94.125 78L94.8976 78.6349L94.125 78ZM59.6875 19.75H60.6875V18.3715L59.3771 18.7994L59.6875 19.75ZM54 22.875L54.6088 23.6683L54.6191 23.6604L54.6292 23.6522L54 22.875ZM49.375 28.0625L50.2173 28.6016L50.2211 28.5955L50.2249 28.5894L49.375 28.0625ZM54.125 66.9375L53.4848 67.7057L53.4903 67.7103L53.4958 67.7147L54.125 66.9375ZM59.6875 70.0625L59.3652 71.0091L60.6875 71.4593V70.0625H59.6875ZM66.875 89.6875C62.0157 89.6875 57.3847 88.6964 52.9725 86.7129L52.1525 88.5371C56.8236 90.6369 61.7343 91.6875 66.875 91.6875V89.6875ZM52.9694 86.7115C48.5163 84.7279 44.5864 81.8734 41.176 78.1382L39.699 79.4868C43.2886 83.4182 47.4421 86.4388 52.1556 88.5385L52.9694 86.7115ZM41.176 78.1382C37.7729 74.4111 35.0434 69.8373 32.9985 64.3981L31.1265 65.1019C33.2483 70.746 36.1021 75.5473 39.699 79.4868L41.176 78.1382ZM32.9994 64.4004C30.9648 58.9478 29.9375 52.736 29.9375 45.75H27.9375C27.9375 52.9307 28.9935 59.3855 31.1256 65.0996L32.9994 64.4004ZM29.9375 45.75C29.9375 38.8088 30.9848 32.5979 33.0605 27.1034L31.1895 26.3966C29.0152 32.1521 27.9375 38.6079 27.9375 45.75H29.9375ZM33.0636 27.0951C35.1065 21.5383 37.9156 16.8659 41.48 13.0584L40.02 11.6916C36.2511 15.7175 33.3102 20.6284 31.1864 26.4049L33.0636 27.0951ZM41.4836 13.0546C45.0538 9.20041 49.2483 6.26238 54.0749 4.23443L53.3001 2.39057C48.21 4.52929 43.7796 7.63292 40.0164 11.6954L41.4836 13.0546ZM54.0814 4.23165C58.909 2.16267 64.0868 1.125 69.625 1.125V-0.875C63.8299 -0.875 58.3826 0.212333 53.2936 2.39335L54.0814 4.23165ZM69.625 1.125C70.3141 1.125 71.068 1.14528 71.8876 1.18625L71.9874 -0.811252C71.1403 -0.853609 70.3526 -0.875 69.625 -0.875V1.125ZM71.9375 1.1875C72.6948 1.1875 73.3819 1.2274 74.001 1.30478L74.249 -0.679778C73.5347 -0.769064 72.7635 -0.8125 71.9375 -0.8125V1.1875ZM73.125 0.3125L73.125 70.0625H75.125L75.125 0.3125H73.125ZM74.4625 71.0038C76.8127 70.1613 78.9517 68.812 80.878 66.9734L79.497 65.5266C77.7566 67.188 75.8539 68.3804 73.7875 69.1212L74.4625 71.0038ZM80.8864 66.9652C82.8112 65.0842 84.4568 62.7601 85.8319 60.0097L84.0431 59.1153C82.7516 61.6983 81.2305 63.8325 79.4886 65.5348L80.8864 66.9652ZM85.8319 60.0097C87.2096 57.2544 88.276 54.0886 89.0403 50.522L87.0847 50.103C86.349 53.5364 85.3321 56.5373 84.0431 59.1153L85.8319 60.0097ZM89.0426 50.5109C89.7664 46.9346 90.125 42.992 90.125 38.6875H88.125C88.125 42.883 87.7753 46.6904 87.0824 50.1141L89.0426 50.5109ZM90.125 38.6875C90.125 34.3683 89.6803 30.071 88.7916 25.7964L86.8334 26.2036C87.6947 30.3457 88.125 34.5067 88.125 38.6875H90.125ZM88.7896 25.7872C87.8642 21.5389 86.7067 17.4762 85.3163 13.5999L83.4337 14.2751C84.7933 18.0654 85.9274 22.0444 86.8354 26.2128L88.7896 25.7872ZM84.7796 14.852L98.9046 8.60198L98.0954 6.77302L83.9704 13.023L84.7796 14.852ZM97.5934 8.10953C98.7046 10.4965 99.6921 12.9242 100.556 15.3929L102.444 14.7321C101.558 12.2008 100.545 9.71187 99.4066 7.26547L97.5934 8.10953ZM100.553 15.3835C101.373 17.8033 102.072 20.3496 102.647 23.0231L104.603 22.6019C104.012 19.8587 103.293 17.2383 102.447 14.7415L100.553 15.3835ZM102.645 23.0116C103.179 25.642 103.591 28.4206 103.88 31.3481L105.87 31.1519C105.575 28.1627 105.154 25.3164 104.605 22.6134L102.645 23.0116ZM103.88 31.3495C104.168 34.2298 104.313 37.2797 104.313 40.5H106.313C106.313 37.2203 106.165 34.1036 105.87 31.1505L103.88 31.3495ZM104.313 40.5C104.313 48.7142 103.322 55.8782 101.36 62.0077L103.265 62.6173C105.303 56.2468 106.313 48.8692 106.313 40.5H104.313ZM101.36 62.0077C99.3909 68.1613 96.7159 73.2722 93.3524 77.3651L94.8976 78.6349C98.4508 74.3111 101.234 68.9637 103.265 62.6173L101.36 62.0077ZM93.3524 77.3651C89.9847 81.4631 86.0423 84.532 81.5231 86.5899L82.3519 88.4101C87.166 86.218 91.3486 82.9536 94.8976 78.6349L93.3524 77.3651ZM81.5231 86.5899C76.9928 88.6528 72.1141 89.6875 66.875 89.6875V91.6875C72.3859 91.6875 77.5489 90.5972 82.3519 88.4101L81.5231 86.5899ZM59.3771 18.7994C57.2139 19.5057 55.211 20.6081 53.3708 22.0978L54.6292 23.6522C56.289 22.3086 58.0777 21.3276 59.9979 20.7006L59.3771 18.7994ZM53.3912 22.0817C51.4959 23.5362 49.8749 25.3584 48.5251 27.5356L50.2249 28.5894C51.4584 26.5999 52.9208 24.9638 54.6088 23.6683L53.3912 22.0817ZM48.5327 27.5234C47.1373 29.7039 46.0579 32.2163 45.2852 35.0494L47.2148 35.5756C47.9421 32.9087 48.9461 30.5878 50.2173 28.6016L48.5327 27.5234ZM45.2852 35.0494C44.5086 37.8972 44.125 41.0079 44.125 44.375H46.125C46.125 41.1588 46.4914 38.2278 47.2148 35.5756L45.2852 35.0494ZM44.125 44.375C44.125 47.9496 44.5292 51.228 45.3484 54.203L47.2766 53.672C46.5125 50.897 46.125 47.8004 46.125 44.375H44.125ZM45.3484 54.203C46.1609 57.1538 47.2578 59.7645 48.6483 62.0241L50.3517 60.9759C49.0755 58.9021 48.0474 56.4712 47.2766 53.672L45.3484 54.203ZM48.6483 62.0241C50.0319 64.2724 51.6424 66.1704 53.4848 67.7057L54.7652 66.1693C53.1076 64.7879 51.6348 63.0609 50.3517 60.9759L48.6483 62.0241ZM53.4958 67.7147C55.3292 69.199 57.286 70.3013 59.3652 71.0091L60.0098 69.1159C58.1724 68.4904 56.4208 67.5094 54.7542 66.1603L53.4958 67.7147ZM60.6875 70.0625L60.6875 19.75H58.6875L58.6875 70.0625H60.6875Z" fill="#464646"/>
</svg>
