<svg width="106" height="367" viewBox="0 0 106 367" fill="none" xmlns="http://www.w3.org/2000/svg">
<path d="M6.3125 366.75H5.3125V368.285L6.71636 367.665L6.3125 366.75ZM6.3125 345.125L5.9251 344.203L5.3125 344.461V345.125H6.3125ZM69.375 318.625L69.0023 317.697L68.9949 317.7L68.9876 317.703L69.375 318.625ZM84.625 312.5L84.9977 313.428L87.5896 312.387L84.9259 311.546L84.625 312.5ZM69.375 307.688L68.9847 308.608L69.0286 308.627L69.0741 308.641L69.375 307.688ZM46.375 297.938L46.7653 297.017L46.3684 296.849L45.9735 297.022L46.375 297.938ZM6.3125 315.5H5.3125V317.03L6.71399 316.416L6.3125 315.5ZM6.3125 295.125L5.9597 294.189L5.3125 294.433V295.125H6.3125ZM25.375 287.938L25.7278 288.873L28.2993 287.904L25.706 286.994L25.375 287.938ZM6.3125 281.25H5.3125V281.959L5.98146 282.194L6.3125 281.25ZM6.3125 260.875L6.71399 259.959L5.3125 259.345V260.875H6.3125ZM46.375 278.438L45.9735 279.353L46.3679 279.526L46.7645 279.359L46.375 278.438ZM69.875 268.5L69.4982 267.574L69.4855 267.579L69.875 268.5ZM84.625 262.5L85.0018 263.426L87.598 262.37L84.9196 261.544L84.625 262.5ZM69.625 257.875L69.2373 258.797L69.283 258.816L69.3304 258.831L69.625 257.875ZM6.3125 231.25H5.3125V231.914L5.92485 232.172L6.3125 231.25ZM6.3125 209.625L6.71636 208.71L5.3125 208.09V209.625H6.3125ZM104 252.75H105V252.098L104.404 251.835L104 252.75ZM104 272.375L104.409 273.287L105 273.023V272.375H104ZM84.625 281.062L84.9765 281.999L85.0057 281.988L85.0341 281.975L84.625 281.062ZM65.8125 288.125L65.461 287.189L62.9673 288.125L65.461 289.061L65.8125 288.125ZM84.625 295.188L85.039 294.277L85.0082 294.263L84.9765 294.251L84.625 295.188ZM104 304H105V303.356L104.414 303.09L104 304ZM104 323.625L104.404 324.54L105 324.277V323.625H104ZM7.3125 366.75V345.125H5.3125V366.75H7.3125ZM6.6999 346.047L69.7624 319.547L68.9876 317.703L5.9251 344.203L6.6999 346.047ZM69.7477 319.553L84.9977 313.428L84.2523 311.572L69.0023 317.697L69.7477 319.553ZM84.9259 311.546L69.6759 306.734L69.0741 308.641L84.3241 313.454L84.9259 311.546ZM69.7653 306.767L46.7653 297.017L45.9847 298.858L68.9847 308.608L69.7653 306.767ZM45.9735 297.022L5.91101 314.584L6.71399 316.416L46.7765 298.853L45.9735 297.022ZM7.3125 315.5V295.125H5.3125V315.5H7.3125ZM6.6653 296.061L25.7278 288.873L25.0222 287.002L5.9597 294.189L6.6653 296.061ZM25.706 286.994L6.64354 280.306L5.98146 282.194L25.044 288.881L25.706 286.994ZM7.3125 281.25L7.3125 260.875H5.3125L5.3125 281.25H7.3125ZM5.91101 261.791L45.9735 279.353L46.7765 277.522L6.71399 259.959L5.91101 261.791ZM46.7645 279.359L70.2645 269.421L69.4855 267.579L45.9855 277.516L46.7645 279.359ZM70.2518 269.426L85.0018 263.426L84.2482 261.574L69.4982 267.574L70.2518 269.426ZM84.9196 261.544L69.9196 256.919L69.3304 258.831L84.3304 263.456L84.9196 261.544ZM70.0127 256.953L6.70015 230.328L5.92485 232.172L69.2373 258.797L70.0127 256.953ZM7.3125 231.25L7.3125 209.625H5.3125L5.3125 231.25H7.3125ZM5.90864 210.54L103.596 253.665L104.404 251.835L6.71636 208.71L5.90864 210.54ZM103 252.75V272.375H105V252.75H103ZM103.591 271.463L84.2159 280.15L85.0341 281.975L104.409 273.287L103.591 271.463ZM84.2735 280.126L65.461 287.189L66.164 289.061L84.9765 281.999L84.2735 280.126ZM65.461 289.061L84.2735 296.124L84.9765 294.251L66.164 287.189L65.461 289.061ZM84.211 296.098L103.586 304.91L104.414 303.09L85.039 294.277L84.211 296.098ZM103 304V323.625H105V304H103ZM103.596 322.71L5.90864 365.835L6.71636 367.665L104.404 324.54L103.596 322.71ZM52.5625 197.25L52.9725 196.338L52.9694 196.337L52.5625 197.25ZM32.0625 174.375L31.1256 174.725L31.1265 174.727L32.0625 174.375ZM32.125 136.375L33.0605 136.728L33.0636 136.72L32.125 136.375ZM40.75 122L41.48 122.683L41.4836 122.68L40.75 122ZM53.6875 112.938L54.0749 113.859L54.0814 113.857L53.6875 112.938ZM71.9375 109.812L71.8876 110.811L71.9125 110.812H71.9375V109.812ZM74.125 109.938H75.125V109.055L74.249 108.945L74.125 109.938ZM74.125 179.688H73.125V181.108L74.4625 180.629L74.125 179.688ZM80.1875 175.875L80.878 176.598L80.8864 176.59L80.1875 175.875ZM88.0625 159.938L89.0404 160.147L89.0426 160.136L88.0625 159.938ZM87.8125 135.625L88.7916 135.421L88.7896 135.412L87.8125 135.625ZM84.375 123.562L83.9704 122.648L83.1196 123.024L83.4337 123.9L84.375 123.562ZM98.5 117.312L99.4066 116.89L98.9925 116.001L98.0954 116.398L98.5 117.312ZM101.5 124.688L102.447 124.366L102.444 124.357L101.5 124.688ZM103.625 132.438L104.605 132.238L104.603 132.227L103.625 132.438ZM104.875 140.875L103.88 140.973L103.88 140.975L104.875 140.875ZM94.125 187.625L94.8976 188.26L94.125 187.625ZM59.6875 129.375H60.6875V127.997L59.3771 128.424L59.6875 129.375ZM54 132.5L54.6088 133.293L54.6191 133.285L54.6292 133.277L54 132.5ZM49.375 137.688L50.2173 138.227L50.2211 138.221L50.2249 138.214L49.375 137.688ZM54.125 176.562L53.4848 177.331L53.4903 177.335L53.4958 177.34L54.125 176.562ZM59.6875 179.688L59.3652 180.634L60.6875 181.084V179.688H59.6875ZM66.875 199.312C62.0157 199.312 57.3847 198.321 52.9725 196.338L52.1525 198.162C56.8236 200.262 61.7343 201.312 66.875 201.312V199.312ZM52.9694 196.337C48.5163 194.353 44.5864 191.498 41.176 187.763L39.699 189.112C43.2886 193.043 47.4421 196.064 52.1556 198.163L52.9694 196.337ZM41.176 187.763C37.7729 184.036 35.0434 179.462 32.9985 174.023L31.1265 174.727C33.2483 180.371 36.1021 185.172 39.699 189.112L41.176 187.763ZM32.9994 174.025C30.9648 168.573 29.9375 162.361 29.9375 155.375H27.9375C27.9375 162.556 28.9935 169.011 31.1256 174.725L32.9994 174.025ZM29.9375 155.375C29.9375 148.434 30.9848 142.223 33.0605 136.728L31.1895 136.022C29.0152 141.777 27.9375 148.233 27.9375 155.375H29.9375ZM33.0636 136.72C35.1065 131.163 37.9156 126.491 41.48 122.683L40.02 121.317C36.2511 125.342 33.3102 130.253 31.1864 136.03L33.0636 136.72ZM41.4836 122.68C45.0538 118.825 49.2483 115.887 54.0749 113.859L53.3001 112.016C48.21 114.154 43.7796 117.258 40.0164 121.32L41.4836 122.68ZM54.0814 113.857C58.909 111.788 64.0868 110.75 69.625 110.75V108.75C63.8299 108.75 58.3826 109.837 53.2936 112.018L54.0814 113.857ZM69.625 110.75C70.3141 110.75 71.068 110.77 71.8876 110.811L71.9874 108.814C71.1403 108.771 70.3526 108.75 69.625 108.75V110.75ZM71.9375 110.812C72.6948 110.812 73.3819 110.852 74.001 110.93L74.249 108.945C73.5347 108.856 72.7635 108.812 71.9375 108.812V110.812ZM73.125 109.938V179.688H75.125V109.938H73.125ZM74.4625 180.629C76.8127 179.786 78.9517 178.437 80.878 176.598L79.497 175.152C77.7566 176.813 75.8539 178.005 73.7875 178.746L74.4625 180.629ZM80.8864 176.59C82.8112 174.709 84.4568 172.385 85.8319 169.635L84.0431 168.74C82.7516 171.323 81.2305 173.457 79.4886 175.16L80.8864 176.59ZM85.8319 169.635C87.2096 166.879 88.276 163.714 89.0403 160.147L87.0847 159.728C86.349 163.161 85.3321 166.162 84.0431 168.74L85.8319 169.635ZM89.0426 160.136C89.7664 156.56 90.125 152.617 90.125 148.312H88.125C88.125 152.508 87.7753 156.315 87.0824 159.739L89.0426 160.136ZM90.125 148.312C90.125 143.993 89.6803 139.696 88.7916 135.421L86.8334 135.829C87.6947 139.971 88.125 144.132 88.125 148.312H90.125ZM88.7896 135.412C87.8642 131.164 86.7067 127.101 85.3163 123.225L83.4337 123.9C84.7933 127.69 85.9274 131.669 86.8354 135.838L88.7896 135.412ZM84.7796 124.477L98.9046 118.227L98.0954 116.398L83.9704 122.648L84.7796 124.477ZM97.5934 117.735C98.7046 120.121 99.6921 122.549 100.556 125.018L102.444 124.357C101.558 121.826 100.545 119.337 99.4066 116.89L97.5934 117.735ZM100.553 125.009C101.373 127.428 102.072 129.975 102.647 132.648L104.603 132.227C104.012 129.484 103.293 126.863 102.447 124.366L100.553 125.009ZM102.645 132.637C103.179 135.267 103.591 138.046 103.88 140.973L105.87 140.777C105.575 137.788 105.154 134.941 104.605 132.238L102.645 132.637ZM103.88 140.975C104.168 143.855 104.313 146.905 104.313 150.125H106.312C106.312 146.845 106.165 143.729 105.87 140.775L103.88 140.975ZM104.313 150.125C104.313 158.339 103.322 165.503 101.36 171.633L103.265 172.242C105.303 165.872 106.312 158.494 106.312 150.125H104.313ZM101.36 171.633C99.3909 177.786 96.7159 182.897 93.3524 186.99L94.8976 188.26C98.4508 183.936 101.234 178.589 103.265 172.242L101.36 171.633ZM93.3524 186.99C89.9847 191.088 86.0423 194.157 81.5231 196.215L82.3519 198.035C87.166 195.843 91.3486 192.579 94.8976 188.26L93.3524 186.99ZM81.5231 196.215C76.9928 198.278 72.1141 199.312 66.875 199.312V201.312C72.3859 201.312 77.5489 200.222 82.3519 198.035L81.5231 196.215ZM59.3771 128.424C57.2139 129.131 55.211 130.233 53.3708 131.723L54.6292 133.277C56.289 131.934 58.0777 130.953 59.9979 130.326L59.3771 128.424ZM53.3912 131.707C51.4959 133.161 49.8749 134.983 48.5251 137.161L50.2249 138.214C51.4584 136.225 52.9208 134.589 54.6088 133.293L53.3912 131.707ZM48.5327 137.148C47.1373 139.329 46.0579 141.841 45.2852 144.674L47.2148 145.201C47.9421 142.534 48.9461 140.213 50.2173 138.227L48.5327 137.148ZM45.2852 144.674C44.5086 147.522 44.125 150.633 44.125 154H46.125C46.125 150.784 46.4914 147.853 47.2148 145.201L45.2852 144.674ZM44.125 154C44.125 157.575 44.5292 160.853 45.3484 163.828L47.2766 163.297C46.5125 160.522 46.125 157.425 46.125 154H44.125ZM45.3484 163.828C46.1609 166.779 47.2578 169.39 48.6483 171.649L50.3517 170.601C49.0755 168.527 48.0474 166.096 47.2766 163.297L45.3484 163.828ZM48.6483 171.649C50.0319 173.897 51.6424 175.795 53.4848 177.331L54.7652 175.794C53.1076 174.413 51.6348 172.686 50.3517 170.601L48.6483 171.649ZM53.4958 177.34C55.3292 178.824 57.286 179.926 59.3652 180.634L60.0098 178.741C58.1724 178.115 56.4208 177.134 54.7542 175.785L53.4958 177.34ZM60.6875 179.688V129.375H58.6875V179.688H60.6875ZM0.3125 90.3125H-0.6875V91.3125H0.3125V90.3125ZM0.3125 71.8125V70.8125H-0.6875V71.8125H0.3125ZM37.1875 71.8125V72.8125H39.0961L38.0097 71.2433L37.1875 71.8125ZM29.625 51.0625L30.6134 50.9104L30.6122 50.903L30.611 50.8956L29.625 51.0625ZM31.6875 25.75L32.6308 26.082L32.6316 26.0797L31.6875 25.75ZM39.4375 12.25L38.6901 11.5856L39.4375 12.25ZM51.4375 3.5L51.8452 4.41319L51.855 4.40868L51.4375 3.5ZM82.75 3.625L83.1746 2.71963L83.1716 2.71821L82.75 3.625ZM94.875 12.8125L95.6331 12.1604L95.6325 12.1597L94.875 12.8125ZM102.625 26.6875L103.573 26.369L103.571 26.3647L102.625 26.6875ZM104.813 52L105.804 52.128L105.805 52.126L104.813 52ZM103.438 59.5L104.409 59.7385L104.41 59.7346L103.438 59.5ZM101.375 66.25L102.303 66.6214L102.308 66.6103L102.312 66.5991L101.375 66.25ZM98.6875 71.8125L97.8261 71.3045L96.9368 72.8125H98.6875V71.8125ZM104 71.8125H105V70.8125H104V71.8125ZM104 90.3125V91.3125H105V90.3125H104ZM80.8125 71.8125V72.8125H81.2931L81.5934 72.4372L80.8125 71.8125ZM88.6875 52.9375L89.6763 53.0868L89.6777 53.0776L89.6789 53.0684L88.6875 52.9375ZM87.4375 35.1875L88.3838 34.8641L88.3814 34.8571L87.4375 35.1875ZM82.6875 26.8125L81.934 27.4701L81.9401 27.4769L82.6875 26.8125ZM58.4375 21.5625L58.8437 22.4764L58.8556 22.4709L58.4375 21.5625ZM51.5625 26.6875L52.3037 27.3588L52.3103 27.3515L52.3168 27.344L51.5625 26.6875ZM46.875 34.75L47.8118 35.0998L47.8146 35.0923L47.8173 35.0848L46.875 34.75ZM45.875 52.8125L46.8586 52.6322L46.8572 52.6243L46.8556 52.6164L45.875 52.8125ZM47.875 60.0625L46.9387 60.4136L46.9408 60.4192L47.875 60.0625ZM51.0625 66.5625L50.2096 67.0847L50.2145 67.0925L51.0625 66.5625ZM55.25 71.8125L54.5526 72.5292L54.8438 72.8125H55.25V71.8125ZM1.3125 90.3125V71.8125H-0.6875V90.3125H1.3125ZM0.3125 72.8125H37.1875V70.8125H0.3125V72.8125ZM38.0097 71.2433C36.9256 69.6774 35.8915 67.8153 34.911 65.65L33.089 66.475C34.1085 68.7263 35.1994 70.6976 36.3653 72.3817L38.0097 71.2433ZM34.911 65.65C33.9316 63.4873 33.0723 61.156 32.3341 58.6545L30.4159 59.2205C31.1777 61.8024 32.0684 64.221 33.089 66.475L34.911 65.65ZM32.3341 58.6545C31.5972 56.1572 31.0235 53.576 30.6134 50.9104L28.6366 51.2146C29.0599 53.9657 29.6528 56.6345 30.4159 59.2205L32.3341 58.6545ZM30.611 50.8956C30.1618 48.2417 29.9375 45.5891 29.9375 42.9375H27.9375C27.9375 45.7025 28.1715 48.4667 28.639 51.2294L30.611 50.8956ZM29.9375 42.9375C29.9375 36.7858 30.8396 31.1706 32.6308 26.082L30.7442 25.418C28.8687 30.746 27.9375 36.5892 27.9375 42.9375H29.9375ZM32.6316 26.0797C34.4265 20.9396 36.9473 16.5567 40.1849 12.9144L38.6901 11.5856C35.261 15.4433 32.6151 20.0604 30.7434 25.4203L32.6316 26.0797ZM40.1849 12.9144C43.4221 9.27248 47.3056 6.43971 51.8452 4.41314L51.0298 2.58686C46.236 4.72696 42.1195 7.72752 38.6901 11.5856L40.1849 12.9144ZM51.855 4.40868C56.3358 2.34992 61.3163 1.3125 66.8125 1.3125V-0.6875C61.0587 -0.6875 55.7892 0.400083 51.02 2.59132L51.855 4.40868ZM66.8125 1.3125C72.5597 1.3125 77.7257 2.39194 82.3284 4.53179L83.1716 2.71821C78.2743 0.441394 72.8153 -0.6875 66.8125 -0.6875V1.3125ZM82.3254 4.53036C86.9069 6.67925 90.835 9.65596 94.1175 13.4653L95.6325 12.1597C92.165 8.13571 88.0097 4.98742 83.1746 2.71964L82.3254 4.53036ZM94.1169 13.4646C97.3582 17.2327 99.8818 21.7427 101.679 27.0103L103.571 26.3647C101.702 20.8823 99.0584 16.1423 95.6331 12.1604L94.1169 13.4646ZM101.677 27.0059C103.431 32.2259 104.313 37.9089 104.313 44.0625H106.313C106.313 37.7161 105.403 31.8157 103.573 26.3691L101.677 27.0059ZM104.313 44.0625C104.313 46.6874 104.148 49.2911 103.82 51.874L105.805 52.126C106.143 49.4589 106.313 46.771 106.313 44.0625H104.313ZM103.821 51.872C103.492 54.4212 103.04 56.8855 102.465 59.2654L104.41 59.7346C105.002 57.2812 105.467 54.7455 105.804 52.128L103.821 51.872ZM102.466 59.2615C101.892 61.6019 101.215 63.8148 100.438 65.9009L102.312 66.5991C103.118 64.4352 103.817 62.1481 104.409 59.7385L102.466 59.2615ZM100.447 65.8786C99.6286 67.9233 98.7544 69.7306 97.8261 71.3045L99.5489 72.3205C100.537 70.6444 101.455 68.7433 102.303 66.6214L100.447 65.8786ZM98.6875 72.8125H104V70.8125H98.6875V72.8125ZM103 71.8125V90.3125H105V71.8125H103ZM104 89.3125H0.3125V91.3125H104V89.3125ZM81.5934 72.4372C83.136 70.5089 84.4453 68.4705 85.5194 66.3222L83.7306 65.4278C82.7214 67.4462 81.489 69.3661 80.0316 71.1878L81.5934 72.4372ZM85.5194 66.3222C86.5851 64.191 87.46 62.0148 88.1433 59.7941L86.2317 59.2059C85.5817 61.3185 84.7483 63.3924 83.7306 65.4278L85.5194 66.3222ZM88.1433 59.7941C88.8243 57.5807 89.3355 55.3448 89.6763 53.0868L87.6987 52.7882C87.3729 54.9468 86.884 57.0859 86.2317 59.2059L88.1433 59.7941ZM89.6789 53.0684C89.9759 50.8197 90.125 48.63 90.125 46.5H88.125C88.125 48.5367 87.9824 50.6387 87.6961 52.8066L89.6789 53.0684ZM90.125 46.5C90.125 42.1635 89.5512 38.28 88.3838 34.8641L86.4912 35.5109C87.5738 38.6783 88.125 42.3365 88.125 46.5H90.125ZM88.3814 34.8571C87.179 31.4217 85.5352 28.5109 83.4349 26.1481L81.9401 27.4769C83.8398 29.6141 85.3627 32.2866 86.4936 35.5179L88.3814 34.8571ZM83.4409 26.155C81.348 23.7569 78.8767 21.9183 76.0324 20.6493L75.2176 22.4757C77.7899 23.6234 80.027 25.2848 81.9341 27.47L83.4409 26.155ZM76.0324 20.6493C73.1873 19.3799 70.1099 18.75 66.8125 18.75L66.8125 20.75C69.8484 20.75 72.646 21.3284 75.2176 22.4757L76.0324 20.6493ZM66.8125 18.75C63.7133 18.75 60.7787 19.384 58.0194 20.6541L58.8556 22.4709C61.3463 21.3244 63.995 20.75 66.8125 20.75L66.8125 18.75ZM58.0314 20.6487C55.2677 21.877 52.8586 23.6752 50.8082 26.031L52.3168 27.344C54.183 25.1998 56.3573 23.5814 58.8436 22.4763L58.0314 20.6487ZM50.8213 26.0162C48.7221 28.3341 47.0962 31.1401 45.9327 34.4152L47.8173 35.0848C48.9038 32.0266 50.4029 29.4576 52.3037 27.3588L50.8213 26.0162ZM45.9382 34.4002C44.7231 37.6547 44.125 41.2968 44.125 45.3125H46.125C46.125 41.4949 46.6935 38.0953 47.8118 35.0998L45.9382 34.4002ZM44.125 45.3125C44.125 47.8796 44.3818 50.4453 44.8944 53.0086L46.8556 52.6164C46.3682 50.1797 46.125 47.7454 46.125 45.3125H44.125ZM44.8914 52.9928C45.3602 55.5499 46.0425 58.0238 46.9387 60.4136L48.8113 59.7114C47.9575 57.4346 47.3065 55.0751 46.8586 52.6322L44.8914 52.9928ZM46.9408 60.4192C47.8372 62.767 48.9267 64.9892 50.2096 67.0847L51.9154 66.0403C50.6983 64.0525 49.6628 61.9413 48.8092 59.7058L46.9408 60.4192ZM50.2145 67.0925C51.503 69.1541 52.9482 70.9682 54.5526 72.5292L55.9474 71.0958C54.4684 69.6568 53.122 67.9709 51.9105 66.0325L50.2145 67.0925ZM55.25 72.8125H80.8125V70.8125H55.25V72.8125Z" fill="#464646"/>
</svg>
